<?xml version="1.0" encoding="UTF-8" standalone="no"?>
<!-- Created with Inkscape (http://www.inkscape.org/) -->

<svg
   xmlns:dc="http://purl.org/dc/elements/1.1/"
   xmlns:cc="http://creativecommons.org/ns#"
   xmlns:rdf="http://www.w3.org/1999/02/22-rdf-syntax-ns#"
   xmlns:svg="http://www.w3.org/2000/svg"
   xmlns="http://www.w3.org/2000/svg"
   xmlns:sodipodi="http://sodipodi.sourceforge.net/DTD/sodipodi-0.dtd"
   xmlns:inkscape="http://www.inkscape.org/namespaces/inkscape"
   id="svg2"
   sodipodi:version="0.32"
   inkscape:version="0.48.5 r10040"
   width="1052.3622"
   height="744.09448"
   version="1.0"
   sodipodi:docname="Marvel_balloon.svg"
   inkscape:output_extension="org.inkscape.output.svg.inkscape">
  <metadata
     id="metadata7">
    <rdf:RDF>
      <cc:Work
         rdf:about="">
        <dc:format>image/svg+xml</dc:format>
        <dc:type
           rdf:resource="http://purl.org/dc/dcmitype/StillImage" />
        <dc:title></dc:title>
      </cc:Work>
    </rdf:RDF>
  </metadata>
  <defs
     id="defs5">
    <inkscape:perspective
       sodipodi:type="inkscape:persp3d"
       inkscape:vp_x="0 : 526.18109 : 1"
       inkscape:vp_y="0 : 1000 : 0"
       inkscape:vp_z="744.09448 : 526.18109 : 1"
       inkscape:persp3d-origin="372.04724 : 350.78739 : 1"
       id="perspective9" />
  </defs>
  <sodipodi:namedview
     inkscape:window-height="1017"
     inkscape:window-width="1920"
     inkscape:pageshadow="2"
     inkscape:pageopacity="1"
     guidetolerance="10.0"
     gridtolerance="10.0"
     objecttolerance="10.0"
     borderopacity="1.0"
     bordercolor="#666666"
     pagecolor="#8dff3a"
     id="base"
     showgrid="false"
     inkscape:zoom="0.36634866"
     inkscape:cx="-442.0702"
     inkscape:cy="361.32966"
     inkscape:window-x="-9"
     inkscape:window-y="-9"
     inkscape:current-layer="svg2"
     inkscape:window-maximized="1" />
  <g
     id="g3810"
     transform="matrix(1.849584,0,0,1.849584,35.75865,-614.68858)">
    <path
       inkscape:connector-curvature="0"
       id="path2445"
       d="m 258.37544,359.6967 c -31.3709,-0.0744 -57.98786,3.8476 -87.69608,12.79434 -41.94577,12.63216 -75.690485,31.63425 -100.196325,56.39349 -21.78525,22.01046 -32.639562,42.65629 -34.553809,65.7432 -3.826346,46.14714 9.023054,72.93779 53.725182,111.99962 9.723655,8.49678 18.187812,16.27215 18.782762,17.28876 1.34526,2.29869 -2.17963,11.77296 -18.588458,49.93071 -7.094268,16.49729 -12.921247,30.50651 -12.921247,31.13287 0,0.6264 21.683764,-12.08614 48.155115,-28.24595 l 48.12274,-29.36135 18.68561,3.60866 c 28.25511,5.48355 47.6328,6.93615 80.92781,6.06911 32.14138,-0.837 47.04239,-2.84306 72.83178,-9.77618 69.86238,-18.78164 117.41574,-57.48558 134.65299,-109.60481 2.83266,-8.56464 3.23488,-12.62393 3.17363,-30.64078 -0.0671,-19.78096 -0.28675,-21.34082 -4.56615,-32.77319 -24.36685,-65.09593 -106.72114,-110.6338 -206.77232,-114.29605 -4.69929,-0.17201 -9.28169,-0.25181 -13.76323,-0.26245 z"
       style="fill:#ffffff;fill-opacity:1;fill-rule:nonzero;stroke:none" />
    <path
       inkscape:connector-curvature="0"
       style="fill:#000000;fill-opacity:1"
       d="m 64.889314,715.88978 c -1.46157,-1.04506 -2.25,-2.64285 -2.25,-4.55978 0,-1.65102 8.59013,-22.48582 19.5,-47.29602 10.725,-24.38977 19.499996,-44.83919 19.499996,-45.44317 0,-0.60397 -4.6125,-4.79637 -10.249996,-9.31645 -12.48338,-10.00901 -29.46219,-26.91311 -36.54077,-36.37997 -6.166791,-8.24746 -15.090651,-25.31431 -18.039251,-34.5 -4.1335,-12.87696 -5.4307,-23.37044 -4.88298,-39.5 0.64714,-19.05743 2.83175,-28.08413 10.64872,-44 7.12227,-14.50142 14.687841,-24.9453 26.969081,-37.22945 36.395436,-36.40406 95.981636,-62.0028 160.274596,-68.85532 18.53191,-1.97518 54.45669,-1.4514 73.8206,1.0763 38.49364,5.02482 71.9456,14.99302 100.80373,30.03803 22.98176,11.9814 37.6869,22.83845 53.59801,39.57228 14.29716,15.03643 23.13882,29.16701 29.3447,46.89816 4.44358,12.69601 5.75709,20.95905 5.72264,36 -0.0469,20.48607 -3.30324,33.90039 -12.9871,53.5 -20.91461,42.33012 -69.61843,76.96755 -130.72763,92.97155 -30.36101,7.9513 -59.01719,11.07477 -93.75435,10.21903 -24.48441,-0.60316 -37.08298,-1.92436 -60.3212,-6.32584 l -13.82119,-2.61783 -23.67881,14.32422 c -13.02334,7.87832 -37.6288,22.81629 -54.6788,33.19549 -17.049996,10.3792 -32.124996,19.08869 -33.499996,19.35442 -1.41659,0.27377 -3.47506,-0.21405 -4.75,-1.12565 z m 66.971186,-51.11901 47.18211,-28.62361 16.04835,3.1287 c 28.81577,5.61776 38.37242,6.51494 69.54835,6.52917 30.55522,0.014 43.13994,-1.12751 65.71814,-5.96081 42.38921,-9.07423 76.17613,-24.44362 103.22442,-46.95592 23.08979,-19.21765 39.07825,-44.29727 44.62166,-69.99391 2.56235,-11.87781 2.41705,-31.576 -0.31348,-42.5 -15.0759,-60.31414 -84.42858,-106.34434 -177.25074,-117.64346 -22.02264,-2.68079 -62.79448,-2.45618 -81.5,0.44899 -78.97812,12.26611 -143.580276,50.96356 -165.966666,99.41597 -6.758911,14.62877 -8.036091,21.17098 -7.960821,40.7785 0.06165,16.0625 0.29059,18.23929 2.78707,26.5 7.918651,26.20244 23.168051,46.15405 54.390417,71.16193 12.46968,9.98771 14.25,11.77821 14.25,14.3315 0,1.6048 -5.90299,16.32529 -13.11775,32.7122 -17.922496,40.70741 -19.879516,45.29437 -19.324776,45.29437 0.26488,0 21.713546,-12.88063 47.663716,-28.62362 z"
       id="path2386" />
    <text
       sodipodi:linespacing="125%"
       id="text2987"
       y="555.0929"
       x="87.392525"
       style="font-size:179.20817566px;font-style:normal;font-variant:normal;font-weight:normal;font-stretch:normal;line-height:125%;letter-spacing:0px;word-spacing:0px;fill:#000000;fill-opacity:1;stroke:none;font-family:VTC Letterer Pro;-inkscape-font-specification:VTC Letterer Pro"
       xml:space="preserve"><tspan
         y="555.0929"
         x="87.392525"
         id="tspan2989"
         sodipodi:role="line">R$ 30<tspan
   id="tspan3783"
   style="font-size:58.24731827px" /></tspan></text>
    <text
       sodipodi:linespacing="125%"
       id="text2987-1"
       y="436.20889"
       x="142.00102"
       style="font-size:74.28289032px;font-style:normal;font-variant:normal;font-weight:normal;font-stretch:normal;line-height:125%;letter-spacing:0px;word-spacing:0px;fill:#000000;fill-opacity:1;stroke:none;font-family:VTC Letterer Pro;-inkscape-font-specification:VTC Letterer Pro"
       xml:space="preserve"><tspan
         y="436.20889"
         x="142.00102"
         id="tspan2989-7"
         sodipodi:role="line">Camiseta</tspan></text>
    <text
       sodipodi:linespacing="80.000001%"
       id="text2987-1-4"
       y="590.13855"
       x="97.500755"
       style="font-size:37.22348022px;font-style:normal;font-variant:normal;font-weight:normal;font-stretch:normal;line-height:80.00000119%;letter-spacing:0px;word-spacing:0px;fill:#000000;fill-opacity:1;stroke:none;font-family:VTC Letterer Pro;-inkscape-font-specification:VTC Letterer Pro"
       xml:space="preserve"><tspan
         style="line-height:80.00000119%"
         id="tspan3806"
         y="590.13855"
         x="97.500755"
         sodipodi:role="line">Ajude a manter o clube</tspan></text>
  </g>
</svg>
