<?xml version="1.0" encoding="UTF-8" standalone="no"?>
<!-- Created with Inkscape (http://www.inkscape.org/) -->

<svg
   xmlns:dc="http://purl.org/dc/elements/1.1/"
   xmlns:cc="http://creativecommons.org/ns#"
   xmlns:rdf="http://www.w3.org/1999/02/22-rdf-syntax-ns#"
   xmlns:svg="http://www.w3.org/2000/svg"
   xmlns="http://www.w3.org/2000/svg"
   xmlns:xlink="http://www.w3.org/1999/xlink"
   xmlns:sodipodi="http://sodipodi.sourceforge.net/DTD/sodipodi-0.dtd"
   xmlns:inkscape="http://www.inkscape.org/namespaces/inkscape"
   width="210mm"
   height="297mm"
   id="svg3049"
   version="1.1"
   inkscape:version="0.48.5 r10040"
   sodipodi:docname="sabugosa_logo_verde.svg">
  <defs
     id="defs3">
    <clipPath
       id="clipPath3919">
      <path
         d="m 0,0 0,8420 5950,0 L 5950,0 0,0 z"
         id="path3921" />
    </clipPath>
    <clipPath
       id="clipPath3925">
      <path
         d="m 5490.52,4233.05 c -0.49,3.47 0.66,5.32 2.96,5.97 4.99,-11.83 8.04,-6.13 17.94,-2.98 0.46,-7.43 10.1,-0.87 11.95,0 10.9,-10.68 23.79,-1.25 38.84,0 3.54,-9.38 10.22,-1.04 17.91,-8.97 4.48,3.49 7.29,8.64 14.93,8.97 5.3,-6.64 12.22,-11.66 26.88,-8.97 7.46,-12.14 9.59,2.54 20.89,0 2.56,-8.75 7.53,3.9 14.95,0 0.63,-3.34 3.3,-4.64 5.96,-5.96 -0.09,-9.07 10.49,-7.44 17.93,-8.97 7.77,-3.18 18.16,-3.73 20.9,-11.94 8.29,-3.66 13.98,-9.92 20.91,-14.94 3.83,-0.16 4.14,-3.83 8.96,-2.99 0.63,-3.34 3.31,-4.65 5.98,-5.97 0.1,10.84 14.14,7.76 17.91,14.93 9.38,-1.41 7.89,8.04 14.95,8.97 6.21,-0.88 -4.44,-8.09 5.96,-8.97 4.04,2.93 3.88,10.07 8.97,11.96 7.43,2.83 18.01,-10.67 17.91,2.98 0.99,0 2,0 3,0 22.27,3.36 16.52,-21.28 38.82,-17.92 4.64,10.61 -10.15,1.8 -8.97,8.97 2.94,8.36 7.97,-4.34 11.95,2.98 1,0 2,0 2.98,0 6.65,-4.85 16.66,-10.76 23.91,-8.97 11.04,5.51 10.74,3.81 26.87,2.99 5.7,-4.25 12.97,-6.95 20.9,-8.96 0.39,-6.59 12.67,-1.26 17.93,-2.99 -5.53,-6.41 -2.02,-21.88 -2.98,-32.85 0.87,-10.4 8.07,0.25 8.95,-5.97 -5.32,-2.19 -0.44,-5.43 0,-8.97 2.99,0 5.98,0 8.98,0 0.97,0 1.98,0 2.96,0 4,0 7.97,0 11.96,0 7.33,2.38 -8.48,18.31 5.95,17.92 1.98,-4 6.41,-5.55 11.98,-5.96 16.64,-3.5 29.09,-20.46 47.76,-29.87 0.58,-4.43 7.23,-2.74 11.96,-2.98 20.26,-14.54 47.8,-16.58 77.64,-26.88 -7.77,-18.23 9.72,-14.93 5.98,-32.86 17.49,-5.28 37.56,-20.46 44.81,3 2.99,0 5.96,0 8.94,0 -3.32,-4.31 -3.2,-7.3 3,-8.97 -0.29,13.23 22.44,3.44 23.9,14.92 2.53,0.55 2.8,-1.16 2.99,-2.98 7.44,-7.2 58.29,8.36 38.82,8.95 -1.39,14.15 2.59,4.45 11.94,5.99 15.21,3.07 32.97,4.02 38.84,-11.96 5.24,11.72 18.18,2.16 29.85,3 8.97,-0.76 24.29,-5.2 35.83,0 11.68,-2.28 18.56,-9.34 26.9,-14.94 2.56,-2.41 1.77,-8.17 5.97,-8.97 0.11,-9.81 5.04,-14.85 2.97,-26.87 4.26,0.25 8.47,0.5 8.98,-2.98 10.3,2.62 -0.74,11.99 5.98,20.91 9.6,0.64 12.62,-5.29 23.88,-3 3.19,7.3 -16.6,17.16 -26.87,20.91 8.93,0.84 29.07,3 35.84,2.99 2.43,0.56 2.97,3 5.97,3 19.55,-9.05 21.88,-0.33 41.81,-8.97 3.46,-12.47 15.42,-16.45 23.9,-23.9 9.09,3.66 -4.36,11.4 2.99,14.94 1.99,0 3.97,0 5.97,0 24.28,-15.54 43.86,-35.78 71.68,-47.79 9.13,-2.16 8.79,5.15 17.92,2.98 1.56,-2.39 3.11,-4.84 2.99,-8.97 16.05,8.28 53.87,7.48 59.72,-11.92 10.75,3.18 19.11,8.77 23.89,17.91 1.01,0 1.99,0 2.99,0 6.12,-14.59 30.6,0.16 32.85,8.97 14.17,-4.51 28.54,-1.17 26.88,17.91 26.71,2.52 45.42,-0.84 56.75,26.88 -43.28,-442.53 -97.13,-900.39 -152.32,-1341 -6.56,-8.08 -9.9,-0.82 -17.91,-5.98 -6.56,11.37 -10.13,25.72 -20.91,32.85 -4.72,21.21 25.9,40.8 2.99,44.81 1.43,9.51 9.4,12.5 8.95,23.89 -6.86,15.04 -17.48,26.31 -32.85,32.85 6.14,38.5 -3.46,77.71 -38.83,74.66 1.27,6.24 -2.03,7.91 -3,11.95 -22.54,0.17 -40.23,-4.92 -50.75,-8.95 11.52,-1.4 22.13,-5.9 32.84,-14.94 5.5,10.42 0.59,12.66 -2.97,20.9 8.79,-4.07 18.78,4.3 20.88,-14.95 29.76,8.18 37.25,-37.32 29.89,-65.69 12.5,-13.36 33.33,-18.4 38.82,-38.81 -6.7,-4.27 -5.71,-16.21 -11.96,-20.91 -0.91,-6.89 8.65,-3.32 8.98,-8.98 3.06,-14.4 -8.77,-18.19 -8.98,-26.86 -0.3,-13.75 10.55,-17.35 14.94,-29.89 1.73,-4.9 -1.72,-11.68 0,-17.91 1.16,-4.16 8.57,-1.14 8.96,-5.96 -7.6,-0.32 -7.05,-11.15 -2.99,-14.93 4.14,5.41 8.47,6.74 11.97,2.98 -0.59,-2.41 -3.02,-2.98 -2.99,-5.98 15.13,-4.41 18.45,12.88 26.86,5.98 -1.75,-10.73 3.49,-14.45 5.99,-20.91 2.2,-14.72 8.74,-25.11 17.91,-32.86 -0.25,-4.23 -0.5,-8.46 3,-8.95 -1.23,-7.2 5.44,-6.49 2.98,-14.93 16.77,2.8 20.25,-7.64 32.86,-8.98 7.18,1.22 6.47,-5.45 14.92,-2.98 0.46,-5.52 10.12,-1.82 11.96,-5.96 1.8,-0.18 3.52,-0.45 2.97,-2.98 0,-4.98 0,-9.96 0,-14.95 11.5,1.43 18.65,7.23 20.91,17.93 1,0 2.01,0 2.99,0 4.4,-1.57 7.53,-4.43 11.94,-5.98 10.49,-14.72 32.32,3.55 47.81,3 4.25,1.14 5.02,3.56 8.94,0 1.77,-12.74 -2.15,-19.77 -2.99,-29.88 8.41,9.51 15.19,20.64 20.91,32.86 2.32,-0.68 3.49,-2.51 2.99,-5.98 0,-1.01 0,-1.98 0,-2.99 8,1.95 11.36,8.55 17.91,11.95 7.97,3 9.84,12.07 14.95,17.91 11.54,1.61 14.56,-5.32 26.87,-2.97 9.95,-29.87 25.95,-53.7 47.81,-71.69 -1.78,-10.18 -8.22,-15.69 -8.99,-26.88 13.03,-8.95 43.69,6.97 50.78,-17.92 -9.87,-16.85 -7.15,-26.37 2.98,-41.81 11.52,6.99 17.01,9.71 29.89,2.98 -0.98,-6.98 -3.6,-12.34 -5.99,-17.91 42.28,-19.46 51.13,-72.32 74.68,-110.5 -4.32,-4.65 -6.29,-11.66 -8.98,-17.93 13.66,-7.27 16.16,-25.65 41.83,-20.91 0.51,-7.47 -4.6,-9.35 -8.99,-11.95 -4.8,0.85 -5.12,-2.81 -8.94,-2.97 0,-2.99 0,-5.98 0,-8.98 0.96,-4.02 4.25,-5.7 2.98,-11.94 -1.82,-4.14 -11.49,-0.44 -11.94,-5.97 -17.66,-12.03 -50.26,-6.66 -53.77,-38.84 -18.65,-6.92 -36.46,0.07 -50.77,5.99 12.57,9.6 -4.02,15.15 -14.92,17.91 -0.88,-28.75 29.94,-25.79 44.81,-38.82 -26.32,-9.52 -7.62,-64.05 -44.81,-62.73 0,-3.97 0,-7.97 0,-11.94 -2.56,0.55 -2.82,-1.16 -2.99,-2.99 -1.26,-6.22 2.03,-7.91 2.99,-11.94 -18.2,-12.65 -35.84,-25.88 -47.79,-44.79 -9.12,-2.16 -10.89,3.05 -17.92,2.98 0,-4.98 0,-9.96 0,-14.93 0,-1 0,-1.99 0,-3 -1.84,0.88 -11.49,7.43 -11.95,0 -8.89,-0.04 -3.82,-14.09 -8.97,-17.91 -0.56,-2.43 -2.99,-2.97 -2.97,-5.98 0.53,-6.5 -2.44,-9.5 -8.97,-8.95 2.41,10.34 -4.45,11.47 -2.98,20.9 -19.86,-3.47 -15.06,25.24 -29.86,17.93 0.43,7.39 0.53,14.5 -5.98,14.92 0,0.98 0,1.99 0,2.99 -1.12,8.32 11.36,18.18 2.98,23.89 -0.07,-2.9 -3.66,-2.32 -5.97,-2.98 0,1.99 0,3.98 0,5.96 -3.29,27.31 -7.28,46.8 -11.94,77.66 -3.01,1.93 -10.29,1.8 -20.91,2.98 -1.26,6.24 2.05,7.92 2.99,11.95 -7.04,-0.05 -8.78,5.14 -17.92,2.99 0.51,8.65 12.17,13.62 -2.99,14.93 -2.41,2.56 -8.18,1.79 -8.95,5.98 -1.79,10.74 1.07,16.84 8.95,17.91 -7.38,5.49 -10.77,7.46 -2.99,14.93 0.56,2.44 3,3 2.99,5.99 -12.86,14.29 -46.13,30.42 -53.75,11.93 -11.81,-7.11 -22.24,-15.59 -29.88,-26.86 -0.25,-10.69 -4.64,-17.27 -5.96,-26.9 -2.34,-0.64 -3.5,-2.49 -3,-5.96 -11.36,2.4 -3.79,-14.12 -5.98,-20.9 -19.35,-10.2 -50.56,-22.53 -71.67,-5.99 -5.96,0 -11.94,0 -17.93,0 -7.41,0.46 -9.23,-4.68 -14.92,-5.96 -2.43,-0.58 -2.98,-2.99 -5.99,-2.99 -8.79,2.27 -15.54,22.11 -20.91,17.91 -22.56,-8 -39.56,-6.05 -53.75,-2.97 -7.93,-6.02 -2.84,-25.03 -14.93,-26.89 -13.93,4.67 -14.6,14.74 -32.85,8.98 -0.99,0 -1.99,0 -2.99,0 0.52,7.47 -4.58,9.32 -8.97,11.92 -2.4,0.58 -2.96,3 -5.95,3 0.54,2.53 -1.18,2.81 -2.99,2.99 -2.58,2.41 -1.77,8.16 -5.99,8.95 0,1.99 0,3.99 0,5.97 0,2 0,3.99 0,5.98 -12,2.05 -17.03,-2.87 -26.87,-2.98 -1.55,17.37 -12.74,25.08 -20.9,35.84 0.4,5.56 1.96,9.97 5.97,11.94 -14.2,16.68 -20.12,41.6 -29.87,62.72 0,2 0,3.98 0,5.97 0,5 0,9.94 0,14.94 -36.09,-1.96 -5.53,-37.3 -29.85,-53.77 -17.35,-2.32 -28.33,5.22 -44.83,-5.96 -4.79,4.14 -9.45,8.46 -14.92,11.94 -13.75,-4.18 -21.39,-14.46 -32.84,-20.92 -11.22,10.58 -29.59,20.12 -44.81,17.93 3.17,15.62 0.55,23.77 -8.95,32.86 -13.43,-2.5 -16.47,-15.41 -29.89,-17.91 -2.27,7.67 -7.25,12.65 -14.92,14.92 -8.04,2.06 -5.78,-6.17 -8.97,-8.97 -8.06,0.9 -5.33,12.57 -11.95,14.94 -20.73,-8.82 -44.2,-21.7 -47.77,-38.83 -9.61,-2.63 -4.1,9.87 -11.95,8.96 0.25,-4.7 -1.45,-11.38 2.98,-11.93 -0.56,-2.43 -2.98,-2.99 -2.98,-5.98 -9.44,0.49 -9.98,-7.94 -20.92,-5.99 2.32,20.3 -18.15,26.72 -8.95,44.82 -25.92,0.07 -32.43,-17.94 -32.85,-35.84 -16.89,6 -43.21,2.59 -38.82,29.85 -18.58,3.34 -30.22,13.62 -56.75,8.97 -1.3,9.87 4.73,19.11 -2.99,32.85 -5.28,-2.68 -3.81,-12.12 -14.93,-8.97 -5.08,1.89 -4.92,9.03 -8.97,11.96 -12.5,-2.41 -19.94,-9.94 -29.86,-14.93 -6.31,2.64 -8.82,9.09 -17.92,8.96 6.75,5.19 2.77,21.12 11.94,23.9 -8.83,10.23 -17.62,27.54 -32.85,14.92 1.26,6.25 -2.04,7.92 -2.99,11.94 -31.29,1.4 -86.57,-37.2 -95.57,17.91 -13.63,2.69 -16.92,-4.95 -26.88,-5.95 2.75,12.69 -7.16,12.74 -17.91,11.94 0.04,8.91 7.77,10.16 8.95,17.92 -1.22,12.72 -15.22,12.64 -14.92,26.88 -20.46,2.98 -44.32,-6.34 -38.83,11.94 -34.53,-13.03 -62.62,-57 -89.6,-8.94 -2.42,-0.59 -2.99,-3.01 -5.99,-3 -3.96,0 -7.96,0 -11.92,0 -0.5,3.51 -5.47,2.52 -8.98,3 -8.44,8.1 8.36,22.91 -8.95,20.89 2.36,5.59 4.98,10.95 5.95,17.91 -9.19,10.72 -27.44,12.38 -32.85,26.89 0.5,8.46 5.48,12.46 5.99,20.91 -10.05,0.08 -15.8,-4.11 -20.91,-8.96 -8.13,4.82 -12.58,13.32 -14.93,23.89 -8.04,2.07 -5.78,-6.19 -8.97,-8.94 -5.52,0.43 -1.81,10.09 -5.95,11.94 -18.36,-0.37 -30.31,-9.11 -47.8,0 -1.19,14.72 -6.52,25.33 -17.92,29.86 -9.8,6.87 -14.12,-12.38 -23.9,-14.93 1.47,9.41 -5.37,10.54 -3,20.89 0,2 0,4 0,5.99 -30.54,-1.69 -45.31,12.41 -50.76,35.84 0,1.99 0,3.97 0,5.96 -12.45,-0.07 -14.73,-10.32 -26.87,-2.96 -3.97,7.55 -13.28,-4.4 -20.91,-3 0,3.97 0,7.96 0,11.94 1.88,11.18 4.7,17.1 -5.97,20.91 0.01,2.99 -2.43,3.55 -3,5.97 -16.14,-5.75 -19.92,-23.87 -32.85,-32.86 0,10.95 0,21.91 0,32.86 -56.44,-1.19 -14.57,72.45 -23.9,113.49 39.56,496.04 75.79,995.46 110.51,1496.32 6.6,0.37 1.27,12.67 2.99,17.91 9.09,0.14 11.61,-6.3 17.92,-8.95 1.22,-3.75 3.86,-6.11 8.97,-5.97 0.61,-3.36 3.31,-4.64 5.96,-5.98 12.74,-9.17 37.48,-6.33 44.81,-20.9 4.94,0.04 1.67,8.28 5.98,8.95 0.77,-4.2 6.54,-3.39 8.95,-5.97 21.88,6.36 48.02,-4.58 56.74,-20.9 0,-1 0,-2 0,-2.99 1.55,-4.42 4.44,-7.53 5.98,-11.94 6.14,-2.63 13.42,7.73 5.98,8.95 0,1 0,1.99 0,2.99 z M 6505.98,2930.87 c 12.68,-3.8 5.03,-4.78 2.98,-14.94 12.39,-0.8 11.64,3.93 20.92,0 -11.09,12.75 -27.65,22.36 -17.93,47.79 -5.25,-1.72 -17.54,3.62 -17.91,-2.99 -3.46,2.52 -8.02,3.95 -14.94,2.99 -13.69,1.73 -13.92,-9.97 -20.91,-14.93 -11.98,9.35 -23.72,10.29 -38.82,2.99 -10.16,11.61 -20.95,13.96 -14.94,35.84 -11.95,-1.01 -16.58,5.32 -29.87,2.97 -5.94,7 -6.86,19.02 -5.97,32.87 -19.55,5.34 -18.27,31.51 -32.86,41.81 -16.28,-2.63 -29.62,-8.21 -50.77,-5.96 -13.32,-10.67 38.43,1.18 53.75,0 5.01,-28.87 31.17,-36.56 29.88,-71.69 13.17,0.21 25.68,-0.22 29.87,-8.97 -1.55,-4.41 -4.41,-7.53 -5.98,-11.94 14.12,-3.8 14.86,-21.01 29.88,-23.9 10.08,-0.08 13.28,15.71 23.88,5.98 0.64,-3.35 3.31,-4.65 5.97,-5.98 14.06,-3.1 15.02,6.9 20.91,11.95 10.27,-1.3 16.74,1.18 23.91,2.97 0.98,0 1.99,0 2.96,0 7.19,-3.77 -1.64,-23.53 5.99,-26.86"
         id="path3927" />
    </clipPath>
    <linearGradient
       id="linearGradient3969-2">
      <stop
         style="stop-color:#007317;stop-opacity:1;"
         offset="0"
         id="stop3971-1" />
      <stop
         style="stop-color:#008a1d;stop-opacity:1;"
         offset="1"
         id="stop3973-6" />
    </linearGradient>
    <radialGradient
       inkscape:collect="always"
       xlink:href="#linearGradient3969-2"
       id="radialGradient3977-2"
       cx="301.29153"
       cy="541.07141"
       fx="301.29153"
       fy="541.07141"
       r="36.928574"
       gradientTransform="matrix(0.56264266,-2.2266214,0.73450961,0.18560243,-307.87027,1156.4691)"
       gradientUnits="userSpaceOnUse" />
    <linearGradient
       id="linearGradient3979-4">
      <stop
         style="stop-color:#ffc905;stop-opacity:1;"
         offset="0"
         id="stop3981-2" />
      <stop
         style="stop-color:#d4a600;stop-opacity:1;"
         offset="1"
         id="stop3983-3" />
    </linearGradient>
    <linearGradient
       id="linearGradient3979-6">
      <stop
         style="stop-color:#ffc905;stop-opacity:1;"
         offset="0"
         id="stop3981-0" />
      <stop
         style="stop-color:#d4a600;stop-opacity:1;"
         offset="1"
         id="stop3983-4" />
    </linearGradient>
    <linearGradient
       inkscape:collect="always"
       xlink:href="#linearGradient3979-6"
       id="linearGradient3985-2"
       x1="289.15738"
       y1="538.76373"
       x2="329.77118"
       y2="538.76373"
       gradientUnits="userSpaceOnUse" />
    <linearGradient
       id="linearGradient3969-7">
      <stop
         style="stop-color:#00320a;stop-opacity:1;"
         offset="0"
         id="stop3971-7" />
      <stop
         style="stop-color:#008a1d;stop-opacity:1;"
         offset="1"
         id="stop3973-1" />
    </linearGradient>
    <linearGradient
       id="linearGradient3969">
      <stop
         style="stop-color:#007317;stop-opacity:1;"
         offset="0"
         id="stop3971" />
      <stop
         style="stop-color:#008a1d;stop-opacity:1;"
         offset="1"
         id="stop3973" />
    </linearGradient>
    <linearGradient
       id="linearGradient3979">
      <stop
         style="stop-color:#ffc905;stop-opacity:1;"
         offset="0"
         id="stop3981" />
      <stop
         style="stop-color:#d4a600;stop-opacity:1;"
         offset="1"
         id="stop3983" />
    </linearGradient>
    <inkscape:path-effect
       effect="bend_path"
       id="path-effect3880"
       is_visible="true"
       bendpath="m 134.74976,434.86218 c 13.48496,-129.88664 146.49076,-5.01481 200.02962,0"
       prop_scale="1"
       scale_y_rel="false"
       vertical="false"
       bendpath-nodetypes="cc" />
  </defs>
  <sodipodi:namedview
     inkscape:document-units="mm"
     id="base"
     pagecolor="#ffffff"
     bordercolor="#666666"
     borderopacity="1.0"
     inkscape:pageopacity="0.0"
     inkscape:pageshadow="2"
     inkscape:zoom="0.7"
     inkscape:cx="418.92536"
     inkscape:cy="279.26801"
     inkscape:current-layer="layer1"
     showgrid="false"
     inkscape:window-width="1920"
     inkscape:window-height="1017"
     inkscape:window-x="1911"
     inkscape:window-y="-9"
     inkscape:window-maximized="1" />
  <metadata
     id="metadata4">
    <rdf:RDF>
      <cc:Work
         rdf:about="">
        <dc:format>image/svg+xml</dc:format>
        <dc:type
           rdf:resource="http://purl.org/dc/dcmitype/StillImage" />
        <dc:title></dc:title>
      </cc:Work>
    </rdf:RDF>
  </metadata>
  <g
     inkscape:label="Layer 1"
     inkscape:groupmode="layer"
     id="layer1">
    <path
       sodipodi:type="arc"
       style="fill:#132f00;fill-opacity:0.99607843;stroke:none"
       id="path3786"
       sodipodi:cx="-70.205605"
       sodipodi:cy="507.38489"
       sodipodi:rx="250.01276"
       sodipodi:ry="250.01276"
       d="m 179.80715,507.38489 a 250.01276,250.01276 0 1 1 -500.02551,0 250.01276,250.01276 0 1 1 500.02551,0 z"
       transform="matrix(1.3313131,0,0,1.3313131,479.79527,-165.78506)" />
    <path
       inkscape:connector-curvature="0"
       style="fill:#398c00;fill-opacity:0.99607843;stroke:none;display:inline"
       d="m 222.3078,353.36362 c -0.26358,0.88974 8.29799,10.41384 24.08551,28.65686 l 9.1755,9.79543 -4.79628,7.29448 c 6.11022,7.22178 11.52543,14.17495 21.58343,22.40446 l 5.42189,-2.60517 98.11509,99.72587 c -4.73289,6.1408 -10.48242,11.34794 -19.81072,12.81744 2.54177,4.88614 5.64342,8.96125 10.73966,10.21226 l 9.48814,-1.5631 c 39.12532,24.41996 61.33168,69.17109 97.80245,96.18285 7.84388,2.48655 15.07151,3.25321 21.37491,1.04206 l 21.06194,20.63295 c 11.94382,8.03169 23.82826,11.70416 35.76341,12.19219 0.63127,-2.18505 1.30493,-4.34454 2.08534,-6.46082 -11.8414,0.17006 -23.20334,-3.38651 -31.80127,-14.48474 l -20.01927,-20.52873 c 0.84749,-6.68798 3.25146,-13.06744 -0.73004,-20.73715 -23.08821,-33.57423 -63.11007,-52.46006 -94.36147,-99.41326 l 0.52117,-9.69124 c -1.36566,-4.61107 -2.86509,-9.18099 -8.75843,-10.21226 -3.56343,8.9945 -8.22392,15.19732 -13.24175,20.42454 l -98.53249,-100.97637 1.98124,-4.89771 c -9.55419,-13.12919 -15.65574,-17.65247 -21.68754,-22.09185 l -6.36046,4.4809 -10.11373,-8.75337 C 231.6528,360.17848 222.57139,352.47388 222.3078,353.36362 z"
       id="path3041-0-7-1-8"
       inkscape:export-filename="c:\Users\aporto\Desktop\carimbo.png"
       inkscape:export-xdpi="92.870003"
       inkscape:export-ydpi="92.870003" />
    <g
       id="g3898-4-4-7-8"
       transform="matrix(1.2706656,1.2706656,-1.2706656,1.2706656,177.68248,-550.07171)"
       style="opacity:1;fill:#398c00;fill-opacity:0.99607843;stroke:none;display:inline"
       inkscape:export-filename="c:\Users\aporto\Desktop\carimbo.png"
       inkscape:export-xdpi="92.870003"
       inkscape:export-ydpi="92.870003">
      <path
         id="path3043-5-0-4-2"
         d="m 509.3125,214.25 0,23.34375 -22.28125,0 0,-21.90625 c -10.87986,10.41176 -18.78616,28.89631 -3.875,43.46875 1.70143,1.29747 3.42976,2.51423 5.45895,2.82843 L 488.25,408.0046 c -3.06505,0.62712 -3.79299,1.72167 -5.34375,2.65165 -13.26856,17.04964 -4.64827,34.38033 6,44.90625 l 0,-23.34375 22.28125,0 0,21.9375 c 10.87986,-10.41176 18.78616,-28.92756 3.875,-43.5 -1.29455,-0.90373 -2.43016,-1.88694 -4.35631,-2.47487 L 509.8125,261.63112 c 2.31231,-0.51258 4.21814,-1.29616 5.53125,-2.47487 13.26856,-17.04964 4.61702,-34.38033 -6.03125,-44.90625 z"
         style="fill:#398c00;fill-opacity:0.99607843;stroke:none"
         inkscape:connector-curvature="0" />
    </g>
    <path
       style="opacity:1;fill:#398c00;fill-opacity:0.99607842999999996;fill-rule:nonzero;stroke:#132f00;stroke-width:6.07885218000000020;stroke-linecap:round;stroke-linejoin:round;stroke-miterlimit:4;stroke-opacity:0.99607843;stroke-dasharray:none;stroke-dashoffset:62.03999910000000300;display:inline"
       d="m 389.07355,344.24288 c -1.47716,0.22458 -3.75504,1.35845 -6.54321,1.37196 -1.54098,-0.17966 -2.85841,0.0523 -4.01035,0.63322 -2.87597,-0.0169 -4.74893,0.99953 -6.0157,2.53285 l 0,-0.94982 c -1.11648,-0.61579 -1.59232,1.24623 -1.89964,3.79928 -0.99389,0.74716 -1.73821,2.03091 -2.21608,3.58821 -3.84825,2.57842 -7.47462,6.17463 -10.02605,15.72481 -4.61081,1.69583 -7.50975,7.59164 -7.80964,20.15731 -6.39765,7.6015 -4.29133,11.65228 -4.32679,16.56909 -6.35308,5.56127 -8.249,12.43325 -6.33214,20.57945 -4.78473,3.78446 -6.52227,11.20991 -5.69892,21.74034 -6.36017,7.99936 -5.99443,15.89897 -4.22143,23.74551 -7.60464,10.92954 -4.0681,16.7849 -2.63856,23.63999 -5.64016,5.35425 -3.51459,13.86491 0.42214,23.1123 -1.71187,1.67678 -2.74054,3.83467 -3.16606,6.54321 -23.03548,-29.23276 -35.36474,-21.25387 -42.84747,-4.01036 19.46786,-11.37417 27.65135,31.58028 31.02748,41.58104 13.85404,35.36963 15.91342,76.45237 38.09853,85.58939 4.28153,1.63153 6.8772,6.83206 20.05177,8.33732 0.50218,0.20364 1.08946,0.24113 1.68857,0.10537 1.46669,0.12698 2.91987,0.2857 4.64356,0.31643 l -0.20938,15.93588 11.29214,0.31644 -0.31745,-17.51891 c 10.90107,-0.95658 24.83718,-0.8559 30.18319,-9.81482 24.41537,-22.72379 19.19904,-37.26208 31.87176,-78.72957 7.45403,-19.98254 -1.23063,-50.72998 40.84246,-70.07566 -18.97075,3.92245 -35.00068,5.55192 -50.44603,18.46873 0.3242,-2.15481 0.30056,-4.85389 -0.42214,-8.75945 -0.15198,-2.00657 -0.58729,-4.53402 -1.37214,-7.59857 1.03341,-4.30318 0.82504,-7.96242 0,-11.29231 -0.36979,-4.22892 -1.95772,-7.87941 -3.4825,-11.50338 0.9483,-5.0334 0.69839,-8.33198 0,-11.08125 -0.24653,-3.4434 -1.21037,-5.86393 -2.00535,-8.54838 0.86185,-2.66318 0.83348,-5.43983 0.10469,-8.33732 -0.1621,-4.92532 -2.81079,-10.18309 -6.4375,-15.61927 0.47077,-2.80495 0.46807,-5.55593 -0.31745,-8.33731 -0.18237,-3.69054 -1.51465,-7.34056 -4.64357,-10.97571 0.79937,-2.19227 0.73419,-4.37978 0,-6.54321 0.16886,-4.10555 -2.45957,-8.21057 -6.22677,-12.24213 0.0709,-2.42739 -0.2803,-4.29677 -0.73858,-5.80446 -0.32421,-5.81594 -2.67436,-7.88606 -4.74927,-10.6591 -0.0912,-0.64155 -0.18237,-1.26798 -0.31746,-1.89964 -0.44915,-5.49315 -2.23904,-10.71286 -7.28178,-15.19713 -0.22965,-2.61009 -0.78992,-5.15862 -2.53286,-7.38749 -0.5265,-1.47031 -1.47986,-2.90492 -2.955,-4.22143 0.0439,-1.97357 -0.35966,-1.63197 -1.16106,-0.84428 -1.32654,-0.9553 -2.88982,-1.82076 -5.06571,-2.6384 0.42856,-3.3257 -0.31745,-4.02379 -1.79394,-3.79928 z m -2.95499,1.05536 c 0.53561,0.0658 1.0253,0.49198 1.37179,1.16089 -0.65719,-0.10807 -1.36875,-0.19081 -2.11071,-0.21107 l 0,-0.84429 c 0.28705,-0.1236 0.49846,-0.13508 0.73892,-0.10537 z"
       id="rect3960-0-4"
       inkscape:connector-curvature="0"
       sodipodi:nodetypes="ccccccccccccccccccccccccccccccccccccccccccccccccccccccccc"
       inkscape:export-filename="c:\Users\aporto\Desktop\carimbo.png"
       inkscape:export-xdpi="92.870003"
       inkscape:export-ydpi="92.870003" />
    <g
       inkscape:export-ydpi="92.870003"
       inkscape:export-xdpi="92.870003"
       inkscape:export-filename="c:\Users\aporto\Desktop\carimbo.png"
       style="opacity:1;stroke:#398c00;stroke-width:4.03454065000000030;stroke-miterlimit:4;stroke-opacity:0.99578059;stroke-dasharray:none;display:inline"
       inkscape:label="Gear20"
       transform="matrix(2.2290038,0,0,2.2290038,386.32963,509.70309)"
       id="g16827-9-5">
      <path
         inkscape:connector-curvature="0"
         style="fill:none;stroke:#398c00;stroke-width:4.03454065000000030;stroke-miterlimit:4;stroke-opacity:0.99578059;stroke-dasharray:none"
         d="m 108.225,-8.713 10.199,-0.821 1.844,0.069 12.304,3.567 0,11.796 -12.304,3.567 -1.844,0.069 -10.199,-0.821 -2.604,16.444 9.953,2.371 1.732,0.635 10.6,7.195 -3.645,11.218 -12.805,-0.409 -1.775,-0.505 -9.445,-3.932 -7.559,14.834 8.734,5.33 1.451,1.14 7.858,10.119 -6.933,9.542 -12.052,-4.346 -1.532,-1.028 -7.768,-6.659 -11.773,11.773 6.659,7.768 1.028,1.532 4.346,12.052 -9.542,6.933 -10.119,-7.858 -1.14,-1.451 -5.33,-8.734 -14.834,7.559 3.932,9.445 0.505,1.775 0.409,12.805 -11.218,3.645 -7.195,-10.6 -0.635,-1.732 -2.371,-9.953 -16.444,2.604 0.821,10.199 -0.069,1.844 -3.567,12.304 -11.796,0 -3.567,-12.304 -0.069,-1.844 0.821,-10.199 -16.444,-2.604 -2.371,9.953 -0.635,1.732 -7.195,10.6 -11.218,-3.645 0.409,-12.805 0.505,-1.775 3.932,-9.445 -14.834,-7.559 -5.33,8.734 -1.14,1.451 -10.119,7.858 -9.542,-6.933 4.346,-12.052 1.028,-1.532 6.659,-7.768 -11.773,-11.773 -7.768,6.659 -1.532,1.028 -12.052,4.346 -6.933,-9.542 7.858,-10.119 1.451,-1.14 8.734,-5.33 -7.559,-14.834 -9.445,3.932 -1.775,0.505 -12.805,0.409 -3.645,-11.218 10.6,-7.195 1.732,-0.635 9.953,-2.371 -2.604,-16.444 -10.199,0.821 -1.844,-0.069 -12.304,-3.567 0,-11.796 12.304,-3.567 1.844,-0.069 10.199,0.821 2.604,-16.444 -9.953,-2.371 -1.732,-0.635 -10.6,-7.195 3.645,-11.218 12.805,0.409 1.775,0.505 9.445,3.932 7.559,-14.834 -8.734,-5.33 -1.451,-1.14 -7.858,-10.119 6.933,-9.542 12.052,4.346 1.532,1.028 7.768,6.659 11.773,-11.773 -6.659,-7.768 -1.028,-1.532 -4.346,-12.052 9.542,-6.933 10.119,7.858 1.14,1.451 5.33,8.734 14.834,-7.559 -3.932,-9.445 -0.505,-1.775 -0.409,-12.805 11.218,-3.645 7.195,10.6 0.635,1.732 2.371,9.953 16.444,-2.604 -0.821,-10.199 0.069,-1.844 3.567,-12.304 11.796,0 3.567,12.304 0.069,1.844 -0.821,10.199 16.444,2.604 2.371,-9.953 0.635,-1.732 7.195,-10.6 11.218,3.645 -0.409,12.805 -0.505,1.775 -3.932,9.445 14.834,7.559 5.33,-8.734 1.14,-1.451 10.119,-7.858 9.542,6.933 -4.346,12.052 -1.028,1.532 -6.659,7.768 11.773,11.773 7.768,-6.659 1.532,-1.028 12.052,-4.346 6.933,9.542 -7.858,10.119 -1.451,1.14 -8.734,5.33 7.559,14.834 9.445,-3.932 1.775,-0.505 12.805,-0.409 3.645,11.218 -10.6,7.195 -1.732,0.635 -9.953,2.371 z"
         id="path16829-4-5" />
    </g>
    <g
       inkscape:label="teste"
       id="layer5"
       transform="translate(1215.8213,-269.06429)"
       style="opacity:1" />
    <g
       style="display:inline;opacity:1"
       id="layer1-2"
       inkscape:label="Layer 1"
       transform="translate(1215.8213,-269.06429)" />
    <g
       style="display:inline;opacity:1"
       inkscape:label="Layer"
       id="layer2"
       transform="translate(1215.8213,-269.06429)" />
    <text
       xml:space="preserve"
       style="font-size:98.52651978px;font-style:normal;font-weight:normal;line-height:125%;letter-spacing:0px;word-spacing:0px;fill:#398c00;fill-opacity:0.99607843;stroke:none;font-family:Sans"
       id="text3788"
       sodipodi:linespacing="125%"
       transform="matrix(1.1705833,-0.28665209,0.35024841,0.95803475,-246.6721,217.65141)"><textPath
         xlink:href="#path3792"
         id="textPath3800"><tspan
   style="font-style:normal;font-variant:normal;font-weight:bold;font-stretch:normal;letter-spacing:18px;fill:#398c00;fill-opacity:0.99607843;font-family:Garoa Hacker Clube;-inkscape-font-specification:Garoa Hacker Clube Bold"
   id="tspan3790">sabugosa.org</tspan></textPath></text>
    <path
       style="fill:none;stroke:#000000;stroke-width:1px;stroke-linecap:butt;stroke-linejoin:miter;stroke-opacity:1"
       d="M 53.571425,513.07648 C 88.08834,967.39017 700.57697,930.48628 720,515.21933"
       id="path3792"
       inkscape:connector-curvature="0"
       sodipodi:nodetypes="cc" />
  </g>
</svg>
