<?xml version="1.0" encoding="UTF-8" standalone="no"?>
<!-- Created with Inkscape (http://www.inkscape.org/) -->

<svg
   xmlns:dc="http://purl.org/dc/elements/1.1/"
   xmlns:cc="http://creativecommons.org/ns#"
   xmlns:rdf="http://www.w3.org/1999/02/22-rdf-syntax-ns#"
   xmlns:svg="http://www.w3.org/2000/svg"
   xmlns="http://www.w3.org/2000/svg"
   xmlns:sodipodi="http://sodipodi.sourceforge.net/DTD/sodipodi-0.dtd"
   xmlns:inkscape="http://www.inkscape.org/namespaces/inkscape"
   width="210mm"
   height="297mm"
   id="svg4176"
   version="1.1"
   inkscape:version="0.48.5 r10040"
   sodipodi:docname="sabugosa_logo_branco_vazado_texto_2_novo.svg">
  <defs
     id="defs3" />
  <sodipodi:namedview
     inkscape:document-units="mm"
     id="base"
     pagecolor="#ffffff"
     bordercolor="#666666"
     borderopacity="1.0"
     inkscape:pageopacity="0.0"
     inkscape:pageshadow="2"
     inkscape:zoom="0.35"
     inkscape:cx="-168.57143"
     inkscape:cy="520"
     inkscape:current-layer="layer1"
     showgrid="false"
     inkscape:window-width="1920"
     inkscape:window-height="1017"
     inkscape:window-x="-9"
     inkscape:window-y="-9"
     inkscape:window-maximized="1" />
  <metadata
     id="metadata4">
    <rdf:RDF>
      <cc:Work
         rdf:about="">
        <dc:format>image/svg+xml</dc:format>
        <dc:type
           rdf:resource="http://purl.org/dc/dcmitype/StillImage" />
        <dc:title></dc:title>
      </cc:Work>
    </rdf:RDF>
  </metadata>
  <g
     inkscape:label="Layer 1"
     inkscape:groupmode="layer"
     id="layer1">
    <rect
       style="fill:#107400;fill-opacity:0.99803928;stroke:none"
       id="rect4182"
       width="725.71429"
       height="1034.2858"
       x="5.7142859"
       y="6.6478968"
       ry="1.1181537" />
    <path
       inkscape:connector-curvature="0"
       style="fill:#ffffff;fill-opacity:0.99803928;stroke:none"
       d="m 64.199766,62.826473 c -16.203204,0 -29.251095,13.048002 -29.251095,29.251206 l 0,274.532591 c 0,16.2032 13.047891,29.2512 29.251095,29.2512 l 608.743294,0 c 16.2032,0 29.2511,-13.048 29.2511,-29.2512 l 0,-274.532591 c 0,-16.203204 -13.0479,-29.251206 -29.2511,-29.251206 l -608.743294,0 z m 116.797474,33.331162 11.82485,0 3.59589,12.309015 0.0686,1.8671 -0.82982,10.23447 16.52739,2.62776 2.4202,-9.95785 0.62248,-1.79795 7.26082,-10.64938 11.27185,3.66505 -0.41491,12.86223 -0.55321,1.79795 -3.94176,9.47379 14.93678,7.6067 5.3248,-8.78228 1.17547,-1.45219 10.16542,-7.8833 9.61199,6.98433 -4.42571,12.10156 -1.03717,1.52134 -6.63857,7.81415 11.82485,11.82495 7.81426,-6.70772 1.52134,-0.96812 12.10145,-4.42572 6.98444,9.6121 -7.8833,10.16531 -1.52134,1.17558 -8.71313,5.32469 7.53744,14.93679 9.54294,-3.94165 1.72891,-0.55322 12.93127,-0.41491 3.66516,11.27174 -10.71864,7.26094 -1.72868,0.62237 -9.95786,2.42031 2.62777,16.52728 10.23446,-0.82983 1.86699,0.0691 12.30902,3.52674 0,11.8941 -12.30902,3.5959 -1.86699,0.069 -10.23446,-0.82982 -2.62777,16.52727 9.95786,2.35116 1.72868,0.62237 10.71864,7.26094 -3.66516,11.27174 -12.93127,-0.41491 -1.72891,-0.48406 -9.54294,-3.94166 -7.53744,14.86764 8.71313,5.39384 1.52134,1.10643 8.0216,9.7504 -0.13719,0.41491 -6.98444,9.6121 -12.10146,-4.35656 -1.52134,-1.03728 -7.81426,-6.70772 -11.82484,11.82495 6.63857,7.81415 1.03716,1.52134 4.42572,12.10156 -9.61199,6.98434 -10.16542,-7.88331 -1.17547,-1.45219 -5.3248,-8.78227 -14.93679,7.60669 3.94177,9.4738 0.55321,1.79795 0.41491,12.86223 -11.27185,3.66504 -7.26083,-10.64915 -0.62225,-1.7288 -2.42043,-10.02701 -16.52716,2.62777 0.82982,10.23447 -0.0686,1.8671 -3.59589,12.37817 -11.82507,0 -3.59589,-12.37817 -0.0686,-1.8671 0.82982,-10.23447 -16.52716,-2.62777 -2.35116,10.02701 -0.69152,1.7288 -7.19179,10.64937 -11.27185,-3.66504 0.41491,-12.86223 0.48417,-1.79795 3.94154,-9.47379 -14.86752,-7.6067 -5.39384,8.78228 -1.10643,1.45218 -10.16542,7.88331 -9.61199,-6.98433 4.35645,-12.10157 1.03739,-1.52134 6.70761,-7.81415 -11.82484,-11.82495 -7.814264,6.70772 -1.521339,1.03728 -12.170715,4.35656 -6.915179,-9.6121 7.883304,-10.16531 1.452298,-1.10643 8.782167,-5.39384 -7.606697,-14.86763 -9.473684,3.94165 -1.797947,0.48406 -12.862232,0.41491 -3.665155,-11.27174 10.649375,-7.26094 1.728905,-0.62236 10.026899,-2.35117 -2.627768,-16.52727 -10.234465,0.82982 -1.866987,-0.069 -12.378281,-3.59589 0,-11.89411 12.378281,-3.52674 1.866987,-0.069 10.234465,0.82982 2.627768,-16.52728 -10.026899,-2.42031 -1.728905,-0.62237 -10.649375,-7.26094 3.665155,-11.27174 12.862232,0.41491 1.797947,0.55322 9.473684,3.94165 7.606697,-14.93679 -8.782167,-5.32469 -1.452298,-1.17558 -7.883304,-10.16531 6.915179,-9.6121 12.170715,4.42572 1.521339,0.96812 7.814264,6.70773 11.82484,-11.82496 -6.70761,-7.81414 -1.03739,-1.52134 -4.35645,-12.10157 9.61199,-6.98433 10.16542,7.88331 1.10643,1.45218 5.39384,8.78228 14.86752,-7.6067 -3.94154,-9.47379 -0.48417,-1.79795 -0.41491,-12.86223 11.27185,-3.66504 7.19179,10.64937 0.69152,1.79795 2.35116,9.95785 16.52716,-2.62776 -0.82982,-10.23447 0.0686,-1.8671 3.59589,-12.309014 z m 64.65681,58.364105 c -11.89189,0.20557 -27.29271,7.52305 -27.1075,23.64991 0.22815,1.69325 0.553,3.37919 1.52134,4.70232 l -12.93127,12.86223 c 0,0.29276 -0.31909,0.26329 -0.34587,0.55322 2.36975,4.85246 2.04291,5.79332 2.00551,9.54294 0.56937,1.66381 1.42951,5.29997 0.89887,7.88331 -0.29808,1.45168 0.72913,2.18752 0.76078,2.90437 l 21.7827,-21.99027 c 1.59503,1.01621 3.01878,1.65292 4.42571,1.7288 17.11844,-2.1349 23.58087,-18.12563 23.51161,-30.08103 l -13.41545,13.00054 -12.10145,-12.17072 12.51636,-12.58562 -0.34564,0 c -0.37575,-0.009 -0.79199,-0.007 -1.1757,0 z m -61.61413,3.66504 c -1.1363,0.0199 -2.23498,0.19982 -2.97363,0.62237 -0.83824,0.47968 -3.65963,0.0781 -4.42572,2.90437 -2.15975,0.89431 -2.70145,1.81543 -2.62776,5.11723 -2.04867,0.75357 -3.32416,3.40617 -3.45759,8.98974 -2.84286,3.37772 -1.92032,5.14531 -1.93625,7.33009 -2.82295,2.47118 -3.68685,5.57739 -2.83512,9.19718 -2.12611,1.68162 -2.92451,4.93291 -2.55872,9.6121 -2.82604,3.55454 -2.65477,7.0936 -1.86699,10.58023 -3.37926,4.85653 -1.81078,7.465 -1.17569,10.51107 -2.50606,2.37917 -1.5417,6.12536 0.20801,10.23446 -0.76056,0.74509 -1.2631,1.70083 -1.45208,2.90438 -10.23579,-12.98961 -15.69181,-9.46014 -19.01685,-1.79795 8.65072,-5.05414 12.33026,14.01967 13.83035,18.46353 6.15617,15.71655 7.0152,34.04259 16.87304,38.10263 1.90262,0.72496 3.06658,2.99621 8.92069,3.66505 0.22306,0.0905 0.49435,0.0604 0.76056,0 0.65169,0.0564 1.30868,0.19407 2.07455,0.20734 l -0.0686,7.05349 4.97893,0.1383 -0.0686,-7.745 c 4.84395,-0.42509 10.97091,-0.44481 13.34641,-4.42572 10.84897,-10.09735 8.54495,-16.4955 14.17601,-34.92165 3.3122,-8.87927 -0.57734,-22.52202 18.11776,-31.1183 -8.42965,1.74293 -15.542,2.42031 -22.40518,8.15991 0.14384,-0.95748 0.11286,-2.13707 -0.208,-3.8725 -0.0686,-0.89163 -0.20359,-2.02669 -0.55322,-3.38844 0.45939,-1.91213 0.36667,-3.49928 0,-4.97893 -0.16375,-1.87911 -0.9128,-3.57606 -1.59038,-5.18638 0.42133,-2.23663 0.31024,-3.68815 0,-4.90978 -0.10843,-1.5301 -0.54569,-2.61053 -0.89908,-3.80335 0.38304,-1.18339 0.39322,-2.37756 0.0686,-3.66504 -0.073,-2.18858 -1.22371,-4.49958 -2.83512,-6.91518 0.20801,-1.24639 0.14163,-2.49829 -0.20801,-3.7342 -0.0819,-1.63992 -0.61517,-3.2945 -2.00551,-4.90977 0.35517,-0.97415 0.3264,-1.94307 0,-2.90438 0.0752,-1.82432 -1.09204,-3.67157 -2.76607,-5.46299 0.031,-1.07864 -0.14162,-1.88865 -0.34565,-2.55862 -0.14383,-2.58433 -1.15268,-3.47011 -2.07455,-4.70232 0.16154,-3.26578 -1.62778,-5.99237 -3.38855,-7.6067 -0.0774,-1.40124 -2.18564,-3.88865 -5.25554,-3.38843 -0.5094,-1.26073 -2.46268,-1.83041 -4.35645,-1.79795 z m -71.4339,0.069 c -0.0376,-0.004 -0.062,0.0445 -0.0686,0.069 -0.11728,0.39537 3.70344,4.61762 10.71864,12.72393 l 4.1491,4.35657 -2.14381,3.25013 c 2.71517,3.209 5.1429,6.30107 9.61221,9.95786 l 2.35116,-1.17558 20.95288,21.3679 1.65964,1.93625 c -0.49236,-2.6468 -0.26665,-5.3364 1.24473,-8.02161 l -1.10642,-1.17558 -18.39438,-18.87844 0.82982,-2.21285 c -4.24537,-5.83398 -7.00081,-7.77773 -9.68125,-9.75041 l -2.76607,2.00541 -4.49476,-3.94166 c -8.18226,-6.92839 -12.29043,-10.43364 -12.86223,-10.51107 z m 408.82536,18.53268 c 3.98602,5e-5 7.77156,0.89754 11.3409,2.62777 3.56956,1.73034 6.562,4.15196 9.05899,7.26094 1.0947,1.31395 1.5802,2.80873 1.38304,4.49486 -0.19695,1.68622 -0.96813,3.02874 -2.28212,4.07996 -1.314,1.05131 -2.80856,1.48901 -4.49476,1.31388 -1.6862,-0.17503 -3.12367,-0.8989 -4.21837,-2.21285 -2.76009,-3.50331 -6.32058,-5.2555 -10.78768,-5.25554 -3.85479,4e-5 -7.17319,1.3646 -9.88859,4.07996 -2.7154,2.71541 -4.08007,5.96539 -4.08007,9.81955 0,3.85424 1.36467,7.17333 4.08007,9.8887 2.7154,2.7154 6.0338,4.07996 9.88859,4.07996 2.67203,0 5.09666,-0.72015 7.33009,-2.14371 2.23366,-1.4235 3.93446,-3.35002 5.11723,-5.67044 l -12.37805,0 c -1.70833,0 -3.22148,-0.59294 -4.42572,-1.79795 -1.20446,-1.20497 -1.79795,-2.6483 -1.79795,-4.35656 0,-1.70819 0.59349,-3.17428 1.79795,-4.35656 1.20424,-1.18224 2.71739,-1.72875 4.42572,-1.7288 l 19.91571,0 c 1.7081,5e-5 3.22126,0.54656 4.42571,1.7288 1.20424,1.18228 1.79795,2.64837 1.79795,4.35656 0,7.22723 -2.55187,13.40801 -7.67596,18.53268 -5.12409,5.12469 -11.30549,7.67585 -18.53268,7.67585 -7.22719,0 -13.40858,-2.55116 -18.53268,-7.67585 -5.12387,-5.12467 -7.67573,-11.30611 -7.67573,-18.53268 0,-7.22651 2.55186,-13.40797 7.67573,-18.53268 5.1241,-5.12465 11.30549,-7.6758 18.53268,-7.67585 z m 54.00766,0 c 7.22719,5e-5 13.40859,2.5512 18.53268,7.67585 5.12387,5.12471 7.67574,11.30617 7.67574,18.53268 0,7.22657 -2.55187,13.40801 -7.67574,18.53268 -5.12409,5.12469 -11.30549,7.67585 -18.53268,7.67585 -7.22719,0 -13.40881,-2.55116 -18.53268,-7.67585 -5.12409,-5.12467 -7.67596,-11.30611 -7.67596,-18.53268 0,-7.22651 2.55253,-13.40797 7.67596,-18.53268 5.12454,-5.12465 11.30549,-7.6758 18.53268,-7.67585 z m -214.57811,1.03728 5.73971,0 c 1.70811,4e-5 3.15222,0.59369 4.35645,1.79794 1.20446,1.20437 1.79795,2.69117 1.79795,4.35657 0,1.70828 -0.59349,3.15228 -1.79795,4.35656 -1.20423,1.20435 -2.64834,1.79799 -4.35645,1.79795 l -5.73971,0 c -0.6134,4e-5 -1.13055,0.18455 -1.59038,0.62236 -0.45983,0.43779 -0.69152,1.00205 -0.69152,1.65965 0,0.61223 0.23169,1.13004 0.69152,1.59049 0.45983,0.46049 0.97698,0.69156 1.59038,0.69151 4.55539,5e-5 8.49317,1.66914 11.75581,4.90978 3.26285,3.24073 4.90988,7.15643 4.90988,11.75581 0,4.55527 -1.64703,8.42392 -4.90988,11.68665 -3.26264,3.26274 -7.20042,4.90977 -11.75581,4.90977 l -7.81404,0 c -1.707,0 -3.15155,-0.59364 -4.35667,-1.79794 -1.2049,-1.20433 -1.79795,-2.64833 -1.79795,-4.35656 0,-1.70822 0.59305,-3.1743 1.79795,-4.35657 1.20512,-1.18226 2.64967,-1.79792 4.35667,-1.79794 l 7.81404,0 c 1.183,2e-5 2.18874,-0.39062 3.04268,-1.24474 0.85416,-0.85409 1.314,-1.85975 1.314,-3.04267 0,-1.22703 -0.45984,-2.27976 -1.314,-3.11184 -0.85394,-0.83203 -1.85968,-1.24471 -3.04268,-1.24473 -4.02983,2e-5 -7.45644,-1.44035 -10.3035,-4.28741 -2.84707,-2.84702 -4.28741,-6.27429 -4.28741,-10.30361 0,-4.02926 1.44034,-7.45654 4.28741,-10.30362 2.84706,-2.847 6.27367,-4.28737 10.3035,-4.28741 z m 257.65956,0 5.73971,0 c 1.70811,4e-5 3.15222,0.59369 4.35645,1.79794 1.20446,1.20437 1.79795,2.69117 1.79795,4.35657 0,1.70828 -0.59349,3.15228 -1.79795,4.35656 -1.20423,1.20435 -2.64834,1.79799 -4.35645,1.79795 l -5.73971,0 c -0.6134,4e-5 -1.13055,0.18455 -1.59038,0.62236 -0.45983,0.43779 -0.69152,1.00205 -0.69152,1.65965 0,0.61223 0.23169,1.13004 0.69152,1.59049 0.45983,0.46049 0.97698,0.69156 1.59038,0.69151 4.55539,5e-5 8.49317,1.66914 11.75581,4.90978 3.26285,3.24073 4.90988,7.15643 4.90988,11.75581 0,4.55527 -1.64703,8.42392 -4.90988,11.68665 -3.26264,3.26274 -7.20042,4.90977 -11.75581,4.90977 l -7.81404,0 c -1.707,0 -3.15155,-0.59364 -4.35667,-1.79794 -1.2049,-1.20433 -1.79795,-2.64833 -1.79795,-4.35656 0,-1.70822 0.59305,-3.1743 1.79795,-4.35657 1.20512,-1.18226 2.64967,-1.79792 4.35667,-1.79794 l 7.81404,0 c 1.183,2e-5 2.18874,-0.39062 3.04268,-1.24474 0.85416,-0.85409 1.314,-1.85975 1.314,-3.04267 0,-1.22703 -0.45984,-2.27976 -1.314,-3.11184 -0.85394,-0.83203 -1.85968,-1.24471 -3.04268,-1.24473 -4.02983,2e-5 -7.45644,-1.44035 -10.3035,-4.28741 -2.84706,-2.84702 -4.28741,-6.27429 -4.28741,-10.30361 0,-4.02926 1.44035,-7.45654 4.28741,-10.30362 2.84706,-2.847 6.27367,-4.28737 10.3035,-4.28741 z m -220.4559,0.069 c 1.27129,4e-5 2.38502,0.40907 3.45759,1.17558 1.0728,0.76662 1.84354,1.74787 2.28212,2.97353 l 12.93128,37.82602 c 0.78866,2.18943 0.45186,4.19472 -1.03717,5.94706 -1.44499,1.70821 -3.34872,2.40701 -5.67045,2.1437 l -12.03241,-1.79794 c -1.66407,-0.21797 -3.00373,-0.97107 -4.0108,-2.35116 -1.00729,-1.38007 -1.39476,-2.89989 -1.17569,-4.56402 0.262,-1.66411 1.06239,-3.05074 2.42042,-4.07996 1.35803,-1.0292 2.83069,-1.36838 4.49476,-1.10643 l 2.21285,0.27661 -3.8725,-11.34089 -7.19178,20.81469 c -0.56937,1.62001 -1.60078,2.85137 -3.11172,3.59589 -1.51116,0.74449 -3.08096,0.80189 -4.70232,0.27661 -1.62004,-0.56942 -2.78223,-1.60076 -3.52685,-3.11183 -0.74441,-1.51108 -0.84598,-3.08229 -0.27661,-4.70233 l 12.93149,-37.82602 c 0.43837,-1.22566 1.20933,-2.20691 2.2819,-2.97353 1.07279,-0.76651 2.28212,-1.17554 3.59589,-1.17558 z m 27.17677,0 4.63306,0 c 4.51113,4e-5 8.39823,1.62138 11.6175,4.84062 3.21926,3.21936 4.84062,7.10637 4.84062,11.6175 0,1.48906 -0.17703,2.87933 -0.48395,4.14911 3.8548,3.3737 5.80875,7.60059 5.80875,12.72393 0,4.6435 -1.67226,8.60932 -4.97893,11.89411 -3.30689,3.28479 -7.25197,4.90978 -11.89411,4.90978 l -9.61221,0 c -1.66406,0 -3.08295,-0.59365 -4.28741,-1.79795 -1.20423,-1.20433 -1.79794,-2.64833 -1.79794,-4.35656 l 0,-37.82603 c 0,-1.61997 0.54591,-3.08669 1.7289,-4.35656 1.26974,-1.18286 2.76165,-1.79791 4.42572,-1.79795 z m 230.48279,0 c 1.27129,4e-5 2.38502,0.40907 3.45759,1.17558 1.0728,0.76662 1.84376,1.74787 2.28212,2.97353 l 12.93128,37.82614 c 0.78866,2.18942 0.45186,4.19471 -1.03717,5.94705 -1.44499,1.70821 -3.34872,2.40701 -5.67045,2.1437 l -12.03241,-1.79794 c -1.66407,-0.21797 -3.00373,-0.97107 -4.0108,-2.35116 -1.00729,-1.38007 -1.39476,-2.89989 -1.17569,-4.56402 0.262,-1.66411 1.06239,-3.05073 2.42042,-4.07996 1.35803,-1.0292 2.83069,-1.36838 4.49476,-1.10643 l 2.21285,0.27661 -3.8725,-11.34089 -7.19178,20.81469 c -0.56937,1.62001 -1.60078,2.85137 -3.11172,3.59589 -1.51116,0.74449 -3.08096,0.8019 -4.70232,0.27661 -1.62004,-0.56942 -2.78223,-1.60076 -3.52685,-3.11183 -0.74441,-1.51107 -0.84598,-3.08229 -0.27661,-4.70232 l 12.93149,-37.82603 c 0.43837,-1.22566 1.20933,-2.20691 2.2819,-2.97353 1.07279,-0.76651 2.28212,-1.17554 3.59589,-1.17558 z m -195.42295,0.069 c 1.70833,4e-5 3.22148,0.59369 4.42572,1.79795 1.20446,1.20437 1.79794,2.64837 1.79794,4.35656 l 0,26.07022 c 0,1.88334 0.62248,3.50466 1.93625,4.84063 1.314,1.33599 2.88823,1.93625 4.77159,1.93625 1.88336,0 3.52663,-0.60026 4.84062,-1.93625 1.31378,-1.33597 1.93625,-2.95729 1.93625,-4.84063 l 0,-26.07022 c 0,-1.70819 0.59349,-3.15219 1.79795,-4.35656 1.20556,-1.20426 2.71805,-1.79791 4.42571,-1.79795 1.70744,4e-5 3.10442,0.59369 4.28741,1.79795 1.18278,1.20437 1.79795,2.64837 1.79795,4.35656 l 0,26.07022 c 0,5.2998 -1.87805,9.7614 -5.6014,13.4846 -3.72314,3.72322 -8.22896,5.6013 -13.48449,5.6013 -5.25576,0 -9.69298,-1.87808 -13.41545,-5.6013 -3.72269,-3.72298 -5.6014,-8.18458 -5.6014,-13.48438 l 0,-26.07022 c 0,-1.70819 0.61583,-3.15219 1.79794,-4.35656 1.18233,-1.20426 2.57931,-1.7979 4.28741,-1.79795 z m 115.13784,11.13344 c -3.85502,4e-5 -7.17342,1.3646 -9.88882,4.07995 -2.71539,2.71542 -4.07984,5.9654 -4.07984,9.81956 0,3.85424 1.36445,7.17333 4.07984,9.8887 2.7154,2.7154 6.0338,4.07996 9.88882,4.07996 3.8548,0 7.10482,-1.36522 9.81955,-4.07996 2.71606,-2.71604 4.07985,-6.03446 4.07985,-9.8887 0,-3.85416 -1.36445,-7.10414 -4.07985,-9.81956 -2.71539,-2.71535 -5.96475,-4.07991 -9.81955,-4.07995 z m -144.11233,1.38303 0,25.24041 3.45759,0 c 1.26974,0 2.35249,-0.41633 3.25003,-1.31389 0.89753,-0.89755 1.31399,-1.95393 1.31399,-3.18098 0,-1.0506 -0.30825,-1.97743 -0.89908,-2.76607 -0.59083,-0.7886 -1.34321,-1.35352 -2.35116,-1.65964 -2.1467,-0.6135 -3.56182,-2.00379 -4.21815,-4.14911 -0.61363,-2.19073 -0.20137,-4.07544 1.24473,-5.7396 0.61341,-0.65759 0.89886,-1.50797 0.89886,-2.55862 0,-0.87547 -0.25669,-1.65006 -0.76056,-2.35116 -0.50386,-0.70103 -1.14891,-1.21521 -1.93625,-1.52134 z m -10.64937,49.37438 c 3.82736,4e-5 7.06322,1.39346 9.75029,4.07996 2.68707,2.68658 4.0108,5.92185 4.0108,9.7504 l 0,0.48406 c 0,1.36983 -0.48638,2.4919 -1.45207,3.45759 -0.96569,0.96573 -2.12213,1.45221 -3.45759,1.45219 -1.36976,2e-5 -2.4919,-0.48646 -3.45759,-1.45219 -0.96569,-0.96569 -1.4523,-2.08776 -1.4523,-3.45759 l 0,-0.48406 c 0,-1.08895 -0.40274,-1.99379 -1.17547,-2.76607 -0.77273,-0.77222 -1.67757,-1.17556 -2.76607,-1.17558 -1.08851,2e-5 -2.06238,0.40336 -2.83533,1.17558 -0.77273,0.77228 -1.17547,1.67712 -1.17547,2.76607 l 0,14.45272 c 0,1.08791 0.40274,1.9933 1.17547,2.76607 0.77295,0.77282 1.74682,1.17558 2.83533,1.17558 1.0885,0 1.99334,-0.40276 2.76607,-1.17558 0.77273,-0.77277 1.17547,-1.67816 1.17547,-2.76607 l 0,-0.55321 c 0,-1.36978 0.48661,-2.56101 1.4523,-3.52674 0.96569,-0.96572 2.08783,-1.45217 3.45759,-1.45219 1.33546,2e-5 2.4919,0.48647 3.45759,1.45219 0.96569,0.96573 1.45207,2.15696 1.45207,3.52674 l 0,0.55321 c 0,3.79321 -1.32373,7.04618 -4.0108,9.7504 -2.68707,2.70425 -5.92293,4.01081 -9.75029,4.01081 -3.79328,0 -7.04574,-1.30656 -9.75051,-4.01081 -2.70478,-2.70422 -4.07985,-5.95719 -4.07985,-9.7504 l 0,-14.45272 c 0,-3.82855 1.37507,-7.06382 4.07985,-9.7504 2.70477,-2.6865 5.95723,-4.07992 9.75051,-4.07996 z m 130.62762,0 c 3.82757,4e-5 7.13248,1.39346 9.81955,4.07996 2.68707,2.68658 4.0108,5.92185 4.0108,9.7504 l 0,0.48406 c 0,1.36983 -0.48638,2.4919 -1.45207,3.45759 -0.96569,0.96573 -2.12213,1.45221 -3.45759,1.45219 -1.36976,2e-5 -2.56116,-0.48646 -3.52686,-1.45219 -0.96569,-0.96569 -1.45207,-2.08776 -1.45207,-3.45759 l 0,-0.48406 c 0,-1.08895 -0.3337,-1.99379 -1.10643,-2.76607 -0.77295,-0.77222 -1.74683,-1.17556 -2.83533,-1.17558 -1.08829,2e-5 -1.99313,0.40336 -2.76608,1.17558 -0.77273,0.77228 -1.17547,1.67712 -1.17547,2.76607 l 0,14.45272 c 0,1.08791 0.40274,1.9933 1.17547,2.76607 0.77295,0.77282 1.67779,1.17558 2.76608,1.17558 1.0885,0 2.06238,-0.40276 2.83533,-1.17558 0.77273,-0.77277 1.10643,-1.67816 1.10643,-2.76607 l 0,-0.55321 c 0,-1.36978 0.48638,-2.56101 1.45207,-3.52674 0.9657,-0.96572 2.1571,-1.45217 3.52686,-1.45219 1.33546,2e-5 2.4919,0.48647 3.45759,1.45219 0.96569,0.96573 1.45207,2.15696 1.45207,3.52674 l 0,0.55321 c 0,3.79321 -1.32373,7.04618 -4.0108,9.7504 -2.68707,2.70425 -5.99198,4.01081 -9.81955,4.01081 -3.79306,0 -7.04552,-1.30656 -9.7503,-4.01081 -2.70477,-2.70422 -4.0108,-5.95719 -4.0108,-9.7504 l 0,-14.45272 c 0,-3.82855 1.30603,-7.06382 4.0108,-9.7504 2.70478,-2.6865 5.95724,-4.07992 9.7503,-4.07996 z m -199.22619,0.89897 c 1.36931,5e-5 2.56049,0.4865 3.52663,1.45219 0.96635,0.96576 1.45229,2.12319 1.45229,3.45759 l 0,8.64397 6.36197,0 0,-8.64397 c 0,-1.3344 0.48594,-2.49183 1.45208,-3.45759 0.96635,-0.96569 2.12323,-1.45214 3.45759,-1.45219 1.36975,5e-5 2.56116,0.4865 3.52685,1.45219 0.96569,0.96576 1.45207,2.12319 1.45207,3.45759 l 0,30.35764 c 0,1.3698 -0.48638,2.56102 -1.45207,3.52674 -0.96569,0.96571 -2.1571,1.45218 -3.52685,1.45218 -1.33436,0 -2.49124,-0.48647 -3.45759,-1.45218 -0.96614,-0.96572 -1.45208,-2.15694 -1.45208,-3.52674 l 0,-11.82496 -6.36197,0 0,11.82496 c 0,1.3698 -0.48594,2.56102 -1.45229,3.52674 -0.96614,0.96571 -2.15732,1.45218 -3.52663,1.45218 -1.36932,0 -2.50916,-0.48647 -3.45759,-1.45218 -0.94866,-0.96572 -1.4523,-2.15694 -1.4523,-3.52674 l 0,-30.35764 c 0,-1.3344 0.50364,-2.49183 1.4523,-3.45759 0.94843,-0.96569 2.08827,-1.45214 3.45759,-1.45219 z m 38.24082,0 c 1.01947,5e-5 1.90594,0.35349 2.76608,0.96813 0.86013,0.61473 1.51558,1.36834 1.8672,2.35116 l 10.37277,30.35763 c 0.63222,1.75569 0.36424,3.36629 -0.82982,4.77148 -1.15865,1.3698 -2.70234,1.93994 -4.56402,1.72879 l -9.68125,-1.45219 c -1.33457,-0.17481 -2.44255,-0.82957 -3.25024,-1.93625 -0.80747,-1.10665 -1.07479,-2.33062 -0.89886,-3.66504 0.21022,-1.33442 0.8473,-2.35565 1.93625,-3.18098 1.08894,-0.82529 2.33058,-1.17819 3.66493,-0.96813 l 1.72891,0.27661 -3.11195,-9.12804 -5.73948,16.73474 c -0.45674,1.29905 -1.27771,2.23821 -2.48947,2.83522 -1.21176,0.59701 -2.50318,0.69782 -3.80346,0.27661 -1.29894,-0.4566 -2.23808,-1.27775 -2.83511,-2.48947 -0.59703,-1.21169 -0.66408,-2.50427 -0.20801,-3.80335 l 10.37255,-30.35741 c 0.35162,-0.98282 0.93781,-1.73643 1.79795,-2.35116 0.86013,-0.61464 1.85083,-0.96808 2.90437,-0.96813 z m 68.25293,0 c 0.9679,-0.046 1.89664,0.2337 2.76607,0.76067 1.1591,0.70263 1.91434,1.70828 2.21286,3.04268 0.29851,1.33447 0.0797,2.57453 -0.62248,3.7342 l -5.46288,8.78228 c 2.10708,1.22939 3.80103,2.92318 5.04797,5.04808 1.24717,2.12491 1.86721,4.42213 1.86721,6.91517 l 0,7.05349 c 0,1.3698 -0.48661,2.50955 -1.4523,3.45759 -0.96569,0.94803 -2.08783,1.45218 -3.45759,1.45218 -1.33546,0 -2.4919,-0.50415 -3.45759,-1.45218 -0.96569,-0.94804 -1.45207,-2.08779 -1.45207,-3.45759 l 0,-7.05349 c 0,-1.08788 -0.40274,-1.99327 -1.1757,-2.76607 -0.77273,-0.77279 -1.67801,-1.17556 -2.76607,-1.17558 l -3.66493,0 0,10.99514 c 0,1.3698 -0.48594,2.50955 -1.4523,3.45759 -0.96613,0.94803 -2.12301,1.45218 -3.45759,1.45218 -1.36976,0 -2.56094,-0.50415 -3.52663,-1.45218 -0.96569,-0.94804 -1.38304,-2.08779 -1.38304,-3.45759 l 0,-30.35764 c 0,-1.36978 0.41735,-2.50953 1.38304,-3.45759 0.96569,-0.94801 2.15687,-1.45214 3.52663,-1.45218 1.33458,4e-5 2.49146,0.50417 3.45759,1.45218 0.96636,0.94806 1.4523,2.08781 1.4523,3.45759 l 0,9.54295 0.1372,0 7.46839,-12.10156 c 0.70302,-1.1597 1.7081,-1.89662 3.04268,-2.21286 0.33348,-0.079 0.64549,-0.19208 0.96812,-0.20735 z m 19.56984,0 6.84614,0 c 1.33435,5e-5 2.4919,0.4865 3.45759,1.45219 0.96569,0.96576 1.45208,2.12319 1.45208,3.45759 0,1.36985 -0.48639,2.56052 -1.45208,3.52674 -0.96569,0.96629 -2.12324,1.45221 -3.45759,1.45219 l -6.84614,0 c -0.52732,2e-5 -0.96281,0.18455 -1.31377,0.55321 -0.35096,0.36873 -0.48417,0.7528 -0.48417,1.24474 l 0,1.86709 6.91518,0 c 1.36976,3e-5 2.56116,0.48595 3.52685,1.45219 0.96569,0.96627 1.45208,2.12319 1.45208,3.45759 0,1.36983 -0.48639,2.56105 -1.45208,3.52674 -0.96569,0.96574 -2.15709,1.45221 -3.52685,1.45219 l -6.91518,0 0,5.04808 c 0,0.4909 0.13277,0.94518 0.48417,1.31388 0.35096,0.36873 0.78645,0.55324 1.31377,0.55322 l 7.745,0 c 1.33458,2e-5 2.4919,0.48592 3.45759,1.45219 0.96569,0.96624 1.38304,2.12317 1.38304,3.45759 0,1.3698 -0.41735,2.56102 -1.38304,3.52674 -0.96569,0.96571 -2.12301,1.45218 -3.45759,1.45218 l -7.745,0 c -3.23143,0 -5.94594,-1.17458 -8.22895,-3.45759 -2.283,-2.28298 -3.45759,-5.0677 -3.45759,-8.29821 l 0,-16.80388 c 0,-3.23155 1.17459,-5.94604 3.45759,-8.22907 2.28301,-2.28296 4.99752,-3.45754 8.22895,-3.45759 z m 19.3625,0 7.6067,0 c 3.72247,5e-5 6.89128,1.30767 9.54295,3.94166 2.65166,2.63405 4.0108,5.81943 4.0108,9.54294 0,2.84467 -0.80504,5.46149 -2.4202,7.81415 2.283,2.56384 3.38833,5.54704 3.38833,8.98974 l 0,5.04808 c 0,1.33442 -0.48639,2.49187 -1.45208,3.45759 -0.96569,0.96571 -2.08783,1.45218 -3.45759,1.45218 -1.33546,0 -2.4919,-0.48647 -3.45759,-1.45218 -0.96569,-0.96572 -1.4523,-2.12317 -1.4523,-3.45759 l 0,-5.04808 c 0,-0.91318 -0.30183,-1.68339 -0.89886,-2.35116 -0.59703,-0.66773 -1.40207,-1.13757 -2.42042,-1.38304 -1.08895,-0.24543 -2.04579,-0.79895 -2.76607,-1.65964 -0.72029,-0.86067 -1.07147,-1.84969 -1.10643,-2.97353 -0.0354,-1.1238 0.24961,-2.12945 0.89908,-3.04268 0.64947,-0.91318 1.53882,-1.5509 2.62777,-1.8671 0.80813,-0.24542 1.46181,-0.68147 1.93625,-1.31388 0.47421,-0.63235 0.69152,-1.37036 0.69152,-2.21286 0,-1.01928 -0.31711,-1.85654 -1.03739,-2.55861 -0.72029,-0.70181 -1.60941,-1.03704 -2.62777,-1.03706 l -2.69681,0 0,25.44786 c 0,1.33442 -0.50364,2.49187 -1.4523,3.45759 -0.94843,0.96571 -2.08761,1.45219 -3.45759,1.45219 -1.36975,0 -2.56093,-0.48648 -3.52663,-1.45219 -0.96569,-0.96572 -1.38303,-2.12317 -1.38303,-3.45759 l 0,-30.35764 c 0,-1.36978 0.41734,-2.56098 1.38303,-3.52674 0.9657,-0.96569 2.15688,-1.45214 3.52663,-1.45219 z m 75.16811,0 c 1.36976,5e-5 2.5605,0.4865 3.52663,1.45219 0.96635,0.96576 1.4523,2.12319 1.4523,3.45759 l 0,25.44786 9.61198,0 c 1.36976,2e-5 2.56117,0.50362 3.52686,1.45219 0.96569,0.94856 1.45207,2.0878 1.45207,3.45759 0,1.3698 -0.48638,2.56102 -1.45207,3.52674 -0.96569,0.96571 -2.1571,1.45218 -3.52686,1.45218 l -14.59091,0 c -1.33458,0 -2.4919,-0.48647 -3.45759,-1.45218 -0.96569,-0.96572 -1.4523,-2.15694 -1.4523,-3.52674 l 0,-30.35764 c 0,-1.3344 0.48661,-2.49183 1.4523,-3.45759 0.96569,-0.96569 2.12301,-1.45214 3.45759,-1.45219 z m 56.6352,0 4.84063,0 c 3.54787,5e-5 6.56532,1.27545 9.05899,3.7342 2.49345,2.45882 3.7342,5.37443 3.7342,8.85143 0,1.43948 -0.26864,2.88227 -0.76078,4.28741 2.70433,2.70427 4.08006,5.92344 4.08006,9.68125 0,3.75785 -1.34143,7.01186 -4.0108,9.68125 -2.66937,2.66939 -5.92338,4.0108 -9.68125,4.0108 l -7.26105,0 c -1.36976,0 -2.4919,-0.48647 -3.45759,-1.45218 -0.96569,-0.96572 -1.45207,-2.15694 -1.45207,-3.52674 l 0,-30.35764 c 0,-1.3344 0.48638,-2.49183 1.45207,-3.45759 0.96569,-0.96569 2.08783,-1.45214 3.45759,-1.45219 z m 34.5759,0 6.84613,0 c 1.33436,5e-5 2.4919,0.4865 3.45759,1.45219 0.96569,0.96576 1.45208,2.12319 1.45208,3.45759 0,1.36985 -0.48639,2.56052 -1.45208,3.52674 -0.96569,0.96629 -2.12323,1.45221 -3.45759,1.45219 l -6.84613,0 c -0.52733,2e-5 -0.96282,0.18455 -1.31378,0.55321 -0.35096,0.36873 -0.48417,0.7528 -0.48417,1.24474 l 0,1.86709 6.91518,0 c 1.36976,3e-5 2.56116,0.48595 3.52685,1.45219 0.96569,0.96627 1.45208,2.12319 1.45208,3.45759 0,1.36983 -0.48639,2.56105 -1.45208,3.52674 -0.96569,0.96574 -2.15709,1.45221 -3.52685,1.45219 l -6.91518,0 0,5.04808 c 0,0.4909 0.13277,0.94518 0.48417,1.31388 0.35096,0.36873 0.78645,0.55324 1.31378,0.55322 l 7.67595,0 c 1.33436,2e-5 2.4919,0.48592 3.45759,1.45219 0.96569,0.96624 1.45208,2.12317 1.45208,3.45759 0,1.3698 -0.48639,2.56102 -1.45208,3.52674 -0.96569,0.96571 -2.12323,1.45218 -3.45759,1.45218 l -7.67595,0 c -3.23144,0 -5.94595,-1.17458 -8.22896,-3.45759 -2.283,-2.28298 -3.45759,-5.0677 -3.45759,-8.29821 l 0,-16.80388 c 0,-3.23155 1.17459,-5.94604 3.45759,-8.22907 2.28301,-2.28296 4.99752,-3.45754 8.22896,-3.45759 z m -65.27929,0.069 c 1.36998,5e-5 2.56116,0.50418 3.52685,1.45219 0.96569,0.94806 1.45208,2.08781 1.45208,3.45759 l 0,22.40518 c 0,1.08791 0.3337,1.9933 1.10643,2.76607 0.77295,0.77282 1.74638,1.17558 2.83533,1.17558 1.08895,0 1.99378,-0.40276 2.76607,-1.17558 0.77229,-0.77277 1.17547,-1.67816 1.17547,-2.76607 l 0,-22.40518 c 0,-1.36978 0.48594,-2.50953 1.4523,-3.45759 0.96613,-0.94801 2.15687,-1.45214 3.52663,-1.45219 1.33457,5e-5 2.42286,0.50418 3.38855,1.45219 0.96569,0.94806 1.45207,2.08781 1.45207,3.45759 l 0,22.40518 c 0,3.79321 -1.30647,7.04618 -4.0108,9.7504 -2.70411,2.70425 -5.95723,4.01081 -9.75029,4.01081 -3.82869,0 -7.13315,-1.30656 -9.81955,-4.01081 -2.68663,-2.70422 -4.01081,-5.95719 -4.01081,-9.7504 l 0,-22.40518 c 0,-1.36978 0.48639,-2.50953 1.45208,-3.45759 0.96569,-0.94801 2.12324,-1.45214 3.45759,-1.45219 z m 35.68232,9.81956 0,20.46893 2.28212,0 c 1.05354,2e-5 1.95882,-0.369 2.69681,-1.10643 0.73799,-0.73741 1.10643,-1.64329 1.10643,-2.69692 0,-0.77277 -0.21686,-1.49414 -0.69152,-2.14371 -0.47422,-0.64949 -1.09426,-1.1022 -1.86699,-1.38303 -1.79108,-0.59699 -2.86321,-1.80326 -3.25024,-3.66505 -0.35052,-1.89712 0.18588,-3.47396 1.5906,-4.70232 0.63243,-0.5273 0.89886,-1.23207 0.89886,-2.07455 0,-0.70311 -0.2682,-1.32258 -0.82982,-1.8671 -0.56162,-0.54445 -1.1976,-0.7955 -1.93625,-0.82982 z m -416.91602,0.41491 c -0.28568,1.63793 -0.57268,3.27162 -1.10642,4.70232 -2.00153,6.54908 -3.06946,11.54045 -4.01081,15.76661 0.52865,0.58968 1.0593,1.13885 1.59038,1.72879 4.04577,4.48465 7.1701,8.20568 11.96337,11.75581 3.48547,1.10492 7.08778,1.46652 9.8886,0.48406 l 10.09616,9.68125 c 4.77402,4.23543 9.42611,5.0778 14.72944,4.49487 0.28037,-0.97096 0.4138,-1.54909 0.76056,-2.48947 -5.1283,-0.72427 -10.10811,-3.07923 -12.86223,-5.8779 l -10.0269,-9.4738 c 0.37663,-2.97182 1.62689,-4.63856 0.2766,-8.71312 -4.99685,-9.2537 -11.95805,-13.81916 -19.6391,-20.60723 0,0.0299 0,0.10865 0,0.1383 -0.55056,-0.48616 -1.11484,-1.07496 -1.65965,-1.59049 z m -65.8325,0.069 -12.65488,12.72393 c -2.08451,-1.37651 -4.20045,-1.03256 -5.60119,-1.38304 -17.11844,2.13486 -22.47422,17.91815 -22.40518,29.87358 l 13.20788,-13.13884 12.58563,12.58562 -12.37806,12.37817 c 12.02179,0.26428 27.85191,-5.96553 27.66072,-22.61263 -0.22129,-1.24122 0.27151,-3.21367 -0.48418,-4.63317 l 5.94706,-6.50027 c -1.33723,-4.89807 -2.69017,-10.01451 -4.56402,-14.79848 -2.2e-4,-0.0155 -2.2e-4,-0.0538 0,-0.069 -0.35251,-1.04412 -0.80615,-2.64103 -1.31378,-4.42572 z"
       id="rect4114-1" />
  </g>
</svg>
