<?xml version="1.0" encoding="utf-8"?>
<!-- Generator: Adobe Illustrator 17.0.0, SVG Export Plug-In . SVG Version: 6.00 Build 0)  -->
<!DOCTYPE svg PUBLIC "-//W3C//DTD SVG 1.1//EN" "http://www.w3.org/Graphics/SVG/1.1/DTD/svg11.dtd">
<svg version="1.1"
	 id="svg3049" inkscape:version="0.48.5 r10040" sodipodi:docname="sabugosa_logo_branco_vazado_texto_antigo.svg" xmlns:dc="http://purl.org/dc/elements/1.1/" xmlns:cc="http://creativecommons.org/ns#" xmlns:rdf="http://www.w3.org/1999/02/22-rdf-syntax-ns#" xmlns:svg="http://www.w3.org/2000/svg" xmlns:sodipodi="http://sodipodi.sourceforge.net/DTD/sodipodi-0.dtd" xmlns:inkscape="http://www.inkscape.org/namespaces/inkscape"
	 xmlns="http://www.w3.org/2000/svg" xmlns:xlink="http://www.w3.org/1999/xlink" x="0px" y="0px" width="595.276px"
	 height="841.89px" viewBox="0 0 595.276 841.89" enable-background="new 0 0 595.276 841.89" xml:space="preserve">
<rect id="rect3" x="0" y="-0.502" fill="#66806C" stroke="#000000" stroke-width="0.8242" stroke-miterlimit="10" width="595.276" height="841.89"/>
<defs>
	
	
		<inkscape:path-effect  effect="bend_path" is_visible="true" bendpath="m 134.74976,434.86218 c 13.48496,-129.88664 146.49076,-5.01481 200.02962,0" prop_scale="1" vertical="false" scale_y_rel="false" id="path-effect3880" bendpath-nodetypes="cc">
		</inkscape:path-effect>
</defs>
<sodipodi:namedview  pagecolor="#ffffff" bordercolor="#666666" borderopacity="1.0" inkscape:zoom="1.979899" inkscape:cx="311.08332" inkscape:cy="486.04838" showgrid="false" id="base" inkscape:pageopacity="0.0" inkscape:document-units="mm" inkscape:pageshadow="2" inkscape:current-layer="layer1" inkscape:window-width="1920" inkscape:window-height="1017" inkscape:window-x="1911" inkscape:window-y="-9" inkscape:window-maximized="1">
	</sodipodi:namedview>
<g id="layer1" inkscape:label="Layer 1" inkscape:groupmode="layer">
	<g id="layer5" transform="matrix(0.29762019,0,0,0.29762019,592.76675,166.3405)" inkscape:label="teste">
	</g>
	<g id="layer1-2" transform="matrix(0.29762019,0,0,0.29762019,592.76675,166.3405)" inkscape:label="Layer 1">
	</g>
	<g id="layer2" transform="matrix(0.29762019,0,0,0.29762019,592.76675,166.3405)" inkscape:label="Layer">
	</g>
	
		<path id="path3041-0-7-1-8-1-3" inkscape:connector-curvature="0" sodipodi:nodetypes="ccccccccccccccccccccccccccccccccc" fill="#FFFFFF" d="
		M148.839,282.034c-0.074-0.008-0.076,0.042-0.09,0.09c-0.227,0.766,7.108,8.971,20.697,24.674l7.953,8.405l-4.158,6.327
		c5.259,6.216,9.961,12.167,18.618,19.251l4.609-2.26l40.671,41.394l3.112,3.757c-0.954-5.127-0.423-10.382,2.505-15.584
		l-2.182-2.272l-35.7-36.604l1.717-4.248c-8.224-11.301-13.517-15.158-18.709-18.98l-5.513,3.886l-8.676-7.592
		C157.844,288.858,149.947,282.184,148.839,282.034L148.839,282.034z M351.789,461.738c-0.553,3.173-1.226,6.266-2.26,9.038
		c-3.877,12.686-5.859,22.362-7.682,30.548c1.024,1.142,2.044,2.292,3.073,3.434c7.837,8.687,13.83,15.797,23.115,22.674
		c6.752,2.14,13.742,2.807,19.168,0.904l19.537,18.9c9.248,8.205,18.355,9.787,28.628,8.658c0.543-1.881,0.771-3.052,1.442-4.873
		c-9.934-1.403-19.494-5.956-24.829-11.377l-19.454-18.354c0.73-5.757,3.079-8.907,0.463-16.8
		c-9.68-17.926-23.16-26.802-38.039-39.952c-0.013,0.058,0.013,0.123,0,0.181C353.886,463.779,352.845,462.737,351.789,461.738
		L351.789,461.738z"/>
	
		<path id="path3043-5-0-4-2-3-1" inkscape:connector-curvature="0" sodipodi:nodetypes="ccccccscccccccccccccccccccccc" fill="#FFFFFF" fill-opacity="0.9961" d="
		M408.773,274.684c-23.288-0.512-55.08,13.691-54.709,45.939c0.442,3.28,1.016,6.475,2.892,9.038l-25.035,24.945
		c-0.02,0.567-0.586,0.425-0.638,0.987c4.59,9.4,3.852,11.24,3.779,18.503c1.103,3.223,2.804,10.413,1.776,15.418
		c-0.578,2.812,1.522,4.202,1.583,5.591l42.123-42.667c3.09,1.969,5.951,3.197,8.676,3.344c33.16-4.135,45.624-35.071,45.49-58.23
		l-25.943,25.122l-23.582-23.582l24.316-24.406L408.773,274.684z M224.188,461.795l-24.464,24.648
		c-4.038-2.666-8.154-1.938-10.868-2.617c-33.16,4.135-43.433,34.706-43.299,57.865l25.487-25.487l24.403,24.312l-24.041,24.041
		c23.288,0.512,54.074-11.5,53.704-43.747c-0.427-2.404,0.481-6.213-0.983-8.962l11.449-12.725
		c-2.59-9.488-5.227-19.293-8.857-28.56c0-0.03,0-0.06,0-0.09C226.036,468.449,225.172,465.253,224.188,461.795L224.188,461.795z"/>
	
		<path id="rect3960-0-4-9" inkscape:export-filename="c:\Users\aporto\Desktop\carimbo.png" inkscape:export-xdpi="92.870003" inkscape:export-ydpi="92.870003" inkscape:connector-curvature="0" sodipodi:nodetypes="ccccccccccccccccccccccccccccccccccccccccccccccccccccccccc" fill="#FFFFFF" fill-opacity="0.9961" d="
		M294.157,275.593c-1.271,0.193-3.232,1.169-5.632,1.181c-1.326-0.155-2.46,0.045-3.452,0.545c-2.476-0.015-4.088,0.86-5.178,2.18
		v-0.818c-0.961-0.53-1.371,1.073-1.635,3.27c-0.855,0.643-1.496,1.748-1.908,3.089c-3.312,2.219-6.434,5.315-8.63,13.535
		c-3.969,1.46-6.464,6.535-6.722,17.351c-5.507,6.543-3.694,10.03-3.724,14.262c-5.468,4.787-7.1,10.702-5.45,17.714
		c-4.119,3.258-5.614,9.649-4.905,18.713c-5.475,6.886-5.16,13.685-3.634,20.439c-6.546,9.408-3.502,14.448-2.271,20.348
		c-4.855,4.609-3.025,11.934,0.363,19.894c-1.474,1.443-2.359,3.301-2.725,5.632c-19.828-25.162-30.441-18.295-36.881-3.452
		c16.757-9.79,23.801,27.183,26.707,35.791c11.925,30.445,13.698,65.807,32.794,73.672c3.685,1.404,5.92,5.881,17.26,7.176
		c0.432,0.175,0.938,0.208,1.453,0.091c1.262,0.109,2.513,0.246,3.997,0.272l-0.18,13.717l9.72,0.272l-0.273-15.08
		c9.383-0.823,21.379-0.737,25.981-8.448c21.016-19.56,16.526-32.074,27.434-67.767c6.416-17.2-1.059-43.666,35.156-60.318
		c-16.329,3.376-30.127,4.779-43.422,15.897c0.279-1.855,0.259-4.178-0.363-7.54c-0.131-1.727-0.506-3.903-1.181-6.541
		c0.89-3.704,0.71-6.854,0-9.72c-0.318-3.64-1.685-6.782-2.998-9.902c0.816-4.333,0.601-7.172,0-9.538
		c-0.212-2.964-1.042-5.047-1.726-7.358c0.742-2.292,0.717-4.682,0.09-7.176c-0.139-4.24-2.419-8.765-5.541-13.445
		c0.405-2.414,0.403-4.782-0.273-7.176c-0.157-3.177-1.304-6.319-3.997-9.447c0.688-1.887,0.632-3.77,0-5.632
		c0.145-3.534-2.117-7.067-5.36-10.538c0.061-2.089-0.241-3.698-0.636-4.996c-0.279-5.006-2.302-6.788-4.088-9.175
		c-0.078-0.552-0.157-1.091-0.273-1.635c-0.387-4.728-1.927-9.221-6.268-13.081c-0.198-2.247-0.68-4.44-2.18-6.359
		c-0.453-1.266-1.274-2.5-2.544-3.634c0.038-1.699-0.309-1.405-0.999-0.727c-1.142-0.822-2.487-1.567-4.36-2.271
		c0.369-2.863-0.273-3.464-1.544-3.27L294.157,275.593z M291.614,276.502c0.461,0.056,0.883,0.423,1.181,0.999
		c-0.566-0.093-1.178-0.164-1.817-0.182v-0.727C291.224,276.486,291.407,276.476,291.614,276.502L291.614,276.502z"/>
	
		<path id="path16829-4-5-6" inkscape:connector-curvature="0" fill="none" stroke="#FFFFFF" stroke-width="1.4598" stroke-opacity="0.9958" d="
		M499.44,401.298l19.568-1.575l3.538,0.133l23.607,6.844v22.632l-23.607,6.844l-3.538,0.133l-19.568-1.575l-4.996,31.55
		l19.096,4.549l3.323,1.218l20.338,13.805l-6.993,21.523l-24.568-0.785l-3.406-0.969l-18.122-7.544l-14.503,28.461l16.757,10.226
		l2.784,2.187l15.077,19.415l-13.302,18.308l-23.123-8.338l-2.939-1.972l-14.904-12.776l-22.588,22.588l12.776,14.904l1.972,2.939
		l8.338,23.123l-18.308,13.302l-19.415-15.077l-2.187-2.784l-10.226-16.757l-28.461,14.503l7.544,18.122l0.969,3.406l0.785,24.568
		l-21.523,6.993l-13.805-20.338l-1.218-3.323l-4.549-19.096l-31.55,4.996l1.575,19.568l-0.133,3.538l-6.844,23.607h-22.632
		l-6.844-23.607l-0.133-3.538l1.575-19.568l-31.55-4.996l-4.549,19.096l-1.218,3.323l-13.805,20.338l-21.523-6.993l0.785-24.568
		l0.969-3.406l7.544-18.122l-28.461-14.503l-10.226,16.757l-2.187,2.784l-19.415,15.077l-18.308-13.302l8.338-23.123l1.972-2.939
		l12.776-14.904l-22.588-22.588l-14.904,12.776l-2.939,1.972l-23.123,8.338L79.363,558.37l15.077-19.415l2.784-2.187l16.757-10.226
		L99.478,498.08l-18.122,7.544l-3.406,0.969l-24.568,0.785l-6.993-21.523l20.338-13.805l3.323-1.218l19.096-4.549l-4.996-31.55
		l-19.568,1.575l-3.538-0.133l-23.607-6.844v-22.632l23.607-6.844l3.538-0.133l19.568,1.575l4.996-31.55l-19.096-4.549l-3.323-1.218
		l-20.338-13.805l6.993-21.523l24.568,0.785l3.406,0.969l18.122,7.544l14.503-28.461l-16.757-10.226l-2.784-2.187l-15.077-19.415
		l13.302-18.308l23.123,8.338l2.939,1.972l14.904,12.776l22.588-22.588l-12.776-14.904l-1.972-2.939l-8.338-23.123l18.308-13.302
		l19.415,15.077l2.187,2.784l10.226,16.757l28.461-14.503l-7.544-18.122l-0.969-3.406l-0.785-24.568l21.523-6.993l13.805,20.338
		l1.218,3.323l4.549,19.096l31.55-4.996l-1.575-19.568l0.133-3.538l6.844-23.607h22.632l6.844,23.607l0.133,3.538l-1.575,19.568
		l31.55,4.996l4.549-19.096l1.218-3.323l13.805-20.338l21.523,6.993l-0.785,24.568l-0.969,3.406l-7.544,18.122l28.461,14.503
		l10.226-16.757l2.187-2.784l19.415-15.077l18.308,13.302l-8.338,23.123l-1.972,2.939l-12.776,14.904l22.588,22.588l14.904-12.776
		l2.939-1.972l23.123-8.338l13.302,18.308l-15.077,19.415l-2.784,2.187l-16.757,10.226l14.503,28.461l18.122-7.544l3.406-0.969
		l24.568-0.785l6.993,21.523l-20.338,13.805l-3.323,1.218l-19.096,4.549L499.44,401.298z"/>
	<g id="text3941-1-2-8-2" transform="matrix(1.3119538,0.02374404,-0.02805776,1.1102478,-27.308325,10.843181)">
		<path id="path3931" fill="#FFFFFF" d="M104.481,536.893c0.982,1.549,1.273,3.216,0.874,5.001c-0.4,1.785-1.354,3.156-2.863,4.112
			l-34.319,21.754c-1.549,0.982-3.216,1.273-5.001,0.872c-1.785-0.4-3.168-1.375-4.15-2.924c-0.957-1.509-1.235-3.156-0.835-4.94
			c0.4-1.784,1.374-3.168,2.923-4.15l13.406-8.498l-3.852-6.076l-13.406,8.498c-1.549,0.982-3.216,1.273-5.001,0.872
			c-1.785-0.401-3.168-1.375-4.15-2.923c-0.982-1.548-1.266-3.205-0.854-4.97c0.412-1.765,1.393-3.139,2.942-4.12l34.319-21.754
			c1.509-0.957,3.15-1.245,4.922-0.864c1.772,0.38,3.149,1.345,4.131,2.893c0.982,1.549,1.273,3.215,0.873,5
			c-0.4,1.785-1.354,3.156-2.863,4.112l-9.771,6.194l3.852,6.076l9.771-6.194c1.509-0.957,3.156-1.235,4.94-0.835
			C102.154,534.43,103.525,535.384,104.481,536.893L104.481,536.893z"/>
		<path id="path3933" fill="#FFFFFF" d="M102.274,602.104c-1.118,2.235-2.909,3.422-5.374,3.562
			c-2.398,0.142-4.355-0.787-5.869-2.787l-7.575-10.712c-1.063-1.455-1.431-3.085-1.104-4.89c0.327-1.805,1.218-3.239,2.674-4.301
			c1.488-1.029,3.134-1.397,4.94-1.103c1.806,0.293,3.223,1.184,4.252,2.672l1.351,1.93l5.964-11.432l-21.493,9.86
			c-1.681,0.757-3.371,0.824-5.068,0.201c-1.698-0.623-2.943-1.76-3.736-3.409c-0.757-1.681-0.824-3.371-0.201-5.068
			c0.623-1.698,1.775-2.925,3.456-3.683l39.004-17.967c1.277-0.567,2.611-0.717,4.002-0.451c1.39,0.266,2.572,0.91,3.545,1.931
			c0.941,0.988,1.511,2.183,1.71,3.585c0.199,1.402-0.015,2.727-0.644,3.975L102.274,602.104z"/>
		<path id="path3935" fill="#FFFFFF" d="M156.297,622.76c0.854,1.62,1.025,3.3,0.511,5.041c-0.514,1.741-1.581,3.039-3.2,3.893
			c-4.536,2.494-9.375,3.641-14.517,3.441c-5.142-0.2-9.882-1.708-14.219-4.526c-6.508-4.227-10.57-10.146-12.186-17.758
			c-1.616-7.611-0.298-14.691,3.955-21.238c4.226-6.506,10.145-10.568,17.756-12.186c7.611-1.617,14.67-0.313,21.178,3.914
			c4.299,2.792,7.595,6.503,9.887,11.133c2.292,4.629,3.234,9.503,2.825,14.622c-0.122,1.827-0.874,3.329-2.256,4.507
			c-1.382,1.177-2.986,1.705-4.813,1.583c-1.868-0.147-3.39-0.911-4.567-2.292c-1.177-1.381-1.685-2.973-1.524-4.775
			c0.163-2.754-0.348-5.356-1.532-7.808c-1.184-2.452-2.92-4.42-5.206-5.905c-3.471-2.255-7.23-2.944-11.276-2.067
			c-4.046,0.877-7.183,3.03-9.411,6.46c-2.255,3.471-2.954,7.223-2.097,11.256c0.857,4.033,3.021,7.177,6.492,9.432
			c2.287,1.485,4.794,2.287,7.521,2.405c2.728,0.118,5.297-0.47,7.708-1.764c1.619-0.854,3.3-1.025,5.041-0.511
			C154.107,620.131,155.417,621.179,156.297,622.76L156.297,622.76z"/>
		<path id="path3937" fill="#FFFFFF" d="M192.041,649.042c0.354,1.779,0.015,3.433-1.014,4.96c-1.03,1.528-2.427,2.446-4.191,2.755
			c-1.824,0.339-3.488-0.003-4.993-1.025c-1.505-1.022-2.434-2.423-2.79-4.203l-3.603-18.796l-4.456,12.266
			c-0.626,1.724-1.768,2.973-3.426,3.746c-1.658,0.774-3.326,0.855-5.005,0.245c-1.724-0.626-2.973-1.768-3.747-3.425
			c-0.774-1.657-0.848-3.347-0.221-5.071l13.873-38.191c0.61-1.679,1.743-2.906,3.4-3.68c1.657-0.774,3.347-0.848,5.071-0.221
			c1.679,0.61,2.906,1.744,3.681,3.401c0.775,1.657,0.857,3.325,0.247,5.005l-3.083,8.488l12.58-9.014
			c1.487-1.062,3.126-1.442,4.918-1.142c1.792,0.301,3.218,1.194,4.279,2.68c1.061,1.486,1.441,3.126,1.141,4.918
			c-0.301,1.793-1.194,3.219-2.68,4.279l-14.219,10.222L192.041,649.042z"/>
		<path id="path3939" fill="#FFFFFF" d="M226.409,652.044c1.763,0.29,3.179,1.167,4.249,2.63c1.07,1.463,1.455,3.1,1.157,4.91
			c-0.298,1.81-1.19,3.248-2.676,4.313c-1.486,1.066-3.111,1.454-4.873,1.163l-19.281-3.174c-1.81-0.298-3.248-1.19-4.313-2.676
			c-1.066-1.486-1.45-3.134-1.152-4.944l6.601-40.093c0.29-1.763,1.178-3.177,2.664-4.243c1.486-1.066,3.134-1.45,4.944-1.152
			l18.028,2.968c1.763,0.29,3.178,1.178,4.244,2.665c1.066,1.486,1.455,3.111,1.164,4.874c-0.298,1.81-1.19,3.248-2.677,4.314
			c-1.487,1.066-3.112,1.455-4.875,1.164l-11.485-1.891l-0.802,4.871l9.189,1.513c1.81,0.298,3.249,1.179,4.319,2.642
			c1.07,1.463,1.455,3.1,1.157,4.91c-0.298,1.81-1.19,3.248-2.676,4.313c-1.486,1.066-3.134,1.45-4.944,1.152l-9.189-1.513
			l-1.513,9.187L226.409,652.044z"/>
		<path id="path3941" fill="#FFFFFF" d="M268.286,634.499c4.21,3.441,6.372,7.959,6.488,13.554l0.236,11.426
			c0.038,1.834-0.576,3.41-1.842,4.73c-1.266,1.32-2.792,1.998-4.579,2.035c-1.834,0.038-3.41-0.576-4.73-1.842
			c-1.32-1.266-1.998-2.816-2.036-4.65l-0.236-11.426c-0.023-1.128-0.361-2.108-1.014-2.942c-0.652-0.833-1.499-1.404-2.541-1.711
			c-2.318-0.611-3.853-2.061-4.605-4.351c-0.707-2.337-0.304-4.414,1.21-6.233c0.644-0.72,0.954-1.643,0.931-2.771
			c-0.02-0.941-0.307-1.782-0.864-2.523c-0.556-0.741-1.261-1.267-2.113-1.58l0.697,33.713c0.038,1.834-0.577,3.41-1.843,4.73
			c-1.267,1.32-2.817,1.998-4.65,2.036c-1.833,0.038-3.398-0.576-4.694-1.843c-1.297-1.267-1.964-2.817-2.002-4.65l-0.84-40.624
			c-0.038-1.834,0.565-3.398,1.809-4.693c1.337-1.298,2.875-1.965,4.614-2.001l5.15-0.107c4.843-0.1,9.016,1.542,12.519,4.927
			c3.504,3.385,5.306,7.499,5.406,12.341C268.787,631.408,268.629,632.892,268.286,634.499L268.286,634.499z"/>
		<path id="path3943" fill="#FFFFFF" d="M294.681,607.642c1.795-0.378,3.458-0.068,4.99,0.931c1.532,0.999,2.482,2.373,2.851,4.123
			c0.378,1.795,0.068,3.458-0.931,4.99c-0.999,1.532-2.396,2.487-4.19,2.865l-6.006,1.265c-0.645,0.136-1.16,0.484-1.546,1.046
			c-0.386,0.562-0.507,1.188-0.361,1.879c0.136,0.643,0.496,1.156,1.081,1.538c0.585,0.382,1.2,0.505,1.844,0.369
			c4.786-1.008,9.252-0.171,13.397,2.512c4.145,2.683,6.727,6.44,7.745,11.273c1.008,4.786,0.159,9.254-2.547,13.404
			c-2.706,4.15-6.452,6.729-11.238,7.737l-8.215,1.73c-1.793,0.378-3.456,0.067-4.989-0.931c-1.533-0.999-2.488-2.395-2.866-4.19
			c-0.378-1.795-0.065-3.447,0.939-4.955c1.004-1.509,2.403-2.452,4.197-2.83l8.215-1.731c1.243-0.262,2.218-0.936,2.927-2.022
			c0.708-1.086,0.932-2.251,0.67-3.494c-0.272-1.289-0.948-2.276-2.03-2.962c-1.082-0.685-2.244-0.897-3.487-0.635
			c-4.234,0.892-8.162,0.157-11.783-2.204c-3.621-2.361-5.878-5.658-6.77-9.892c-0.892-4.233-0.157-8.161,2.204-11.782
			c2.361-3.621,5.659-5.878,9.893-6.77L294.681,607.642z"/>
		<path id="path3945" fill="#FFFFFF" d="M333.437,652.273c-1.692,0.707-3.384,0.713-5.076,0.018
			c-1.692-0.695-2.891-1.888-3.598-3.581l-15.632-37.428c-0.707-1.692-0.713-3.384-0.018-5.076c0.695-1.691,1.888-2.891,3.581-3.598
			l9.374-3.915c4.599-1.921,9.217-1.938,13.852-0.052c4.636,1.886,7.914,5.129,9.835,9.729c1.921,4.6,1.923,9.211,0.005,13.834
			c-1.917,4.623-5.175,7.895-9.774,9.816l-3.319,1.386l4.269,10.22c0.707,1.692,0.713,3.385,0.018,5.076
			C336.258,650.394,335.086,651.584,333.437,652.273L333.437,652.273z M323.833,612.252l3.752,8.983l3.319-1.386
			c1.258-0.525,2.146-1.419,2.664-2.681c0.518-1.262,0.524-2.5,0.015-3.715c-0.507-1.215-1.392-2.081-2.653-2.599
			c-1.261-0.518-2.521-0.514-3.779,0.013L323.833,612.252z"/>
		<path id="path3947" fill="#FFFFFF" d="M395.193,607.971c2.016,1.477,2.886,3.442,2.611,5.896
			c-0.262,2.388-1.506,4.161-3.731,5.319l-11.831,5.672c-1.613,0.804-3.281,0.894-5.006,0.269c-1.725-0.625-2.989-1.744-3.792-3.357
			c-0.765-1.639-0.851-3.324-0.259-5.055c0.592-1.731,1.708-2.979,3.347-3.744l2.129-1.008l-10.271-7.796l6.118,22.842
			c0.465,1.784,0.248,3.461-0.652,5.03c-0.899,1.569-2.228,2.607-3.987,3.111c-1.784,0.465-3.461,0.248-5.03-0.651
			c-1.569-0.899-2.587-2.241-3.051-4.025l-11.176-41.464c-0.345-1.354-0.27-2.695,0.226-4.021c0.495-1.326,1.328-2.383,2.498-3.171
			c1.132-0.763,2.405-1.124,3.82-1.085c1.415,0.039,2.685,0.473,3.811,1.302L395.193,607.971z"/>
		<path id="path3949" fill="#FFFFFF" d="M424.608,558.167c1.74-0.571,3.425-0.457,5.055,0.342c1.63,0.799,2.731,2.068,3.302,3.808
			c1.698,4.89,2.017,9.853,0.958,14.889c-1.059,5.036-3.342,9.455-6.847,13.259c-5.259,5.706-11.775,8.718-19.55,9.035
			c-7.775,0.317-14.533-2.17-20.274-7.461c-5.705-5.258-8.717-11.774-9.035-19.548c-0.318-7.774,2.152-14.515,7.411-20.221
			c3.474-3.77,7.685-6.396,12.633-7.88c4.948-1.483,9.911-1.594,14.888-0.333c1.781,0.427,3.135,1.42,4.064,2.98
			c0.929,1.56,1.18,3.23,0.753,5.01c-0.458,1.816-1.467,3.189-3.026,4.117c-1.559,0.929-3.214,1.162-4.963,0.702
			c-2.687-0.622-5.339-0.556-7.954,0.201c-2.615,0.756-4.847,2.137-6.695,4.142c-2.805,3.044-4.114,6.634-3.929,10.769
			c0.186,4.136,1.782,7.59,4.79,10.361c3.044,2.805,6.625,4.123,10.745,3.955c4.12-0.168,7.582-1.774,10.387-4.818
			c1.848-2.005,3.059-4.342,3.632-7.012c0.573-2.669,0.425-5.301-0.446-7.895c-0.571-1.74-0.457-3.425,0.342-5.055
			C421.649,559.885,422.902,558.769,424.608,558.167L424.608,558.167z"/>
		<path id="path3951" fill="#FFFFFF" d="M449.83,532.861c0.893-1.548,2.212-2.565,3.958-3.05c1.746-0.486,3.414-0.27,5.003,0.646
			c1.589,0.916,2.62,2.257,3.095,4.023c0.474,1.766,0.265,3.423-0.627,4.971l-9.761,16.928c-0.916,1.589-2.257,2.62-4.023,3.095
			c-1.766,0.474-3.444,0.253-5.033-0.663l-35.2-20.297c-1.548-0.893-2.559-2.222-3.033-3.988c-0.474-1.766-0.253-3.444,0.663-5.033
			l9.126-15.828c0.893-1.548,2.222-2.559,3.988-3.034c1.766-0.475,3.424-0.266,4.972,0.626c1.589,0.916,2.621,2.258,3.095,4.025
			c0.475,1.767,0.266,3.425-0.627,4.972l-5.814,10.084l4.276,2.466l4.652-8.068c0.916-1.589,2.247-2.626,3.994-3.112
			c1.746-0.486,3.414-0.271,5.003,0.646c1.589,0.916,2.621,2.257,3.095,4.023c0.474,1.766,0.253,3.444-0.663,5.033l-4.652,8.068
			l8.066,4.651L449.83,532.861z"/>
	</g>
	<g id="text3937-5-5-4-6" transform="matrix(1.1477553,-0.02405496,0.02223322,1.1477567,67.969975,-94.601817)">
		<path id="path3954" fill="#FFFFFF" d="M11.86,212.264c1.443-1.133,3.072-1.59,4.887-1.372c1.816,0.218,3.276,1.031,4.38,2.437
			c1.133,1.443,1.59,3.072,1.372,4.887c-0.218,1.816-1.049,3.29-2.491,4.423l-4.827,3.79c-0.518,0.407-0.826,0.948-0.924,1.622
			c-0.098,0.675,0.071,1.29,0.507,1.845c0.406,0.517,0.956,0.817,1.649,0.901c0.694,0.084,1.3-0.077,1.818-0.484
			c3.847-3.021,8.222-4.245,13.126-3.672c4.904,0.573,8.881,2.802,11.931,6.685c3.021,3.847,4.235,8.23,3.644,13.148
			c-0.592,4.919-2.811,8.889-6.658,11.909l-6.603,5.185c-1.441,1.132-3.07,1.589-4.886,1.371c-1.816-0.218-3.291-1.048-4.423-2.491
			c-1.133-1.442-1.582-3.063-1.349-4.86c0.234-1.797,1.071-3.262,2.512-4.394l6.603-5.185c0.999-0.784,1.576-1.82,1.731-3.108
			c0.155-1.288-0.16-2.431-0.944-3.43c-0.814-1.036-1.857-1.622-3.13-1.759c-1.273-0.136-2.409,0.188-3.408,0.972
			c-3.403,2.672-7.251,3.75-11.543,3.234c-4.292-0.516-7.774-2.476-10.446-5.878c-2.672-3.403-3.75-7.25-3.234-11.542
			c0.516-4.292,2.476-7.774,5.879-10.447L11.86,212.264z"/>
		<path id="path3956" fill="#FFFFFF" d="M87.388,218.89c1.869,1.659,2.552,3.696,2.049,6.114c-0.484,2.353-1.888,4.002-4.212,4.947
			l-12.309,4.542c-1.681,0.65-3.35,0.583-5.009-0.2c-1.659-0.783-2.813-2.015-3.461-3.697c-0.608-1.703-0.537-3.389,0.214-5.057
			c0.751-1.668,1.978-2.807,3.682-3.415l2.214-0.805l-9.498-8.721l3.957,23.314c0.296,1.82-0.077,3.469-1.119,4.948
			c-1.042,1.479-2.462,2.387-4.26,2.725c-1.82,0.296-3.469-0.077-4.948-1.119c-1.479-1.042-2.366-2.472-2.662-4.292l-7.253-42.326
			c-0.217-1.381-0.017-2.708,0.6-3.982c0.617-1.274,1.545-2.249,2.784-2.924c1.198-0.653,2.5-0.894,3.905-0.723
			c1.405,0.171,2.629,0.722,3.673,1.652L87.388,218.89z"/>
		<path id="path3958" fill="#FFFFFF" d="M111.447,186.284c5.086,2.094,8.517,5.744,10.291,10.951
			c1.608,4.719,1.301,9.321-0.922,13.804c-2.223,4.484-5.694,7.529-10.411,9.137l-9.75,3.323c-1.691,0.576-3.357,0.461-4.999-0.346
			c-1.641-0.807-2.757-2.078-3.349-3.814l-13.107-38.461c-0.561-1.646-0.46-3.32,0.302-5.02c0.881-1.642,2.167-2.751,3.858-3.328
			l4.742-1.616c4.585-1.562,9.07-1.265,13.457,0.891c4.387,2.157,7.361,5.528,8.924,10.112
			C110.998,183.432,111.32,184.887,111.447,186.284L111.447,186.284z M106.149,207.689c1.29-0.44,2.236-1.271,2.838-2.494
			c0.601-1.223,0.689-2.458,0.264-3.705c-0.364-1.068-0.983-1.9-1.856-2.497c-0.874-0.597-1.876-0.876-3.006-0.838
			c-2.394,0.12-4.296-0.797-5.706-2.749c-1.382-2.014-1.627-4.117-0.735-6.309c0.396-0.881,0.412-1.855,0.048-2.923
			c-0.303-0.89-0.832-1.604-1.587-2.142c-0.755-0.538-1.586-0.826-2.492-0.865l8.76,25.705L106.149,207.689z"/>
		<path id="path3960" fill="#FFFFFF" d="M152.352,157.699c1.088-1.471,2.538-2.343,4.351-2.616c1.813-0.273,3.444,0.136,4.892,1.225
			c1.448,1.09,2.309,2.541,2.582,4.355l4.158,27.623c0.847,5.627-0.409,10.715-3.767,15.263c-3.358,4.548-7.827,7.242-13.407,8.082
			c-5.58,0.84-10.644-0.419-15.191-3.777c-4.547-3.358-7.245-7.851-8.092-13.478l-4.158-27.623
			c-0.273-1.814,0.122-3.454,1.185-4.922c1.063-1.468,2.501-2.338,4.315-2.611c1.814-0.273,3.456,0.134,4.927,1.22
			s2.343,2.536,2.616,4.35l4.158,27.623c0.301,2,1.256,3.604,2.864,4.812c1.609,1.208,3.413,1.662,5.412,1.361
			c2-0.301,3.59-1.266,4.772-2.894c1.182-1.628,1.622-3.442,1.321-5.442l-4.158-27.623
			C150.859,160.813,151.266,159.171,152.352,157.699L152.352,157.699z"/>
		<path id="path3962" fill="#FFFFFF" d="M226.751,176.406c1.83,0.128,3.345,0.87,4.547,2.226c1.201,1.356,1.738,2.949,1.611,4.779
			c-0.541,7.741-3.747,14.164-9.618,19.27c-5.872,5.106-12.678,7.388-20.419,6.848c-7.741-0.541-14.164-3.747-19.269-9.619
			c-5.105-5.872-7.387-12.679-6.847-20.419c0.541-7.74,3.747-14.163,9.618-19.269c5.872-5.106,12.678-7.388,20.419-6.848
			c4.269,0.298,8.251,1.507,11.945,3.628c3.694,2.12,6.762,4.939,9.204,8.456c1.074,1.489,1.443,3.13,1.105,4.921
			c-0.337,1.791-1.249,3.201-2.735,4.229c-1.486,1.028-3.125,1.385-4.918,1.071c-1.793-0.314-3.227-1.215-4.301-2.704
			c-2.694-3.959-6.434-6.105-11.219-6.439c-4.129-0.288-7.749,0.92-10.861,3.626c-3.112,2.705-4.811,6.122-5.1,10.25
			c-0.288,4.128,0.92,7.748,3.626,10.86c2.705,3.112,6.122,4.812,10.251,5.1c2.862,0.2,5.542-0.379,8.041-1.737
			c2.499-1.358,4.468-3.235,5.909-5.632l-13.299-0.929c-1.83-0.128-3.344-0.882-4.544-2.263c-1.2-1.381-1.736-2.986-1.608-4.816
			c0.128-1.83,0.881-3.333,2.259-4.509c1.378-1.176,2.982-1.7,4.812-1.573L226.751,176.406z"/>
		<path id="path3964" fill="#FFFFFF" d="M275.33,207.399c3.685-1.852,6.178-4.742,7.479-8.67c1.301-3.928,1.026-7.735-0.825-11.419
			c-1.851-3.684-4.741-6.177-8.671-7.478c-3.929-1.301-7.736-1.026-11.42,0.825c-3.684,1.851-6.177,4.741-7.478,8.67
			c-1.301,3.929-1.026,7.735,0.825,11.419c1.851,3.684,4.741,6.177,8.671,7.478C267.84,209.525,271.646,209.25,275.33,207.399
			L275.33,207.399z M255.98,168.89c6.953-3.494,14.113-4.021,21.479-1.581c7.366,2.439,12.796,7.136,16.289,14.089
			c3.493,6.953,4.02,14.112,1.581,21.478c-2.439,7.366-7.135,12.796-14.088,16.29c-6.953,3.494-14.112,4.021-21.479,1.582
			c-7.367-2.439-12.796-7.136-16.289-14.089c-3.493-6.953-4.02-14.112-1.581-21.478C244.333,177.815,249.028,172.385,255.98,168.89
			L255.98,168.89z"/>
		<path id="path3966" fill="#FFFFFF" d="M335.068,194.979c1.588,0.918,2.617,2.261,3.089,4.028c0.472,1.767,0.26,3.424-0.635,4.972
			c-0.918,1.588-2.261,2.617-4.028,3.089c-1.767,0.472-3.444,0.249-5.032-0.67l-5.313-3.073c-0.57-0.33-1.187-0.415-1.849-0.255
			c-0.663,0.16-1.171,0.545-1.524,1.156c-0.329,0.569-0.404,1.191-0.224,1.866c0.18,0.675,0.555,1.178,1.125,1.507
			c4.234,2.449,6.996,6.056,8.286,10.822c1.29,4.766,0.699,9.286-1.773,13.561c-2.449,4.234-6.067,6.99-10.853,8.268
			c-4.787,1.278-9.297,0.693-13.53-1.756l-7.268-4.204c-1.586-0.918-2.616-2.26-3.088-4.027c-0.473-1.767-0.25-3.444,0.669-5.032
			c0.918-1.588,2.255-2.607,4.011-3.058c1.756-0.451,3.426-0.218,5.013,0.7l7.268,4.204c1.099,0.636,2.276,0.787,3.529,0.452
			c1.253-0.335,2.197-1.052,2.833-2.151c0.66-1.14,0.816-2.327,0.47-3.559c-0.347-1.233-1.07-2.167-2.169-2.803
			c-3.746-2.167-6.176-5.338-7.292-9.515c-1.116-4.177-0.59-8.137,1.576-11.882c2.166-3.745,5.337-6.175,9.514-7.291
			c4.177-1.116,8.138-0.59,11.883,1.576L335.068,194.979z"/>
		<path id="path3968" fill="#FFFFFF" d="M356.979,267.564c-0.845,2.351-2.483,3.743-4.914,4.175
			c-2.364,0.425-4.417-0.265-6.159-2.071l-8.792-9.738c-1.228-1.319-1.787-2.893-1.677-4.725c0.11-1.831,0.826-3.36,2.145-4.588
			c1.355-1.198,2.947-1.759,4.775-1.681c1.828,0.077,3.341,0.793,4.539,2.148l1.57,1.756l4.565-12.059l-20.172,12.34
			c-1.579,0.951-3.249,1.218-5.009,0.801c-1.76-0.417-3.131-1.398-4.114-2.942c-0.951-1.579-1.218-3.249-0.801-5.009
			c0.417-1.76,1.416-3.115,2.995-4.067l36.597-22.468c1.201-0.714,2.508-1.022,3.92-0.923c1.412,0.099,2.662,0.598,3.749,1.497
			c1.052,0.87,1.76,1.988,2.123,3.356c0.363,1.368,0.307,2.709-0.168,4.024L356.979,267.564z"/>
	</g>
</g>
</svg>
