<?xml version="1.0" encoding="UTF-8" standalone="no"?>
<!-- Created with Inkscape (http://www.inkscape.org/) -->

<svg
   xmlns:dc="http://purl.org/dc/elements/1.1/"
   xmlns:cc="http://creativecommons.org/ns#"
   xmlns:rdf="http://www.w3.org/1999/02/22-rdf-syntax-ns#"
   xmlns:svg="http://www.w3.org/2000/svg"
   xmlns="http://www.w3.org/2000/svg"
   xmlns:sodipodi="http://sodipodi.sourceforge.net/DTD/sodipodi-0.dtd"
   xmlns:inkscape="http://www.inkscape.org/namespaces/inkscape"
   width="744.09448819"
   height="1052.3622047"
   id="svg3103"
   version="1.1"
   inkscape:version="0.48.5 r10040"
   sodipodi:docname="New document 2">
  <defs
     id="defs3105" />
  <sodipodi:namedview
     id="base"
     pagecolor="#ffffff"
     bordercolor="#666666"
     borderopacity="1.0"
     inkscape:pageopacity="0.0"
     inkscape:pageshadow="2"
     inkscape:zoom="1.979899"
     inkscape:cx="451.47191"
     inkscape:cy="467.15711"
     inkscape:document-units="px"
     inkscape:current-layer="layer1"
     showgrid="false"
     inkscape:window-width="1920"
     inkscape:window-height="1017"
     inkscape:window-x="1911"
     inkscape:window-y="-9"
     inkscape:window-maximized="1" />
  <metadata
     id="metadata3108">
    <rdf:RDF>
      <cc:Work
         rdf:about="">
        <dc:format>image/svg+xml</dc:format>
        <dc:type
           rdf:resource="http://purl.org/dc/dcmitype/StillImage" />
        <dc:title></dc:title>
      </cc:Work>
    </rdf:RDF>
  </metadata>
  <g
     inkscape:label="Layer 1"
     inkscape:groupmode="layer"
     id="layer1">
    <path
       sodipodi:type="arc"
       style="fill:#005d1c;fill-opacity:1;stroke:none"
       id="path3886"
       sodipodi:cx="424.28571"
       sodipodi:cy="485.21933"
       sodipodi:rx="158.57143"
       sodipodi:ry="158.57143"
       d="m 582.85713,485.21933 a 158.57143,158.57143 0 1 1 -317.14285,0 158.57143,158.57143 0 1 1 317.14285,0 z"
       transform="matrix(0.39481852,0,0,0.39481852,204.53139,334.60751)"
       inkscape:export-xdpi="521.75"
       inkscape:export-ydpi="521.75" />
    <path
       style="fill:#ffffff;fill-opacity:1;stroke:none"
       d="m 368.97404,457.18261 -1.73761,5.99085 c -3.44541,0.25957 -6.81931,0.79162 -10.08849,1.582 l -3.50114,-5.13502 -5.83525,1.91915 0.18154,6.17239 c -3.18379,1.31113 -6.23109,2.87682 -9.12891,4.66819 l -4.87566,-3.81236 -4.97941,3.63082 2.12662,5.80931 c -2.61286,2.22168 -5.04038,4.64822 -7.26163,7.26163 l -5.83524,-2.12662 -3.60489,4.97941 3.81236,4.9016 c -1.78643,2.89283 -3.35966,5.92553 -4.66819,9.10297 l -6.19832,-0.18154 -1.89322,5.83525 5.13502,3.50114 c -0.791,3.26937 -1.32127,6.64318 -1.582,10.08848 l -5.99085,1.73761 0,6.14645 5.99085,1.73761 c 0.26148,3.45418 0.78532,6.83837 1.582,10.11442 l -5.13502,3.47521 1.89322,5.83524 6.19832,-0.18154 c 1.3131,3.18038 2.90461,6.20703 4.69413,9.10297 l -3.8383,4.90161 3.60489,4.9794 5.8093,-2.12662 c 2.22528,2.61387 4.66929,5.04023 7.28757,7.26163 l -2.12662,5.83525 4.97941,3.60488 4.9016,-3.81236 c 2.89367,1.78791 5.92594,3.35788 9.10297,4.66819 l -0.18154,6.19833 5.83525,1.89321 3.50114,-5.13501 c 3.27286,0.79073 6.63937,1.34789 10.08849,1.60793 l 1.73761,5.96491 6.14645,0 1.73761,-5.96491 c 3.45609,-0.26065 6.8355,-0.78742 10.11441,-1.582 l 3.47522,5.10908 5.83524,-1.89321 -0.18154,-6.19833 c 3.17341,-1.3085 6.21382,-2.88347 9.10297,-4.66819 l 4.9016,3.81236 4.97941,-3.60488 -2.07475,-5.73151 0.0259,-0.0259 0.36308,-0.41495 0,-0.0259 c 2.44548,-2.11762 4.72011,-4.43266 6.82075,-6.89856 l 5.83524,2.12663 3.60488,-4.97941 -3.81235,-4.87567 c 1.79089,-2.89676 3.35648,-5.94726 4.66819,-9.12891 l 6.19832,0.18154 1.89321,-5.83524 -5.13501,-3.47521 c 0.7953,-3.28034 1.34765,-6.65612 1.60794,-10.11442 l 5.96491,-1.7376 0,-6.14646 -5.99085,-1.7376 c -0.26095,-3.4453 -0.79034,-6.81912 -1.582,-10.08849 l 5.13501,-3.50114 -1.89321,-5.83524 -6.19832,0.18154 c -1.30925,-3.1768 -2.88098,-6.21067 -4.66819,-9.10298 l 3.81235,-4.9016 -3.60488,-4.97941 -5.86117,2.12662 c -2.21761,-2.60765 -4.62813,-5.01804 -7.2357,-7.23569 l 2.12662,-5.83525 -4.97941,-3.63081 -4.9016,3.81235 c -2.8923,-1.78721 -5.92618,-3.35894 -9.10298,-4.66819 l 0.18154,-6.17239 -5.83524,-1.91914 -3.50114,5.13501 c -3.26937,-0.79166 -6.64318,-1.32105 -10.08848,-1.582 l -1.73761,-5.99085 -6.14645,0 z m 5.39435,7.33944 c 0.19564,-0.008 0.3944,-0.01 0.59649,0 0.89164,0.0436 1.76257,0.27416 2.54158,0.70023 0.77898,0.4261 1.39562,1.01478 1.91914,1.7376 0.23007,0.30594 0.32245,0.63637 0.25935,1.01144 -0.0631,0.3751 -0.21291,0.68686 -0.51869,0.90771 -0.30579,0.22085 -0.6881,0.31694 -1.06331,0.25934 -0.37524,-0.0576 -0.65169,-0.26464 -0.88177,-0.57056 -0.57797,-0.81391 -1.38668,-1.22201 -2.38597,-1.27078 -0.86235,-0.0421 -1.61825,0.20017 -2.25629,0.77803 -0.63805,0.57787 -0.968,1.29026 -1.01144,2.15256 -0.0435,0.8623 0.22713,1.61914 0.80396,2.25629 0.57684,0.63715 1.29021,0.96936 2.15256,1.01144 0.59772,0.0292 1.17003,-0.0949 1.68574,-0.38901 0.51567,-0.2941 0.90219,-0.68676 1.19298,-1.19299 l -2.77498,-0.12967 c -0.38215,-0.0187 -0.67782,-0.18407 -0.93364,-0.46682 -0.25583,-0.28274 -0.38234,-0.60333 -0.36308,-0.98551 0.0192,-0.38217 0.15814,-0.7082 0.44088,-0.95957 0.28273,-0.25134 0.62931,-0.35579 1.01144,-0.33715 l 4.46072,0.23341 c 0.38212,0.0187 0.70348,0.1373 0.95957,0.41495 0.25608,0.27766 0.38233,0.62927 0.36309,1.01145 -0.0815,1.61692 -0.74107,2.95517 -1.94508,4.04576 -1.20404,1.09058 -2.61057,1.60904 -4.22731,1.53013 -1.61676,-0.0789 -2.98321,-0.71666 -4.0717,-1.91914 -1.08849,-1.20247 -1.58568,-2.63647 -1.5042,-4.25325 0.0814,-1.61678 0.71512,-2.95517 1.91915,-4.04576 1.05351,-0.95426 2.26129,-1.47125 3.63081,-1.53013 z m -9.82914,0.57055 c 0.0943,-0.0161 0.19543,-0.002 0.28528,0 0.26955,0.005 0.49627,0.0937 0.72617,0.25935 0.30649,0.22094 0.50627,0.50469 0.57055,0.88177 l 0.98551,5.7315 c 0.19938,1.16995 -0.0442,2.25258 -0.72616,3.21587 -0.68204,0.96329 -1.61452,1.53804 -2.77498,1.7376 -1.16049,0.19959 -2.20197,-0.0456 -3.164,-0.72616 -0.96203,-0.68054 -1.56415,-1.60505 -1.76354,-2.77498 l -0.95958,-5.75744 c -0.0643,-0.37708 0.0178,-0.70069 0.23341,-1.01144 0.21573,-0.31075 0.50458,-0.50568 0.88177,-0.57056 0.37719,-0.0648 0.72615,0.0132 1.03738,0.23341 0.31122,0.22013 0.48036,0.53063 0.54462,0.9077 l 1.01145,5.73151 c 0.0709,0.41575 0.25609,0.76641 0.59649,1.01144 0.34037,0.24502 0.72526,0.33087 1.14111,0.25934 0.41584,-0.0715 0.71972,-0.30354 0.95957,-0.64836 0.23986,-0.3448 0.35614,-0.72535 0.28528,-1.14111 l -0.98551,-5.7315 c -0.0643,-0.37709 -0.013,-0.69984 0.20748,-1.01144 0.22089,-0.31164 0.53065,-0.53164 0.9077,-0.5965 z m 23.52251,1.76354 c 0.56437,0.005 1.1318,0.10656 1.71167,0.28528 1.54629,0.47661 2.71857,1.41786 3.47521,2.85279 0.75664,1.43492 0.86798,2.93968 0.38902,4.48665 -0.47901,1.54696 -1.41682,2.69015 -2.85279,3.44927 -1.43599,0.75913 -2.91442,0.89153 -4.46072,0.41495 -1.5463,-0.4766 -2.71857,-1.44379 -3.47521,-2.87871 -0.75664,-1.43492 -0.89393,-2.91375 -0.41495,-4.46072 0.47899,-1.54696 1.44287,-2.69009 2.87872,-3.44928 0.89757,-0.47442 1.80843,-0.70848 2.74905,-0.70023 z m -36.72313,1.63387 c 0.58756,-0.0342 1.18624,0.0939 1.76354,0.36308 0.92368,0.43068 1.5488,1.12535 1.89321,2.07475 0.11368,0.3134 0.20121,0.59097 0.23341,0.88177 1.06931,0.41442 1.78732,1.15211 2.17849,2.23036 0.3545,0.97728 0.31587,1.95976 -0.12967,2.90466 -0.44556,0.94489 -1.14912,1.56317 -2.12662,1.91914 l -2.02288,0.7521 c -0.35042,0.12761 -0.69185,0.10916 -1.03738,-0.0519 -0.34554,-0.1611 -0.59574,-0.41852 -0.72616,-0.77803 l -2.87872,-7.96186 c -0.12368,-0.34094 -0.10018,-0.70534 0.0519,-1.06331 0.17707,-0.34631 0.42761,-0.54668 0.77803,-0.6743 l 0.98551,-0.36308 c 0.35622,-0.12972 0.68484,-0.21289 1.03737,-0.23341 z m 36.72313,1.11518 c -0.50053,-0.006 -1.00266,0.1117 -1.47826,0.36308 -0.76095,0.40222 -1.27467,1.01629 -1.53013,1.84134 -0.25547,0.82507 -0.19352,1.62564 0.20747,2.38597 0.401,0.76036 1.01657,1.27593 1.84135,1.53013 0.82475,0.25421 1.62519,0.1687 2.38596,-0.23341 0.76113,-0.40231 1.27466,-1.01629 1.53013,-1.84134 0.25545,-0.82507 0.19351,-1.62563 -0.20747,-2.38597 -0.401,-0.76033 -1.01658,-1.24998 -1.84135,-1.50419 -0.30929,-0.0953 -0.60739,-0.1526 -0.9077,-0.15561 z m -36.51565,1.63387 1.94508,5.31655 0.72616,-0.25934 c 0.26739,-0.0974 0.45008,-0.26097 0.57056,-0.51869 0.12048,-0.25773 0.14553,-0.54572 0.0519,-0.80397 -0.0803,-0.22109 -0.23033,-0.37208 -0.41495,-0.49275 -0.18462,-0.12067 -0.38684,-0.16846 -0.62243,-0.15561 -0.49886,0.0355 -0.891,-0.14345 -1.19298,-0.54462 -0.29645,-0.41401 -0.35875,-0.86162 -0.18154,-1.32266 0.079,-0.18544 0.0799,-0.40129 0,-0.62242 -0.0669,-0.18425 -0.17752,-0.33197 -0.33715,-0.44089 -0.15964,-0.10889 -0.35548,-0.15154 -0.54462,-0.1556 z m 47.71931,0.36308 c 0.52368,0.004 1.03639,0.14277 1.53013,0.41495 l 1.11518,0.64836 c 0.33483,0.18459 0.54279,0.43754 0.64836,0.80397 0.10555,0.36642 0.0768,0.71062 -0.10374,1.03737 -0.18513,0.33517 -0.46332,0.56816 -0.8299,0.6743 -0.3666,0.10615 -0.72846,0.0549 -1.06331,-0.12967 l -1.11518,-0.5965 c -0.12027,-0.0663 -0.25144,-0.0881 -0.38901,-0.0519 -0.13758,0.0362 -0.23995,0.10439 -0.31122,0.2334 -0.0664,0.12013 -0.0922,0.24899 -0.0519,0.38902 0.0403,0.14004 0.13907,0.24491 0.25934,0.31121 0.89295,0.49226 1.47513,1.24195 1.76354,2.23036 0.28837,0.98842 0.21315,1.92444 -0.28528,2.82685 -0.49366,0.89377 -1.26314,1.50189 -2.25629,1.78948 -0.99318,0.28757 -1.9339,0.15511 -2.82685,-0.33715 l -1.53013,-0.8299 c -0.33459,-0.18446 -0.54267,-0.4634 -0.64836,-0.8299 -0.10569,-0.36651 -0.0813,-0.70221 0.10374,-1.03738 0.18512,-0.33515 0.46557,-0.57254 0.8299,-0.67429 0.36432,-0.10175 0.70277,-0.0548 1.03737,0.12967 l 1.55607,0.85583 c 0.23188,0.12784 0.46617,0.15315 0.72616,0.0778 0.25998,-0.0753 0.44235,-0.23472 0.57056,-0.46682 0.13296,-0.24074 0.18097,-0.49655 0.10373,-0.7521 -0.0773,-0.25555 -0.23495,-0.41679 -0.46681,-0.54462 -0.78999,-0.43549 -1.30652,-1.10476 -1.55607,-1.97102 -0.24956,-0.86625 -0.17732,-1.69914 0.25935,-2.4897 0.43665,-0.79056 1.10437,-1.30513 1.97101,-1.55607 0.32498,-0.0941 0.64536,-0.15803 0.95957,-0.1556 z m -56.64075,0.88177 c 0.0705,-0.003 0.15997,-0.007 0.23341,0 0.29378,0.0296 0.55666,0.1218 0.77803,0.31121 l 6.69108,5.91305 c 0.39648,0.33775 0.56194,0.76443 0.46682,1.27078 -0.0914,0.49291 -0.37494,0.856 -0.85583,1.06331 l -2.54158,0.98551 c -0.34792,0.14292 -0.71417,0.13001 -1.06331,-0.0259 -0.34914,-0.15611 -0.58405,-0.40425 -0.72616,-0.7521 -0.13378,-0.35261 -0.12371,-0.68613 0.0259,-1.03738 0.14992,-0.35124 0.39928,-0.61774 0.7521,-0.75209 l 0.46682,-0.15561 -2.02288,-1.78947 0.9077,4.84973 c 0.0691,0.37827 0.004,0.72444 -0.20748,1.03738 -0.2113,0.31295 -0.50804,0.49214 -0.88176,0.57055 -0.37837,0.0697 -0.69884,0.003 -1.01145,-0.20747 -0.31259,-0.21081 -0.5274,-0.47758 -0.59649,-0.85584 l -1.68573,-8.8177 c -0.0508,-0.28703 -0.0198,-0.56147 0.10373,-0.8299 0.12357,-0.2684 0.3409,-0.47614 0.59649,-0.62242 0.18546,-0.10614 0.35895,-0.14569 0.57056,-0.15561 z m 28.26851,4.79786 c 0.42051,-0.0107 0.84771,0 1.27079,0 27.07737,0 49.04196,21.9646 49.04196,49.04197 0,27.07737 -21.96459,49.01602 -49.04196,49.01602 -27.07737,0 -49.01604,-21.93865 -49.01604,-49.01602 0,-26.65427 21.25279,-48.37035 47.74525,-49.04197 z m -35.58201,0.0778 c 0.0897,-0.008 0.16445,-0.009 0.25934,0 0.37957,0.0377 0.69762,0.20425 0.93364,0.49275 0.24209,0.29593 0.34942,0.63181 0.31122,1.01144 -0.0382,0.37965 -0.19647,0.69108 -0.49276,0.93364 l -1.01144,0.80397 c -0.10641,0.0871 -0.16382,0.19603 -0.18154,0.33714 -0.0177,0.14114 0.0364,0.27511 0.12967,0.38902 0.0868,0.10605 0.19213,0.16707 0.33715,0.18154 0.145,0.0144 0.25667,-0.0166 0.36308,-0.10374 0.79012,-0.64685 1.72385,-0.92796 2.74905,-0.8299 1.02519,0.0981 1.83787,0.52591 2.4897,1.32266 0.64558,0.78912 0.93343,1.72053 0.8299,2.74904 -0.10352,1.02853 -0.55848,1.84286 -1.34859,2.48971 l -1.37452,1.14111 c -0.29606,0.24238 -0.63176,0.34873 -1.01144,0.31121 -0.37968,-0.0375 -0.66562,-0.22276 -0.90771,-0.51868 -0.24209,-0.29592 -0.35266,-0.63553 -0.31121,-1.01145 0.0415,-0.3759 0.19669,-0.69125 0.49275,-0.93363 l 1.37453,-1.08925 c 0.20517,-0.16798 0.31005,-0.37911 0.33714,-0.64836 0.0271,-0.26924 -0.0398,-0.52124 -0.20747,-0.72616 -0.1739,-0.21256 -0.38229,-0.31429 -0.64836,-0.33715 -0.26607,-0.0229 -0.52098,0.0135 -0.72616,0.18154 -0.699,0.57227 -1.48866,0.84101 -2.38597,0.7521 -0.89731,-0.0889 -1.63338,-0.46904 -2.20442,-1.16705 -0.57103,-0.69798 -0.81649,-1.5144 -0.72617,-2.4119 0.0904,-0.89746 0.49399,-1.63215 1.19299,-2.20442 l 0.9855,-0.80397 c 0.22222,-0.18192 0.48305,-0.28689 0.7521,-0.31121 z m 73.03129,0.0519 c 0.0708,-0.007 0.13375,-0.003 0.20748,0 0.29492,0.0145 0.54759,0.12852 0.77803,0.31122 0.22292,0.17676 0.38547,0.39052 0.46682,0.67429 0.0813,0.28378 0.0677,0.5537 -0.0259,0.8299 l -2.98246,8.48055 c -0.16673,0.49414 -0.5321,0.78108 -1.03737,0.88177 -0.49142,0.0991 -0.90028,-0.0459 -1.27079,-0.41495 l -1.89321,-1.99695 c -0.26151,-0.26965 -0.37872,-0.6031 -0.36308,-0.9855 0.0156,-0.38241 0.14465,-0.67189 0.41495,-0.93364 0.27779,-0.25581 0.62987,-0.39711 1.01144,-0.38902 0.38156,0.008 0.7042,0.13756 0.95957,0.41495 l 0.33715,0.38902 0.88177,-2.54157 -4.14951,2.67124 c -0.32557,0.20531 -0.66862,0.2609 -1.03737,0.18154 -0.36874,-0.0793 -0.64467,-0.2788 -0.85584,-0.59649 -0.20478,-0.32525 -0.28742,-0.69443 -0.20747,-1.06331 0.0799,-0.36888 0.29685,-0.65052 0.62242,-0.85584 l 7.52098,-4.84973 c 0.18574,-0.1157 0.41009,-0.18672 0.62243,-0.20748 z m -9.0511,14.54921 c -5.43916,0.094 -12.48138,3.46448 -12.39665,10.84058 0.10431,0.77446 0.25734,1.52146 0.70023,2.12662 l -5.88711,5.88711 c -0.005,0.1339 -0.16931,0.12672 -0.18154,0.25934 1.08388,2.21941 0.92482,2.64198 0.9077,4.35698 0.26047,0.76099 0.65767,2.42332 0.41495,3.60489 -0.13637,0.66397 0.3486,0.99476 0.36309,1.32265 l 9.95881,-10.06255 c 0.72951,0.4648 1.37938,0.76926 2.02288,0.80397 7.82959,-0.97646 10.79437,-8.303 10.76278,-13.77117 l -6.14645,5.93898 -5.54997,-5.54997 5.73151,-5.75743 -0.15561,0 c -0.17183,-0.004 -0.36917,-0.003 -0.54462,0 z m -28.16477,1.6598 c -0.51969,0.009 -1.03674,0.11795 -1.37452,0.31121 -0.38345,0.21939 -1.67249,0.03 -2.02288,1.32266 -0.98784,0.40905 -1.25262,0.8239 -1.21892,2.33409 -0.93709,0.34466 -1.49512,1.54383 -1.55607,4.09764 -1.30024,1.54491 -0.87455,2.37219 -0.88177,3.37147 -1.29117,1.13026 -1.68629,2.54576 -1.29672,4.20137 -0.97242,0.76914 -1.33439,2.24274 -1.16704,4.38292 -1.29263,1.62577 -1.21617,3.25502 -0.85584,4.84973 -1.54554,2.22129 -0.83516,3.40466 -0.54462,4.79787 -1.14629,1.08819 -0.69633,2.8147 0.10374,4.69413 -0.34792,0.34079 -0.58781,0.77217 -0.6743,1.32265 -4.68169,-5.94119 -7.16726,-4.30851 -8.68803,-0.80397 3.9566,-2.31166 5.64184,6.42208 6.32799,8.45462 2.81567,7.18843 3.21962,15.54502 7.72846,17.40199 0.87018,0.33157 1.39414,1.35387 4.0717,1.6598 0.10206,0.0413 0.21539,0.0534 0.33715,0.0259 0.29809,0.0257 0.60927,0.0715 0.95958,0.0778 l -0.0519,3.2418 2.28222,0.0519 -0.0519,-3.52708 c 2.2155,-0.19442 5.03402,-0.20209 6.12051,-2.02288 4.96214,-4.61832 3.90804,-7.54784 6.48361,-15.97559 1.51494,-4.0612 -0.25181,-10.33216 8.29901,-14.26393 -3.85556,0.79719 -7.10503,1.13531 -10.24409,3.76049 0.0659,-0.43794 0.069,-0.99572 -0.0778,-1.78947 -0.0309,-0.40782 -0.12577,-0.93323 -0.28527,-1.55607 0.21003,-0.87456 0.16769,-1.60547 0,-2.28222 -0.0751,-0.85948 -0.39034,-1.59757 -0.70023,-2.3341 0.19272,-1.02298 0.14193,-1.69755 0,-2.25629 -0.0501,-0.69984 -0.25338,-1.19204 -0.41495,-1.73761 0.17516,-0.54127 0.14815,-1.09685 0,-1.68574 -0.0329,-1.001 -0.55964,-2.05915 -1.29672,-3.16399 0.0957,-0.57007 0.0817,-1.1464 -0.0778,-1.71167 -0.0369,-0.75007 -0.29772,-1.49157 -0.93363,-2.23036 0.16244,-0.44555 0.1492,-0.88298 0,-1.32266 0.0342,-0.83441 -0.50515,-1.69627 -1.27079,-2.51564 0.0144,-0.49333 -0.0365,-0.86062 -0.12967,-1.16704 -0.0659,-1.18202 -0.53788,-1.58896 -0.95958,-2.15256 0.074,-1.49369 -0.75072,-2.73685 -1.55606,-3.47521 -0.0356,-0.64092 -0.98188,-1.78486 -2.38596,-1.55606 -0.23305,-0.57656 -1.13079,-0.84474 -1.99695,-0.8299 z m -32.67736,0.0519 c -0.0173,-0.002 -0.0226,0.0146 -0.0259,0.0259 -0.0536,0.18082 1.69299,2.12756 4.9016,5.83524 l 1.89321,1.97102 -0.9855,1.50419 c 1.24182,1.46773 2.33874,2.86598 4.38291,4.53852 l 1.08925,-0.54462 9.59574,9.77727 0.72616,0.88177 c -0.22522,-1.2106 -0.0948,-2.42859 0.59649,-3.65675 l -0.51869,-0.54462 -8.40275,-8.63616 0.38901,-1.01144 c -1.94176,-2.66833 -3.20888,-3.55848 -4.43478,-4.46072 l -1.27079,0.9077 -2.04881,-1.78947 c -3.74235,-3.16891 -5.62558,-4.76246 -5.88711,-4.79786 z m 47.90086,42.42868 c -0.13066,0.74916 -0.24865,1.49817 -0.49275,2.15256 -0.91543,2.99542 -1.38489,5.27679 -1.81541,7.20977 0.24177,0.2697 0.48327,0.53413 0.72616,0.80396 1.85044,2.05119 3.25386,3.74466 5.44623,5.36842 1.59417,0.50537 3.23151,0.65685 4.51258,0.20748 l 4.61633,4.46072 c 2.18356,1.93721 4.34321,2.31545 6.76888,2.04881 0.12829,-0.44408 0.17852,-0.711 0.33714,-1.14111 -2.34564,-0.33128 -4.60152,-1.41712 -5.86117,-2.69718 l -4.59039,-4.33104 c 0.17224,-1.35926 0.72133,-2.10435 0.10374,-3.96797 -2.28548,-4.23247 -5.46016,-6.33539 -8.97331,-9.44012 -0.002,0.0135 0.002,0.0383 0,0.0519 -0.25181,-0.22237 -0.5288,-0.49037 -0.77803,-0.72617 z m -30.08392,0.0259 -5.80931,5.83524 c -0.95349,-0.62958 -1.90093,-0.46212 -2.54157,-0.62243 -7.82957,0.97645 -10.27569,8.17333 -10.24409,13.6415 l 6.04272,-6.01678 5.7315,5.75744 -5.6537,5.67963 c 5.49852,0.12088 12.74348,-2.73377 12.65599,-10.34783 -0.10092,-0.5677 0.13812,-1.45144 -0.20747,-2.10068 l 2.69718,-3.00839 c -0.61164,-2.24028 -1.24365,-4.55485 -2.10069,-6.74295 -10e-5,-0.007 -10e-5,-0.0188 0,-0.0259 -0.16124,-0.47757 -0.33834,-1.23254 -0.57056,-2.04882 z m -26.03814,19.13959 c 0.095,-0.009 0.18443,-0.009 0.28528,0 0.40337,0.0378 0.7269,0.22669 0.9855,0.54462 0.2586,0.31794 0.37889,0.68251 0.33715,1.08925 -0.0417,0.40675 -0.23479,0.73349 -0.54462,0.9855 l -1.99695,1.63387 1.21892,1.47826 1.99694,-1.63387 c 0.30984,-0.25202 0.68252,-0.35318 1.08925,-0.31121 0.40671,0.042 0.73347,0.23478 0.98551,0.54462 0.25869,0.31806 0.35304,0.68263 0.31121,1.08925 -0.0418,0.40663 -0.20885,0.73349 -0.51869,0.98551 l -7.05416,5.7315 c -0.31806,0.25871 -0.68262,0.35306 -1.08924,0.31121 -0.40663,-0.0418 -0.72681,-0.22657 -0.98551,-0.54462 -0.25203,-0.30985 -0.35296,-0.65657 -0.31121,-1.06331 0.0417,-0.40675 0.22655,-0.75274 0.54462,-1.01144 l 2.74905,-2.23036 -1.21892,-1.47826 -2.74905,2.23036 c -0.31806,0.2587 -0.68252,0.35318 -1.08924,0.31121 -0.40673,-0.042 -0.75284,-0.20076 -1.01144,-0.51869 -0.2586,-0.31793 -0.3563,-0.68661 -0.31122,-1.08924 0.0451,-0.40265 0.22657,-0.72681 0.54463,-0.98551 l 7.05415,-5.7315 c 0.23239,-0.18901 0.49304,-0.31119 0.77804,-0.33715 z m 83.17164,0.15561 c 0.40648,-0.0433 0.77851,0.0602 1.08925,0.31121 0.31898,0.25758 0.50121,0.57895 0.54462,0.98551 0.0434,0.40658 -0.0602,0.77852 -0.31121,1.08924 l -1.29672,1.582 c -0.0992,0.12281 -0.12359,0.26389 -0.10374,0.41495 0.0198,0.15108 0.067,0.27058 0.18154,0.36308 l 0.44089,0.36308 1.29672,-1.63386 c 0.25756,-0.31897 0.60485,-0.50142 1.01144,-0.54463 0.4066,-0.0431 0.75257,0.0602 1.06331,0.31122 0.31897,0.25757 0.50133,0.60498 0.54462,1.01144 0.0433,0.40647 -0.0536,0.77028 -0.31121,1.08924 l -1.32266,1.60794 1.19299,0.95957 c 0.11431,0.0923 0.26308,0.14208 0.41495,0.12967 0.15186,-0.0124 0.26391,-0.0847 0.36308,-0.20747 l 1.45233,-1.78948 c 0.25092,-0.31073 0.57891,-0.50142 0.9855,-0.54462 0.4066,-0.0432 0.77851,0.0602 1.08925,0.31121 0.31897,0.25759 0.47539,0.60498 0.51869,1.01144 0.0433,0.40648 -0.0602,0.75258 -0.31122,1.06331 l -1.42639,1.78948 c -0.60766,0.75251 -1.39912,1.19438 -2.36003,1.29672 -0.96092,0.10234 -1.81524,-0.14464 -2.56751,-0.7521 l -3.91609,-3.164 c -0.75251,-0.60764 -1.16844,-1.3991 -1.27079,-2.36003 -0.10232,-0.9609 0.14446,-1.81498 0.7521,-2.5675 l 1.27079,-1.60794 c 0.25093,-0.31072 0.57904,-0.47539 0.9855,-0.51868 z m -5.62776,7.49504 c 1.04709,0.047 1.9226,0.44592 2.61937,1.21892 0.28846,0.32003 0.52802,0.67827 0.70023,1.08924 1.14311,0.0593 2.09974,0.51315 2.85279,1.34859 0.75304,0.83544 1.0959,1.82815 1.03737,2.95652 -0.0585,1.12839 -0.51315,2.07382 -1.34859,2.82685 l -1.60793,1.45233 c -0.30453,0.2745 -0.68102,0.38426 -1.08924,0.36308 -0.40822,-0.0212 -0.73695,-0.16229 -1.01145,-0.46682 l -6.06865,-6.76888 c -0.2674,-0.29666 -0.41018,-0.62915 -0.38901,-1.03737 0.0212,-0.40822 0.18823,-0.76287 0.49275,-1.03738 l 1.06331,-0.95957 c 0.78874,-0.71093 1.70195,-1.03243 2.74905,-0.98551 z m -69.47828,0.70023 c 0.31499,0.03 0.59187,0.15621 0.8299,0.36308 0.23025,0.20014 0.36725,0.44435 0.44088,0.7521 0.0736,0.30775 0.0617,0.61665 -0.0519,0.9077 l -3.60488,8.8955 c -0.20185,0.52077 -0.56956,0.82471 -1.11518,0.90771 -0.53069,0.0819 -0.99541,-0.10546 -1.37452,-0.51869 l -1.91915,-2.20443 c -0.26715,-0.30147 -0.37199,-0.65474 -0.33714,-1.06331 0.0349,-0.40857 0.19103,-0.7445 0.49275,-1.01144 0.30946,-0.26021 0.68119,-0.39046 1.08924,-0.36308 0.40805,0.0274 0.7253,0.20923 0.98551,0.51869 l 0.36308,0.38901 1.08925,-2.67124 -4.59039,2.64531 c -0.35821,0.20381 -0.72423,0.25865 -1.11518,0.15561 -0.39095,-0.10304 -0.69671,-0.32387 -0.9077,-0.6743 -0.20382,-0.35821 -0.25865,-0.75016 -0.15561,-1.14111 0.10304,-0.39095 0.34202,-0.67797 0.70023,-0.88177 l 8.29901,-4.8238 c 0.27238,-0.153 0.56675,-0.21156 0.88177,-0.18154 z m 69.34861,2.25629 c -0.23398,-0.008 -0.42544,0.0412 -0.5965,0.18154 l 4.09764,4.56446 0.51869,-0.46682 c 0.23423,-0.21113 0.34679,-0.4662 0.36308,-0.77803 0.0163,-0.31181 -0.0742,-0.59567 -0.28528,-0.82991 -0.15487,-0.17179 -0.33495,-0.28777 -0.57055,-0.33714 -0.23561,-0.0494 -0.47215,-0.0147 -0.70023,0.0778 -0.51782,0.22619 -1.01916,0.18077 -1.47826,-0.15561 -0.45809,-0.35153 -0.63658,-0.82006 -0.57056,-1.37452 0.0349,-0.24395 -0.0387,-0.46106 -0.20748,-0.64836 -0.1409,-0.15631 -0.33657,-0.2249 -0.57055,-0.23341 z m -5.75744,1.01144 c 0.0953,0.002 0.21222,0.005 0.31121,0.0259 0.39596,0.0853 0.68855,0.30187 0.9077,0.64836 l 3.57895,5.67963 c 0.60688,0.95952 0.79602,1.99544 0.54463,3.11213 -0.25141,1.11671 -0.85591,1.96063 -1.81541,2.56751 -0.96846,0.61253 -1.99991,0.79885 -3.11213,0.54462 -1.11223,-0.25423 -1.98657,-0.8559 -2.59344,-1.81541 l -3.57895,-5.6537 c -0.21915,-0.34649 -0.27414,-0.72085 -0.18154,-1.11518 0.0926,-0.3943 0.31081,-0.6942 0.64836,-0.9077 0.3465,-0.21915 0.69329,-0.29278 1.08924,-0.20748 0.39597,0.0853 0.71449,0.30188 0.93364,0.64836 l 3.57895,5.6537 c 0.17405,0.2752 0.43298,0.44685 0.7521,0.51869 0.31912,0.0719 0.60631,0.0187 0.88177,-0.15561 0.27546,-0.17422 0.44698,-0.40712 0.51869,-0.72616 0.0717,-0.31903 0.0184,-0.63251 -0.15561,-0.90771 l -3.57895,-5.6537 c -0.21916,-0.34648 -0.27428,-0.72076 -0.18154,-1.11518 0.0927,-0.39438 0.30187,-0.68853 0.64836,-0.9077 0.25317,-0.16011 0.51795,-0.24136 0.80397,-0.23341 z m -57.8078,1.42639 c 0.80575,-0.0435 1.57831,0.15792 2.30816,0.5965 0.98192,0.59007 1.59208,1.4381 1.86728,2.54157 0.27517,1.10348 0.12341,2.15586 -0.46682,3.13806 l -0.0778,0.10374 c -0.21119,0.35142 -0.51109,0.57542 -0.90771,0.67429 -0.39664,0.0989 -0.77257,0.0503 -1.11518,-0.1556 -0.35143,-0.21118 -0.57543,-0.51107 -0.67429,-0.90771 -0.0989,-0.39663 -0.0296,-0.76376 0.18154,-1.11518 l 0.0778,-0.12967 c 0.16787,-0.27937 0.20886,-0.56451 0.12967,-0.88177 -0.0793,-0.31724 -0.26539,-0.55836 -0.54462,-0.72616 -0.27924,-0.1678 -0.5904,-0.23458 -0.9077,-0.15561 -0.31732,0.079 -0.55829,0.26525 -0.72617,0.54462 l -2.20442,3.70862 c -0.16772,0.2791 -0.23473,0.56439 -0.15561,0.88177 0.0791,0.3174 0.26539,0.5843 0.54463,0.7521 0.27922,0.16781 0.5903,0.2088 0.9077,0.12967 0.31739,-0.0791 0.55844,-0.26552 0.72616,-0.54462 l 0.0778,-0.12967 c 0.21116,-0.35141 0.51106,-0.57542 0.9077,-0.6743 0.39663,-0.0989 0.76375,-0.0556 1.11518,0.15561 0.34261,0.20589 0.57541,0.51108 0.67429,0.90771 0.0989,0.39663 0.0296,0.76375 -0.18154,1.11517 l -0.0778,0.15561 c -0.58479,0.97313 -1.43532,1.58778 -2.54157,1.86728 -1.10627,0.2795 -2.1302,0.12325 -3.11213,-0.46682 -0.97313,-0.58479 -1.61622,-1.43083 -1.89321,-2.54157 -0.277,-1.11074 -0.11796,-2.16493 0.46682,-3.13807 l 2.23036,-3.68268 c 0.59023,-0.98221 1.43349,-1.62096 2.54157,-1.89321 0.27701,-0.0681 0.56132,-0.11518 0.8299,-0.12968 z m 7.00229,3.63082 c 0.18858,-0.003 0.37929,0.03 0.57056,0.10374 0.37265,0.14369 0.63619,0.40925 0.80396,0.77803 0.16777,0.3688 0.19932,0.73265 0.0519,1.11518 l -1.03737,2.67124 0.0519,0 3.37148,-2.5675 c 0.32121,-0.24816 0.68253,-0.34065 1.08924,-0.28528 0.4067,0.0553 0.73743,0.22361 0.98551,0.54462 0.24806,0.32102 0.34559,0.68445 0.28528,1.08925 -0.0603,0.40481 -0.24935,0.73735 -0.57056,0.9855 l -2.46377,1.86728 c 0.4561,0.57022 0.73635,1.21739 0.85584,1.94508 0.11946,0.72769 0.035,1.45632 -0.23341,2.15256 l -0.7521,1.94508 c -0.1475,0.38253 -0.40627,0.66912 -0.77803,0.8299 -0.37178,0.16077 -0.73265,0.14749 -1.11518,0 -0.37297,-0.1438 -0.6623,-0.38336 -0.8299,-0.7521 -0.16763,-0.36873 -0.17346,-0.75858 -0.0259,-1.14111 l 0.7521,-1.94508 c 0.11713,-0.30382 0.10666,-0.60868 -0.0259,-0.90771 -0.13262,-0.29901 -0.34455,-0.50528 -0.64836,-0.62242 l -1.01144,-0.38902 -1.16705,3.06026 c -0.14749,0.38254 -0.43206,0.64325 -0.80397,0.80397 -0.37192,0.16072 -0.74252,0.16965 -1.11518,0.0259 -0.38253,-0.14748 -0.63635,-0.4093 -0.80396,-0.77803 -0.16763,-0.36873 -0.19935,-0.73265 -0.0519,-1.11518 l 3.26773,-8.48055 c 0.14748,-0.38253 0.40626,-0.64318 0.77804,-0.80397 0.18588,-0.0804 0.38197,-0.12635 0.57055,-0.12967 z m 39.16096,1.06331 c 0.18914,-8.3e-4 0.38122,0.0268 0.57056,0.10374 0.37866,0.15429 0.64908,0.4099 0.80396,0.77803 l 2.95653,7.02823 2.6453,-1.11518 c 0.37791,-0.15899 0.76459,-0.17554 1.14112,-0.0259 0.37652,0.14962 0.64496,0.42607 0.80397,0.80397 0.15897,0.37791 0.15466,0.73667 0,1.11518 -0.15435,0.37852 -0.40014,0.67092 -0.77804,0.8299 l -4.04576,1.68574 c -0.36816,0.15488 -0.73667,0.15433 -1.11518,0 -0.37851,-0.15434 -0.64499,-0.42607 -0.80397,-0.80397 l -3.52708,-8.37681 c -0.15488,-0.36814 -0.15434,-0.73666 0,-1.11518 0.15434,-0.3785 0.40989,-0.64908 0.77803,-0.80397 0.18895,-0.0795 0.38142,-0.10251 0.57056,-0.10374 z m -5.75744,1.5042 c 0.80851,-0.0371 1.5819,0.17514 2.30816,0.62242 0.96834,0.59642 1.57645,1.45265 1.84135,2.56751 l 0.0259,0.12967 c 0.0948,0.39889 0.0329,0.7931 -0.18154,1.14112 -0.21441,0.34803 -0.51881,0.55597 -0.90771,0.64836 -0.39889,0.0948 -0.76715,0.0329 -1.11517,-0.18155 -0.34803,-0.21438 -0.57953,-0.50882 -0.6743,-0.9077 l -0.0259,-0.15561 c -0.0754,-0.31709 -0.24023,-0.55474 -0.51869,-0.72616 -0.27847,-0.1714 -0.59076,-0.20497 -0.9077,-0.12967 -0.31696,0.0753 -0.55457,0.24035 -0.72617,0.51869 -0.1716,0.27835 -0.20501,0.56467 -0.12967,0.88177 l 0.98551,4.20137 c 0.0753,0.3168 0.24019,0.58053 0.51869,0.7521 0.27849,0.17157 0.59074,0.20498 0.9077,0.12967 0.31695,-0.0753 0.5546,-0.24018 0.72616,-0.51869 0.17157,-0.2785 0.23087,-0.5909 0.15561,-0.9077 l -0.0519,-0.15561 c -0.0948,-0.39887 -0.0329,-0.76714 0.18154,-1.11518 0.2144,-0.34803 0.53476,-0.55358 0.93364,-0.64836 0.38889,-0.0924 0.74121,-0.0329 1.08925,0.18154 0.34802,0.21441 0.57951,0.50883 0.67429,0.90771 l 0.0259,0.1556 c 0.26244,1.10458 0.10261,2.13877 -0.49275,3.11213 -0.59538,0.97338 -1.45296,1.60247 -2.56751,1.86728 -1.10458,0.26245 -2.13741,0.0817 -3.11213,-0.51869 -0.97471,-0.60032 -1.60483,-1.437 -1.86727,-2.54157 l -0.98551,-4.20137 c -0.26489,-1.11487 -0.10899,-2.1686 0.49275,-3.13807 0.60175,-0.96943 1.46294,-1.57888 2.56751,-1.84134 0.27864,-0.0662 0.5604,-0.1173 0.8299,-0.12967 z m -23.3669,0.62242 c 0.22807,0.003 0.46345,0.0547 0.70023,0.10374 l 1.99695,0.41495 c 0.39109,0.0811 0.70924,0.28077 0.93364,0.62243 0.22439,0.34168 0.2885,0.69816 0.20747,1.08924 -0.0832,0.40148 -0.30666,0.73503 -0.64836,0.95958 -0.34171,0.22455 -0.69816,0.2885 -1.08924,0.20747 l -1.99695,-0.41495 c -0.15456,-0.032 -0.31563,-0.009 -0.44088,0.0778 -0.12528,0.0867 -0.20355,0.19297 -0.23341,0.33715 l -0.10374,0.54462 2.04882,0.41495 c 0.40145,0.0832 0.70927,0.30654 0.93363,0.64836 0.22436,0.34184 0.2885,0.69816 0.20748,1.08925 -0.0832,0.40146 -0.28076,0.73518 -0.62243,0.95957 -0.34167,0.2244 -0.71373,0.29066 -1.11518,0.20748 l -2.04881,-0.41495 -0.31122,1.47826 c -0.0298,0.14388 -0.002,0.28557 0.0778,0.41495 0.0805,0.12937 0.20852,0.20139 0.36308,0.23341 l 2.25629,0.46682 c 0.39109,0.081 0.68334,0.30653 0.9077,0.64836 0.22436,0.34182 0.2885,0.69814 0.20748,1.08924 -0.0832,0.40146 -0.28076,0.70925 -0.62243,0.93364 -0.34167,0.2244 -0.69815,0.31444 -1.08924,0.23341 l -2.25629,-0.46682 c -0.94712,-0.19622 -1.69989,-0.69647 -2.23037,-1.5042 -0.53047,-0.80772 -0.68891,-1.69851 -0.49276,-2.64531 l 1.01145,-4.92753 c 0.19622,-0.9471 0.69647,-1.67394 1.5042,-2.20443 0.60579,-0.39784 1.26089,-0.60739 1.94508,-0.59649 z m 5.99085,0.98551 c 0.0956,-0.014 0.18287,-0.004 0.28528,0 l 2.28223,0.0778 c 1.11313,0.0475 2.04157,0.50118 2.80091,1.32266 0.75933,0.82151 1.11082,1.79121 1.06331,2.90465 -0.0364,0.85065 -0.29094,1.59933 -0.80396,2.28223 0.64996,0.79581 0.95163,1.71956 0.9077,2.74905 l -0.0778,1.50419 c -0.017,0.39903 -0.16572,0.73499 -0.46682,1.01144 -0.30111,0.27646 -0.65371,0.4065 -1.06331,0.38902 -0.39937,-0.017 -0.73499,-0.19165 -1.01144,-0.49275 -0.27647,-0.30111 -0.40605,-0.63835 -0.38902,-1.03738 l 0.0519,-1.5042 c 0.0116,-0.27307 -0.0634,-0.51886 -0.23341,-0.72616 -0.17001,-0.20729 -0.39888,-0.35449 -0.70023,-0.44088 -0.32252,-0.0873 -0.59957,-0.25213 -0.80397,-0.51869 -0.2044,-0.26656 -0.2892,-0.5712 -0.28527,-0.90771 0.004,-0.33649 0.10532,-0.6429 0.31121,-0.9077 0.20587,-0.26478 0.47429,-0.43802 0.80397,-0.51869 0.24478,-0.0631 0.44658,-0.18002 0.59649,-0.36308 0.14989,-0.18304 0.22264,-0.39643 0.23341,-0.64836 0.013,-0.3048 -0.0788,-0.5589 -0.28528,-0.77803 -0.20643,-0.21911 -0.47355,-0.35008 -0.77803,-0.36309 l -0.80397,-0.0259 -0.31121,7.59878 c -0.017,0.39904 -0.19678,0.73477 -0.49276,1.01144 -0.29597,0.27669 -0.62776,0.40651 -1.03737,0.38902 -0.40962,-0.0175 -0.76092,-0.16571 -1.03738,-0.46682 -0.27646,-0.3011 -0.40605,-0.66428 -0.38902,-1.06331 l 0.38902,-9.07704 c 0.0175,-0.40961 0.16571,-0.73498 0.46682,-1.01144 0.22582,-0.20734 0.49117,-0.34701 0.77803,-0.38902 z"
       id="path3915-7-1-0-7-74-5"
       inkscape:connector-curvature="0"
       inkscape:export-filename="C:\Users\aporto\Desktop\path3886.png"
       inkscape:export-xdpi="521.75"
       inkscape:export-ydpi="521.75" />
  </g>
</svg>
