<?xml version="1.0" encoding="UTF-8" standalone="no"?>
<!-- Generator: Adobe Illustrator 17.0.0, SVG Export Plug-In . SVG Version: 6.00 Build 0)  -->

<svg
   xmlns:dc="http://purl.org/dc/elements/1.1/"
   xmlns:cc="http://creativecommons.org/ns#"
   xmlns:rdf="http://www.w3.org/1999/02/22-rdf-syntax-ns#"
   xmlns:svg="http://www.w3.org/2000/svg"
   xmlns="http://www.w3.org/2000/svg"
   xmlns:sodipodi="http://sodipodi.sourceforge.net/DTD/sodipodi-0.dtd"
   xmlns:inkscape="http://www.inkscape.org/namespaces/inkscape"
   version="1.1"
   id="svg3049"
   sodipodi:docname="sabugosa_logo_branco_vazado_texto_novo.svg"
   inkscape:version="0.48.5 r10040"
   x="0px"
   y="0px"
   width="595.276px"
   height="841.89px"
   viewBox="0 0 595.276 841.89"
   enable-background="new 0 0 595.276 841.89"
   xml:space="preserve"><metadata
   id="metadata4078"><rdf:RDF><cc:Work
       rdf:about=""><dc:format>image/svg+xml</dc:format><dc:type
         rdf:resource="http://purl.org/dc/dcmitype/StillImage" /></cc:Work></rdf:RDF></metadata>
<rect
   id="rect3"
   x="-4.8828127e-007"
   stroke-miterlimit="10"
   width="595.276"
   height="841.89001"
   y="-7.3242186e-006"
   style="fill:#66806c;stroke:#000000;stroke-width:0.82419997;stroke-miterlimit:10" />
<defs
   id="defs4063">
	
	
		<inkscape:path-effect
   vertical="false"
   scale_y_rel="false"
   prop_scale="1"
   bendpath="m 134.74976,434.86218 c 13.48496,-129.88664 146.49076,-5.01481 200.02962,0"
   is_visible="true"
   id="path-effect3880"
   effect="bend_path"
   bendpath-nodetypes="cc">
		</inkscape:path-effect>
</defs>
<sodipodi:namedview
   showgrid="false"
   inkscape:cy="537.66454"
   inkscape:cx="305.69357"
   inkscape:zoom="22.4"
   borderopacity="1.0"
   bordercolor="#666666"
   pagecolor="#ffffff"
   id="base"
   inkscape:window-maximized="1"
   inkscape:window-y="-9"
   inkscape:window-x="1911"
   inkscape:window-height="1017"
   inkscape:window-width="1920"
   inkscape:current-layer="svg3049"
   inkscape:pageshadow="2"
   inkscape:document-units="mm"
   inkscape:pageopacity="0.0">
	</sodipodi:namedview>
<g
   id="layer3"
   inkscape:label="Layer"
   inkscape:groupmode="layer">
</g>




<path
   style="fill:#ffffff;fill-opacity:1;stroke:none"
   d="m 285.5755,149.8825 -6.5,22.4375 c -13.90232,1.02177 -27.48085,3.19662 -40.65625,6.40625 l -13.03125,-19.25 -22.96875,7.46875 0.75,23.1875 c -12.80529,5.2462 -25.05298,11.53784 -36.6875,18.75 l -18.4375,-14.28125 -19.5,14.21875 7.9375,21.90625 c -10.4666,8.87722 -20.18604,18.5948 -29.0625,29.0625 l -22,-7.9375 -14.125,19.59375 14.28125,18.375 c -7.2064,11.62905 -13.50619,23.88948 -18.75,36.6875 l -23.28125,-0.75 -7.40625,22.9375 19.25,13.0625 c -3.20689,13.16577 -5.38234,26.73439 -6.40625,40.625 l -22.40625,6.5 0,24.125 22.40625,6.5 c 1.02271,13.92307 3.19039,27.5249 6.40625,40.71875 l -19.25,13.0625 7.40625,22.875 23.25,-0.75 c 5.25252,12.827 11.55689,25.09792 18.78125,36.75 l -14.28125,18.375 14.125,19.5 21.96875,-7.90625 c 8.88373,10.47538 18.61677,20.21185 29.09375,29.09375 l -7.9375,21.9375 19.5,14.125 18.40625,-14.25 c 11.64121,7.21484 23.90519,13.50298 36.71875,18.75 l -0.75,23.25 22.96875,7.40625 13.03125,-19.25 c 13.16558,3.20555 26.73352,5.38413 40.625,6.40625 l 6.53125,22.40625 24.125,0 6.53125,-22.40625 c 13.87568,-1.02382 27.44227,-3.20588 40.59375,-6.40625 l 13.0625,19.25 22.9375,-7.40625 -0.75,-23.28125 c 12.81289,-5.24577 25.07739,-11.50425 36.71875,-18.71875 l 18.4375,14.25 19.5,-14.125 -7.84375,-21.65625 0.4375,-0.28125 1.375,-1.625 0.0625,-0.0625 c 9.72468,-8.42094 18.80339,-17.59186 27.125,-27.40625 l 21.96875,7.90625 14.125,-19.5 -14.28125,-18.40625 c 7.21604,-11.6426 13.50155,-23.9042 18.75,-36.71875 l 23.25,0.75 7.40625,-22.875 -19.25,-13.0625 c 3.21827,-13.19612 5.38257,-26.79503 6.40625,-40.71875 l 22.4375,-6.5 0,-24.125 -22.4375,-6.5 c -1.02449,-13.89061 -3.19766,-27.45923 -6.40625,-40.625 l 19.25,-13.0625 -7.40625,-22.9375 -23.28125,0.75 c -5.24086,-12.78458 -11.51869,-25.03808 -18.71875,-36.65625 l 14.28125,-18.40625 -14.125,-19.59375 -22.03125,7.9375 c -8.86727,-10.45373 -18.578,-20.16343 -29.03125,-29.03125 l 7.9375,-21.9375 -19.5,-14.21875 -18.5,14.28125 c -11.61817,-7.20006 -23.87167,-13.47789 -36.65625,-18.71875 l 0.75,-23.21875 -22.9375,-7.46875 -13.0625,19.25 c -13.16159,-3.20845 -26.7389,-5.38052 -40.625,-6.40625 l -6.5,-22.4375 z m 22.40625,27.78125 c 0.39247,-7.6e-4 0.78888,0.0117 1.1875,0.0312 3.51722,0.17182 6.86455,1.13181 9.9375,2.8125 3.07286,1.68085 5.59115,3.96121 7.65625,6.8125 0.90754,1.20681 1.21766,2.48917 0.96875,3.96875 -0.24894,1.47965 -0.88757,2.75382 -2.09375,3.625 -1.20624,0.87121 -2.61364,1.19596 -4.09375,0.96875 -1.48021,-0.22705 -2.62365,-0.94951 -3.53125,-2.15625 -2.2799,-3.21067 -5.43313,-4.90134 -9.375,-5.09375 -3.4017,-0.16596 -6.35811,0.84551 -8.875,3.125 -2.51693,2.27951 -3.82862,5.09853 -4,8.5 -0.17161,3.40152 0.84958,6.39289 3.125,8.90625 2.27541,2.51335 5.12953,3.80272 8.53125,3.96875 2.3578,0.1151 4.55946,-0.40232 6.59375,-1.5625 2.03419,-1.16009 3.63417,-2.72185 4.78125,-4.71875 l -11,-0.5 c -1.50744,-0.0737 -2.70961,-0.7284 -3.71875,-1.84375 -1.00917,-1.11529 -1.51346,-2.39866 -1.4375,-3.90625 0.0758,-1.50758 0.69717,-2.75843 1.8125,-3.75 1.11529,-0.99146 2.43007,-1.44854 3.9375,-1.375 l 17.65625,0.9375 c 1.50737,0.0737 2.70854,0.59226 3.71875,1.6875 1.01012,1.09528 1.51343,2.42993 1.4375,3.9375 -0.32141,6.37829 -2.90679,11.63546 -7.65625,15.9375 -4.74956,4.30204 -10.27866,6.40503 -16.65625,6.09375 -6.3776,-0.31126 -11.7375,-2.85032 -16.03125,-7.59375 -4.29378,-4.74339 -6.25889,-10.37227 -5.9375,-16.75 0.32133,-6.37769 2.81296,-11.69793 7.5625,-16 4.1558,-3.76425 8.94141,-5.79897 14.34375,-6.03125 0.38588,-0.0165 0.76378,-0.0305 1.15625,-0.0312 z m -39.375,2.25 c 0.18717,-0.009 0.35403,-0.003 0.53125,0 1.06326,0.0188 1.96813,0.40897 2.875,1.0625 1.209,0.87156 1.99644,1.9813 2.25,3.46875 l 3.84375,22.6875 c 0.78649,4.61506 -0.12211,8.8251 -2.8125,12.625 -2.69042,3.7999 -6.4223,6.08778 -11,6.875 -4.57774,0.78733 -8.67383,-0.12777 -12.46875,-2.8125 -3.79494,-2.68455 -6.15095,-6.38499 -6.9375,-11 l -3.8125,-22.6875 c -0.25359,-1.48749 0.0866,-2.77417 0.9375,-4 0.85101,-1.22581 1.98086,-2.02532 3.46875,-2.28125 1.48789,-0.25578 2.89731,0.10014 4.125,0.96875 1.22769,0.86836 1.90273,2.0438 2.15625,3.53125 l 3.90625,22.625 c 0.27951,1.64003 1.00101,2.97096 2.34375,3.9375 1.34267,0.96655 2.89086,1.31336 4.53125,1.03125 1.64037,-0.28211 2.8976,-1.10856 3.84375,-2.46875 0.94617,-1.36016 1.34202,-2.89122 1.0625,-4.53125 l -3.875,-22.625 c -0.25359,-1.48749 0.004,-2.80207 0.875,-4.03125 0.87137,-1.22928 2.10643,-2.05665 3.59375,-2.3125 0.18592,-0.0318 0.37533,-0.0533 0.5625,-0.0625 z m 92.21875,7 c 2.22627,0.0188 4.46259,0.42 6.75,1.125 6.09962,1.88004 10.67149,5.58966 13.65625,11.25 2.98469,5.66034 3.48312,11.61645 1.59375,17.71875 -1.88951,6.1023 -5.67928,10.5992 -11.34375,13.59375 -5.66455,2.99453 -11.46284,3.50495 -17.5625,1.625 -6.09971,-1.88005 -10.70278,-5.65215 -13.6875,-11.3125 -2.98471,-5.66032 -3.51445,-11.49141 -1.625,-17.59375 1.88945,-6.10228 5.64851,-10.66149 11.3125,-13.65625 3.54064,-1.87145 7.1958,-2.78257 10.90625,-2.75 z m -143.96875,6.375 c 2.03221,0.022 4.0699,0.53974 6.0625,1.46875 3.64365,1.69889 6.07889,4.44237 7.4375,8.1875 0.44843,1.23623 0.81043,2.38409 0.9375,3.53125 4.21808,1.63476 7.08195,4.55912 8.625,8.8125 1.39838,3.85505 1.22627,7.67893 -0.53125,11.40625 -1.75761,3.72732 -4.58154,6.22078 -8.4375,7.625 l -7.96875,2.96875 c -1.3823,0.50338 -2.76197,0.41643 -4.125,-0.21875 -1.36308,-0.6355 -2.29803,-1.64432 -2.8125,-3.0625 l -11.375,-31.40625 c -0.48787,-1.34489 -0.41225,-2.74418 0.1875,-4.15625 0.69853,-1.36611 1.77396,-2.2466 3.15625,-2.75 l 3.84375,-1.4375 c 1.4052,-0.51171 2.73436,-0.85657 4.125,-0.9375 0.28972,-0.0169 0.58468,-0.0344 0.875,-0.0312 z m 143.90625,4.5 c -1.97442,-0.022 -3.93642,0.4459 -5.8125,1.4375 -3.00175,1.58663 -5.02353,3.9954 -6.03125,7.25 -1.00774,3.25462 -0.70681,6.40697 0.875,9.40625 1.58177,2.99934 3.99651,5.02851 7.25,6.03125 3.25343,1.00278 6.40525,0.67998 9.40625,-0.90625 3.00242,-1.58698 5.02346,-4.02665 6.03125,-7.28125 1.00767,-3.25462 0.738,-6.40695 -0.84375,-9.40625 -1.58181,-2.99928 -4.0278,-4.96595 -7.28125,-5.96875 -1.22007,-0.37602 -2.40911,-0.55061 -3.59375,-0.5625 z m -144,6.40625 7.65625,20.96875 2.875,-0.96875 c 1.05477,-0.38411 1.806,-1.07712 2.28125,-2.09375 0.47523,-1.01666 0.49461,-2.10629 0.125,-3.125 -0.31643,-0.87217 -0.83425,-1.49274 -1.5625,-1.96875 -0.72827,-0.47598 -1.53943,-0.70696 -2.46875,-0.65625 -1.96787,0.14001 -3.52752,-0.57375 -4.71875,-2.15625 -1.16939,-1.63315 -1.41778,-3.33762 -0.71875,-5.15625 0.31157,-0.73154 0.31538,-1.56523 0,-2.4375 -0.26369,-0.72678 -0.7453,-1.32037 -1.375,-1.75 -0.62972,-0.42954 -1.34761,-0.64024 -2.09375,-0.65625 z m 188.21875,1.5 c 2.06573,0.0167 4.08362,0.55133 6.03125,1.625 l 4.4375,2.5 c 1.32082,0.72817 2.11481,1.74207 2.53125,3.1875 0.41636,1.44546 0.27451,2.83603 -0.4375,4.125 -0.7303,1.32212 -1.77269,2.20632 -3.21875,2.625 -1.44609,0.41875 -2.86663,0.19683 -4.1875,-0.53125 l -4.4375,-2.34375 c -0.47444,-0.26152 -0.95734,-0.3619 -1.5,-0.21875 -0.54273,0.14273 -0.96887,0.49105 -1.25,1 -0.26178,0.47384 -0.34662,0.94763 -0.1875,1.5 0.15905,0.55241 0.49432,0.98849 0.96875,1.25 3.5224,1.94182 5.86233,4.85103 7,8.75 1.13753,3.89904 0.77866,7.62775 -1.1875,11.1875 -1.94734,3.52564 -4.89482,5.86558 -8.8125,7 -3.91778,1.13439 -7.66511,0.69182 -11.1875,-1.25 l -6.09375,-3.34375 c -1.31988,-0.72764 -2.11433,-1.80426 -2.53125,-3.25 -0.41691,-1.44576 -0.2928,-2.80288 0.4375,-4.125 0.73026,-1.3221 1.84407,-2.22362 3.28125,-2.625 1.43713,-0.40137 2.80512,-0.1962 4.125,0.53125 l 6.09375,3.34375 c 0.9147,0.50428 1.8494,0.60943 2.875,0.3125 1.02555,-0.29697 1.77553,-0.89695 2.28125,-1.8125 0.52452,-0.94966 0.61723,-1.96068 0.3125,-2.96875 -0.30479,-1.00808 -0.89785,-1.71451 -1.8125,-2.21875 -3.11624,-1.71789 -5.17184,-4.3016 -6.15625,-7.71875 -0.98442,-3.41708 -0.59749,-6.75645 1.125,-9.875 1.72247,-3.1185 4.30011,-5.13511 7.71875,-6.125 1.28193,-0.3712 2.54179,-0.54081 3.78125,-0.53125 z m -223.40625,3.40625 c 0.27826,-0.0146 0.55405,-0.0293 0.84375,0 1.15886,0.11677 2.22051,0.5341 3.09375,1.28125 l 26.46875,23.3125 c 1.56399,1.33234 2.21895,2.97131 1.84375,4.96875 -0.36069,1.94434 -1.50928,3.36973 -3.40625,4.1875 l -10.0625,3.90625 c -1.37245,0.56378 -2.74776,0.55314 -4.125,-0.0625 -1.37729,-0.6158 -2.31442,-1.56532 -2.875,-2.9375 -0.52773,-1.39093 -0.52827,-2.80193 0.0625,-4.1875 0.59138,-1.38551 1.54574,-2.345 2.9375,-2.875 l 1.84375,-0.65625 -8,-7.0625 3.65625,19.09375 c 0.27246,1.49216 -0.0104,2.89059 -0.84375,4.125 -0.83351,1.23451 -1.99451,1.97191 -3.46875,2.28125 -1.49256,0.27491 -2.79813,-0.0123 -4.03125,-0.84375 -1.23309,-0.83159 -2.03995,-1.91409 -2.3125,-3.40625 l -6.65625,-34.71875 c -0.20028,-1.13226 -0.0188,-2.28489 0.46875,-3.34375 0.48741,-1.05879 1.27298,-1.82919 2.28125,-2.40625 0.73159,-0.41866 1.44652,-0.61715 2.28125,-0.65625 z m 114.03125,18.9375 c 0.84298,0.005 1.66554,0.0312 2.5,0.0312 106.81204,0 193.46875,86.62548 193.46875,193.4375 0,106.81202 -86.65671,193.375 -193.46875,193.375 -106.812,0 -193.375,-86.56298 -193.375,-193.375 0,-105.14306 83.839,-190.78817 188.34375,-193.4375 0.82939,-0.0211 1.68827,-0.0365 2.53125,-0.0312 z m -142.40625,0.25 c 0.17058,-6.6e-4 0.31284,0.0126 0.5,0.0312 1.49726,0.14859 2.75646,0.83072 3.6875,1.96875 0.955,1.16736 1.36947,2.47124 1.21875,3.96875 -0.15068,1.4976 -0.7687,2.79318 -1.9375,3.75 l -3.9375,3.125 c -0.41975,0.34368 -0.64885,0.81834 -0.71875,1.375 -0.0697,0.55672 0.10115,1.05066 0.46875,1.5 0.34221,0.41837 0.74046,0.66166 1.3125,0.71875 0.572,0.0569 1.08023,-0.0314 1.5,-0.375 3.11677,-2.55164 6.73715,-3.66806 10.78125,-3.28125 4.04409,0.38694 7.30371,2.07582 9.875,5.21875 2.54661,3.11285 3.62714,6.75531 3.21875,10.8125 -0.40839,4.05722 -2.13325,7.32339 -5.25,9.875 l -5.4375,4.4375 c -1.16786,0.95611 -2.47102,1.39801 -3.96875,1.25 -1.49773,-0.14796 -2.70129,-0.86391 -3.65625,-2.03125 -0.95498,-1.16729 -1.35103,-2.51712 -1.1875,-4 0.16365,-1.48283 0.80091,-2.70012 1.96875,-3.65625 l 5.40625,-4.3125 c 0.80936,-0.66262 1.2056,-1.56286 1.3125,-2.625 0.10694,-1.06207 -0.18232,-2.00412 -0.84375,-2.8125 -0.68597,-0.83846 -1.51293,-1.28483 -2.5625,-1.375 -1.04956,-0.0902 -2.00313,0.11868 -2.8125,0.78125 -2.75733,2.25741 -5.86663,3.257 -9.40625,2.90625 -3.53959,-0.35071 -6.43491,-1.84031 -8.6875,-4.59375 -2.25253,-2.75338 -3.23132,-5.9284 -2.875,-9.46875 0.3564,-3.54024 1.93019,-6.4613 4.6875,-8.71875 l 3.875,-3.1875 c 0.87659,-0.71758 1.87615,-1.15404 2.9375,-1.25 0.17691,-0.016 0.36067,-0.0306 0.53125,-0.0312 z M 440.763,228.57 c 0.27918,-0.0274 0.5529,-0.0146 0.84375,0 1.16336,0.0571 2.15345,0.46682 3.0625,1.1875 0.87935,0.69727 1.52286,1.56813 1.84375,2.6875 0.32074,1.11941 0.30759,2.22298 -0.0625,3.3125 l -11.84375,33.375 c -0.6577,1.94923 -2.06933,3.13408 -4.0625,3.53125 -1.93849,0.39079 -3.56971,-0.16915 -5.03125,-1.625 l -7.375,-7.875 c -1.03156,-1.06369 -1.56167,-2.39781 -1.5,-3.90625 0.0615,-1.50846 0.62125,-2.68621 1.6875,-3.71875 1.09583,-1.00908 2.49483,-1.56318 4,-1.53125 1.50516,0.032 2.71139,0.62451 3.71875,1.71875 l 1.3125,1.4375 3.53125,-10 -16.34375,10.53125 c -1.28428,0.80989 -2.67041,1.03183 -4.125,0.71875 -1.4546,-0.3131 -2.57324,-1.12179 -3.40625,-2.375 -0.80782,-1.28302 -1.09661,-2.66989 -0.78125,-4.125 0.3154,-1.45514 1.12199,-2.56507 2.40625,-3.375 l 29.6875,-19.125 c 0.73269,-0.45642 1.5999,-0.76188 2.4375,-0.84375 z m -33.71875,55 c -21.98415,0.37993 -50.43624,14.0308 -50.09375,43.84375 0.42163,3.13024 0.95991,6.179 2.75,8.625 L 335.8255,359.82 c -0.0182,0.54119 -0.57558,0.43276 -0.625,0.96875 4.38085,8.97047 3.6942,10.72448 3.625,17.65625 1.05275,3.07576 2.66847,9.91182 1.6875,14.6875 -0.55125,2.68366 1.44144,4.01852 1.5,5.34375 l 40.1875,-40.71875 c 2.9486,1.87859 5.68033,3.04722 8.28125,3.1875 31.64586,-3.94665 43.56522,-33.46109 43.4375,-55.5625 l -24.78125,23.96875 -22.5,-22.5 23.21875,-23.28125 -0.6875,0 c -0.6945,-0.0153 -1.41583,-0.0123 -2.125,0 z m -132.5,22.7812 c -3.78758,1.39307 -6.15988,6.24043 -6.40625,16.5625 -5.25537,6.24428 -3.53336,9.58611 -3.5625,13.625 -5.21874,4.56833 -6.76211,10.21454 -5.1875,16.90625 -3.9304,3.10872 -5.36384,9.19349 -4.6875,17.84375 -5.22457,6.57106 -4.92519,13.05444 -3.46875,19.5 -6.24684,8.97806 -3.36181,13.80634 -2.1875,19.4375 -4.63311,4.39826 -2.85874,11.37247 0.375,18.96875 -1.40621,1.37744 -2.27546,3.15005 -2.625,5.375 -18.92254,-24.01328 -29.04078,-17.44595 -35.1875,-3.28125 15.9919,-9.34331 22.72668,25.9411 25.5,34.15625 11.38042,29.05441 13.05725,62.80691 31.28125,70.3125 3.51707,1.34019 5.64653,5.60728 16.46875,6.84375 0.41253,0.16716 0.9141,0.20516 1.40625,0.0937 1.20479,0.10415 2.3966,0.2245 3.8125,0.25 l -0.1875,13.09375 9.28125,0.25 -0.25,-14.375 c 8.95471,-0.78581 20.38977,-0.70319 24.78125,-8.0625 20.05607,-18.6665 15.77748,-30.62397 26.1875,-64.6875 6.12312,-16.41467 -1.02974,-41.67099 33.53125,-57.5625 -15.58352,3.22209 -28.74992,4.57697 -41.4375,15.1875 0.26621,-1.77006 0.24949,-4.01054 -0.34375,-7.21875 -0.12491,-1.64832 -0.48027,-3.70137 -1.125,-6.21875 0.84892,-3.53484 0.67776,-6.54591 0,-9.28125 -0.30372,-3.47387 -1.59121,-6.49182 -2.84375,-9.46875 0.77897,-4.13471 0.57372,-6.83537 0,-9.09375 -0.20248,-2.8286 -1.00322,-4.82612 -1.65625,-7.03125 0.70795,-2.18766 0.69253,-4.46362 0.0937,-6.84375 -0.13292,-4.04592 -2.33332,-8.34691 -5.3125,-12.8125 0.38671,-2.30412 0.39524,-4.559 -0.25,-6.84375 -0.14967,-3.03163 -1.24224,-6.04518 -3.8125,-9.03125 0.6566,-1.80087 0.6031,-3.59788 0,-5.375 0.13838,-3.37253 -2.03041,-6.75079 -5.125,-10.0625 0.0583,-1.99399 -0.21723,-3.51152 -0.59375,-4.75 -0.26621,-4.77754 -2.20182,-6.50332 -3.90625,-8.78125 0.2993,-6.03729 -2.99499,-11.04696 -6.25,-14.03125 -0.14401,-2.59049 -3.93208,-7.24114 -9.60714,-6.31635 -1.50717,-3.72909 -9.97079,-4.14144 -13.61146,-2.05845 -1.54981,0.88672 -6.825,0.1036 -8.24122,5.32843 -3.99268,1.6533 -4.98889,3.34878 -4.85263,9.45267 z M 161.10675,290.57 c -0.0703,-0.007 -0.0799,0.0478 -0.0937,0.0937 -0.21668,0.73086 6.78131,8.54548 19.75,23.53125 l 7.59375,8.03125 -3.96875,6.03125 c 5.01924,5.93233 9.48784,11.61486 17.75,18.375 l 4.40625,-2.15625 38.8125,39.5 2.96875,3.59375 c -0.91029,-4.89306 -0.38797,-9.91097 2.40625,-14.875 l -2.09375,-2.15625 -34.0625,-34.9375 1.625,-4.0625 c -7.84828,-10.78496 -12.88893,-14.447 -17.84375,-18.09375 l -5.25,3.6875 -8.28125,-7.25 C 169.6996,297.07422 162.16389,290.71307 161.1068,290.56995 z M 354.763,462.07 c -0.52812,3.02795 -1.1696,5.98009 -2.15625,8.625 -3.69996,12.10699 -5.57238,21.34351 -7.3125,29.15625 0.97722,1.09008 1.95576,2.19062 2.9375,3.28125 7.47912,8.2906 13.17006,15.06206 22.03125,21.625 6.44334,2.0426 13.13459,2.69131 18.3125,0.875 l 18.625,18.03125 c 8.82558,7.82985 17.5396,9.35894 27.34375,8.28125 0.51854,-1.79494 0.73391,-2.91784 1.375,-4.65625 -9.48068,-1.33896 -18.59622,-5.70127 -23.6875,-10.875 l -18.59375,-17.5 c 0.69615,-5.49387 2.96494,-8.49881 0.46875,-16.03125 -9.23752,-17.10689 -22.11294,-25.57619 -36.3125,-38.125 -0.0109,0.055 0.0109,0.10126 0,0.15625 -1.01778,-0.89874 -2.02391,-1.89071 -3.03125,-2.84375 z m -121.75,0.0625 -23.375,23.53125 c -3.85385,-2.54469 -7.75441,-1.85207 -10.34375,-2.5 -31.64586,3.94664 -41.47147,33.11734 -41.34375,55.21875 l 24.34375,-24.34375 23.28125,23.21875 -22.9375,22.9375 c 22.22403,0.48857 51.60357,-10.97528 51.25,-41.75 -0.40795,-2.29454 0.45935,-5.93834 -0.9375,-8.5625 l 10.90625,-12.125 c -2.47218,-9.05482 -4.97342,-18.4061 -8.4375,-27.25 -3.6e-4,-0.0291 -3.6e-4,-0.065 0,-0.0937 -0.65168,-1.93026 -1.46763,-4.982 -2.40625,-8.28125 z m 233,66.75 c 0.19102,-0.01 0.37161,-0.007 0.5625,0 1.14532,0.0433 2.1984,0.41438 3.15625,1.125 1.31103,0.97273 2.10511,2.32662 2.34375,3.9375 0.23864,1.61095 -0.0836,3.03538 -1.03125,4.3125 l -6.21875,8.28125 3.53125,2.625 4.96875,-6.65625 c 0.97271,-1.31097 2.25016,-2.06176 3.84375,-2.3125 1.59362,-0.25065 3.03276,0.0898 4.34375,1.0625 1.311,0.97273 2.10523,2.23377 2.34375,3.84375 0.23851,1.61007 -0.15217,3.09526 -1.125,4.40625 l -4.90625,6.65625 6.625,4.96875 6.84375,-9.21875 c 0.94757,-1.27713 2.21889,-2.03054 3.8125,-2.28125 1.5936,-0.25068 3.06399,0.0586 4.375,1.03125 1.31099,0.97271 2.04273,2.265 2.28125,3.875 0.23849,1.61003 -0.0836,3.09787 -1.03125,4.375 l -10.34375,13.9375 c -0.97269,1.31101 -2.29622,2.10524 -3.90625,2.34375 -1.61002,0.23852 -3.09525,-0.15217 -4.40625,-1.125 l -29.03125,-21.5625 c -1.2771,-0.94753 -1.98021,-2.20245 -2.21875,-3.8125 -0.23847,-1.61 0.09,-3.06395 1.0625,-4.375 l 9.71875,-13.0625 c 0.94759,-1.27711 2.20212,-2.07342 3.8125,-2.3125 0.20131,-0.0298 0.40273,-0.0525 0.59375,-0.0625 z m -336.9375,0.78125 c 0.37928,-0.0209 0.75633,0.041 1.15625,0.0937 1.59953,0.20907 2.89202,0.97876 3.875,2.28125 0.98292,1.30255 1.31872,2.70011 1.09375,4.3125 -0.22504,1.61243 -0.94941,2.88582 -2.21875,3.84375 l -8.1875,6.21875 3.875,5.09375 8.1875,-6.125 c 1.26934,-0.95794 2.70053,-1.35037 4.3125,-1.125 1.61186,0.2254 2.88573,0.94937 3.84375,2.21875 0.98327,1.30303 1.41245,2.79384 1.1875,4.40625 -0.22506,1.61243 -1.01193,2.88579 -2.28125,3.84375 l -28.84375,21.78125 c -1.30306,0.98332 -2.79399,1.31963 -4.40625,1.09375 -1.6123,-0.22591 -2.86043,-0.97823 -3.84375,-2.28125 -0.95797,-1.2694 -1.35042,-2.70061 -1.125,-4.3125 0.22535,-1.61193 1.00946,-2.86043 2.3125,-3.84375 l 11.25,-8.5 -3.875,-5.1875 -11.25,8.5 c -1.30304,0.98334 -2.76272,1.4134 -4.375,1.1875 -1.61231,-0.22589 -2.95454,-0.97874 -3.9375,-2.28125 -0.98294,-1.30253 -1.33145,-2.7794 -1.09375,-4.375 0.2377,-1.59559 1.0407,-2.89166 2.34375,-3.875 l 28.84375,-21.78125 c 0.95201,-0.71846 2.01844,-1.12547 3.15625,-1.1875 z M 446.7005,559.07 c 2.9157,-0.0353 5.79843,0.46614 8.625,1.46875 1.5428,0.52516 2.7114,1.47881 3.40625,2.9375 0.69481,1.4588 0.74393,2.98847 0.21875,4.53125 -0.55558,1.57204 -1.57299,2.71191 -3.03125,3.40625 -1.4583,0.69445 -2.92505,0.74012 -4.4375,0.1875 -2.33037,-0.77306 -4.68239,-0.92347 -7.0625,-0.46875 -2.3801,0.45484 -4.47846,1.53149 -6.28125,3.15625 -2.73645,2.46631 -4.19879,5.53831 -4.375,9.21875 -0.17621,3.6805 0.96908,6.82709 3.40625,9.53125 2.46629,2.73647 5.55392,4.21595 9.21875,4.40625 3.66481,0.19044 6.85728,-0.93994 9.59375,-3.40625 1.80277,-1.62475 3.08434,-3.65049 3.8125,-5.96875 0.72815,-2.31821 0.80792,-4.62943 0.25,-7 -0.36247,-1.58888 -0.1235,-3.05852 0.71875,-4.4375 0.84215,-1.3789 2.03219,-2.29462 3.59375,-2.6875 1.5889,-0.36243 3.08979,-0.12349 4.46875,0.71875 1.37892,0.84222 2.23124,2.09861 2.59375,3.6875 1.10168,4.47359 0.97864,8.87458 -0.375,13.25 -1.35372,4.37545 -3.79916,8.10553 -7.21875,11.1875 -5.13039,4.62385 -11.11521,6.76586 -18.03125,6.40625 -6.91604,-0.3596 -12.69169,-3.11956 -17.34375,-8.28125 -4.62297,-5.12939 -6.76493,-11.14635 -6.40625,-18.0625 0.35873,-6.91603 3.11965,-12.71986 8.25,-17.34375 3.38927,-3.05455 7.33647,-5.03057 11.84375,-5.9375 1.12682,-0.22671 2.19819,-0.3942 3.3125,-0.46875 0.41787,-0.028 0.83347,-0.0262 1.25,-0.0312 z m -287.125,4.84375 c 0.14959,-0.004 0.31251,0.0113 0.46875,0.0312 1.24986,0.15863 2.35967,0.70967 3.28125,1.5625 0.89146,0.82513 1.46395,1.85988 1.71875,3.09375 0.25467,1.23393 0.14418,2.38704 -0.34375,3.53125 l -15.5,34.96875 c -0.86809,2.04744 -2.38075,3.20625 -4.5625,3.46875 -2.12224,0.26015 -3.91759,-0.46454 -5.375,-2.15625 l -7.3125,-9.09375 c -1.02572,-1.23299 -1.43944,-2.69084 -1.25,-4.3125 0.1894,-1.62168 0.85982,-2.88141 2.09375,-3.90625 1.26392,-0.99708 2.69197,-1.47216 4.3125,-1.3125 1.62051,0.15968 2.90914,0.89231 3.90625,2.15625 l 1.3125,1.625 4.71875,-10.46875 -18.5625,9.9375 c -1.45093,0.76659 -2.9882,0.92743 -4.53125,0.46875 -1.54308,-0.45868 -2.67257,-1.39167 -3.46875,-2.8125 -0.76659,-1.45091 -0.89618,-2.95694 -0.4375,-4.5 0.45868,-1.54305 1.4241,-2.70214 2.875,-3.46875 l 33.59375,-18.125 c 0.82728,-0.43128 1.7151,-0.63764 2.625,-0.65625 0.15166,-0.003 0.28791,-0.027 0.4375,-0.0312 z m 26.5,22.59375 c 4.23947,0.0634 8.35521,1.27565 12.25,3.59375 3.92069,2.33361 6.95618,5.52543 9.15625,9.5625 2.19994,4.03709 3.18488,8.37114 3,12.9375 -0.045,1.62911 -0.65599,2.96715 -1.84375,4.0625 -1.18787,1.09536 -2.62095,1.60753 -4.25,1.5625 -1.66604,-0.0655 -2.99899,-0.62501 -4.09375,-1.8125 -1.09485,-1.18749 -1.61149,-2.5793 -1.53125,-4.1875 0.049,-2.45476 -0.48633,-4.79853 -1.625,-6.9375 -1.13875,-2.13894 -2.75829,-3.78996 -4.84375,-5.03125 -3.16559,-1.8841 -6.55723,-2.35824 -10.125,-1.4375 -3.5678,0.92079 -6.26313,2.87176 -8.125,6 -1.88414,3.16555 -2.40269,6.56799 -1.5,10.125 0.90262,3.557 2.99066,6.24089 6.15625,8.125 2.08547,1.24128 4.28883,1.89667 6.71875,1.90625 2.42983,0.0105 4.71318,-0.60934 6.8125,-1.84375 1.41046,-0.8164 2.87106,-1.05269 4.4375,-0.65625 1.56634,0.39641 2.78765,1.31212 3.625,2.6875 0.81635,1.41048 1.02138,2.87111 0.625,4.4375 -0.39648,1.56639 -1.2458,2.77731 -2.65625,3.59375 -3.94725,2.37611 -8.26375,3.52957 -12.84375,3.53125 -4.58009,0.002 -8.85667,-1.17678 -12.8125,-3.53125 -5.9349,-3.53242 -9.7345,-8.63103 -11.4375,-15.34375 -1.70301,-6.71272 -0.80395,-12.99762 2.75,-18.96875 3.53173,-5.93374 8.66246,-9.82734 15.375,-11.53125 1.67812,-0.42596 3.33922,-0.68256 4.96875,-0.78125 0.61108,-0.037 1.20687,-0.0717 1.8125,-0.0625 z m 212.875,4.375 c 0.30088,-0.0147 0.624,0.0321 0.9375,0.0625 1.25402,0.1218 2.30149,0.57016 3.25,1.375 l 28.84375,25.125 c 1.6988,1.43513 2.36368,3.27579 1.96875,5.4375 -0.37957,2.10415 -1.609,3.54604 -3.65625,4.4375 l -10.875,4.3125 c -1.48131,0.61488 -2.94455,0.59835 -4.4375,-0.0625 -1.49298,-0.66089 -2.57374,-1.70553 -3.1875,-3.1875 -0.57836,-1.50239 -0.50706,-3.03056 0.125,-4.53125 0.63211,-1.50066 1.6851,-2.54663 3.1875,-3.125 l 1.90625,-0.71875 -8.625,-7.59375 4.0625,20.65625 c 0.30285,1.61278 -0.0433,3.09933 -0.9375,4.4375 -0.8948,1.33822 -2.12595,2.15999 -3.71875,2.5 -1.61281,0.30287 -3.03681,0.0504 -4.375,-0.84375 -1.33819,-0.89479 -2.19713,-2.19972 -2.5,-3.8125 l -7.375,-37.46875 c -0.22284,-1.22382 -0.0839,-2.44676 0.4375,-3.59375 0.52144,-1.14691 1.35013,-1.9971 2.4375,-2.625 0.789,-0.45552 1.62863,-0.73588 2.53125,-0.78125 z M 222.388,604.10125 c 0.7516,-0.0452 1.50957,0.0777 2.28125,0.34375 1.50343,0.51832 2.63017,1.4742 3.34375,2.9375 0.71355,1.46336 0.76825,2.93409 0.25,4.4375 l -2.59375,7.59375 11.09375,-8.1875 c 1.30734,-0.96658 2.71346,-1.33484 4.3125,-1.09375 1.59895,0.24117 2.90892,1.03664 3.875,2.34375 0.96596,1.3072 1.3663,2.71294 1.125,4.3125 -0.2414,1.59962 -1.06809,2.90962 -2.375,3.875 l -12.5,9.34375 4.125,19.28125 c 0.34093,1.57807 0.0504,3.09414 -0.84375,4.46875 -0.89408,1.37458 -2.15324,2.16806 -3.71875,2.46875 -1.61837,0.32845 -3.11493,0.10651 -4.46875,-0.78125 -1.35389,-0.8876 -2.1891,-2.14025 -2.53125,-3.71875 l -3.46875,-16.6875 -3.78125,11 c -0.53205,1.5433 -1.50504,2.66224 -2.96875,3.375 -1.46374,0.71274 -2.99654,0.79953 -4.5,0.28125 -1.54331,-0.53203 -2.63078,-1.56814 -3.34375,-3.03125 -0.71297,-1.46313 -0.78203,-2.95667 -0.25,-4.5 l 11.78125,-34.125 c 0.51825,-1.50341 1.47437,-2.63076 2.9375,-3.34375 0.73155,-0.35646 1.46714,-0.5485 2.21875,-0.59375 z m 147.78125,1.34375 c 2.2494,0.0224 4.48108,0.5616 6.6875,1.59375 4.03454,1.88748 6.81412,4.91763 8.3125,9.09375 1.49835,4.1762 1.25811,8.29069 -0.65625,12.3125 -1.9144,4.02188 -4.98072,6.78313 -9.15625,8.28125 l -3,1.0625 3.3125,9.28125 c 0.55128,1.53655 0.50759,3.02787 -0.1875,4.5 -0.69521,1.47215 -1.75315,2.4942 -3.25,3.03125 -1.53652,0.5513 -3.05933,0.47574 -4.53125,-0.21875 -1.47194,-0.6946 -2.51121,-1.77598 -3.0625,-3.3125 l -12.1875,-34.03125 c -0.55128,-1.53648 -0.47572,-3.02803 0.21875,-4.5 0.69462,-1.47188 1.77597,-2.44866 3.3125,-3 L 364.513,606.445 c 1.56585,-0.56179 3.1415,-0.88305 4.6875,-0.96875 0.32209,-0.0179 0.64741,-0.0344 0.96875,-0.0312 z M 256.138,614.03875 c 0.38467,-0.0105 0.84733,-0.004 1.25,0.0625 l 16,2.6875 c 1.56909,0.25863 2.86342,1.02098 3.8125,2.34375 0.94902,1.32285 1.22731,2.77468 0.96875,4.34375 -0.26547,1.61075 -1.02036,2.89484 -2.34375,3.84375 -1.32348,0.94898 -2.74341,1.32113 -4.3125,1.0625 l -10.28125,-1.71875 -0.71875,4.3125 8.25,1.375 c 1.61067,0.26549 2.82947,1.07249 3.78125,2.375 0.95171,1.30258 1.32793,2.76431 1.0625,4.375 -0.26547,1.61072 -1.05233,2.83284 -2.375,3.78125 -1.32272,0.94843 -2.82681,1.32795 -4.4375,1.0625 l -8.1875,-1.375 -1.3125,8.15625 11.34375,1.90625 c 1.56909,0.25858 2.82947,1.04122 3.78125,2.34375 0.95171,1.30256 1.29668,2.76429 1.03125,4.375 -0.26547,1.6107 -1.08356,2.86407 -2.40625,3.8125 -1.32272,0.94841 -2.74339,1.28983 -4.3125,1.03125 L 249.513,661.3825 c -1.61073,-0.26545 -2.83284,-1.02104 -3.78125,-2.34375 -0.94843,-1.3227 -1.2967,-2.82679 -1.03125,-4.4375 l 5.875,-35.65625 c 0.25858,-1.56909 1.02105,-2.8328 2.34375,-3.78125 0.99203,-0.7113 2.06472,-1.09648 3.21875,-1.125 z m 81.46875,0.0625 c 1.15425,0.0167 2.2195,0.42381 3.21875,1.125 1.33231,0.93493 2.13143,2.15115 2.40625,3.71875 0.28186,1.60795 -0.0338,3.10523 -0.96875,4.4375 -0.93489,1.33237 -2.17336,2.15567 -3.78125,2.4375 l -5.375,0.90625 c -0.57751,0.10129 -1.07694,0.41838 -1.4375,0.90625 -0.36057,0.48796 -0.51476,1.03727 -0.40625,1.65625 0.10108,0.57625 0.42871,1.07996 0.9375,1.4375 0.50878,0.35759 1.04749,0.41377 1.625,0.3125 4.28774,-0.75164 8.23784,0.17542 11.84375,2.6875 3.60588,2.51202 5.77225,5.95197 6.53125,10.28125 0.75162,4.28779 -0.0923,8.20298 -2.625,11.8125 -2.5328,3.60954 -5.96226,5.81084 -10.25,6.5625 l -7.34375,1.3125 c -1.60666,0.28167 -3.10456,-0.065 -4.4375,-1 -1.33294,-0.93474 -2.12437,-2.23584 -2.40625,-3.84375 -0.28187,-1.60791 0.0297,-3.06333 0.96875,-4.375 0.93914,-1.31166 2.26834,-2.09333 3.875,-2.375 l 7.3125,-1.3125 c 1.11344,-0.19526 2.02447,-0.74259 2.6875,-1.6875 0.663,-0.94488 0.91392,-1.94903 0.71875,-3.0625 -0.20258,-1.15496 -0.84,-2.10773 -1.78125,-2.75 -0.94128,-0.64224 -1.94905,-0.85142 -3.0625,-0.65625 -3.79334,0.66501 -7.2566,-0.10241 -10.40625,-2.3125 -3.14965,-2.21004 -5.0226,-5.20726 -5.6875,-9 -0.66486,-3.79265 0.0712,-7.25656 2.28125,-10.40625 2.21007,-3.14961 5.23792,-5.08495 9.03125,-5.75 l 5.375,-0.9375 c 0.40198,-0.0705 0.77149,-0.13065 1.15625,-0.125 z m 32.59375,3.15625 c -0.55995,-0.027 -1.14765,0.0451 -1.71875,0.25 l -3,1.125 2.9375,8.09375 3,-1.03125 c 1.14216,-0.40976 1.98193,-1.21465 2.5,-2.3125 0.51805,-1.0978 0.58346,-2.14685 0.1875,-3.25 -0.39578,-1.10306 -1.18365,-1.92002 -2.28125,-2.4375 -0.54882,-0.25871 -1.06505,-0.41057 -1.625,-0.4375 z m -76.40625,0.84375 c 4.31096,-0.0167 7.9947,1.49843 11.0625,4.5625 3.06774,3.06416 4.63884,6.81406 4.65625,11.125 0.004,1.21348 -0.13987,2.51323 -0.46875,3.9375 3.69517,3.12485 5.54239,7.17598 5.5625,12.15625 l 0,10.125 c 0.006,1.63244 -0.57255,3.03198 -1.71875,4.1875 -1.14626,1.15551 -2.441,1.77484 -4.03125,1.78125 -1.63244,0.006 -3.03201,-0.5725 -4.1875,-1.71875 -1.15553,-1.14622 -1.77468,-2.52384 -1.78125,-4.15625 L 302.8255,649.945 c -0.004,-1.00395 -0.27551,-1.93613 -0.84375,-2.6875 -0.56827,-0.75131 -1.29664,-1.21119 -2.21875,-1.5 -2.05377,-0.578 -3.42709,-1.91987 -4.0625,-3.96875 -0.59475,-2.08988 -0.18683,-3.90415 1.1875,-5.5 0.58374,-0.63079 0.91028,-1.49599 0.90625,-2.5 -0.004,-0.83789 -0.29702,-1.55134 -0.78125,-2.21875 -0.48427,-0.66735 -1.09022,-1.14671 -1.84375,-1.4375 l 0.125,30.03125 c 0.006,1.63241 -0.54065,3.03199 -1.6875,4.1875 -1.14689,1.15552 -2.55573,1.68092 -4.1875,1.6875 -1.63179,0.006 -3.05243,-0.54119 -4.1875,-1.6875 -1.13508,-1.1463 -1.68093,-2.55509 -1.6875,-4.1875 l -0.15625,-36.1875 c -0.006,-1.63237 0.59285,-2.99125 1.71875,-4.125 1.2089,-1.13527 2.57688,-1.6812 4.125,-1.6875 z"
   id="path3915-7-1-0-7"
   inkscape:connector-curvature="0"
   sodipodi:nodetypes="cccccccccccccccccccccccccccccccccccccccccccccccccccccccccccccccccccccccccccccccccccccccccscccscssccccccccccssssscccccccsccccccccccsccccccccscscsscccccccccccccccccccccsccscccccccccccccccccccccccccccccscccscsccccccsssccccccccccccccccccccccccssssccccccccccccccsccccccccccccscccccccccccccccccccccccccccccccccscccccccccccccccccccccccccccccccccccccccccccccccscccccccccccccccccccccccccccccccccccccccccccccccccsccscccccsccccccccccsccccccsccccccccccccccscccccscsccccccccccccsscsscccsccsssscccccccccccccccccccccscsccccccccccccccccccccsccccsssscccccccccccccccccccccccccscccccccccccccccccsscccccccsccccsccccccccccccccsccccccsccccccccccccccccccccccccscccccscccscccsscccccccccsccccccccccccccccccccccscsccccc" /></svg>