<?xml version="1.0" encoding="UTF-8" standalone="no"?>
<!-- Created with Inkscape (http://www.inkscape.org/) -->

<svg
   xmlns:dc="http://purl.org/dc/elements/1.1/"
   xmlns:cc="http://creativecommons.org/ns#"
   xmlns:rdf="http://www.w3.org/1999/02/22-rdf-syntax-ns#"
   xmlns:svg="http://www.w3.org/2000/svg"
   xmlns="http://www.w3.org/2000/svg"
   xmlns:xlink="http://www.w3.org/1999/xlink"
   xmlns:sodipodi="http://sodipodi.sourceforge.net/DTD/sodipodi-0.dtd"
   xmlns:inkscape="http://www.inkscape.org/namespaces/inkscape"
   width="210mm"
   height="297mm"
   id="svg3049"
   version="1.1"
   inkscape:version="0.48.5 r10040"
   sodipodi:docname="sabugosa_logo_verde_retangular.svg">
  <defs
     id="defs3">
    <clipPath
       id="clipPath3919">
      <path
         d="m 0,0 0,8420 5950,0 L 5950,0 0,0 z"
         id="path3921" />
    </clipPath>
    <clipPath
       id="clipPath3925">
      <path
         d="m 5490.52,4233.05 c -0.49,3.47 0.66,5.32 2.96,5.97 4.99,-11.83 8.04,-6.13 17.94,-2.98 0.46,-7.43 10.1,-0.87 11.95,0 10.9,-10.68 23.79,-1.25 38.84,0 3.54,-9.38 10.22,-1.04 17.91,-8.97 4.48,3.49 7.29,8.64 14.93,8.97 5.3,-6.64 12.22,-11.66 26.88,-8.97 7.46,-12.14 9.59,2.54 20.89,0 2.56,-8.75 7.53,3.9 14.95,0 0.63,-3.34 3.3,-4.64 5.96,-5.96 -0.09,-9.07 10.49,-7.44 17.93,-8.97 7.77,-3.18 18.16,-3.73 20.9,-11.94 8.29,-3.66 13.98,-9.92 20.91,-14.94 3.83,-0.16 4.14,-3.83 8.96,-2.99 0.63,-3.34 3.31,-4.65 5.98,-5.97 0.1,10.84 14.14,7.76 17.91,14.93 9.38,-1.41 7.89,8.04 14.95,8.97 6.21,-0.88 -4.44,-8.09 5.96,-8.97 4.04,2.93 3.88,10.07 8.97,11.96 7.43,2.83 18.01,-10.67 17.91,2.98 0.99,0 2,0 3,0 22.27,3.36 16.52,-21.28 38.82,-17.92 4.64,10.61 -10.15,1.8 -8.97,8.97 2.94,8.36 7.97,-4.34 11.95,2.98 1,0 2,0 2.98,0 6.65,-4.85 16.66,-10.76 23.91,-8.97 11.04,5.51 10.74,3.81 26.87,2.99 5.7,-4.25 12.97,-6.95 20.9,-8.96 0.39,-6.59 12.67,-1.26 17.93,-2.99 -5.53,-6.41 -2.02,-21.88 -2.98,-32.85 0.87,-10.4 8.07,0.25 8.95,-5.97 -5.32,-2.19 -0.44,-5.43 0,-8.97 2.99,0 5.98,0 8.98,0 0.97,0 1.98,0 2.96,0 4,0 7.97,0 11.96,0 7.33,2.38 -8.48,18.31 5.95,17.92 1.98,-4 6.41,-5.55 11.98,-5.96 16.64,-3.5 29.09,-20.46 47.76,-29.87 0.58,-4.43 7.23,-2.74 11.96,-2.98 20.26,-14.54 47.8,-16.58 77.64,-26.88 -7.77,-18.23 9.72,-14.93 5.98,-32.86 17.49,-5.28 37.56,-20.46 44.81,3 2.99,0 5.96,0 8.94,0 -3.32,-4.31 -3.2,-7.3 3,-8.97 -0.29,13.23 22.44,3.44 23.9,14.92 2.53,0.55 2.8,-1.16 2.99,-2.98 7.44,-7.2 58.29,8.36 38.82,8.95 -1.39,14.15 2.59,4.45 11.94,5.99 15.21,3.07 32.97,4.02 38.84,-11.96 5.24,11.72 18.18,2.16 29.85,3 8.97,-0.76 24.29,-5.2 35.83,0 11.68,-2.28 18.56,-9.34 26.9,-14.94 2.56,-2.41 1.77,-8.17 5.97,-8.97 0.11,-9.81 5.04,-14.85 2.97,-26.87 4.26,0.25 8.47,0.5 8.98,-2.98 10.3,2.62 -0.74,11.99 5.98,20.91 9.6,0.64 12.62,-5.29 23.88,-3 3.19,7.3 -16.6,17.16 -26.87,20.91 8.93,0.84 29.07,3 35.84,2.99 2.43,0.56 2.97,3 5.97,3 19.55,-9.05 21.88,-0.33 41.81,-8.97 3.46,-12.47 15.42,-16.45 23.9,-23.9 9.09,3.66 -4.36,11.4 2.99,14.94 1.99,0 3.97,0 5.97,0 24.28,-15.54 43.86,-35.78 71.68,-47.79 9.13,-2.16 8.79,5.15 17.92,2.98 1.56,-2.39 3.11,-4.84 2.99,-8.97 16.05,8.28 53.87,7.48 59.72,-11.92 10.75,3.18 19.11,8.77 23.89,17.91 1.01,0 1.99,0 2.99,0 6.12,-14.59 30.6,0.16 32.85,8.97 14.17,-4.51 28.54,-1.17 26.88,17.91 26.71,2.52 45.42,-0.84 56.75,26.88 -43.28,-442.53 -97.13,-900.39 -152.32,-1341 -6.56,-8.08 -9.9,-0.82 -17.91,-5.98 -6.56,11.37 -10.13,25.72 -20.91,32.85 -4.72,21.21 25.9,40.8 2.99,44.81 1.43,9.51 9.4,12.5 8.95,23.89 -6.86,15.04 -17.48,26.31 -32.85,32.85 6.14,38.5 -3.46,77.71 -38.83,74.66 1.27,6.24 -2.03,7.91 -3,11.95 -22.54,0.17 -40.23,-4.92 -50.75,-8.95 11.52,-1.4 22.13,-5.9 32.84,-14.94 5.5,10.42 0.59,12.66 -2.97,20.9 8.79,-4.07 18.78,4.3 20.88,-14.95 29.76,8.18 37.25,-37.32 29.89,-65.69 12.5,-13.36 33.33,-18.4 38.82,-38.81 -6.7,-4.27 -5.71,-16.21 -11.96,-20.91 -0.91,-6.89 8.65,-3.32 8.98,-8.98 3.06,-14.4 -8.77,-18.19 -8.98,-26.86 -0.3,-13.75 10.55,-17.35 14.94,-29.89 1.73,-4.9 -1.72,-11.68 0,-17.91 1.16,-4.16 8.57,-1.14 8.96,-5.96 -7.6,-0.32 -7.05,-11.15 -2.99,-14.93 4.14,5.41 8.47,6.74 11.97,2.98 -0.59,-2.41 -3.02,-2.98 -2.99,-5.98 15.13,-4.41 18.45,12.88 26.86,5.98 -1.75,-10.73 3.49,-14.45 5.99,-20.91 2.2,-14.72 8.74,-25.11 17.91,-32.86 -0.25,-4.23 -0.5,-8.46 3,-8.95 -1.23,-7.2 5.44,-6.49 2.98,-14.93 16.77,2.8 20.25,-7.64 32.86,-8.98 7.18,1.22 6.47,-5.45 14.92,-2.98 0.46,-5.52 10.12,-1.82 11.96,-5.96 1.8,-0.18 3.52,-0.45 2.97,-2.98 0,-4.98 0,-9.96 0,-14.95 11.5,1.43 18.65,7.23 20.91,17.93 1,0 2.01,0 2.99,0 4.4,-1.57 7.53,-4.43 11.94,-5.98 10.49,-14.72 32.32,3.55 47.81,3 4.25,1.14 5.02,3.56 8.94,0 1.77,-12.74 -2.15,-19.77 -2.99,-29.88 8.41,9.51 15.19,20.64 20.91,32.86 2.32,-0.68 3.49,-2.51 2.99,-5.98 0,-1.01 0,-1.98 0,-2.99 8,1.95 11.36,8.55 17.91,11.95 7.97,3 9.84,12.07 14.95,17.91 11.54,1.61 14.56,-5.32 26.87,-2.97 9.95,-29.87 25.95,-53.7 47.81,-71.69 -1.78,-10.18 -8.22,-15.69 -8.99,-26.88 13.03,-8.95 43.69,6.97 50.78,-17.92 -9.87,-16.85 -7.15,-26.37 2.98,-41.81 11.52,6.99 17.01,9.71 29.89,2.98 -0.98,-6.98 -3.6,-12.34 -5.99,-17.91 42.28,-19.46 51.13,-72.32 74.68,-110.5 -4.32,-4.65 -6.29,-11.66 -8.98,-17.93 13.66,-7.27 16.16,-25.65 41.83,-20.91 0.51,-7.47 -4.6,-9.35 -8.99,-11.95 -4.8,0.85 -5.12,-2.81 -8.94,-2.97 0,-2.99 0,-5.98 0,-8.98 0.96,-4.02 4.25,-5.7 2.98,-11.94 -1.82,-4.14 -11.49,-0.44 -11.94,-5.97 -17.66,-12.03 -50.26,-6.66 -53.77,-38.84 -18.65,-6.92 -36.46,0.07 -50.77,5.99 12.57,9.6 -4.02,15.15 -14.92,17.91 -0.88,-28.75 29.94,-25.79 44.81,-38.82 -26.32,-9.52 -7.62,-64.05 -44.81,-62.73 0,-3.97 0,-7.97 0,-11.94 -2.56,0.55 -2.82,-1.16 -2.99,-2.99 -1.26,-6.22 2.03,-7.91 2.99,-11.94 -18.2,-12.65 -35.84,-25.88 -47.79,-44.79 -9.12,-2.16 -10.89,3.05 -17.92,2.98 0,-4.98 0,-9.96 0,-14.93 0,-1 0,-1.99 0,-3 -1.84,0.88 -11.49,7.43 -11.95,0 -8.89,-0.04 -3.82,-14.09 -8.97,-17.91 -0.56,-2.43 -2.99,-2.97 -2.97,-5.98 0.53,-6.5 -2.44,-9.5 -8.97,-8.95 2.41,10.34 -4.45,11.47 -2.98,20.9 -19.86,-3.47 -15.06,25.24 -29.86,17.93 0.43,7.39 0.53,14.5 -5.98,14.92 0,0.98 0,1.99 0,2.99 -1.12,8.32 11.36,18.18 2.98,23.89 -0.07,-2.9 -3.66,-2.32 -5.97,-2.98 0,1.99 0,3.98 0,5.96 -3.29,27.31 -7.28,46.8 -11.94,77.66 -3.01,1.93 -10.29,1.8 -20.91,2.98 -1.26,6.24 2.05,7.92 2.99,11.95 -7.04,-0.05 -8.78,5.14 -17.92,2.99 0.51,8.65 12.17,13.62 -2.99,14.93 -2.41,2.56 -8.18,1.79 -8.95,5.98 -1.79,10.74 1.07,16.84 8.95,17.91 -7.38,5.49 -10.77,7.46 -2.99,14.93 0.56,2.44 3,3 2.99,5.99 -12.86,14.29 -46.13,30.42 -53.75,11.93 -11.81,-7.11 -22.24,-15.59 -29.88,-26.86 -0.25,-10.69 -4.64,-17.27 -5.96,-26.9 -2.34,-0.64 -3.5,-2.49 -3,-5.96 -11.36,2.4 -3.79,-14.12 -5.98,-20.9 -19.35,-10.2 -50.56,-22.53 -71.67,-5.99 -5.96,0 -11.94,0 -17.93,0 -7.41,0.46 -9.23,-4.68 -14.92,-5.96 -2.43,-0.58 -2.98,-2.99 -5.99,-2.99 -8.79,2.27 -15.54,22.11 -20.91,17.91 -22.56,-8 -39.56,-6.05 -53.75,-2.97 -7.93,-6.02 -2.84,-25.03 -14.93,-26.89 -13.93,4.67 -14.6,14.74 -32.85,8.98 -0.99,0 -1.99,0 -2.99,0 0.52,7.47 -4.58,9.32 -8.97,11.92 -2.4,0.58 -2.96,3 -5.95,3 0.54,2.53 -1.18,2.81 -2.99,2.99 -2.58,2.41 -1.77,8.16 -5.99,8.95 0,1.99 0,3.99 0,5.97 0,2 0,3.99 0,5.98 -12,2.05 -17.03,-2.87 -26.87,-2.98 -1.55,17.37 -12.74,25.08 -20.9,35.84 0.4,5.56 1.96,9.97 5.97,11.94 -14.2,16.68 -20.12,41.6 -29.87,62.72 0,2 0,3.98 0,5.97 0,5 0,9.94 0,14.94 -36.09,-1.96 -5.53,-37.3 -29.85,-53.77 -17.35,-2.32 -28.33,5.22 -44.83,-5.96 -4.79,4.14 -9.45,8.46 -14.92,11.94 -13.75,-4.18 -21.39,-14.46 -32.84,-20.92 -11.22,10.58 -29.59,20.12 -44.81,17.93 3.17,15.62 0.55,23.77 -8.95,32.86 -13.43,-2.5 -16.47,-15.41 -29.89,-17.91 -2.27,7.67 -7.25,12.65 -14.92,14.92 -8.04,2.06 -5.78,-6.17 -8.97,-8.97 -8.06,0.9 -5.33,12.57 -11.95,14.94 -20.73,-8.82 -44.2,-21.7 -47.77,-38.83 -9.61,-2.63 -4.1,9.87 -11.95,8.96 0.25,-4.7 -1.45,-11.38 2.98,-11.93 -0.56,-2.43 -2.98,-2.99 -2.98,-5.98 -9.44,0.49 -9.98,-7.94 -20.92,-5.99 2.32,20.3 -18.15,26.72 -8.95,44.82 -25.92,0.07 -32.43,-17.94 -32.85,-35.84 -16.89,6 -43.21,2.59 -38.82,29.85 -18.58,3.34 -30.22,13.62 -56.75,8.97 -1.3,9.87 4.73,19.11 -2.99,32.85 -5.28,-2.68 -3.81,-12.12 -14.93,-8.97 -5.08,1.89 -4.92,9.03 -8.97,11.96 -12.5,-2.41 -19.94,-9.94 -29.86,-14.93 -6.31,2.64 -8.82,9.09 -17.92,8.96 6.75,5.19 2.77,21.12 11.94,23.9 -8.83,10.23 -17.62,27.54 -32.85,14.92 1.26,6.25 -2.04,7.92 -2.99,11.94 -31.29,1.4 -86.57,-37.2 -95.57,17.91 -13.63,2.69 -16.92,-4.95 -26.88,-5.95 2.75,12.69 -7.16,12.74 -17.91,11.94 0.04,8.91 7.77,10.16 8.95,17.92 -1.22,12.72 -15.22,12.64 -14.92,26.88 -20.46,2.98 -44.32,-6.34 -38.83,11.94 -34.53,-13.03 -62.62,-57 -89.6,-8.94 -2.42,-0.59 -2.99,-3.01 -5.99,-3 -3.96,0 -7.96,0 -11.92,0 -0.5,3.51 -5.47,2.52 -8.98,3 -8.44,8.1 8.36,22.91 -8.95,20.89 2.36,5.59 4.98,10.95 5.95,17.91 -9.19,10.72 -27.44,12.38 -32.85,26.89 0.5,8.46 5.48,12.46 5.99,20.91 -10.05,0.08 -15.8,-4.11 -20.91,-8.96 -8.13,4.82 -12.58,13.32 -14.93,23.89 -8.04,2.07 -5.78,-6.19 -8.97,-8.94 -5.52,0.43 -1.81,10.09 -5.95,11.94 -18.36,-0.37 -30.31,-9.11 -47.8,0 -1.19,14.72 -6.52,25.33 -17.92,29.86 -9.8,6.87 -14.12,-12.38 -23.9,-14.93 1.47,9.41 -5.37,10.54 -3,20.89 0,2 0,4 0,5.99 -30.54,-1.69 -45.31,12.41 -50.76,35.84 0,1.99 0,3.97 0,5.96 -12.45,-0.07 -14.73,-10.32 -26.87,-2.96 -3.97,7.55 -13.28,-4.4 -20.91,-3 0,3.97 0,7.96 0,11.94 1.88,11.18 4.7,17.1 -5.97,20.91 0.01,2.99 -2.43,3.55 -3,5.97 -16.14,-5.75 -19.92,-23.87 -32.85,-32.86 0,10.95 0,21.91 0,32.86 -56.44,-1.19 -14.57,72.45 -23.9,113.49 39.56,496.04 75.79,995.46 110.51,1496.32 6.6,0.37 1.27,12.67 2.99,17.91 9.09,0.14 11.61,-6.3 17.92,-8.95 1.22,-3.75 3.86,-6.11 8.97,-5.97 0.61,-3.36 3.31,-4.64 5.96,-5.98 12.74,-9.17 37.48,-6.33 44.81,-20.9 4.94,0.04 1.67,8.28 5.98,8.95 0.77,-4.2 6.54,-3.39 8.95,-5.97 21.88,6.36 48.02,-4.58 56.74,-20.9 0,-1 0,-2 0,-2.99 1.55,-4.42 4.44,-7.53 5.98,-11.94 6.14,-2.63 13.42,7.73 5.98,8.95 0,1 0,1.99 0,2.99 z M 6505.98,2930.87 c 12.68,-3.8 5.03,-4.78 2.98,-14.94 12.39,-0.8 11.64,3.93 20.92,0 -11.09,12.75 -27.65,22.36 -17.93,47.79 -5.25,-1.72 -17.54,3.62 -17.91,-2.99 -3.46,2.52 -8.02,3.95 -14.94,2.99 -13.69,1.73 -13.92,-9.97 -20.91,-14.93 -11.98,9.35 -23.72,10.29 -38.82,2.99 -10.16,11.61 -20.95,13.96 -14.94,35.84 -11.95,-1.01 -16.58,5.32 -29.87,2.97 -5.94,7 -6.86,19.02 -5.97,32.87 -19.55,5.34 -18.27,31.51 -32.86,41.81 -16.28,-2.63 -29.62,-8.21 -50.77,-5.96 -13.32,-10.67 38.43,1.18 53.75,0 5.01,-28.87 31.17,-36.56 29.88,-71.69 13.17,0.21 25.68,-0.22 29.87,-8.97 -1.55,-4.41 -4.41,-7.53 -5.98,-11.94 14.12,-3.8 14.86,-21.01 29.88,-23.9 10.08,-0.08 13.28,15.71 23.88,5.98 0.64,-3.35 3.31,-4.65 5.97,-5.98 14.06,-3.1 15.02,6.9 20.91,11.95 10.27,-1.3 16.74,1.18 23.91,2.97 0.98,0 1.99,0 2.96,0 7.19,-3.77 -1.64,-23.53 5.99,-26.86"
         id="path3927" />
    </clipPath>
    <linearGradient
       id="linearGradient3969-2">
      <stop
         style="stop-color:#007317;stop-opacity:1;"
         offset="0"
         id="stop3971-1" />
      <stop
         style="stop-color:#008a1d;stop-opacity:1;"
         offset="1"
         id="stop3973-6" />
    </linearGradient>
    <radialGradient
       inkscape:collect="always"
       xlink:href="#linearGradient3969-2"
       id="radialGradient3977-2"
       cx="301.29153"
       cy="541.07141"
       fx="301.29153"
       fy="541.07141"
       r="36.928574"
       gradientTransform="matrix(0.56264266,-2.2266214,0.73450961,0.18560243,-307.87027,1156.4691)"
       gradientUnits="userSpaceOnUse" />
    <linearGradient
       id="linearGradient3979-4">
      <stop
         style="stop-color:#ffc905;stop-opacity:1;"
         offset="0"
         id="stop3981-2" />
      <stop
         style="stop-color:#d4a600;stop-opacity:1;"
         offset="1"
         id="stop3983-3" />
    </linearGradient>
    <linearGradient
       id="linearGradient3979-6">
      <stop
         style="stop-color:#ffc905;stop-opacity:1;"
         offset="0"
         id="stop3981-0" />
      <stop
         style="stop-color:#d4a600;stop-opacity:1;"
         offset="1"
         id="stop3983-4" />
    </linearGradient>
    <linearGradient
       inkscape:collect="always"
       xlink:href="#linearGradient3979-6"
       id="linearGradient3985-2"
       x1="289.15738"
       y1="538.76373"
       x2="329.77118"
       y2="538.76373"
       gradientUnits="userSpaceOnUse" />
    <linearGradient
       id="linearGradient3969-7">
      <stop
         style="stop-color:#00320a;stop-opacity:1;"
         offset="0"
         id="stop3971-7" />
      <stop
         style="stop-color:#008a1d;stop-opacity:1;"
         offset="1"
         id="stop3973-1" />
    </linearGradient>
    <linearGradient
       id="linearGradient3969">
      <stop
         style="stop-color:#007317;stop-opacity:1;"
         offset="0"
         id="stop3971" />
      <stop
         style="stop-color:#008a1d;stop-opacity:1;"
         offset="1"
         id="stop3973" />
    </linearGradient>
    <linearGradient
       id="linearGradient3979">
      <stop
         style="stop-color:#ffc905;stop-opacity:1;"
         offset="0"
         id="stop3981" />
      <stop
         style="stop-color:#d4a600;stop-opacity:1;"
         offset="1"
         id="stop3983" />
    </linearGradient>
    <inkscape:path-effect
       effect="bend_path"
       id="path-effect3880"
       is_visible="true"
       bendpath="m 134.74976,434.86218 c 13.48496,-129.88664 146.49076,-5.01481 200.02962,0"
       prop_scale="1"
       scale_y_rel="false"
       vertical="false"
       bendpath-nodetypes="cc" />
  </defs>
  <sodipodi:namedview
     inkscape:document-units="mm"
     id="base"
     pagecolor="#ffffff"
     bordercolor="#666666"
     borderopacity="1.0"
     inkscape:pageopacity="0.0"
     inkscape:pageshadow="2"
     inkscape:zoom="0.70710678"
     inkscape:cx="94.519179"
     inkscape:cy="432.19424"
     inkscape:current-layer="layer1"
     showgrid="false"
     inkscape:window-width="1920"
     inkscape:window-height="1017"
     inkscape:window-x="1911"
     inkscape:window-y="-9"
     inkscape:window-maximized="1" />
  <metadata
     id="metadata4">
    <rdf:RDF>
      <cc:Work
         rdf:about="">
        <dc:format>image/svg+xml</dc:format>
        <dc:type
           rdf:resource="http://purl.org/dc/dcmitype/StillImage" />
        <dc:title></dc:title>
      </cc:Work>
    </rdf:RDF>
  </metadata>
  <g
     inkscape:label="Layer 1"
     inkscape:groupmode="layer"
     id="layer1">
    <g
       id="g3861"
       transform="matrix(0.4177373,0,0,0.4177373,216.62923,306.37562)">
      <rect
         ry="68.90612"
         rx="58.031624"
         y="125.4668"
         x="32.761566"
         height="801.42859"
         width="678.57135"
         id="rect3803"
         style="fill:#132f00;fill-opacity:0.99607843;stroke:none" />
      <path
         inkscape:export-ydpi="92.870003"
         inkscape:export-xdpi="92.870003"
         inkscape:export-filename="c:\Users\aporto\Desktop\carimbo.png"
         id="path3041-0-7-1-8"
         d="m 208.02541,315.03964 c -0.26358,0.88975 8.29799,10.41384 24.08551,28.65686 l 9.1755,9.79543 -4.79628,7.29449 c 6.11022,7.22178 11.52543,14.17495 21.58343,22.40445 l 5.42189,-2.60516 98.11509,99.72587 c -4.73289,6.1408 -10.48242,11.34794 -19.81072,12.81744 2.54177,4.88614 5.64342,8.96125 10.73966,10.21226 l 9.48814,-1.5631 c 39.12532,24.41996 61.33168,69.17109 97.80245,96.18285 7.84388,2.48655 15.07151,3.25321 21.37491,1.04206 l 21.06194,20.63295 c 11.94382,8.03169 23.82826,11.70416 35.76341,12.19219 0.63127,-2.18505 1.30493,-4.34454 2.08534,-6.46082 -11.8414,0.17006 -23.20334,-3.38651 -31.80127,-14.48474 l -20.01927,-20.52873 c 0.84749,-6.68798 3.25146,-13.06744 -0.73004,-20.73715 -23.08821,-33.57423 -63.11007,-52.46006 -94.36147,-99.41326 l 0.52117,-9.69124 c -1.36566,-4.61107 -2.86509,-9.18099 -8.75843,-10.21226 -3.56343,8.9945 -8.22392,15.19732 -13.24175,20.42454 l -98.53249,-100.97637 1.98124,-4.89771 c -9.55419,-13.12919 -15.65574,-17.65247 -21.68754,-22.09185 l -6.36046,4.4809 -10.11373,-8.75337 C 217.37041,321.8545 208.289,314.1499 208.02541,315.03964 z"
         style="fill:#398c00;fill-opacity:0.99607843;stroke:none;display:inline"
         inkscape:connector-curvature="0" />
      <g
         inkscape:export-ydpi="92.870003"
         inkscape:export-xdpi="92.870003"
         inkscape:export-filename="c:\Users\aporto\Desktop\carimbo.png"
         style="fill:#398c00;fill-opacity:0.99607843;stroke:none;display:inline"
         transform="matrix(1.2706656,1.2706656,-1.2706656,1.2706656,163.40009,-588.39569)"
         id="g3898-4-4-7-8">
        <path
           inkscape:connector-curvature="0"
           style="fill:#398c00;fill-opacity:0.99607843;stroke:none"
           d="m 509.3125,214.25 0,23.34375 -22.28125,0 0,-21.90625 c -10.87986,10.41176 -18.78616,28.89631 -3.875,43.46875 1.70143,1.29747 3.42976,2.51423 5.45895,2.82843 L 488.25,408.0046 c -3.06505,0.62712 -3.79299,1.72167 -5.34375,2.65165 -13.26856,17.04964 -4.64827,34.38033 6,44.90625 l 0,-23.34375 22.28125,0 0,21.9375 c 10.87986,-10.41176 18.78616,-28.92756 3.875,-43.5 -1.29455,-0.90373 -2.43016,-1.88694 -4.35631,-2.47487 L 509.8125,261.63112 c 2.31231,-0.51258 4.21814,-1.29616 5.53125,-2.47487 13.26856,-17.04964 4.61702,-34.38033 -6.03125,-44.90625 z"
           id="path3043-5-0-4-2" />
      </g>
      <path
         inkscape:export-ydpi="92.870003"
         inkscape:export-xdpi="92.870003"
         inkscape:export-filename="c:\Users\aporto\Desktop\carimbo.png"
         sodipodi:nodetypes="ccccccccccccccccccccccccccccccccccccccccccccccccccccccccc"
         inkscape:connector-curvature="0"
         id="rect3960-0-4"
         d="m 374.79116,305.9189 c -1.47716,0.22458 -3.75504,1.35845 -6.54321,1.37196 -1.54098,-0.17966 -2.85841,0.0523 -4.01035,0.63322 -2.87597,-0.0169 -4.74893,0.99953 -6.0157,2.53285 l 0,-0.94982 c -1.11648,-0.61579 -1.59232,1.24624 -1.89964,3.79928 -0.99389,0.74717 -1.73821,2.03092 -2.21608,3.58822 -3.84825,2.57841 -7.47462,6.17462 -10.02605,15.7248 -4.61081,1.69583 -7.50975,7.59164 -7.80964,20.15731 -6.39765,7.6015 -4.29133,11.65229 -4.32679,16.5691 -6.35308,5.56126 -8.249,12.43324 -6.33214,20.57945 -4.78473,3.78446 -6.52227,11.2099 -5.69892,21.74034 -6.36017,7.99936 -5.99443,15.89897 -4.22143,23.74551 -7.60464,10.92954 -4.0681,16.7849 -2.63856,23.63999 -5.64016,5.35425 -3.51459,13.86491 0.42214,23.11229 -1.71187,1.67679 -2.74054,3.83467 -3.16606,6.54322 -23.03548,-29.23276 -35.36474,-21.25387 -42.84747,-4.01036 19.46786,-11.37417 27.65135,31.58028 31.02748,41.58104 13.85404,35.36963 15.91342,76.45237 38.09853,85.58939 4.28153,1.63153 6.8772,6.83206 20.05177,8.33732 0.50218,0.20363 1.08946,0.24113 1.68857,0.10537 1.46669,0.12698 2.91987,0.2857 4.64356,0.31643 l -0.20938,15.93587 11.29214,0.31644 -0.31745,-17.51891 c 10.90107,-0.95658 24.83718,-0.8559 30.18319,-9.81482 24.41537,-22.72379 19.19904,-37.26208 31.87176,-78.72957 7.45403,-19.98254 -1.23063,-50.72998 40.84246,-70.07566 -18.97075,3.92245 -35.00068,5.55192 -50.44603,18.46873 0.3242,-2.15481 0.30056,-4.85388 -0.42214,-8.75945 -0.15198,-2.00657 -0.58729,-4.53402 -1.37214,-7.59857 1.03341,-4.30318 0.82504,-7.96242 0,-11.29231 -0.36979,-4.22892 -1.95772,-7.87941 -3.4825,-11.50337 0.9483,-5.0334 0.69839,-8.33198 0,-11.08126 -0.24653,-3.4434 -1.21037,-5.86392 -2.00535,-8.54838 0.86185,-2.66318 0.83348,-5.43982 0.10469,-8.33731 -0.1621,-4.92532 -2.81079,-10.18309 -6.4375,-15.61927 0.47077,-2.80495 0.46807,-5.55593 -0.31745,-8.33731 -0.18237,-3.69054 -1.51465,-7.34056 -4.64357,-10.97571 0.79937,-2.19227 0.73419,-4.37978 0,-6.54321 0.16886,-4.10555 -2.45957,-8.21057 -6.22677,-12.24213 0.0709,-2.42739 -0.2803,-4.29677 -0.73858,-5.80446 -0.32421,-5.81594 -2.67436,-7.88606 -4.74927,-10.6591 -0.0912,-0.64155 -0.18237,-1.26798 -0.31746,-1.89964 -0.44915,-5.49315 -2.23904,-10.71286 -7.28178,-15.19713 -0.22965,-2.61009 -0.78992,-5.15862 -2.53286,-7.38749 -0.5265,-1.47031 -1.47986,-2.90492 -2.955,-4.22143 0.0439,-1.97357 -0.35966,-1.63197 -1.16106,-0.84428 -1.32654,-0.95531 -2.88982,-1.82076 -5.06571,-2.6384 0.42856,-3.3257 -0.31745,-4.02379 -1.79394,-3.79928 z m -2.95499,1.05536 c 0.53561,0.0658 1.0253,0.49199 1.37179,1.16089 -0.65719,-0.10807 -1.36875,-0.19081 -2.11071,-0.21107 l 0,-0.84429 c 0.28705,-0.1236 0.49846,-0.13508 0.73892,-0.10537 z"
         style="fill:#398c00;fill-opacity:0.99607843;fill-rule:nonzero;stroke:#132f00;stroke-width:6.07885218;stroke-linecap:round;stroke-linejoin:round;stroke-miterlimit:4;stroke-opacity:0.99607843;stroke-dasharray:none;stroke-dashoffset:62.0399991;display:inline" />
      <g
         id="g16827-9-5"
         transform="matrix(2.2290038,0,0,2.2290038,372.04724,471.37911)"
         inkscape:label="Gear20"
         style="stroke:#398c00;stroke-width:4.03454065;stroke-miterlimit:4;stroke-opacity:0.99578091;stroke-dasharray:none;display:inline"
         inkscape:export-filename="c:\Users\aporto\Desktop\carimbo.png"
         inkscape:export-xdpi="92.870003"
         inkscape:export-ydpi="92.870003">
        <path
           id="path16829-4-5"
           d="m 108.225,-8.713 10.199,-0.821 1.844,0.069 12.304,3.567 0,11.796 -12.304,3.567 -1.844,0.069 -10.199,-0.821 -2.604,16.444 9.953,2.371 1.732,0.635 10.6,7.195 -3.645,11.218 -12.805,-0.409 -1.775,-0.505 -9.445,-3.932 -7.559,14.834 8.734,5.33 1.451,1.14 7.858,10.119 -6.933,9.542 -12.052,-4.346 -1.532,-1.028 -7.768,-6.659 -11.773,11.773 6.659,7.768 1.028,1.532 4.346,12.052 -9.542,6.933 -10.119,-7.858 -1.14,-1.451 -5.33,-8.734 -14.834,7.559 3.932,9.445 0.505,1.775 0.409,12.805 -11.218,3.645 -7.195,-10.6 -0.635,-1.732 -2.371,-9.953 -16.444,2.604 0.821,10.199 -0.069,1.844 -3.567,12.304 -11.796,0 -3.567,-12.304 -0.069,-1.844 0.821,-10.199 -16.444,-2.604 -2.371,9.953 -0.635,1.732 -7.195,10.6 -11.218,-3.645 0.409,-12.805 0.505,-1.775 3.932,-9.445 -14.834,-7.559 -5.33,8.734 -1.14,1.451 -10.119,7.858 -9.542,-6.933 4.346,-12.052 1.028,-1.532 6.659,-7.768 -11.773,-11.773 -7.768,6.659 -1.532,1.028 -12.052,4.346 -6.933,-9.542 7.858,-10.119 1.451,-1.14 8.734,-5.33 -7.559,-14.834 -9.445,3.932 -1.775,0.505 -12.805,0.409 -3.645,-11.218 10.6,-7.195 1.732,-0.635 9.953,-2.371 -2.604,-16.444 -10.199,0.821 -1.844,-0.069 -12.304,-3.567 0,-11.796 12.304,-3.567 1.844,-0.069 10.199,0.821 2.604,-16.444 -9.953,-2.371 -1.732,-0.635 -10.6,-7.195 3.645,-11.218 12.805,0.409 1.775,0.505 9.445,3.932 7.559,-14.834 -8.734,-5.33 -1.451,-1.14 -7.858,-10.119 6.933,-9.542 12.052,4.346 1.532,1.028 7.768,6.659 11.773,-11.773 -6.659,-7.768 -1.028,-1.532 -4.346,-12.052 9.542,-6.933 10.119,7.858 1.14,1.451 5.33,8.734 14.834,-7.559 -3.932,-9.445 -0.505,-1.775 -0.409,-12.805 11.218,-3.645 7.195,10.6 0.635,1.732 2.371,9.953 16.444,-2.604 -0.821,-10.199 0.069,-1.844 3.567,-12.304 11.796,0 3.567,12.304 0.069,1.844 -0.821,10.199 16.444,2.604 2.371,-9.953 0.635,-1.732 7.195,-10.6 11.218,3.645 -0.409,12.805 -0.505,1.775 -3.932,9.445 14.834,7.559 5.33,-8.734 1.14,-1.451 10.119,-7.858 9.542,6.933 -4.346,12.052 -1.028,1.532 -6.659,7.768 11.773,11.773 7.768,-6.659 1.532,-1.028 12.052,-4.346 6.933,9.542 -7.858,10.119 -1.451,1.14 -8.734,5.33 7.559,14.834 9.445,-3.932 1.775,-0.505 12.805,-0.409 3.645,11.218 -10.6,7.195 -1.732,0.635 -9.953,2.371 z"
           style="fill:none;stroke:#398c00;stroke-width:4.03454065;stroke-miterlimit:4;stroke-opacity:0.99578091;stroke-dasharray:none"
           inkscape:connector-curvature="0" />
      </g>
      <g
         transform="translate(1201.5389,-307.38827)"
         id="layer5"
         inkscape:label="teste" />
      <g
         transform="translate(1201.5389,-307.38827)"
         inkscape:label="Layer 1"
         id="layer1-2"
         style="display:inline" />
      <g
         transform="translate(1201.5389,-307.38827)"
         id="layer2"
         inkscape:label="Layer"
         style="display:inline" />
      <g
         id="text3805"
         style="font-size:96.73680878px;font-style:normal;font-weight:normal;line-height:125%;letter-spacing:0px;word-spacing:0px;fill:#398c00;fill-opacity:0.99607843;stroke:none;font-family:Sans">
        <path
           id="path3837"
           style="font-variant:normal;font-weight:bold;font-stretch:normal;fill:#398c00;font-family:Garoa Hacker Clube;-inkscape-font-specification:Garoa Hacker Clube Bold"
           d="m 61.683799,846.90658 c 0.257821,-2.45027 1.354552,-4.46562 3.290197,-6.04605 1.935635,-1.58036 4.128605,-2.24165 6.578918,-1.98386 2.515237,0.25786 4.562567,1.35459 6.141996,3.2902 1.579393,1.93567 2.240187,4.16013 1.982384,6.67338 -0.06497,0.19487 -0.09744,0.51764 -0.09742,0.96832 0.129875,2.06457 0.920565,3.77388 2.372071,5.12792 1.451461,1.35408 3.176021,1.99864 5.173683,1.93367 2.064524,-0.12791 3.77383,-0.90138 5.127925,-2.3204 1.289082,-1.48394 1.933639,-3.22572 1.933673,-5.22535 -0.127961,-1.99958 -0.917667,-3.67641 -2.369119,-5.0305 -1.451515,-1.35404 -3.176075,-1.99859 -5.173683,-1.93368 -6.126764,0.19291 -11.447559,-1.80669 -15.9624,-5.99881 -4.514863,-4.19205 -6.869219,-9.35096 -7.063074,-15.47677 -0.193863,-6.1257 1.805248,-11.446 5.997339,-15.96092 4.192072,-4.51479 9.351482,-6.86865 15.478244,-7.0616 5.223348,-0.19477 9.947312,1.2882 14.171907,4.44892 4.22452,3.16086 6.94986,7.288 8.17604,12.38142 0.64353,2.38738 0.32076,4.66104 -0.96831,6.82099 -1.28916,2.16006 -3.15985,3.53036 -5.61208,4.1109 -2.385395,0.64559 -4.658074,0.32331 -6.818044,-0.96683 -2.160039,-1.29005 -3.530338,-3.16025 -4.110901,-5.61061 -0.257853,-0.90331 -0.773991,-1.66103 -1.548415,-2.27317 -0.774481,-0.61203 -1.677353,-0.88658 -2.708619,-0.82366 -1.096265,0.065 -2.047356,0.51669 -2.853275,1.35505 -0.805966,0.83847 -1.177447,1.8058 -1.114445,2.90199 0.06493,1.16124 0.516607,2.12856 1.355047,2.90198 0.838393,0.77352 1.805721,1.16026 2.901986,1.16021 7.030075,-0.25778 13.108594,1.99965 18.235576,6.77228 5.12689,4.77272 7.81927,10.67411 8.07714,17.70418 0.19282,7.02816 -2.09708,13.08995 -6.8697,18.18539 -4.77076,5.1604 -10.638687,7.83703 -17.603812,8.02991 -7.030129,0.25782 -13.108648,-1.9996 -18.235573,-6.77228 -5.126946,-4.77267 -7.819325,-10.67308 -8.077146,-17.70123 -2e-6,-1.61383 0.06396,-2.80749 0.191891,-3.58099 z"
           inkscape:connector-curvature="0" />
        <path
           id="path3839"
           style="font-variant:normal;font-weight:bold;font-stretch:normal;fill:#398c00;font-family:Garoa Hacker Clube;-inkscape-font-specification:Garoa Hacker Clube Bold"
           d="m 141.46333,797.76471 c 7.0281,7e-5 13.0092,2.48285 17.9433,7.44833 4.93402,4.96562 7.40105,10.93097 7.4011,17.89607 l 0,41.11492 c -5e-5,2.51526 -0.88669,4.65952 -2.65991,6.43278 -1.77332,1.77328 -3.8851,2.65991 -6.33536,2.65991 -2.51529,0 -4.66004,-0.88663 -6.43426,-2.65991 -1.77429,-1.77326 -2.66142,-3.91752 -2.66138,-6.43278 l 0,-13.64199 -14.50994,0 0,13.64199 c -2e-5,2.51526 -0.88665,4.65952 -2.6599,6.43278 -1.77329,1.77328 -3.88508,2.65991 -6.33537,2.65991 -2.51526,0 -4.65952,-0.88663 -6.43278,-2.65991 -1.77328,-1.77326 -2.65991,-3.91752 -2.65991,-6.43278 l 0,-41.11492 c 0,-6.9651 2.48277,-12.93045 7.44833,-17.89607 4.96554,-4.96548 10.93089,-7.44826 17.89608,-7.44833 z m -7.25645,34.72936 14.50994,0 0,-9.38496 c -4e-5,-1.99955 -0.70905,-3.70836 -2.12705,-5.12645 -1.41805,-1.41797 -3.12687,-2.12698 -5.12644,-2.12704 -1.99964,6e-5 -3.70894,0.70907 -5.12793,2.12704 -1.41903,1.41809 -2.12854,3.1269 -2.12852,5.12645 z"
           inkscape:connector-curvature="0" />
        <path
           id="path3841"
           style="font-variant:normal;font-weight:bold;font-stretch:normal;fill:#398c00;font-family:Garoa Hacker Clube;-inkscape-font-specification:Garoa Hacker Clube Bold"
           d="m 212.4749,830.36555 c 4.96551,4.9656 7.44828,10.89848 7.44833,17.79866 -5e-5,6.90023 -2.45084,12.80112 -7.35239,17.7027 -4.90163,4.9016 -10.80252,7.35239 -17.7027,7.35239 l -13.34973,0 c -2.51526,0 -4.65952,-0.88664 -6.43278,-2.65991 -1.77328,-1.77327 -2.65992,-3.91753 -2.65991,-6.43278 l 0,-55.72227 c -1e-5,-2.45024 0.88663,-4.56202 2.65991,-6.33537 1.77326,-1.77319 3.91752,-2.65983 6.43278,-2.6599 l 8.80338,0 c 6.51444,7e-5 12.06107,2.2575 16.63992,6.77228 4.57878,4.51492 6.86819,9.96463 6.86824,16.34914 -5e-5,2.64322 -0.45173,5.25491 -1.35505,7.83506 z m -17.60676,24.76283 c 1.93463,2e-5 3.57948,-0.67701 4.93455,-2.03109 1.35502,-1.35404 2.03254,-2.9984 2.03258,-4.93308 -4e-5,-1.41899 -0.43548,-2.72483 -1.30634,-3.91754 -0.87092,-1.19265 -2.01587,-2.04681 -3.43485,-2.56248 -3.28875,-1.09621 -5.28835,-3.35364 -5.99882,-6.77229 -0.64359,-3.48352 0.32373,-6.35303 2.90199,-8.60854 1.16116,-0.96826 1.74175,-2.22589 1.74178,-3.77287 -3e-5,-1.29103 -0.51567,-2.43648 -1.54694,-3.43633 -1.03132,-0.99975 -2.22498,-1.53114 -3.58099,-1.59418 l 0,37.6284 z"
           inkscape:connector-curvature="0" />
        <path
           id="path3843"
           style="font-variant:normal;font-weight:bold;font-stretch:normal;fill:#398c00;font-family:Garoa Hacker Clube;-inkscape-font-specification:Garoa Hacker Clube Bold"
           d="m 223.81419,808.50176 c 0,-2.51518 0.88664,-4.64321 2.65991,-6.38407 1.77327,-1.74073 3.88505,-2.61113 6.33537,-2.6112 2.51523,7e-5 4.65949,0.87047 6.43278,2.6112 1.77325,1.74086 2.65989,3.86889 2.65991,6.38407 l 0,41.11492 c -2e-5,1.99765 0.70948,3.70598 2.12852,5.12497 1.41898,1.41903 3.12829,2.12853 5.12792,2.12851 1.99958,2e-5 3.70839,-0.70948 5.12645,-2.12851 1.41799,-1.41899 2.127,-3.12732 2.12704,-5.12497 l 0,-41.11492 c -4e-5,-2.51518 0.88709,-4.64321 2.66138,-6.38407 1.77422,-1.74073 3.91897,-2.61113 6.43427,-2.6112 2.45025,7e-5 4.56204,0.87047 6.33536,2.6112 1.77322,1.74086 2.65985,3.86889 2.65991,6.38407 l 0,41.11492 c -6e-5,6.96517 -2.48283,12.93052 -7.44834,17.89607 -4.96559,4.96555 -10.93094,7.44833 -17.89607,7.44833 -7.03013,0 -13.01172,-2.48278 -17.94478,-7.44833 -4.93309,-4.96555 -7.39963,-10.9309 -7.39963,-17.89607 z"
           inkscape:connector-curvature="0" />
        <path
           id="path3845"
           style="font-variant:normal;font-weight:bold;font-stretch:normal;fill:#398c00;font-family:Garoa Hacker Clube;-inkscape-font-specification:Garoa Hacker Clube Bold"
           d="m 330.23117,836.36142 0,13.25526 c -5e-5,6.96517 -2.46708,12.93052 -7.4011,17.89607 -4.9341,4.96555 -10.9152,7.44833 -17.94331,7.44833 -6.96518,0 -12.93102,-2.48278 -17.89755,-7.44833 -4.96654,-4.96555 -7.44981,-10.9309 -7.4498,-17.89607 l 0,-26.50757 c -10e-6,-7.03005 2.48326,-13.01164 7.4498,-17.94478 4.96653,-4.93301 10.93237,-7.39955 17.89755,-7.39962 5.41622,7e-5 10.33306,1.57998 14.75054,4.73971 4.41739,3.15988 7.49699,7.2875 9.23882,12.38289 0.83837,2.38541 0.70946,4.69057 -0.38673,6.91547 -1.09629,2.225 -2.83758,3.75668 -5.22387,4.59505 -2.38639,0.83847 -4.69203,0.70956 -6.91694,-0.38673 -2.22499,-1.09619 -3.75668,-2.83699 -4.59506,-5.2224 -0.45073,-1.4839 -1.32113,-2.67707 -2.6112,-3.57951 -1.29013,-0.90232 -2.70865,-1.35351 -4.25556,-1.35357 -1.99963,6e-5 -3.70893,0.70907 -5.12792,2.12704 -1.41903,1.41809 -2.12854,3.1269 -2.12852,5.12645 l 0,26.50757 c -2e-5,1.99765 0.70949,3.70598 2.12852,5.12497 1.41899,1.41903 3.1278,2.12853 5.12645,2.12851 1.99859,2e-5 3.7074,-0.70948 5.12645,-2.12851 1.41897,-1.41899 2.12848,-3.12732 2.12851,-5.12497 l 0,-4.15962 -5.12497,0 c -2.4523,3e-5 -4.56507,-0.8871 -6.33831,-2.66138 -1.7733,-1.77422 -2.65993,-3.91898 -2.65991,-6.43426 -2e-5,-2.51521 0.88661,-4.65947 2.65991,-6.43279 1.77324,-1.77322 3.88601,-2.65986 6.33831,-2.65991 l 14.21767,0 c 2.45222,5e-5 4.56499,0.88669 6.33831,2.65991 1.77322,1.77332 2.65986,3.91758 2.65991,6.43279 z"
           inkscape:connector-curvature="0" />
        <path
           id="path3847"
           style="font-variant:normal;font-weight:bold;font-stretch:normal;fill:#398c00;font-family:Garoa Hacker Clube;-inkscape-font-specification:Garoa Hacker Clube Bold"
           d="m 367.12155,849.61668 0,-26.50757 c -4e-5,-1.99955 -0.70954,-3.70836 -2.12852,-5.12645 -1.41904,-1.41797 -3.12786,-2.12698 -5.12645,-2.12704 -1.99865,6e-5 -3.70746,0.70907 -5.12645,2.12704 -1.41903,1.41809 -2.12853,3.1269 -2.12851,5.12645 l 0,26.50757 c -2e-5,1.99765 0.70948,3.70598 2.12851,5.12497 1.41899,1.41903 3.1278,2.12853 5.12645,2.12851 1.99859,2e-5 3.70741,-0.70948 5.12645,-2.12851 1.41898,-1.41899 2.12848,-3.12732 2.12852,-5.12497 z m 18.09091,-26.50757 0,26.50757 c -5e-5,7.02815 -2.46708,13.00925 -7.40109,17.9433 -4.93411,4.93407 -10.91521,7.4011 -17.94331,7.4011 -6.96518,0 -12.93103,-2.46703 -17.89755,-7.4011 -4.96655,-4.93405 -7.44981,-10.91515 -7.44981,-17.9433 l 0,-26.50757 c 0,-6.9651 2.48326,-12.93045 7.44981,-17.89607 4.96652,-4.96548 10.93237,-7.44826 17.89755,-7.44833 7.0281,7e-5 13.0092,2.48285 17.94331,7.44833 4.93401,4.96562 7.40104,10.93097 7.40109,17.89607 z"
           inkscape:connector-curvature="0" />
        <path
           id="path3849"
           style="font-variant:normal;font-weight:bold;font-stretch:normal;fill:#398c00;font-family:Garoa Hacker Clube;-inkscape-font-specification:Garoa Hacker Clube Bold"
           d="m 389.49309,846.90658 c 0.25783,-2.45027 1.35456,-4.46562 3.2902,-6.04605 1.93564,-1.58036 4.12861,-2.24165 6.57892,-1.98386 2.51524,0.25786 4.56257,1.35459 6.142,3.2902 1.57939,1.93567 2.24018,4.16013 1.98238,6.67338 -0.065,0.19487 -0.0974,0.51764 -0.0974,0.96832 0.12987,2.06457 0.92056,3.77388 2.37207,5.12792 1.45146,1.35408 3.17602,1.99864 5.17368,1.93367 2.06453,-0.12791 3.77383,-0.90138 5.12793,-2.3204 1.28908,-1.48394 1.93364,-3.22572 1.93367,-5.22535 -0.12796,-1.99958 -0.91767,-3.67641 -2.36912,-5.0305 -1.45151,-1.35404 -3.17607,-1.99859 -5.17368,-1.93368 -6.12677,0.19291 -11.44756,-1.80669 -15.9624,-5.99881 -4.51486,-4.19205 -6.86922,-9.35096 -7.06308,-15.47677 -0.19386,-6.1257 1.80525,-11.446 5.99734,-15.96092 4.19208,-4.51479 9.35149,-6.86865 15.47825,-7.0616 5.22335,-0.19477 9.94731,1.2882 14.1719,4.44892 4.22452,3.16086 6.94987,7.288 8.17605,12.38142 0.64352,2.38738 0.32075,4.66104 -0.96831,6.82099 -1.28917,2.16006 -3.15986,3.53036 -5.61209,4.1109 -2.38539,0.64559 -4.65807,0.32331 -6.81804,-0.96683 -2.16004,-1.29005 -3.53034,-3.16025 -4.1109,-5.61061 -0.25785,-0.90331 -0.77399,-1.66103 -1.54842,-2.27317 -0.77448,-0.61203 -1.67735,-0.88658 -2.70861,-0.82366 -1.09627,0.065 -2.04736,0.51669 -2.85328,1.35505 -0.80596,0.83847 -1.17745,1.8058 -1.11444,2.90199 0.0649,1.16124 0.5166,2.12856 1.35504,2.90198 0.8384,0.77352 1.80572,1.16026 2.90199,1.16021 7.03007,-0.25778 13.10859,1.99965 18.23557,6.77228 5.12689,4.77272 7.81927,10.67411 8.07715,17.70418 0.19282,7.02816 -2.09708,13.08995 -6.86971,18.18539 -4.77075,5.1604 -10.63868,7.83703 -17.60381,8.02991 -7.03013,0.25782 -13.10864,-1.9996 -18.23557,-6.77228 -5.12695,-4.77267 -7.81933,-10.67308 -8.07715,-17.70123 0,-1.61383 0.064,-2.80749 0.19189,-3.58099 z"
           inkscape:connector-curvature="0" />
        <path
           id="path3851"
           style="font-variant:normal;font-weight:bold;font-stretch:normal;fill:#398c00;font-family:Garoa Hacker Clube;-inkscape-font-specification:Garoa Hacker Clube Bold"
           d="m 469.27264,797.76471 c 7.02811,7e-5 13.00921,2.48285 17.94331,7.44833 4.93402,4.96562 7.40105,10.93097 7.4011,17.89607 l 0,41.11492 c -5e-5,2.51526 -0.88669,4.65952 -2.65991,6.43278 -1.77332,1.77328 -3.8851,2.65991 -6.33536,2.65991 -2.51529,0 -4.66005,-0.88663 -6.43426,-2.65991 -1.77429,-1.77326 -2.66142,-3.91752 -2.66139,-6.43278 l 0,-13.64199 -14.50993,0 0,13.64199 c -2e-5,2.51526 -0.88665,4.65952 -2.6599,6.43278 -1.77329,1.77328 -3.88508,2.65991 -6.33537,2.65991 -2.51526,0 -4.65952,-0.88663 -6.43278,-2.65991 -1.77328,-1.77326 -2.65991,-3.91752 -2.65991,-6.43278 l 0,-41.11492 c 0,-6.9651 2.48277,-12.93045 7.44833,-17.89607 4.96554,-4.96548 10.93089,-7.44826 17.89607,-7.44833 z m -7.25644,34.72936 14.50993,0 0,-9.38496 c -3e-5,-1.99955 -0.70904,-3.70836 -2.12704,-5.12645 -1.41806,-1.41797 -3.12687,-2.12698 -5.12645,-2.12704 -1.99963,6e-5 -3.70893,0.70907 -5.12792,2.12704 -1.41903,1.41809 -2.12854,3.1269 -2.12852,5.12645 z"
           inkscape:connector-curvature="0" />
        <path
           id="path3853"
           style="font-variant:normal;font-weight:bold;font-stretch:normal;fill:#398c00;font-family:Garoa Hacker Clube;-inkscape-font-specification:Garoa Hacker Clube Bold"
           d="m 514.74496,857.79124 c 1.74176,1.77329 2.61265,3.91755 2.61267,6.43279 -2e-5,2.51526 -0.87042,4.64328 -2.61119,6.38407 -1.74082,1.7408 -3.86884,2.6112 -6.38408,2.6112 -2.51526,0 -4.66001,-0.8704 -6.43426,-2.6112 -1.77426,-1.74079 -2.66139,-3.86881 -2.66138,-6.38407 -1e-5,-2.51524 0.88712,-4.65999 2.66138,-6.43426 1.77425,-1.77424 3.919,-2.66137 6.43426,-2.66139 2.51524,2e-5 4.64277,0.88764 6.3826,2.66286 z"
           inkscape:connector-curvature="0" />
        <path
           id="path3855"
           style="font-variant:normal;font-weight:bold;font-stretch:normal;fill:#398c00;font-family:Garoa Hacker Clube;-inkscape-font-specification:Garoa Hacker Clube Bold"
           d="m 555.11593,849.61668 0,-26.50757 c -3e-5,-1.99955 -0.70954,-3.70836 -2.12852,-5.12645 -1.41904,-1.41797 -3.12785,-2.12698 -5.12644,-2.12704 -1.99865,6e-5 -3.70747,0.70907 -5.12645,2.12704 -1.41904,1.41809 -2.12854,3.1269 -2.12852,5.12645 l 0,26.50757 c -2e-5,1.99765 0.70948,3.70598 2.12852,5.12497 1.41898,1.41903 3.1278,2.12853 5.12645,2.12851 1.99859,2e-5 3.7074,-0.70948 5.12644,-2.12851 1.41898,-1.41899 2.12849,-3.12732 2.12852,-5.12497 z m 18.09092,-26.50757 0,26.50757 c -5e-5,7.02815 -2.46709,13.00925 -7.4011,17.9433 -4.93411,4.93407 -10.9152,7.4011 -17.94331,7.4011 -6.96518,0 -12.93102,-2.46703 -17.89755,-7.4011 -4.96654,-4.93405 -7.44981,-10.91515 -7.44981,-17.9433 l 0,-26.50757 c 0,-6.9651 2.48327,-12.93045 7.44981,-17.89607 4.96653,-4.96548 10.93237,-7.44826 17.89755,-7.44833 7.02811,7e-5 13.0092,2.48285 17.94331,7.44833 4.93401,4.96562 7.40105,10.93097 7.4011,17.89607 z"
           inkscape:connector-curvature="0" />
        <path
           id="path3857"
           style="font-variant:normal;font-weight:bold;font-stretch:normal;fill:#398c00;font-family:Garoa Hacker Clube;-inkscape-font-specification:Garoa Hacker Clube Bold"
           d="m 626.34007,824.17485 c -5e-5,5.22342 -1.48302,9.99511 -4.44892,14.31508 4.19203,4.70777 6.28807,10.22242 6.28812,16.54398 l 0,9.19012 c -5e-5,2.45031 -0.88668,4.56209 -2.6599,6.33536 -1.77332,1.77327 -3.91758,2.65991 -6.43279,2.65991 -2.45231,0 -4.56508,-0.88664 -6.33831,-2.65991 -1.77331,-1.77327 -2.65995,-3.88505 -2.65991,-6.33536 l 0,-9.19012 c -4e-5,-1.67681 -0.54816,-3.1283 -1.64436,-4.35445 -1.09627,-1.22611 -2.57925,-2.06453 -4.44893,-2.51525 -1.99963,-0.45068 -3.66072,-1.46622 -4.98327,-3.04665 -1.32259,-1.58036 -2.01586,-3.40234 -2.0798,-5.46595 -0.064,-2.06353 0.50037,-3.93373 1.69307,-5.6106 1.19265,-1.67679 2.78879,-2.80551 4.78842,-3.38614 1.48393,-0.45066 2.66136,-1.2566 3.53228,-2.41783 0.87086,-1.16114 1.3063,-2.51521 1.30634,-4.06219 -4e-5,-1.87163 -0.66132,-3.45202 -1.98386,-4.74119 -1.32261,-1.28906 -2.91875,-1.93362 -4.78843,-1.93368 l -4.93308,0 0,46.72405 c -2e-5,2.45031 -0.87091,4.56209 -2.61267,6.33536 -1.7418,1.77327 -3.87032,2.65991 -6.38555,2.65991 -2.51526,0 -4.65952,-0.88664 -6.43279,-2.65991 -1.77327,-1.77327 -2.65991,-3.88505 -2.65991,-6.33536 l 0,-55.72227 c 0,-2.51518 0.88664,-4.65944 2.65991,-6.43279 1.77327,-1.77319 3.91753,-2.65983 6.43279,-2.6599 l 13.9313,0 c 6.83523,7e-5 12.68742,2.41839 17.55657,7.25496 4.86907,4.83671 7.30363,10.67364 7.30368,17.51082 z"
           inkscape:connector-curvature="0" />
        <path
           id="path3859"
           style="font-variant:normal;font-weight:bold;font-stretch:normal;fill:#398c00;font-family:Garoa Hacker Clube;-inkscape-font-specification:Garoa Hacker Clube Bold"
           d="m 682.60257,836.36142 0,13.25526 c -5e-5,6.96517 -2.46708,12.93052 -7.4011,17.89607 -4.9341,4.96555 -10.9152,7.44833 -17.94331,7.44833 -6.96518,0 -12.93102,-2.48278 -17.89755,-7.44833 -4.96654,-4.96555 -7.44981,-10.9309 -7.44981,-17.89607 l 0,-26.50757 c 0,-7.03005 2.48327,-13.01164 7.44981,-17.94478 4.96653,-4.93301 10.93237,-7.39955 17.89755,-7.39962 5.41622,7e-5 10.33306,1.57998 14.75054,4.73971 4.41738,3.15988 7.49699,7.2875 9.23882,12.38289 0.83837,2.38541 0.70946,4.69057 -0.38673,6.91547 -1.09629,2.225 -2.83758,3.75668 -5.22387,4.59505 -2.38639,0.83847 -4.69203,0.70956 -6.91694,-0.38673 -2.225,-1.09619 -3.75668,-2.83699 -4.59506,-5.2224 -0.45073,-1.4839 -1.32113,-2.67707 -2.6112,-3.57951 -1.29013,-0.90232 -2.70865,-1.35351 -4.25556,-1.35357 -1.99963,6e-5 -3.70893,0.70907 -5.12792,2.12704 -1.41903,1.41809 -2.12854,3.1269 -2.12852,5.12645 l 0,26.50757 c -2e-5,1.99765 0.70949,3.70598 2.12852,5.12497 1.41899,1.41903 3.1278,2.12853 5.12645,2.12851 1.99859,2e-5 3.7074,-0.70948 5.12645,-2.12851 1.41897,-1.41899 2.12848,-3.12732 2.12851,-5.12497 l 0,-4.15962 -5.12497,0 c -2.4523,3e-5 -4.56507,-0.8871 -6.33832,-2.66138 -1.77329,-1.77422 -2.65992,-3.91898 -2.6599,-6.43426 -2e-5,-2.51521 0.88661,-4.65947 2.6599,-6.43279 1.77325,-1.77322 3.88602,-2.65986 6.33832,-2.65991 l 14.21767,0 c 2.45222,5e-5 4.56499,0.88669 6.33831,2.65991 1.77322,1.77332 2.65986,3.91758 2.65991,6.43279 z"
           inkscape:connector-curvature="0" />
      </g>
    </g>
  </g>
</svg>
