<?xml version="1.0" encoding="UTF-8" standalone="no"?>
<!-- Created with Inkscape (http://www.inkscape.org/) -->

<svg
   xmlns:dc="http://purl.org/dc/elements/1.1/"
   xmlns:cc="http://creativecommons.org/ns#"
   xmlns:rdf="http://www.w3.org/1999/02/22-rdf-syntax-ns#"
   xmlns:svg="http://www.w3.org/2000/svg"
   xmlns="http://www.w3.org/2000/svg"
   xmlns:sodipodi="http://sodipodi.sourceforge.net/DTD/sodipodi-0.dtd"
   xmlns:inkscape="http://www.inkscape.org/namespaces/inkscape"
   width="210mm"
   height="297mm"
   id="svg4176"
   version="1.1"
   inkscape:version="0.48.5 r10040"
   sodipodi:docname="sabugosa_logo_branco_vazado_texto_novo.svg">
  <defs
     id="defs3" />
  <sodipodi:namedview
     inkscape:document-units="mm"
     id="base"
     pagecolor="#ffffff"
     bordercolor="#666666"
     borderopacity="1.0"
     inkscape:pageopacity="0.0"
     inkscape:pageshadow="2"
     inkscape:zoom="0.35"
     inkscape:cx="-168.57143"
     inkscape:cy="520"
     inkscape:current-layer="layer1"
     showgrid="false"
     inkscape:window-width="1920"
     inkscape:window-height="1017"
     inkscape:window-x="-9"
     inkscape:window-y="-9"
     inkscape:window-maximized="1" />
  <metadata
     id="metadata4">
    <rdf:RDF>
      <cc:Work
         rdf:about="">
        <dc:format>image/svg+xml</dc:format>
        <dc:type
           rdf:resource="http://purl.org/dc/dcmitype/StillImage" />
        <dc:title></dc:title>
      </cc:Work>
    </rdf:RDF>
  </metadata>
  <g
     inkscape:label="Layer 1"
     inkscape:groupmode="layer"
     id="layer1">
    <rect
       style="fill:#107400;fill-opacity:0.99803928;stroke:none"
       id="rect4182"
       width="725.71429"
       height="1034.2858"
       x="5.7142859"
       y="6.6478968"
       ry="1.1181537" />
    <g
       transform="matrix(5.1862035,0,0,5.1862035,-1265.5852,-2517.7098)"
       id="g4151">
      <path
         inkscape:connector-curvature="0"
         style="fill:none;stroke:#ffffff;stroke-width:0.87052584;stroke-miterlimit:4;stroke-opacity:0.99578091;stroke-dasharray:none"
         d="m 364.56259,576.76234 4.63177,-0.37285 0.83743,0.0314 5.58774,1.61992 0,5.35703 -5.58774,1.61991 -0.83743,0.0314 -4.63177,-0.37285 -1.18258,7.46788 4.52005,1.07676 0.78657,0.28838 4.81388,3.26753 -1.65533,5.09454 -5.81527,-0.18574 -0.80609,-0.22934 -4.28935,-1.78568 -3.43285,6.73671 3.96646,2.42056 0.65895,0.51772 3.56863,4.59544 -3.14854,4.3334 -5.4733,-1.97369 -0.69574,-0.46686 -3.52775,-3.02411 -5.3466,5.34659 3.02412,3.52775 0.46686,0.69575 1.97369,5.47329 -4.3334,3.14854 -4.59544,-3.56862 -0.51773,-0.65896 -2.42055,-3.96645 -6.73672,3.43284 1.78569,4.28935 0.22934,0.8061 0.18574,5.81526 -5.09454,1.65533 -3.26754,-4.81387 -0.28837,-0.78658 -1.07677,-4.52005 -7.46787,1.18258 0.37284,4.63178 -0.0314,0.83742 -1.61991,5.58774 -5.35704,0 -1.61991,-5.58774 -0.0314,-0.83742 0.37285,-4.63178 -7.46787,-1.18258 -1.07676,4.52005 -0.28838,0.78658 -3.26753,4.81387 -5.09455,-1.65533 0.18574,-5.81526 0.22935,-0.8061 1.78568,-4.28935 -6.73671,-3.43284 -2.42057,3.96645 -0.51771,0.65896 -4.59544,3.56862 -4.3334,-3.14854 1.9737,-5.47329 0.46685,-0.69575 3.02411,-3.52775 -5.34659,-5.34659 -3.52775,3.02411 -0.69574,0.46686 -5.47329,1.97369 -3.14855,-4.3334 3.56863,-4.59544 0.65896,-0.51772 3.96645,-2.42056 -3.43284,-6.73671 -4.28936,1.78568 -0.80609,0.22934 -5.81526,0.18574 -1.65534,-5.09454 4.81388,-3.26753 0.78657,-0.28838 4.52006,-1.07676 -1.18259,-7.46788 -4.63177,0.37285 -0.83743,-0.0314 -5.58773,-1.61991 0,-5.35703 5.58773,-1.61992 0.83743,-0.0314 4.63177,0.37285 1.18259,-7.46788 -4.52006,-1.07676 -0.78657,-0.28838 -4.81388,-3.26753 1.65534,-5.09454 5.81526,0.18574 0.80609,0.22934 4.28936,1.78568 3.43284,-6.73671 -3.96645,-2.42056 -0.65896,-0.51772 -3.56863,-4.59545 3.14855,-4.33339 5.47329,1.97368 0.69574,0.46687 3.52775,3.02411 5.34659,-5.34659 -3.02411,-3.52776 -0.46685,-0.69573 -1.9737,-5.4733 4.3334,-3.14855 4.59544,3.56863 0.51771,0.65896 2.42057,3.96645 6.73671,-3.43285 -1.78568,-4.28935 -0.22935,-0.8061 -0.18574,-5.81525 5.09455,-1.65534 3.26753,4.81388 0.28838,0.78657 1.07676,4.52006 7.46787,-1.18259 -0.37285,-4.63177 0.0314,-0.83743 1.61991,-5.58773 5.35704,0 1.61991,5.58773 0.0314,0.83743 -0.37284,4.63177 7.46787,1.18259 1.07677,-4.52006 0.28837,-0.78657 3.26754,-4.81388 5.09454,1.65534 -0.18574,5.81525 -0.22934,0.8061 -1.78569,4.28935 6.73672,3.43285 2.42055,-3.96645 0.51773,-0.65896 4.59544,-3.56863 4.3334,3.14855 -1.97369,5.4733 -0.46686,0.69573 -3.02412,3.52776 5.3466,5.34659 3.52775,-3.02411 0.69574,-0.46687 5.4733,-1.97368 3.14854,4.33339 -3.56863,4.59545 -0.65895,0.51772 -3.96646,2.42056 3.43285,6.73671 4.28935,-1.78568 0.80609,-0.22934 5.81527,-0.18574 1.65533,5.09454 -4.81388,3.26753 -0.78657,0.28838 -4.52005,1.07676 z"
         id="path16829-4-5-6-1" />
      <g
         id="text3941-1-2-8-2-5"
         style="font-size:40px;font-style:normal;font-weight:normal;line-height:126.99999809%;letter-spacing:0px;word-spacing:0px;fill:#ffffff;fill-opacity:1;stroke:none;font-family:Sans"
         transform="matrix(0.78234238,0.01415901,-0.01673136,0.66206135,152.02766,369.17983)">
        <path
           inkscape:connector-curvature="0"
           id="path4111"
           style="font-size:28px;font-variant:normal;font-weight:bold;font-stretch:normal;line-height:126.99999809%;letter-spacing:2.73682332px;fill:#ffffff;font-family:Garoa Hacker Clube;-inkscape-font-specification:Garoa Hacker Clube Bold"
           d="m 157.43551,384.57595 c 0.38976,0.6149 0.50536,1.27662 0.34683,1.98516 -0.15859,0.70854 -0.53737,1.25267 -1.13637,1.63238 l -13.62228,8.63501 c -0.6149,0.38976 -1.27658,0.50518 -1.98503,0.34623 -0.70846,-0.15896 -1.25757,-0.54588 -1.64734,-1.16077 -0.37972,-0.59903 -0.49022,-1.25269 -0.3315,-1.96098 0.1587,-0.70831 0.54551,-1.25735 1.16041,-1.64712 l 5.32117,-3.37303 -1.52891,-2.41195 -5.32117,3.37302 c -0.6149,0.38978 -1.27658,0.50519 -1.98503,0.34624 -0.70846,-0.15896 -1.25749,-0.54576 -1.64712,-1.16041 -0.38962,-0.61466 -0.50264,-1.27229 -0.33904,-1.97289 0.16359,-0.70061 0.55283,-1.2458 1.16773,-1.63557 l 13.62228,-8.63501 c 0.599,-0.3797 1.25022,-0.49405 1.95366,-0.34305 0.70341,0.15103 1.24993,0.53386 1.63957,1.14851 0.3896,0.61466 0.50514,1.27626 0.3466,1.9848 -0.15858,0.70855 -0.53737,1.25267 -1.13637,1.63238 l -3.87847,2.45852 1.52891,2.41195 3.87847,-2.45852 c 0.599,-0.37971 1.25266,-0.4902 1.96098,-0.3315 0.70828,0.15872 1.25229,0.53758 1.63202,1.1366 z" />
        <path
           inkscape:connector-curvature="0"
           id="path4113"
           style="font-size:28px;font-variant:normal;font-weight:bold;font-stretch:normal;line-height:126.99999809%;letter-spacing:2.73682332px;fill:#ffffff;font-family:Garoa Hacker Clube;-inkscape-font-specification:Garoa Hacker Clube Bold"
           d="m 156.55942,410.46019 c -0.44375,0.88698 -1.15485,1.35832 -2.13329,1.41403 -0.95188,0.0563 -1.72847,-0.31241 -2.32976,-1.10622 l -3.0067,-4.25215 c -0.42199,-0.57755 -0.56811,-1.22456 -0.43835,-1.94105 0.12975,-0.71649 0.4836,-1.28553 1.06153,-1.7071 0.5905,-0.40839 1.24416,-0.55434 1.96098,-0.43787 0.71681,0.11646 1.2794,0.46995 1.68779,1.06046 l 0.5363,0.76605 2.36724,-4.53792 -8.53146,3.91368 c -0.66728,0.30055 -1.33789,0.32713 -2.01184,0.0798 -0.67396,-0.2474 -1.16822,-0.69845 -1.48277,-1.35317 -0.30056,-0.66727 -0.32714,-1.33788 -0.0798,-2.01184 0.24739,-0.67395 0.70473,-1.16121 1.372,-1.46176 l 15.48191,-7.13189 c 0.50707,-0.22504 1.03656,-0.28475 1.58845,-0.17914 0.55186,0.10564 1.02093,0.36117 1.40721,0.76659 0.37368,0.39223 0.59993,0.86652 0.67875,1.42285 0.0788,0.55634 -0.006,1.08232 -0.25577,1.57793 z" />
        <path
           inkscape:connector-curvature="0"
           id="path4115"
           style="font-size:28px;font-variant:normal;font-weight:bold;font-stretch:normal;line-height:126.99999809%;letter-spacing:2.73682332px;fill:#ffffff;font-family:Garoa Hacker Clube;-inkscape-font-specification:Garoa Hacker Clube Bold"
           d="m 178.00277,418.65923 c 0.33915,0.64283 0.40672,1.3098 0.20271,2.00091 -0.20406,0.6911 -0.62749,1.20624 -1.2703,1.54542 -1.80054,0.98991 -3.72133,1.44522 -5.76237,1.36593 -2.04106,-0.0793 -3.92245,-0.67812 -5.64415,-1.79648 -2.58307,-1.67786 -4.1954,-4.02738 -4.83702,-7.04855 -0.64162,-3.02117 -0.11839,-5.83117 1.56972,-8.43 1.67753,-2.58256 4.02685,-4.19486 7.04795,-4.83689 3.02108,-0.642 5.82315,-0.12408 8.40623,1.55377 1.70641,1.10844 3.01455,2.58141 3.92442,4.41891 0.90983,1.83751 1.28365,3.7721 1.12148,5.80379 -0.0486,0.7252 -0.34708,1.32149 -0.89552,1.78886 -0.5485,0.46738 -1.18534,0.67679 -1.91051,0.62825 -0.7413,-0.0583 -1.3455,-0.36162 -1.81261,-0.90994 -0.46716,-0.54831 -0.66881,-1.18011 -0.60496,-1.89538 0.0647,-1.09307 -0.13802,-2.12615 -0.60807,-3.09923 -0.47009,-0.97308 -1.15896,-1.75442 -2.06662,-2.34402 -1.37777,-0.89493 -2.86966,-1.16841 -4.47566,-0.82044 -1.60603,0.34799 -2.85123,1.20274 -3.73561,2.56425 -0.89495,1.37776 -1.17237,2.86708 -0.83226,4.46798 0.34009,1.60089 1.19902,2.84881 2.57678,3.74375 0.90767,0.58959 1.90284,0.90775 2.98552,0.95448 1.08265,0.0467 2.10253,-0.18662 3.05963,-0.70003 0.64281,-0.33918 1.30978,-0.40674 2.00091,-0.20271 0.69108,0.20403 1.21119,0.61982 1.56031,1.24737 z" />
        <path
           inkscape:connector-curvature="0"
           id="path4117"
           style="font-size:28px;font-variant:normal;font-weight:bold;font-stretch:normal;line-height:126.99999809%;letter-spacing:2.73682332px;fill:#ffffff;font-family:Garoa Hacker Clube;-inkscape-font-specification:Garoa Hacker Clube Bold"
           d="m 192.19072,429.09131 c 0.14044,0.70619 0.006,1.36248 -0.40246,1.96888 -0.40877,0.60638 -0.96331,0.97088 -1.66361,1.09348 -0.72407,0.13457 -1.38469,-10e-4 -1.98187,-0.40672 -0.59721,-0.40573 -0.9663,-0.96179 -1.10728,-1.66817 l -1.43008,-7.46061 -1.76854,4.86867 c -0.24857,0.68428 -0.70182,1.17996 -1.35974,1.48705 -0.65794,0.30708 -1.32021,0.33956 -1.98681,0.0974 -0.68429,-0.24856 -1.18002,-0.70168 -1.4872,-1.35934 -0.30719,-0.65766 -0.3365,-1.32863 -0.0879,-2.01291 l 5.50662,-15.15939 c 0.24214,-0.66659 0.69204,-1.15349 1.34971,-1.46069 0.65765,-0.30716 1.32863,-0.33647 2.01292,-0.0879 0.6666,0.24216 1.15363,0.69212 1.46109,1.34986 0.30744,0.65777 0.34009,1.31996 0.098,1.98655 l -1.22386,3.3692 4.99351,-3.57811 c 0.59005,-0.42142 1.24071,-0.57251 1.95197,-0.45326 0.71123,0.11928 1.27744,0.4739 1.69863,1.06386 0.42115,0.58998 0.57205,1.24073 0.45271,1.95223 -0.11938,0.71153 -0.474,1.27773 -1.06386,1.69862 l -5.64395,4.05732 z" />
        <path
           inkscape:connector-curvature="0"
           id="path4119"
           style="font-size:28px;font-variant:normal;font-weight:bold;font-stretch:normal;line-height:126.99999809%;letter-spacing:2.73682332px;fill:#ffffff;font-family:Garoa Hacker Clube;-inkscape-font-specification:Garoa Hacker Clube Bold"
           d="m 205.83249,430.28304 c 0.6998,0.11522 1.26197,0.46324 1.68653,1.04408 0.42453,0.58083 0.57767,1.23043 0.45941,1.94878 -0.11828,0.71836 -0.47233,1.28907 -1.06215,1.71214 -0.58984,0.42306 -1.23466,0.57698 -1.93445,0.46177 l -7.65319,-1.26004 c -0.71836,-0.11827 -1.28907,-0.47232 -1.71213,-1.06215 -0.42307,-0.58983 -0.57547,-1.24392 -0.45719,-1.96228 l 2.62015,-15.91428 c 0.11521,-0.69979 0.46774,-1.26123 1.05757,-1.68431 0.58982,-0.42305 1.24391,-0.57544 1.96228,-0.45719 l 7.15574,1.17813 c 0.69979,0.11524 1.26136,0.46778 1.68473,1.05764 0.42332,0.58989 0.57739,1.23473 0.46219,1.93452 -0.11829,0.71837 -0.4725,1.2892 -1.06264,1.71249 -0.59017,0.42331 -1.23516,0.57735 -1.93495,0.46212 l -4.55886,-0.75058 -0.31831,1.93332 3.64743,0.60052 c 0.71834,0.11829 1.28979,0.46784 1.71435,1.04866 0.42453,0.58085 0.57767,1.23044 0.45941,1.94879 -0.11828,0.71836 -0.47233,1.28907 -1.06215,1.71213 -0.58984,0.42307 -1.24393,0.57547 -1.96228,0.45719 l -3.64742,-0.60052 -0.60038,3.64659 z" />
        <path
           inkscape:connector-curvature="0"
           id="path4121"
           style="font-size:28px;font-variant:normal;font-weight:bold;font-stretch:normal;line-height:126.99999809%;letter-spacing:2.73682332px;fill:#ffffff;font-family:Garoa Hacker Clube;-inkscape-font-specification:Garoa Hacker Clube Bold"
           d="m 222.45522,423.31871 c 1.67092,1.36599 2.52934,3.15929 2.57527,5.37992 l 0.0938,4.53553 c 0.015,0.72787 -0.22871,1.35369 -0.73124,1.87745 -0.50256,0.52377 -1.10837,0.79298 -1.81743,0.80764 -0.72788,0.0151 -1.3537,-0.22869 -1.87746,-0.73124 -0.52377,-0.50254 -0.79318,-1.11775 -0.80822,-1.84563 l -0.0938,-4.53553 c -0.009,-0.44765 -0.14338,-0.83688 -0.40234,-1.16771 -0.25897,-0.33081 -0.59513,-0.55718 -1.00845,-0.67913 -0.9201,-0.24249 -1.52942,-0.8182 -1.82797,-1.7271 -0.28071,-0.92749 -0.12056,-1.75215 0.48046,-2.47397 0.25562,-0.2856 0.3788,-0.65224 0.36955,-1.09991 -0.008,-0.3736 -0.12204,-0.70741 -0.34292,-1.00143 -0.22089,-0.29398 -0.50042,-0.50301 -0.83858,-0.62708 l 0.27669,13.3819 c 0.0151,0.72788 -0.22884,1.3537 -0.73167,1.87747 -0.50283,0.52377 -1.11804,0.79318 -1.84562,0.80822 -0.72759,0.015 -1.34871,-0.2288 -1.86336,-0.73153 -0.51466,-0.50274 -0.77951,-1.11804 -0.79456,-1.84591 l -0.33341,-16.1251 c -0.0151,-0.72785 0.22424,-1.34873 0.71788,-1.86265 0.53064,-0.5152 1.1411,-0.77996 1.83138,-0.79425 l 2.04437,-0.0423 c 1.92218,-0.0397 3.57863,0.61219 4.96934,1.95574 1.39069,1.34358 2.10592,2.97646 2.14567,4.89864 0.0112,0.54108 -0.0513,1.13039 -0.18737,1.76793 z" />
        <path
           inkscape:connector-curvature="0"
           id="path4123"
           style="font-size:28px;font-variant:normal;font-weight:bold;font-stretch:normal;line-height:126.99999809%;letter-spacing:2.73682332px;fill:#ffffff;font-family:Garoa Hacker Clube;-inkscape-font-specification:Garoa Hacker Clube Bold"
           d="m 232.9321,412.65846 c 0.71239,-0.15004 1.37261,-0.0268 1.98065,0.36958 0.60803,0.39647 0.9852,0.94198 1.13151,1.63651 0.15005,0.71241 0.0269,1.37263 -0.36958,1.98065 -0.39646,0.60805 -0.95088,0.9871 -1.66327,1.13715 l -2.38384,0.50214 c -0.25587,0.0539 -0.46045,0.19233 -0.61374,0.41526 -0.15331,0.22297 -0.20107,0.47157 -0.1433,0.74581 0.0538,0.25532 0.19677,0.45879 0.42898,0.61042 0.2322,0.15166 0.47623,0.20053 0.73209,0.14662 1.89972,-0.40015 3.67226,-0.0678 5.31763,0.99706 1.64535,1.06488 2.67005,2.55637 3.0741,4.47447 0.40015,1.89973 0.0632,3.67323 -1.01085,5.32053 -1.07408,1.64731 -2.56097,2.67104 -4.46068,3.0712 l -3.26096,0.6869 c -0.71184,0.14994 -1.37191,0.0267 -1.98023,-0.36968 -0.60831,-0.39638 -0.9875,-0.95078 -1.13756,-1.66317 -0.15006,-0.71239 -0.0258,-1.36804 0.3729,-1.96694 0.39867,-0.5989 0.95392,-0.97332 1.66576,-1.12327 l 3.26096,-0.68689 c 0.49332,-0.10391 0.88056,-0.37148 1.16173,-0.80272 0.28116,-0.43122 0.36979,-0.89349 0.26588,-1.38683 -0.1078,-0.51171 -0.37634,-0.90355 -0.80562,-1.17553 -0.42929,-0.27196 -0.8906,-0.35599 -1.38392,-0.25208 -1.68065,0.35403 -3.23969,0.0624 -4.67711,-0.87481 -1.43743,-0.93721 -2.33312,-2.246 -2.68708,-3.92639 -0.35395,-1.68035 -0.0623,-3.23925 0.8749,-4.67669 0.93722,-1.4374 2.24616,-2.33312 3.92681,-2.68716 z" />
        <path
           inkscape:connector-curvature="0"
           id="path4125"
           style="font-size:28px;font-variant:normal;font-weight:bold;font-stretch:normal;line-height:126.99999809%;letter-spacing:2.73682332px;fill:#ffffff;font-family:Garoa Hacker Clube;-inkscape-font-specification:Garoa Hacker Clube Bold"
           d="m 248.31567,430.37392 c -0.67179,0.28058 -1.3434,0.28297 -2.01482,0.007 -0.67143,-0.2758 -1.14743,-0.74959 -1.42801,-1.42138 l -6.20503,-14.85661 c -0.28057,-0.67177 -0.28296,-1.34337 -0.007,-2.01482 0.27581,-0.67141 0.7496,-1.14741 1.42139,-1.42801 l 3.72085,-1.55405 c 1.8256,-0.76246 3.6584,-0.76938 5.49841,-0.0208 1.84,0.74867 3.1413,2.03592 3.9039,3.86176 0.76258,1.82589 0.76341,3.65629 0.002,5.49123 -0.76094,1.83497 -2.05421,3.13369 -3.87981,3.89616 l -1.31755,0.55029 1.69434,4.05675 c 0.28058,0.67179 0.28283,1.34345 0.007,2.01499 -0.27607,0.67153 -0.74132,1.14397 -1.39576,1.4173 z m -3.81227,-15.8856 1.48918,3.56553 1.31756,-0.5503 c 0.49937,-0.20855 0.8519,-0.56322 1.05761,-1.06401 0.20571,-0.50076 0.20784,-0.99229 0.006,-1.4746 -0.20143,-0.48227 -0.55248,-0.82614 -1.05315,-1.0316 -0.50066,-0.20542 -1.00068,-0.20386 -1.50005,0.005 z" />
        <path
           inkscape:connector-curvature="0"
           id="path4127"
           style="font-size:28px;font-variant:normal;font-weight:bold;font-stretch:normal;line-height:126.99999809%;letter-spacing:2.73682332px;fill:#ffffff;font-family:Garoa Hacker Clube;-inkscape-font-specification:Garoa Hacker Clube Bold"
           d="m 272.8285,412.7889 c 0.80005,0.58615 1.14553,1.36618 1.03645,2.34012 -0.10402,0.94786 -0.5977,1.65165 -1.48107,2.11138 l -4.69596,2.25144 c -0.6401,0.31922 -1.30246,0.35482 -1.98706,0.1068 -0.68461,-0.24801 -1.18628,-0.69223 -1.50502,-1.33265 -0.30363,-0.65059 -0.33796,-1.31947 -0.10299,-2.00663 0.23497,-0.68714 0.67775,-1.18253 1.32836,-1.48616 l 0.8451,-0.40031 -4.07693,-3.09437 2.42831,9.06675 c 0.18446,0.70821 0.0983,1.3738 -0.2586,1.99675 -0.35686,0.62295 -0.88437,1.03461 -1.58255,1.23498 -0.70821,0.18446 -1.37379,0.0983 -1.99675,-0.2586 -0.62295,-0.35685 -1.02666,-0.88939 -1.21111,-1.5976 l -4.436,-16.45829 c -0.13686,-0.53762 -0.10698,-1.06962 0.0897,-1.596 0.19664,-0.52634 0.52718,-0.94595 0.99161,-1.25882 0.44932,-0.30264 0.95481,-0.44619 1.51649,-0.43065 0.56168,0.0156 1.06592,0.18779 1.51273,0.51663 z" />
        <path
           inkscape:connector-curvature="0"
           id="path4129"
           style="font-size:28px;font-variant:normal;font-weight:bold;font-stretch:normal;line-height:126.99999809%;letter-spacing:2.73682332px;fill:#ffffff;font-family:Garoa Hacker Clube;-inkscape-font-specification:Garoa Hacker Clube Bold"
           d="m 284.50453,393.02003 c 0.69061,-0.22653 1.35946,-0.18128 2.00657,0.13575 0.64709,0.31708 1.08391,0.82091 1.31048,1.5115 0.6739,1.94107 0.80061,3.91101 0.38013,5.90984 -0.4205,1.99885 -1.32639,3.75315 -2.71766,5.2629 -2.08732,2.26507 -4.67397,3.46051 -7.75996,3.58633 -3.08599,0.12584 -5.76843,-0.86128 -8.04732,-2.96134 -2.26463,-2.08691 -3.46007,-4.67336 -3.58631,-7.75935 -0.12622,-3.08596 0.85433,-5.76148 2.94163,-8.02656 1.37894,-1.49633 3.05044,-2.5389 5.01451,-3.1277 1.96408,-0.58876 3.93397,-0.63282 5.90968,-0.1322 0.70678,0.16951 1.24456,0.5638 1.61332,1.18286 0.36876,0.61912 0.4684,1.28206 0.29893,1.98882 -0.18181,0.72102 -0.58216,1.26579 -1.20106,1.63432 -0.6189,0.36858 -1.27556,0.46141 -1.96999,0.2785 -1.06674,-0.24708 -2.11918,-0.22053 -3.15732,0.0797 -1.03814,0.30023 -1.92395,0.8483 -2.65742,1.64421 -1.11334,1.20817 -1.63316,2.63305 -1.55947,4.27467 0.0737,1.64164 0.7075,3.01256 1.90139,4.11276 1.20815,1.11335 2.62985,1.63662 4.26511,1.56983 1.63526,-0.0668 3.00956,-0.70423 4.1229,-1.91239 0.73347,-0.79592 1.21403,-1.72363 1.44168,-2.78314 0.22764,-1.05948 0.16865,-2.10405 -0.17696,-3.1337 -0.22656,-0.69059 -0.18131,-1.35944 0.13575,-2.00656 0.31705,-0.64708 0.81418,-1.09008 1.49139,-1.32901 z" />
        <path
           inkscape:connector-curvature="0"
           id="path4131"
           style="font-size:28px;font-variant:normal;font-weight:bold;font-stretch:normal;line-height:126.99999809%;letter-spacing:2.73682332px;fill:#ffffff;font-family:Garoa Hacker Clube;-inkscape-font-specification:Garoa Hacker Clube Bold"
           d="m 294.51582,382.97521 c 0.35428,-0.6144 0.87798,-1.018 1.57112,-1.21082 0.69313,-0.19279 1.35504,-0.10736 1.98573,0.25629 0.63069,0.36368 1.04016,0.89603 1.22842,1.59704 0.18825,0.70104 0.10523,1.35876 -0.24904,1.97316 l -3.87441,6.71922 c -0.36367,0.63069 -0.89602,1.04016 -1.59705,1.22841 -0.70103,0.18826 -1.36689,0.10055 -1.99758,-0.26312 l -13.97216,-8.05658 c -0.61439,-0.35427 -1.01571,-0.88192 -1.20398,-1.58296 -0.18824,-0.70102 -0.10053,-1.36688 0.26312,-1.99758 l 3.62258,-6.28248 c 0.35429,-0.61438 0.88201,-1.01583 1.58317,-1.20436 0.70118,-0.18847 1.35897,-0.10559 1.97336,0.24867 0.6307,0.36369 1.04023,0.89623 1.22858,1.59763 0.18836,0.70143 0.1054,1.35934 -0.24888,1.97373 l -2.30792,4.00252 1.69739,0.97874 1.8465,-3.20231 c 0.36368,-0.63067 0.89208,-1.04242 1.5852,-1.23524 0.69314,-0.19279 1.35505,-0.10736 1.98574,0.25629 0.63069,0.36368 1.04016,0.89603 1.22842,1.59704 0.18825,0.70104 0.10055,1.3669 -0.26312,1.99758 l -1.84651,3.20231 3.20157,1.84608 z" />
      </g>
      <g
         id="text3937-5-5-4-6-7"
         style="font-size:28px;font-style:normal;font-weight:normal;line-height:125%;letter-spacing:0px;word-spacing:0px;fill:#ffffff;fill-opacity:1;stroke:none;font-family:Sans"
         transform="matrix(0.68442777,-0.01434442,0.01325808,0.6844286,208.84388,306.30103)">
        <path
           inkscape:connector-curvature="0"
           id="path4134"
           style="font-variant:normal;font-weight:bold;font-stretch:normal;letter-spacing:0.18000011px;fill:#ffffff;font-family:Garoa Hacker Clube;-inkscape-font-specification:Garoa Hacker Clube Bold"
           d="m 78.644577,309.46878 c 0.572591,-0.44961 1.219219,-0.63108 1.939886,-0.54443 0.720675,0.0867 1.300198,0.40918 1.73857,0.9674 0.449634,0.57261 0.631109,1.21924 0.544425,1.93989 -0.08668,0.72069 -0.416314,1.30584 -0.988902,1.75545 l -1.91601,1.50459 c -0.205642,0.1615 -0.327916,0.37612 -0.366821,0.64387 -0.03889,0.26777 0.0282,0.51187 0.201297,0.73228 0.16114,0.20522 0.379372,0.32447 0.654694,0.35778 0.275331,0.0333 0.515818,-0.0307 0.721461,-0.19225 1.526896,-1.19901 3.263666,-1.68479 5.210314,-1.45736 1.946644,0.22746 3.525282,1.11203 4.735918,2.65369 1.199014,1.52691 1.681103,3.26658 1.44627,5.21902 -0.234849,1.95246 -1.115716,3.5282 -2.642604,4.72721 l -2.620989,2.05818 c -0.57214,0.44928 -1.218656,0.63067 -1.93955,0.54416 -0.720896,-0.0865 -1.30616,-0.41605 -1.755794,-0.98864 -0.449631,-0.57258 -0.628091,-1.2156 -0.535381,-1.92906 0.09271,-0.71345 0.425137,-1.29481 0.997273,-1.7441 l 2.62099,-2.05818 c 0.396506,-0.31136 0.625498,-0.72259 0.686977,-1.23371 0.06147,-0.5111 -0.06347,-0.96491 -0.374834,-1.36143 -0.322977,-0.41128 -0.737117,-0.64397 -1.242419,-0.69807 -0.505305,-0.0541 -0.956211,0.0746 -1.352719,0.38593 -1.350817,1.06076 -2.878073,1.48868 -4.581773,1.28375 -1.703691,-0.20491 -3.085827,-0.98267 -4.146412,-2.33328 -1.060568,-1.35058 -1.488396,-2.87772 -1.283486,-4.58143 0.204931,-1.70368 0.9828,-3.0859 2.333608,-4.14668 z" />
        <path
           inkscape:connector-curvature="0"
           id="path4136"
           style="font-variant:normal;font-weight:bold;font-stretch:normal;letter-spacing:0.18000011px;fill:#ffffff;font-family:Garoa Hacker Clube;-inkscape-font-specification:Garoa Hacker Clube Bold"
           d="m 108.62413,312.09893 c 0.7418,0.65832 1.0129,1.46722 0.8133,2.4267 -0.19211,0.934 -0.74939,1.58859 -1.67184,1.96379 l -4.88576,1.80288 c -0.66713,0.25802 -1.32991,0.23159 -1.98834,-0.0793 -0.65845,-0.31089 -1.11643,-0.80003 -1.373948,-1.46743 -0.241522,-0.67611 -0.213212,-1.34527 0.08493,-2.00747 0.298134,-0.66219 0.785258,-1.11404 1.461388,-1.35557 l 0.87881,-0.3196 -3.77002,-3.46171 1.570654,9.25395 c 0.117483,0.72235 -0.03052,1.37696 -0.44401,1.96385 -0.413496,0.5869 -0.977164,0.94748 -1.691006,1.08174 -0.722346,0.11749 -1.376963,-0.0305 -1.963855,-0.44401 -0.586891,-0.41349 -0.939081,-0.98141 -1.056569,-1.70376 l -2.879016,-16.80073 c -0.08604,-0.54805 -0.0066,-1.07494 0.238355,-1.58065 0.244953,-0.50567 0.613243,-0.89256 1.104872,-1.16067 0.47563,-0.25934 0.992327,-0.35504 1.550091,-0.2871 0.557768,0.068 1.043718,0.28656 1.457852,0.6557 z" />
        <path
           inkscape:connector-curvature="0"
           id="path4138"
           style="font-variant:normal;font-weight:bold;font-stretch:normal;letter-spacing:0.18000011px;fill:#ffffff;font-family:Garoa Hacker Clube;-inkscape-font-specification:Garoa Hacker Clube Bold"
           d="m 118.17377,299.15648 c 2.01888,0.831 3.38051,2.27988 4.08489,4.34665 0.63838,1.87322 0.51638,3.69969 -0.36601,5.47942 -0.88242,1.77974 -2.25995,2.98871 -4.13261,3.62691 l -3.87016,1.31897 c -0.67132,0.22878 -1.33268,0.18305 -1.98407,-0.13721 -0.6514,-0.32025 -1.09452,-0.82493 -1.32937,-1.51404 l -5.2028,-15.26633 c -0.22272,-0.6535 -0.18277,-1.3177 0.11985,-1.9926 0.34962,-0.65175 0.86009,-1.09203 1.5314,-1.32083 l 1.8821,-0.64143 c 1.81983,-0.62018 3.60038,-0.50224 5.34166,0.35383 1.74127,0.85611 2.92201,2.19406 3.54221,4.01387 0.20471,0.6007 0.33234,1.17829 0.38291,1.73279 z m -2.10288,8.49659 c 0.51224,-0.17457 0.8877,-0.5046 1.12639,-0.99008 0.23867,-0.48547 0.27367,-0.9757 0.10498,-1.4707 -0.14445,-0.42381 -0.39004,-0.75417 -0.73678,-0.99109 -0.34676,-0.2369 -0.74446,-0.34782 -1.1931,-0.33275 -0.95031,0.0476 -1.70532,-0.31615 -2.26501,-1.09136 -0.54868,-0.7994 -0.64598,-1.63409 -0.29188,-2.50406 0.15709,-0.34963 0.16341,-0.73635 0.019,-1.16019 -0.12037,-0.35316 -0.33039,-0.63652 -0.63005,-0.85007 -0.29967,-0.21352 -0.62934,-0.32791 -0.98901,-0.34317 l 3.47726,10.20316 z" />
        <path
           inkscape:connector-curvature="0"
           id="path4140"
           style="font-variant:normal;font-weight:bold;font-stretch:normal;letter-spacing:0.18000011px;fill:#ffffff;font-family:Garoa Hacker Clube;-inkscape-font-specification:Garoa Hacker Clube Bold"
           d="m 134.41043,287.81044 c 0.4317,-0.58401 1.00738,-0.93018 1.72703,-1.03853 0.71962,-0.10829 1.3669,0.0538 1.94185,0.48629 0.57491,0.43253 0.91656,1.00874 1.02494,1.72863 l 1.65036,10.96438 c 0.33618,2.23356 -0.16219,4.25298 -1.49511,6.05828 -1.33294,1.8053 -3.10689,2.87465 -5.32183,3.20804 -2.21497,0.3334 -4.22495,-0.16639 -6.02997,-1.49937 -1.80502,-1.33297 -2.87562,-3.11623 -3.21182,-5.34978 L 123.04552,291.404 c -0.10836,-0.7199 0.0484,-1.37113 0.47024,-1.95369 0.42186,-0.58253 0.99274,-0.92798 1.71266,-1.03636 0.71992,-0.10834 1.37185,0.053 1.95579,0.48418 0.58394,0.43117 0.9301,1.00671 1.03846,1.7266 l 1.65037,10.96438 c 0.11946,0.79372 0.49844,1.43042 1.13693,1.9101 0.63848,0.47969 1.35458,0.6598 2.1483,0.54032 0.7937,-0.11946 1.42506,-0.50239 1.89406,-1.14878 0.46898,-0.64637 0.64374,-1.36642 0.52428,-2.16014 l -1.65036,-10.96438 c -0.10838,-0.7199 0.053,-1.37183 0.48418,-1.95579 z" />
        <path
           inkscape:connector-curvature="0"
           id="path4142"
           style="font-variant:normal;font-weight:bold;font-stretch:normal;letter-spacing:0.18000011px;fill:#ffffff;font-family:Garoa Hacker Clube;-inkscape-font-specification:Garoa Hacker Clube Bold"
           d="m 163.94173,295.23564 c 0.72624,0.0507 1.32783,0.34528 1.80477,0.88367 0.47689,0.5384 0.69,1.17073 0.6393,1.89698 -0.21459,3.07268 -1.48719,5.62234 -3.8178,7.64899 -2.33066,2.02665 -5.03231,2.93269 -8.10497,2.71813 -3.07269,-0.21457 -5.6222,-1.4873 -7.64854,-3.81821 -2.02635,-2.33089 -2.93225,-5.03254 -2.7177,-8.10494 0.21455,-3.07238 1.48714,-5.6219 3.81778,-7.64856 2.33063,-2.02663 5.03228,-2.93268 8.10497,-2.71813 1.69459,0.11836 3.275,0.59833 4.74123,1.43992 1.46619,0.84162 2.68392,1.9604 3.65318,3.35632 0.42639,0.59114 0.57265,1.24221 0.43879,1.95322 -0.1339,0.71105 -0.49575,1.27053 -1.08556,1.67846 -0.58985,0.40795 -1.2406,0.54967 -1.95227,0.42515 -0.7117,-0.12449 -1.28074,-0.4823 -1.70714,-1.07343 -1.0695,-1.57139 -2.55383,-2.4234 -4.453,-2.55603 -1.63892,-0.11443 -3.07591,0.36526 -4.31098,1.43909 -1.23508,1.07385 -1.90982,2.43008 -2.02424,4.0687 -0.11444,1.63864 0.36527,3.07549 1.43912,4.31055 1.07383,1.23508 2.4302,1.90984 4.06912,2.02428 1.13598,0.0793 2.1999,-0.15046 3.19177,-0.68937 0.99183,-0.5389 1.77367,-1.28406 2.3455,-2.23547 l -5.27901,-0.36864 c -0.72627,-0.0507 -1.32752,-0.35009 -1.80376,-0.89816 -0.47625,-0.54804 -0.68901,-1.1852 -0.63829,-1.91147 0.0507,-0.72625 0.34962,-1.32282 0.89675,-1.78972 0.54711,-0.46687 1.18379,-0.67496 1.91006,-0.62426 z" />
        <path
           inkscape:connector-curvature="0"
           id="path4144"
           style="font-variant:normal;font-weight:bold;font-stretch:normal;letter-spacing:0.18000011px;fill:#ffffff;font-family:Garoa Hacker Clube;-inkscape-font-specification:Garoa Hacker Clube Bold"
           d="m 183.22422,307.53802 c 1.46274,-0.73497 2.45231,-1.88213 2.9687,-3.44148 0.51636,-1.55934 0.40715,-3.07021 -0.32763,-4.53261 -0.73482,-1.46239 -1.88202,-2.45182 -3.44162,-2.9683 -1.55963,-0.51645 -3.07063,-0.40728 -4.53302,0.3275 -1.46241,0.73481 -2.45179,1.88188 -2.96816,3.44122 -0.51638,1.55935 -0.40717,3.07022 0.32764,4.53261 0.73479,1.4624 1.88199,2.45183 3.44162,2.96829 1.5596,0.51647 3.07042,0.40739 4.53247,-0.32723 z m -7.68038,-15.28552 c 2.75993,-1.38675 5.60191,-1.59599 8.52593,-0.62773 2.92398,0.9683 5.07923,2.83237 6.46575,5.59221 1.38647,2.75987 1.59562,5.60166 0.62746,8.52539 -0.96822,2.92373 -2.83215,5.07903 -5.59181,6.46589 -2.75969,1.38685 -5.60153,1.59613 -8.52552,0.62786 -2.92402,-0.96829 -5.07927,-2.83236 -6.46576,-5.59221 -1.38649,-2.75985 -1.59565,-5.60165 -0.62745,-8.52539 0.96819,-2.92372 2.83198,-5.07906 5.5914,-6.46602 z" />
        <path
           inkscape:connector-curvature="0"
           id="path4146"
           style="font-variant:normal;font-weight:bold;font-stretch:normal;letter-spacing:0.18000011px;fill:#ffffff;font-family:Garoa Hacker Clube;-inkscape-font-specification:Garoa Hacker Clube Bold"
           d="m 206.93644,302.60812 c 0.63018,0.36452 1.03894,0.89742 1.22627,1.59869 0.18729,0.70129 0.10325,1.35914 -0.25211,1.97355 -0.36453,0.63021 -0.89743,1.03897 -1.59869,1.22627 -0.7013,0.18732 -1.36704,0.0987 -1.99723,-0.2658 l -2.10881,-1.21975 c -0.22635,-0.13091 -0.47104,-0.16467 -0.73407,-0.10131 -0.26305,0.0634 -0.46474,0.21639 -0.60506,0.45899 -0.13064,0.22586 -0.16027,0.47278 -0.0889,0.74076 0.0714,0.26801 0.22021,0.46746 0.44657,0.59837 1.68052,0.97204 2.77687,2.40395 3.28906,4.29573 0.51216,1.89179 0.27752,3.68608 -0.70391,5.38289 -0.97205,1.68054 -2.40802,2.77454 -4.30793,3.28201 -1.89993,0.50746 -3.69016,0.27518 -5.37069,-0.69685 l -2.88472,-1.66855 c -0.62971,-0.36423 -1.03835,-0.89705 -1.2259,-1.59848 -0.18756,-0.70142 -0.0991,-1.36723 0.26543,-1.99743 0.36451,-0.6302 0.89518,-1.03482 1.592,-1.21386 0.69682,-0.17903 1.36008,-0.0864 1.9898,0.2778 l 2.88472,1.66854 c 0.4364,0.25243 0.90328,0.31221 1.40065,0.17937 0.49735,-0.13284 0.87223,-0.41747 1.12467,-0.85388 0.26182,-0.45268 0.32396,-0.92363 0.18642,-1.41285 -0.13756,-0.48922 -0.42454,-0.86004 -0.86093,-1.11246 -1.48676,-0.85994 -2.45153,-2.11884 -2.89434,-3.7767 -0.44282,-1.65785 -0.23433,-3.23003 0.62548,-4.71654 0.85979,-1.48648 2.11862,-2.45113 3.77649,-2.89396 1.65784,-0.4428 3.23014,-0.23423 4.7169,0.62569 z" />
        <path
           inkscape:connector-curvature="0"
           id="path4148"
           style="font-variant:normal;font-weight:bold;font-stretch:normal;letter-spacing:0.18000011px;fill:#ffffff;font-family:Garoa Hacker Clube;-inkscape-font-specification:Garoa Hacker Clube Bold"
           d="m 215.63337,331.41921 c -0.33539,0.93336 -0.98554,1.48574 -1.95046,1.65713 -0.93848,0.16886 -1.75333,-0.10514 -2.44455,-0.82201 l -3.48993,-3.86541 c -0.48753,-0.5234 -0.70938,-1.14851 -0.66554,-1.87533 0.0438,-0.72683 0.32767,-1.33382 0.85151,-1.82099 0.53788,-0.47555 1.16961,-0.69803 1.89518,-0.66742 0.72556,0.0306 1.32612,0.31485 1.80169,0.85273 l 0.62338,0.69702 1.81215,-4.78671 -8.00689,4.89819 c -0.6269,0.37759 -1.28963,0.48355 -1.98817,0.31786 -0.69855,-0.16569 -1.24283,-0.55492 -1.63284,-1.16769 -0.37759,-0.6269 -0.48354,-1.28963 -0.31786,-1.98818 0.16569,-0.69854 0.56198,-1.23661 1.18889,-1.61421 l 14.52645,-8.91826 c 0.4768,-0.28361 0.99546,-0.40572 1.55599,-0.36632 0.56049,0.0394 1.05656,0.23749 1.48822,0.59422 0.41756,0.34514 0.69848,0.78923 0.84276,1.33228 0.14423,0.54307 0.12197,1.07544 -0.0668,1.59713 z" />
      </g>
      <path
         inkscape:connector-curvature="0"
         id="path3915-7-1-0-7-4-14"
         d="m 342.07809,547.00308 c -5.37404,0.0929 -12.33575,3.41149 -12.25202,10.69929 0.10306,0.76519 0.24173,1.51282 0.67932,2.11075 l -5.82275,5.82274 c -0.005,0.1323 -0.15775,0.11159 -0.16983,0.24261 1.0709,2.19285 0.91459,2.62407 0.89767,4.31854 0.25734,0.75188 0.65225,2.39901 0.41245,3.56643 -0.13475,0.65602 0.34961,0.98617 0.36392,1.31012 l 9.82588,-9.94719 c 0.72079,0.45923 1.37791,0.74208 2.0137,0.77637 7.73586,-0.96477 10.65773,-8.1837 10.62651,-13.5864 l -6.06536,5.87126 -5.48308,-5.50734 5.65291,-5.67718 -0.14556,0 c -0.16978,-0.004 -0.3604,-0.003 -0.53376,0 z m -27.82787,1.64977 c -0.51347,0.009 -1.0249,0.1002 -1.35864,0.29114 -0.37885,0.21677 -1.6675,0.0329 -2.0137,1.31013 -0.97601,0.40414 -1.22211,0.81273 -1.1888,2.30483 -0.92588,0.34054 -1.49251,1.52842 -1.55274,4.05166 -1.28469,1.52641 -0.86628,2.3365 -0.87341,3.32381 -1.27572,1.11674 -1.67077,2.51291 -1.28585,4.14871 -0.9608,0.75993 -1.30562,2.22824 -1.14029,4.34279 -1.27715,1.60631 -1.20518,3.20389 -0.84915,4.77951 -1.52705,2.19469 -0.82082,3.37871 -0.53375,4.75524 -1.13257,1.07516 -0.69345,2.77702 0.097,4.63394 -0.34375,0.33671 -0.56961,0.76622 -0.65506,1.31011 -4.62563,-5.87006 -7.08598,-4.2632 -8.58855,-0.80062 3.90924,-2.28399 5.55725,6.33773 6.23519,8.34593 2.78195,7.10238 3.18748,15.36661 7.64235,17.20136 0.85976,0.32761 1.38189,1.34752 4.0274,1.64977 0.10084,0.0409 0.21936,0.0515 0.33966,0.0242 0.29451,0.0255 0.60008,0.0666 0.9462,0.0727 l -0.0485,3.2025 2.25631,0.0485 -0.0485,-3.49364 c 2.18899,-0.1921 4.9676,-0.19046 6.0411,-1.98945 4.90273,-4.56304 3.86029,-7.46733 6.40502,-15.79419 1.4968,-4.01258 -0.24809,-10.18694 8.20036,-14.07164 -3.8094,0.78764 -7.01553,1.11825 -10.11702,3.712 0.0651,-0.43269 0.048,-0.98683 -0.097,-1.77108 -0.0305,-0.40293 -0.10927,-0.91309 -0.26688,-1.52847 0.20752,-0.8641 0.16568,-1.58766 0,-2.25632 -0.0742,-0.84918 -0.39739,-1.60138 -0.70358,-2.32909 0.19042,-1.01074 0.14024,-1.65573 0,-2.20779 -0.0495,-0.69146 -0.25281,-1.18352 -0.41244,-1.72256 0.17306,-0.53478 0.17065,-1.09222 0.0242,-1.67404 -0.0325,-0.98903 -0.55759,-2.03811 -1.28585,-3.12973 0.0945,-0.56325 0.0849,-1.11553 -0.0728,-1.67404 -0.0366,-0.74109 -0.29363,-1.47784 -0.92193,-2.20779 0.16051,-0.44022 0.14743,-0.8757 0,-1.31012 0.0338,-0.82442 -0.50512,-1.66511 -1.26159,-2.47466 0.0143,-0.48744 -0.0536,-0.8618 -0.14557,-1.16456 -0.0651,-1.16787 -0.52956,-1.57816 -0.9462,-2.135 0.0731,-1.47582 -0.73278,-2.69135 -1.52847,-3.42087 -0.0352,-0.63323 -0.96609,-1.77878 -2.35336,-1.55273 -0.23026,-0.56973 -1.10938,-0.81529 -1.96518,-0.80062 z m -32.29196,0.0485 c -0.0172,-0.002 -0.0209,0.0131 -0.0242,0.0242 -0.053,0.17867 1.65781,2.08668 4.82801,5.74996 l 1.86813,1.96518 -0.97045,1.47994 c 1.22695,1.45016 2.3231,2.83585 4.3428,4.48837 l 1.0675,-0.53375 9.48622,9.65605 0.72785,0.87341 c -0.22253,-1.1961 -0.10078,-2.40149 0.58227,-3.61495 l -0.50949,-0.53375 -8.32167,-8.54003 0.38817,-0.99471 c -1.91851,-2.6364 -3.15583,-3.52413 -4.36705,-4.41559 l -1.26159,0.89768 -2.03797,-1.77109 c -3.69755,-3.13097 -5.54007,-4.69599 -5.79847,-4.73098 z m 47.33405,41.92377 c -0.1291,0.74019 -0.2683,1.4642 -0.50948,2.11074 -0.90446,2.95956 -1.36998,5.22304 -1.79535,7.13286 0.23888,0.26648 0.48786,0.53404 0.72785,0.80064 1.82827,2.02663 3.21991,3.68467 5.38603,5.28899 1.57508,0.49932 3.19835,0.66234 4.4641,0.21836 l 4.56116,4.39131 c 2.15741,1.91401 4.27526,2.3014 6.67189,2.03797 0.12676,-0.43878 0.18294,-0.71534 0.33966,-1.1403 -2.31756,-0.3273 -4.55391,-1.40403 -5.79848,-2.66876 l -4.53689,-4.27001 c 0.17018,-1.34298 0.73151,-2.08904 0.1213,-3.93035 -2.25811,-4.18179 -5.40859,-6.24883 -8.87968,-9.31639 -0.002,0.0135 0.002,0.0351 0,0.0485 -0.2488,-0.2197 -0.50587,-0.47061 -0.75211,-0.70358 z m -29.74452,0.0242 -5.7257,5.74996 c -0.94207,-0.62205 -1.89021,-0.44815 -2.52319,-0.60653 -7.73586,0.96475 -10.14822,8.08665 -10.11701,13.48936 l 5.96831,-5.94406 5.67718,5.67718 -5.6044,5.60439 c 5.43269,0.11943 12.60534,-2.69116 12.51891,-10.21406 -0.0997,-0.56091 0.12311,-1.44501 -0.21836,-2.08649 l 2.66875,-2.95989 c -0.60431,-2.21346 -1.21542,-4.51 -2.06221,-6.6719 -9e-5,-0.007 -9e-5,-0.0172 0,-0.0242 -0.15932,-0.47184 -0.35283,-1.20718 -0.58228,-2.01369 z"
         style="fill:#ffffff;fill-opacity:1;stroke:none" />
    </g>
  </g>
</svg>
