<?xml version="1.0" encoding="UTF-8" standalone="no"?>
<!-- Created with Inkscape (http://www.inkscape.org/) -->

<svg
   xmlns:dc="http://purl.org/dc/elements/1.1/"
   xmlns:cc="http://creativecommons.org/ns#"
   xmlns:rdf="http://www.w3.org/1999/02/22-rdf-syntax-ns#"
   xmlns:svg="http://www.w3.org/2000/svg"
   xmlns="http://www.w3.org/2000/svg"
   xmlns:sodipodi="http://sodipodi.sourceforge.net/DTD/sodipodi-0.dtd"
   xmlns:inkscape="http://www.inkscape.org/namespaces/inkscape"
   width="210mm"
   height="297mm"
   id="svg4176"
   version="1.1"
   inkscape:version="0.48.5 r10040"
   sodipodi:docname="sabugosa_adesivo_printi_7x7_redondo.svg">
  <defs
     id="defs3" />
  <sodipodi:namedview
     inkscape:document-units="mm"
     id="base"
     pagecolor="#ffffff"
     bordercolor="#666666"
     borderopacity="1.0"
     inkscape:pageopacity="0.0"
     inkscape:pageshadow="2"
     inkscape:zoom="0.7"
     inkscape:cx="-159.97584"
     inkscape:cy="557.06787"
     inkscape:current-layer="layer1"
     showgrid="false"
     inkscape:window-width="1920"
     inkscape:window-height="1017"
     inkscape:window-x="-9"
     inkscape:window-y="-9"
     inkscape:window-maximized="1" />
  <metadata
     id="metadata4">
    <rdf:RDF>
      <cc:Work
         rdf:about="">
        <dc:format>image/svg+xml</dc:format>
        <dc:type
           rdf:resource="http://purl.org/dc/dcmitype/StillImage" />
        <dc:title></dc:title>
      </cc:Work>
    </rdf:RDF>
  </metadata>
  <g
     inkscape:label="Layer 1"
     inkscape:groupmode="layer"
     id="layer1">
    <g
       id="g3754"
       transform="matrix(0.36784124,0,0,0.36784124,15.654864,19.432001)">
      <path
         transform="matrix(1.151226,0,0,1.151226,-110.50792,-49.533858)"
         d="m 707.14285,379.50504 c 0,161.74053 -131.11661,292.85714 -292.85714,292.85714 -161.74054,0 -292.85715,-131.11661 -292.85715,-292.85714 0,-161.74054 131.11661,-292.857152 292.85715,-292.857152 161.74053,0 292.85714,131.116612 292.85714,292.857152 z"
         sodipodi:ry="292.85715"
         sodipodi:rx="292.85715"
         sodipodi:cy="379.50504"
         sodipodi:cx="414.28571"
         id="path2984"
         style="fill:#107400;fill-opacity:1;stroke:none"
         sodipodi:type="arc" />
      <path
         inkscape:connector-curvature="0"
         id="path3915-7-1-0-7-74-5"
         d="m 352.09946,65.650152 -8.10175,27.932902 c -16.06455,1.2103 -31.7957,3.691032 -47.03856,7.376226 l -16.32442,-23.942493 -27.20738,8.948203 0.84645,28.77935 c -14.84476,6.11326 -29.05308,13.41345 -42.56442,21.7659 l -22.73327,-17.77548 -23.21696,16.92903 9.91558,27.08645 c -12.18271,10.35879 -23.50125,21.6728 -33.85806,33.85805 l -27.20738,-9.91556 -16.808109,23.21694 17.775489,22.8542 c -8.32943,13.48812 -15.664754,27.62837 -21.765904,42.4435 l -28.900275,-0.84646 -8.827281,27.20738 23.942488,16.32442 c -3.688091,15.24375 -6.160543,30.97448 -7.376221,47.03852 l -27.932902,8.10175 0,28.65844 27.932902,8.10175 c 1.2192,16.10544 3.661662,31.88458 7.376221,47.15944 l -23.942488,16.2035 8.827281,27.20737 28.900275,-0.84645 c 6.12247,14.82883 13.543034,28.94087 21.886824,42.4435 l -17.896409,22.8542 16.808109,23.21695 27.08645,-9.91557 c 10.37559,12.18743 21.77101,23.50055 33.97899,33.85806 l -9.91558,27.20737 23.21696,16.80811 22.85419,-17.77548 c 13.49204,8.33632 27.63027,15.65643 42.4435,21.7659 l -0.84645,28.90027 27.20738,8.82728 16.32442,-23.94249 c 15.26,3.6869 30.95672,6.28468 47.03856,7.49715 l 8.10175,27.81198 28.65844,0 8.10175,-27.81198 c 16.11438,-1.21529 31.87119,-3.67142 47.15944,-7.37622 l 16.2035,23.82156 27.20737,-8.82728 -0.84645,-28.90027 c 14.79636,-6.10103 28.97256,-13.44448 42.4435,-21.7659 l 22.8542,17.77548 23.21695,-16.80811 -9.67373,-26.72368 0.12073,-0.12073 1.6929,-1.93475 0,-0.12073 c 11.40228,-9.87359 22.00794,-20.66769 31.8024,-32.16516 l 27.20737,9.91558 16.80811,-23.21696 -17.77548,-22.73327 c 8.35021,-13.50643 15.64993,-27.72967 21.76589,-42.56442 l 28.90028,0.84645 8.82728,-27.20737 -23.94249,-16.2035 c 3.70817,-15.29491 6.28355,-31.03481 7.49714,-47.15945 l 27.81198,-8.10175 0,-28.65843 -27.9329,-8.10175 c -1.21672,-16.06405 -3.68503,-31.79477 -7.37622,-47.03852 l 23.94249,-16.32443 -8.82728,-27.20737 -28.90028,0.84645 c -6.10451,-14.81211 -13.43283,-28.95785 -21.76589,-42.4435 l 17.77548,-22.85419 -16.80811,-23.21695 -27.3283,9.91557 c -10.33982,-12.15844 -21.57907,-23.39711 -33.73714,-33.73713 l 9.91558,-27.20737 -23.21696,-16.92903 -22.85419,17.77548 c -13.48565,-8.33307 -27.63139,-15.66139 -42.4435,-21.7659 L 479.42977,85.965377 452.2224,77.017174 435.89798,100.95966 C 420.65422,97.268475 404.9235,94.800164 388.85945,93.583441 l -8.10175,-27.932902 -28.65843,0 z m 25.15171,34.220827 c 0.91219,-0.0391 1.8389,-0.0464 2.7812,0 4.15734,0.203151 8.21814,1.278331 11.85032,3.264891 3.6321,1.98675 6.50725,4.73153 8.9482,8.10175 1.0727,1.42645 1.50345,2.96712 1.20922,4.71594 -0.29409,1.74893 -0.99272,3.20255 -2.41844,4.23226 -1.42575,1.02975 -3.20831,1.4778 -4.95778,1.20922 -1.7496,-0.26855 -3.03856,-1.23391 -4.11134,-2.66028 -2.69483,-3.79497 -6.46554,-5.69775 -11.12479,-5.92516 -4.02079,-0.19619 -7.54524,0.93332 -10.52019,3.62765 -2.97498,2.69436 -4.51337,6.01598 -4.71594,10.03649 -0.20276,4.02056 1.05904,7.54942 3.74857,10.52019 2.68953,2.97076 6.01571,4.51972 10.0365,4.71594 2.78692,0.13621 5.45536,-0.44251 7.8599,-1.81382 2.40439,-1.37123 4.20657,-3.20208 5.5624,-5.5624 l -12.93862,-0.60461 c -1.78178,-0.0871 -3.1604,-0.85825 -4.35318,-2.17659 -1.19284,-1.31829 -1.78271,-2.81308 -1.6929,-4.59502 0.0894,-1.78194 0.73737,-3.30207 2.05567,-4.4741 1.31826,-1.17191 2.9342,-1.65893 4.71594,-1.57198 l 20.79853,1.08829 c 1.78167,0.0871 3.28005,0.64017 4.4741,1.93475 1.19397,1.29462 1.78264,2.934 1.6929,4.71594 -0.37998,7.53909 -3.4553,13.7788 -9.06912,18.86378 -5.61394,5.08494 -12.17199,7.50229 -19.71023,7.13438 -7.53828,-0.36799 -13.90951,-3.3415 -18.9847,-8.9482 -5.07519,-5.60663 -7.39336,-12.29276 -7.01346,-19.83115 0.3796,-7.5384 3.33431,-13.77876 8.94821,-18.86378 4.91212,-4.4493 10.54351,-6.85984 16.92903,-7.134381 z m -45.82931,2.660281 c 0.4395,-0.0751 0.91119,-0.008 1.33014,0 1.25677,0.0232 2.31388,0.43675 3.38581,1.20921 1.42904,1.03018 2.36054,2.3532 2.66027,4.11134 l 4.59502,26.72369 c 0.92965,5.45497 -0.20585,10.50284 -3.3858,14.99428 -3.18007,4.49144 -7.52783,7.17125 -12.93862,8.10175 -5.41087,0.93061 -10.26689,-0.21243 -14.75244,-3.38581 -4.48556,-3.1731 -7.29299,-7.48367 -8.22267,-12.93861 l -4.47414,-26.84461 c -0.29989,-1.75818 0.0828,-3.26701 1.08829,-4.71594 1.00588,-1.4489 2.35269,-2.35776 4.11138,-2.66028 1.75868,-0.30221 3.38573,0.0615 4.83686,1.08829 1.4511,1.02639 2.2397,2.47412 2.53936,4.23226 l 4.71594,26.72369 c 0.33046,1.9385 1.19409,3.57347 2.7812,4.71594 1.58703,1.14243 3.38163,1.54269 5.32055,1.20922 1.93889,-0.33355 3.35574,-1.41531 4.4741,-3.02304 1.11837,-1.6077 1.66052,-3.38206 1.33014,-5.32056 l -4.59502,-26.72368 c -0.29989,-1.75818 -0.0608,-3.26307 0.96737,-4.71594 1.02995,-1.45304 2.47423,-2.4788 4.23226,-2.7812 z m 109.67594,8.22267 c 2.63141,0.0232 5.27714,0.49684 7.98083,1.33014 7.20972,2.22221 12.67557,6.61091 16.2035,13.30138 3.52789,6.69047 4.04703,13.70656 1.81383,20.91945 -2.2334,7.21285 -6.60604,12.54307 -13.30139,16.08258 -6.69546,3.5395 -13.58877,4.15684 -20.79852,1.93474 -7.20979,-2.22221 -12.67561,-6.73183 -16.2035,-13.4223 -3.52793,-6.69043 -4.16807,-13.58564 -1.93475,-20.79853 2.23332,-7.21285 6.7275,-12.5428 13.4223,-16.08258 4.18502,-2.21203 8.43198,-3.30338 12.8177,-3.26488 z m -171.2251,7.61806 c 2.73956,-0.15942 5.53094,0.43795 8.22267,1.69291 4.30675,2.00807 7.22141,5.24703 8.82728,9.67373 0.53005,1.46124 0.93812,2.75543 1.0883,4.11134 4.98572,1.93227 8.33353,5.37178 10.15742,10.39926 1.65285,4.55663 1.47277,9.13757 -0.60461,13.54322 -2.07749,4.40565 -5.35789,7.28842 -9.91558,8.9482 l -9.43189,3.50673 c -1.63385,0.59498 -3.2258,0.50896 -4.83686,-0.24184 -1.61114,-0.75115 -2.77772,-1.95139 -3.38581,-3.62765 l -13.4223,-37.12295 c -0.57667,-1.58966 -0.46709,-3.28872 0.24184,-4.95779 0.82564,-1.6147 1.9938,-2.54895 3.62765,-3.14396 l 4.59502,-1.6929 c 1.66095,-0.60484 3.19315,-0.99264 4.83687,-1.0883 z m 171.2251,5.19963 c -2.33377,-0.0271 -4.67501,0.52084 -6.89253,1.69291 -3.54802,1.87539 -5.94327,4.73854 -7.13438,8.58544 -1.19115,3.84693 -0.90229,7.57967 0.96737,11.12479 1.86966,3.54523 4.73982,5.94915 8.58544,7.13437 3.8455,1.18527 7.57763,0.7866 11.12479,-1.08829 3.54883,-1.87581 5.94319,-4.73854 7.13438,-8.58544 1.19107,-3.84693 0.90225,-7.57964 -0.96737,-11.12479 -1.8697,-3.54511 -4.7399,-5.82815 -8.58544,-7.01346 -1.44212,-0.44445 -2.83205,-0.71148 -4.23226,-0.72553 z m -170.25773,7.61807 9.06913,24.78894 3.3858,-1.20922 c 1.24672,-0.45401 2.09855,-1.21676 2.66028,-2.41843 0.56173,-1.20167 0.67855,-2.54446 0.24184,-3.74857 -0.37418,-1.03087 -1.07394,-1.73489 -1.93474,-2.29751 -0.86081,-0.56263 -1.80369,-0.78547 -2.90212,-0.72553 -2.32599,0.16561 -4.15437,-0.66888 -5.5624,-2.53936 -1.38222,-1.93037 -1.6727,-4.01738 -0.84645,-6.167 0.36838,-0.86464 0.37263,-1.8711 0,-2.90212 -0.31188,-0.85907 -0.82768,-1.54784 -1.57198,-2.05567 -0.74434,-0.50772 -1.65746,-0.70661 -2.53936,-0.72553 z m 222.49588,1.6929 c 2.44169,0.0194 4.83227,0.66567 7.13438,1.93475 l 5.19963,3.02304 c 1.56119,0.86069 2.53081,2.04007 3.02304,3.74857 0.49213,1.7085 0.35793,3.31333 -0.48368,4.83687 -0.86321,1.56273 -2.1603,2.64909 -3.8695,3.14396 -1.70931,0.49495 -3.39652,0.25616 -4.95778,-0.60461 l -5.19963,-2.7812 c -0.56077,-0.30917 -1.17238,-0.41101 -1.81383,-0.24184 -0.64148,0.16871 -1.11879,0.48674 -1.45106,1.0883 -0.30956,0.5601 -0.42994,1.16092 -0.24184,1.81382 0.18806,0.65294 0.64845,1.14193 1.20921,1.45106 4.16346,2.29519 6.87795,5.7907 8.22268,10.39926 1.34457,4.60861 0.99384,8.97289 -1.33014,13.18046 -2.30173,4.16729 -5.88952,7.0027 -10.52019,8.3436 -4.63077,1.34081 -9.017,0.7232 -13.18046,-1.57198 l -7.13437,-3.8695 c -1.56007,-0.86007 -2.53023,-2.16065 -3.02304,-3.86949 -0.49278,-1.70888 -0.37921,-3.27413 0.48368,-4.83687 0.86317,-1.56269 2.17079,-2.66952 3.8695,-3.14396 1.6987,-0.4744 3.27676,-0.25539 4.83686,0.60461 l 7.2553,3.99041 c 1.08118,0.59606 2.17357,0.71408 3.38581,0.36257 1.21219,-0.35096 2.06251,-1.0944 2.66027,-2.17659 0.61997,-1.12246 0.84382,-2.31519 0.48369,-3.50672 -0.36025,-1.19154 -1.09549,-1.94334 -2.17659,-2.53936 -3.68337,-2.03051 -6.09174,-5.15103 -7.2553,-9.19004 -1.16359,-4.03898 -0.82675,-7.9224 1.20922,-11.60848 2.03593,-3.68608 5.14925,-6.08528 9.19004,-7.2553 1.51526,-0.43876 3.00908,-0.73683 4.4741,-0.72553 z m -264.09293,4.11134 c 0.32891,-0.0155 0.74585,-0.0348 1.0883,0 1.36976,0.13814 2.59546,0.56792 3.62765,1.45106 l 31.19779,27.57014 c 1.84861,1.5748 2.62007,3.56422 2.17659,5.92516 -0.42634,2.2982 -1.7482,3.99115 -3.99042,4.95778 l -11.85032,4.59503 c -1.62225,0.66636 -3.3299,0.60619 -4.95779,-0.12073 -1.62794,-0.72785 -2.7232,-1.88483 -3.38581,-3.50673 -0.62376,-1.64407 -0.57678,-3.19914 0.12073,-4.83687 0.69902,-1.63768 1.86165,-2.88029 3.50673,-3.50672 l 2.17659,-0.72553 -9.43189,-8.3436 4.23226,22.61235 c 0.32194,1.76372 0.0193,3.3778 -0.96738,4.83687 -0.98521,1.45918 -2.36878,2.29465 -4.11133,2.66027 -1.76418,0.32504 -3.25839,0.0155 -4.71595,-0.96737 -1.45748,-0.98293 -2.45906,-2.22674 -2.7812,-3.99041 l -7.8599,-41.11337 c -0.23682,-1.3383 -0.0921,-2.6179 0.48368,-3.86949 0.57613,-1.25147 1.58948,-2.22004 2.7812,-2.90212 0.86472,-0.49487 1.67363,-0.67929 2.66028,-0.72553 z m 131.80465,22.3705 c 1.96067,-0.0499 3.95249,0 5.92516,0 126.25083,0 228.66284,102.41204 228.66284,228.66284 0,126.25083 -102.41201,228.54192 -228.66284,228.54192 -126.25084,0 -228.54197,-102.29109 -228.54197,-228.54192 0,-124.27809 99.09315,-225.53137 222.61681,-228.66284 z m -165.90455,0.36258 c 0.41821,-0.0387 0.76677,-0.0441 1.20921,0 1.76975,0.17567 3.2527,0.95236 4.35318,2.29751 1.12877,1.37978 1.62921,2.94588 1.45106,4.71594 -0.178,1.77014 -0.91602,3.22224 -2.29751,4.35318 l -4.71594,3.74857 c -0.49615,0.40622 -0.76384,0.91402 -0.84646,1.57198 -0.0824,0.65805 0.16987,1.2827 0.60461,1.81383 0.40452,0.49448 0.89583,0.77897 1.57198,0.84645 0.67608,0.0673 1.19676,-0.0774 1.69291,-0.48369 3.68399,-3.016 8.03759,-4.32671 12.81769,-3.86949 4.78006,0.45737 8.56926,2.4521 11.60848,6.167 3.01008,3.67935 4.35221,8.02216 3.86949,12.8177 -0.48268,4.79561 -2.60397,8.59247 -6.28792,11.60847 l -6.40885,5.32055 c -1.3804,1.13012 -2.94565,1.62596 -4.71594,1.45106 -1.7703,-0.1749 -3.10353,-1.03865 -4.23226,-2.41843 -1.12877,-1.37975 -1.64434,-2.96318 -1.45106,-4.71595 0.19347,-1.75268 0.91711,-3.22301 2.29751,-4.35318 l 6.40885,-5.0787 c 0.95665,-0.78322 1.44564,-1.76762 1.57198,-3.02304 0.12653,-1.25538 -0.18574,-2.43031 -0.96737,-3.3858 -0.81082,-0.99106 -1.78245,-1.46538 -3.02305,-1.57198 -1.24056,-0.1068 -2.42911,0.0631 -3.3858,0.84645 -3.25912,2.66824 -6.94098,3.9213 -11.12479,3.50673 -4.18378,-0.41454 -7.61579,-2.18693 -10.27835,-5.44148 -2.66248,-3.2544 -3.80696,-7.06105 -3.3858,-11.24571 0.42127,-4.18451 2.30328,-7.61006 5.56239,-10.27834 l 4.59503,-3.74857 c 1.03609,-0.8482 2.25224,-1.33765 3.50673,-1.45106 z m 340.51541,0.24184 c 0.33007,-0.031 0.62361,-0.0155 0.96738,0 1.3751,0.0673 2.55316,0.59923 3.62765,1.45106 1.03938,0.82416 1.7973,1.82087 2.17659,3.14396 0.37921,1.32314 0.31575,2.58169 -0.12073,3.86949 l -13.90599,39.54137 c -0.77738,2.30398 -2.48097,3.64185 -4.83687,4.11134 -2.29128,0.4619 -4.19762,-0.21398 -5.92516,-1.93475 l -8.82728,-9.31096 c -1.21932,-1.25728 -1.76581,-2.81204 -1.6929,-4.59503 0.0727,-1.78297 0.67445,-3.13273 1.93474,-4.35316 1.29524,-1.19274 2.93683,-1.85156 4.71595,-1.81383 1.77907,0.0387 3.28342,0.64137 4.4741,1.93475 l 1.57198,1.81382 4.11134,-11.85032 -19.34747,12.45493 c -1.518,0.95727 -3.11753,1.21649 -4.83686,0.84645 -1.7193,-0.36992 -3.00583,-1.29992 -3.99042,-2.7812 -0.95484,-1.51653 -1.34012,-3.23783 -0.96737,-4.95778 0.37263,-1.71996 1.38412,-3.03311 2.90212,-3.99042 l 35.06728,-22.61235 c 0.86603,-0.53948 1.91207,-0.8706 2.90212,-0.96737 z m -42.20165,67.83703 c -25.36058,0.4383 -58.19563,16.15347 -57.80055,50.54526 0.48635,3.61101 1.19985,7.09394 3.26488,9.91557 L 411.472,315.71593 c -0.0232,0.62434 -0.78942,0.59083 -0.84646,1.20921 5.05372,10.34819 4.31209,12.31849 4.23226,20.31484 1.21444,3.54817 3.06642,11.29896 1.93475,16.80811 -0.63588,3.09583 1.62534,4.63821 1.6929,6.167 l 46.43392,-46.9176 c 3.40143,2.16715 6.43152,3.58675 9.43188,3.74857 36.50623,-4.55284 50.3298,-38.71354 50.18249,-64.20939 l -28.65843,27.69106 -25.87723,-25.87724 26.72368,-26.84461 -0.72553,0 c -0.80118,-0.0193 -1.7213,-0.0155 -2.53935,0 z m -131.32092,7.73899 c -2.42311,0.0414 -4.83392,0.54997 -6.40885,1.45106 -1.78786,1.0229 -7.79815,0.14008 -9.43189,6.167 -4.60589,1.90724 -5.84045,3.84156 -5.68331,10.88295 -4.36928,1.607 -6.97113,7.19823 -7.2553,19.10562 -6.06253,7.2033 -4.07771,11.06056 -4.11134,15.71982 -6.02023,5.26994 -7.8625,11.86982 -6.04608,19.58931 -4.53404,3.58617 -6.22172,10.45695 -5.44148,20.43576 -6.027,7.58029 -5.67051,15.17684 -3.99041,22.61235 -7.20623,10.35696 -3.89403,15.87455 -2.53936,22.3705 -5.34469,5.0738 -3.24669,13.12381 0.48369,21.88682 -1.62221,1.58897 -2.74072,3.60033 -3.14396,6.167 -21.82882,-27.70135 -33.41806,-20.08882 -40.50879,-3.74857 18.44804,-10.77835 26.30562,29.94357 29.50488,39.42046 13.12834,33.51674 15.01177,72.48013 36.03469,81.13843 4.05728,1.54602 6.50028,6.31258 18.9847,7.73899 0.47583,0.1927 1.00425,0.24919 1.57198,0.12073 1.38985,0.11995 2.84075,0.33316 4.4741,0.36257 l -0.24184,15.1152 10.6411,0.24185 -0.24184,-16.44535 c 10.33,-0.9065 23.47161,-0.9423 28.53751,-9.43189 23.13644,-21.53338 18.2216,-35.19253 30.23042,-74.48773 7.06356,-18.93572 -1.17409,-48.17469 38.69492,-66.50691 -17.97689,3.71695 -33.12785,5.29346 -47.76405,17.53364 0.30724,-2.04194 0.32194,-4.64266 -0.36257,-8.3436 -0.14395,-1.90151 -0.58642,-4.35128 -1.33014,-7.2553 0.97929,-4.07775 0.78187,-7.48569 0,-10.6411 -0.35019,-4.0074 -1.81998,-7.44882 -3.26488,-10.88295 0.89861,-4.76973 0.6618,-7.91497 0,-10.52019 -0.23372,-3.26302 -1.1814,-5.55798 -1.93475,-8.10175 0.8167,-2.52372 0.69078,-5.11419 0,-7.8599 -0.15323,-4.66727 -2.60935,-9.60103 -6.04608,-14.75245 0.44607,-2.65799 0.38114,-5.34516 -0.36257,-7.98082 -0.1722,-3.49725 -1.38818,-6.95457 -4.35318,-10.39927 0.75741,-2.07741 0.69569,-4.11694 0,-6.167 0.15942,-3.89051 -2.35529,-7.90905 -5.92516,-11.7294 0.0673,-2.30022 -0.17026,-4.01274 -0.60461,-5.44148 -0.30724,-5.51128 -2.5079,-7.40868 -4.4741,-10.03649 0.34516,-6.96447 -3.50035,-12.76086 -7.2553,-16.2035 -0.166,-2.98834 -4.57812,-8.32208 -11.1248,-7.2553 -1.08659,-2.68826 -5.27237,-3.93868 -9.31096,-3.8695 z m -152.36132,0.24184 c -0.0809,-0.008 -0.10525,0.0681 -0.12073,0.12073 -0.24997,0.84309 7.89372,9.91995 22.85419,27.20737 l 8.82728,9.19005 -4.59502,7.01346 c 5.79011,6.84343 10.90462,13.3629 20.43576,21.16128 l 5.07871,-2.53935 44.74105,45.58746 3.38581,4.11134 c -1.05011,-5.64455 -0.44217,-11.32353 2.78119,-17.04995 l -2.41843,-2.53936 -39.17865,-40.26691 1.81382,-4.71594 c -9.05364,-12.44135 -14.96174,-16.59173 -20.6776,-20.79853 l -5.92517,4.23226 -9.55281,-8.34359 c -17.44905,-14.77535 -26.22978,-22.20544 -27.44921,-22.37051 z m 223.34233,197.82783 c -0.60921,3.49299 -1.15934,6.98532 -2.29751,10.0365 -4.26824,13.96643 -6.45718,24.60355 -8.46452,33.61621 1.1273,1.25751 2.25333,2.49045 3.38581,3.74858 8.62785,9.56387 15.17143,17.45984 25.39355,25.03078 7.43298,2.35633 15.06722,3.06262 21.04037,0.96737 l 21.52405,20.79853 c 10.18106,9.03244 20.25064,10.796 31.56055,9.55281 0.59819,-2.07061 0.83241,-3.31515 1.57198,-5.32056 -10.93677,-1.54462 -21.45506,-6.60747 -27.32829,-12.57585 L 478.09983,499.275 c 0.80311,-6.33769 3.36328,-9.81172 0.48368,-18.50102 -10.65623,-19.73429 -25.45847,-29.5394 -41.83889,-44.01548 -0.0116,0.0631 0.0116,0.17838 0,0.24184 -1.17408,-1.03679 -2.4656,-2.2864 -3.62765,-3.3858 z m -140.26916,0.12073 -27.08645,27.20737 c -4.44573,-2.93548 -8.8633,-2.15469 -11.85032,-2.90212 -36.50615,4.55277 -47.9114,38.10893 -47.76405,63.60479 l 28.17474,-28.05383 26.72369,26.84461 -26.36092,26.48184 c 25.63736,0.5636 59.41769,-12.74645 59.00977,-48.24774 -0.47057,-2.64696 0.644,-6.76747 -0.96738,-9.79465 l 12.57589,-14.02691 c -2.85185,-10.4455 -5.79862,-21.2374 -9.79469,-31.43963 -4.6e-4,-0.0348 -4.6e-4,-0.0874 0,-0.12073 -0.7518,-2.2267 -1.57751,-5.74682 -2.66028,-9.55281 z m -121.40534,89.24018 c 0.44298,-0.0403 0.85996,-0.0441 1.33014,0 1.88077,0.17645 3.38925,1.05699 4.59502,2.53935 1.20574,1.48244 1.76658,3.18227 1.57198,5.07871 -0.19463,1.89652 -1.09471,3.41997 -2.53935,4.59502 l -9.31097,7.61807 5.68332,6.89253 9.31097,-7.61806 c 1.44463,-1.17509 3.18227,-1.64674 5.07871,-1.45106 1.89632,0.19579 3.41985,1.09468 4.59502,2.53935 1.20616,1.48299 1.64608,3.18281 1.45106,5.07871 -0.19502,1.89594 -0.9738,3.41998 -2.41843,4.59502 l -32.89069,26.72369 c -1.48303,1.20624 -3.18282,1.64616 -5.07871,1.45106 -1.89594,-0.19502 -3.38883,-1.05641 -4.59503,-2.53936 -1.17512,-1.44471 -1.64569,-3.06131 -1.45106,-4.95778 0.19464,-1.89652 1.05634,-3.50975 2.53936,-4.71595 l 12.81769,-10.39926 -5.68331,-6.89253 -12.8177,10.39926 c -1.48298,1.20624 -3.18235,1.64674 -5.07871,1.45106 -1.8964,-0.1958 -3.51017,-0.93607 -4.71594,-2.41843 -1.20574,-1.48241 -1.66125,-3.20139 -1.45106,-5.07871 0.21011,-1.87737 1.05637,-3.38883 2.53935,-4.59503 l 32.89069,-26.72368 c 1.0835,-0.88128 2.29883,-1.45095 3.62765,-1.57198 z m 387.79579,0.72553 c 1.89523,-0.20199 3.62985,0.28092 5.0787,1.45106 1.48728,1.20101 2.33695,2.69939 2.53936,4.59502 0.20237,1.89574 -0.28093,3.62993 -1.45106,5.07871 l -6.04608,7.37622 c -0.46233,0.57261 -0.57625,1.23042 -0.48369,1.93475 0.0925,0.70444 0.31227,1.2616 0.84645,1.6929 l 2.05567,1.6929 6.04608,-7.61806 c 1.20094,-1.4872 2.82017,-2.33791 4.71595,-2.53936 1.89582,-0.20121 3.50893,0.28093 4.95778,1.45106 1.48724,1.20098 2.33753,2.82079 2.53936,4.71595 0.20199,1.89524 -0.24997,3.59151 -1.45106,5.07871 l -6.167,7.49714 5.56239,4.4741 c 0.53299,0.4304 1.22667,0.66246 1.93475,0.60461 0.70808,-0.0577 1.23054,-0.39477 1.6929,-0.96737 l 6.77161,-8.3436 c 1.16994,-1.44881 2.69925,-2.33795 4.59503,-2.53935 1.89578,-0.20122 3.62985,0.28092 5.07871,1.45106 1.48724,1.20101 2.21656,2.82078 2.41843,4.71594 0.20199,1.89524 -0.28093,3.50897 -1.45106,4.95779 l -6.65069,8.34359 c -2.83328,3.50867 -6.52354,5.56894 -11.00387,6.04609 -4.48037,0.47718 -8.46374,-0.67442 -11.97125,-3.50673 L 551.1365,556.59167 c -3.50862,-2.83321 -5.44793,-6.52347 -5.92516,-11.00387 -0.47711,-4.4803 0.67353,-8.46255 3.50673,-11.97125 l 5.92516,-7.49714 c 1.16998,-1.44878 2.69986,-2.21656 4.59503,-2.41843 z m -26.24,34.94635 c 4.88217,0.21902 8.96433,2.07916 12.21308,5.68332 1.34496,1.49219 2.46193,3.1625 3.26489,5.07871 5.32984,0.27667 9.79024,2.39262 13.30138,6.28793 3.51114,3.89534 5.10974,8.52391 4.83687,13.78507 -0.2728,5.26123 -2.39263,9.66936 -6.28793,13.18046 l -7.49714,6.77161 c -1.41991,1.27987 -3.17535,1.79165 -5.07871,1.6929 -1.90337,-0.0987 -3.43607,-0.75668 -4.71595,-2.17659 l -28.29566,-31.56055 c -1.24679,-1.38319 -1.91254,-2.93346 -1.81383,-4.83687 0.0987,-1.90332 0.87764,-3.55695 2.29751,-4.83686 l 4.95779,-4.4741 c 3.67757,-3.31477 7.93548,-4.81381 12.8177,-4.59503 z m -323.94915,3.26489 c 1.46866,0.14007 2.75968,0.72835 3.86949,1.6929 1.07359,0.93317 1.71237,2.07184 2.05567,3.50673 0.34322,1.43492 0.2875,2.87519 -0.24185,4.23226 l -16.80811,41.47612 c -0.94117,2.42815 -2.65563,3.84527 -5.19963,4.23226 -2.47442,0.38192 -4.64118,-0.49169 -6.40885,-2.41843 l -8.9482,-10.27834 c -1.24563,-1.40567 -1.73446,-3.0528 -1.57198,-4.95779 0.16252,-1.90499 0.89072,-3.47132 2.29751,-4.71594 1.4429,-1.21324 3.17612,-1.82056 5.07871,-1.69291 1.90255,0.1277 3.38178,0.97554 4.59502,2.41844 l 1.69291,1.81382 5.07871,-12.45493 -21.40314,12.33401 c -1.67018,0.95027 -3.37679,1.20597 -5.19963,0.72553 -1.82284,-0.48044 -3.24847,-1.51007 -4.23225,-3.14396 -0.95031,-1.67019 -1.20597,-3.49772 -0.72553,-5.32056 0.48043,-1.82284 1.59469,-3.16106 3.26488,-4.11133 l 38.69493,-22.49143 c 1.27001,-0.71338 2.64255,-0.98641 4.11134,-0.84645 z m 323.34454,10.52018 c -1.09093,-0.0395 -1.98362,0.19193 -2.7812,0.84645 l 19.10562,21.28221 2.41843,-2.17658 c 1.09213,-0.9844 1.61695,-2.17369 1.69291,-3.62765 0.0758,-1.45385 -0.34594,-2.77733 -1.33014,-3.8695 -0.72209,-0.80102 -1.56177,-1.34178 -2.66028,-1.57198 -1.09851,-0.23023 -2.20143,-0.0685 -3.26488,0.36257 -2.41437,1.05463 -4.75193,0.84286 -6.89254,-0.72553 -2.13588,-1.63904 -2.96809,-3.82364 -2.66027,-6.40885 0.1629,-1.13743 -0.18032,-2.14973 -0.96738,-3.02304 -0.65696,-0.72882 -1.56931,-1.04863 -2.66027,-1.08829 z m -26.84461,4.71595 c 0.44453,0.0116 0.98951,0.0232 1.45106,0.12072 1.84621,0.39783 3.21044,1.40753 4.23226,3.02305 l 16.68719,26.48184 c 2.8296,4.47383 3.7115,9.30392 2.53935,14.5106 -1.17218,5.20675 -3.99072,9.14163 -8.46451,11.97124 -4.51555,2.856 -9.32479,3.72474 -14.5106,2.53935 -5.18586,-1.18534 -9.26256,-3.99072 -12.09217,-8.46451 l -16.68719,-26.36092 c -1.02181,-1.61555 -1.27821,-3.36104 -0.84645,-5.19963 0.43184,-1.83848 1.44921,-3.23679 3.02304,-4.23226 1.61559,-1.02178 3.23254,-1.36508 5.07871,-0.96737 1.84622,0.39778 3.33137,1.40752 4.35318,3.02304 l 16.68719,26.36092 c 0.81151,1.28312 2.01879,2.08349 3.50673,2.41843 1.48794,0.3351 2.82697,0.0871 4.11134,-0.72553 1.28436,-0.81232 2.0841,-1.89826 2.41843,-3.3858 0.33432,-1.48752 0.0859,-2.94914 -0.72553,-4.23226 l -16.68719,-26.36092 c -1.02186,-1.61552 -1.27887,-3.36066 -0.84645,-5.19963 0.43241,-1.83886 1.40749,-3.21037 3.02304,-4.23226 1.18043,-0.74654 2.41499,-1.12537 3.74857,-1.0883 z m -269.53441,6.65069 c 3.75689,-0.20276 7.35901,0.73628 10.76203,2.7812 4.57831,2.75128 7.42324,6.70529 8.70636,11.85032 1.28301,5.14507 0.5754,10.05193 -2.17659,14.63152 l -0.36257,0.48368 c -0.98467,1.63854 -2.38299,2.68296 -4.23226,3.14397 -1.84938,0.46097 -3.60219,0.23449 -5.19963,-0.72553 -1.63858,-0.98463 -2.68303,-2.38291 -3.14396,-4.23226 -0.46105,-1.84935 -0.13814,-3.56109 0.84645,-5.19963 l 0.36257,-0.60461 c 0.78272,-1.30259 0.97384,-2.63207 0.60461,-4.11134 -0.36954,-1.47919 -1.23743,-2.60339 -2.53936,-3.3858 -1.30196,-0.78238 -2.75279,-1.09375 -4.23225,-0.72553 -1.47954,0.36837 -2.60309,1.23677 -3.38581,2.53935 l -10.27834,17.2918 c -0.78203,1.30131 -1.09445,2.63149 -0.72553,4.11134 0.36876,1.47988 1.23739,2.72435 2.53935,3.50672 1.30193,0.78241 2.75237,0.97353 4.23226,0.60461 1.47985,-0.36876 2.60378,-1.23804 3.38581,-2.53935 l 0.36257,-0.60461 c 0.98459,-1.6385 2.38287,-2.68295 4.23226,-3.14396 1.84931,-0.46098 3.56105,-0.25926 5.19963,0.72553 1.59744,0.95998 2.68291,2.38295 3.14396,4.23225 0.46094,1.84935 0.13814,3.5611 -0.84645,5.19963 l -0.36257,0.72553 c -2.72664,4.53733 -6.69233,7.40316 -11.85032,8.70636 -5.15808,1.30321 -9.93226,0.57466 -14.5106,-2.17659 -4.53733,-2.72663 -7.53576,-6.67139 -8.82728,-11.85032 -1.29152,-5.17893 -0.55001,-10.09419 2.17659,-14.63152 l 10.39926,-17.17087 c 2.75202,-4.57963 6.68381,-7.5579 11.85032,-8.82728 1.2916,-0.3173 2.61721,-0.53701 3.86949,-0.60461 z m 32.64885,16.92903 c 0.87927,-0.0155 1.76848,0.13969 2.66028,0.48369 1.73756,0.66996 2.96632,1.90816 3.74857,3.62765 0.78222,1.71956 0.92934,3.41606 0.24185,5.19963 l -4.83687,12.45493 0.24184,0 15.71982,-11.97125 c 1.49768,-1.15705 3.18238,-1.58831 5.07871,-1.33014 1.89628,0.2581 3.43831,1.0426 4.59502,2.53936 1.15663,1.4968 1.61133,3.19129 1.33014,5.07871 -0.28131,1.88746 -1.16259,3.43797 -2.66028,4.59502 l -11.48756,8.70636 c 2.1266,2.65869 3.43329,5.6762 3.99042,9.06912 0.55701,3.39293 0.16329,6.79023 -1.0883,10.0365 l -3.50672,9.06913 c -0.68773,1.7836 -1.89428,3.11985 -3.62765,3.86949 -1.73346,0.7496 -3.41603,0.68769 -5.19963,0 -1.73899,-0.67047 -3.08801,-1.78747 -3.8695,-3.50673 -0.78156,-1.71925 -0.80876,-3.53695 -0.12073,-5.32055 l 3.50673,-9.06913 c 0.54614,-1.41658 0.49731,-2.83804 -0.12073,-4.23225 -0.61834,-1.39418 -1.60649,-2.35594 -3.02304,-2.90212 l -4.71594,-1.81383 -5.44148,14.26876 c -0.68768,1.7836 -2.01449,2.9992 -3.74857,3.74857 -1.73411,0.74936 -3.46208,0.791 -5.19963,0.12073 -1.78361,-0.68765 -2.96705,-1.9084 -3.74857,-3.62765 -0.78156,-1.71926 -0.92949,-3.41603 -0.24185,-5.19963 l 15.23614,-39.54138 c 0.68764,-1.78357 1.89423,-2.9989 3.62764,-3.74858 0.86669,-0.37495 1.78102,-0.58913 2.66028,-0.6046 z m 182.59174,4.95779 c 0.8819,-0.004 1.77749,0.12498 2.66028,0.48368 1.76557,0.71938 3.0264,1.91118 3.74857,3.62765 l 13.78507,32.76977 12.334,-5.19963 c 1.76202,-0.74128 3.56497,-0.81848 5.32056,-0.12073 1.75555,0.69759 3.00721,1.98656 3.74857,3.74857 0.74124,1.76205 0.72112,3.4348 0,5.19963 -0.71965,1.76488 -1.86568,3.12822 -3.62765,3.8695 l -18.86378,7.8599 c -1.71655,0.72217 -3.43476,0.71961 -5.19963,0 -1.76484,-0.71961 -3.00729,-1.98655 -3.74857,-3.74857 l -16.44535,-39.05769 c -0.72212,-1.71647 -0.71961,-3.43472 0,-5.19963 0.71961,-1.7648 1.91115,-3.02637 3.62765,-3.74857 0.88101,-0.3707 1.77838,-0.47796 2.66028,-0.48369 z m -26.84461,7.01345 c 3.76974,-0.17296 7.37576,0.81662 10.76203,2.90212 4.51496,2.78085 7.35033,6.77309 8.58544,11.97125 l 0.12072,0.6046 c 0.44186,1.85988 0.15324,3.69789 -0.84645,5.32056 -0.99968,1.62275 -2.41901,2.59229 -4.23225,3.02304 -1.85988,0.44193 -3.57693,0.15323 -5.19964,-0.84645 -1.62271,-0.99961 -2.7021,-2.37243 -3.14396,-4.23226 l -0.12073,-0.72553 c -0.35135,-1.4785 -1.12006,-2.58656 -2.41843,-3.38581 -1.29837,-0.79916 -2.75446,-0.95568 -4.23226,-0.60461 -1.47783,0.35135 -2.58571,1.12069 -3.3858,2.41844 -0.80014,1.29786 -0.95588,2.63284 -0.60461,4.11133 l 4.59502,19.58931 c 0.35096,1.4771 1.11991,2.70679 2.41843,3.50673 1.29853,0.79998 2.75442,0.95576 4.23226,0.60461 1.4778,-0.35097 2.58587,-1.11987 3.38581,-2.41844 0.79994,-1.29852 1.07645,-2.75515 0.72553,-4.23225 l -0.24185,-0.72553 c -0.44189,-1.8598 -0.15323,-3.57688 0.84646,-5.19963 0.99964,-1.62271 2.49334,-2.58111 4.35318,-3.02305 1.81324,-0.43079 3.45596,-0.15323 5.0787,0.84646 1.62272,0.99968 2.70203,2.37246 3.14397,4.23225 l 0.12073,0.72553 c 1.22365,5.15018 0.47842,9.97219 -2.29752,14.5106 -2.77601,4.53849 -6.77455,7.47164 -11.97124,8.70636 -5.15022,1.22369 -9.96588,0.38076 -14.5106,-2.41843 -4.54472,-2.79908 -7.48271,-6.70014 -8.70636,-11.85032 l -4.59502,-19.58931 c -1.23506,-5.19816 -0.50818,-10.1113 2.29751,-14.63152 2.80569,-4.52007 6.82107,-7.36171 11.97125,-8.58544 1.29918,-0.30878 2.61291,-0.54691 3.86949,-0.60461 z m -108.95041,2.90212 c 1.06338,0.0155 2.16088,0.255 3.26489,0.48369 l 9.31096,1.93475 c 1.8235,0.37804 3.30691,1.30908 4.35318,2.90212 1.04624,1.5931 1.34516,3.25524 0.96738,5.0787 -0.38784,1.87191 -1.42986,3.42714 -3.02304,4.47411 -1.59327,1.047 -3.25525,1.34519 -5.07871,0.96737 l -9.31097,-1.93475 c -0.72066,-0.14936 -1.47165,-0.0433 -2.05567,0.36257 -0.5841,0.40448 -0.94903,0.89974 -1.08829,1.57199 l -0.48369,2.53935 9.55281,1.93475 c 1.87183,0.38784 3.30706,1.42927 4.35318,3.02304 1.04608,1.59384 1.34515,3.25521 0.96737,5.07871 -0.38784,1.87186 -1.30909,3.42787 -2.90212,4.4741 -1.59311,1.04627 -3.32784,1.35521 -5.19963,0.96737 l -9.55281,-1.93474 -1.45106,6.89253 c -0.13891,0.67085 -0.0116,1.33153 0.36257,1.93475 0.37534,0.60321 0.97225,0.93901 1.69291,1.08829 l 10.52018,2.17659 c 1.8235,0.37766 3.18614,1.42924 4.23226,3.02304 1.04608,1.59381 1.34515,3.25517 0.96737,5.07871 -0.38784,1.87183 -1.30909,3.30695 -2.90212,4.35318 -1.59311,1.04627 -3.25521,1.46611 -5.07871,1.0883 l -10.52018,-2.17659 c -4.41602,-0.91491 -7.92588,-3.24736 -10.3993,-7.01346 -2.47338,-3.7661 -3.21211,-7.9195 -2.29751,-12.33401 l 4.71594,-22.97511 c 0.9149,-4.41595 3.24736,-7.80489 7.0135,-10.27834 2.82453,-1.855 5.87899,-2.83205 9.06912,-2.7812 z m 27.9329,4.59503 c 0.44585,-0.0654 0.85265,-0.0193 1.33014,0 l 10.64111,0.36257 c 5.19007,0.22133 9.51903,2.33678 13.05954,6.167 3.54043,3.83037 5.17927,8.35168 4.95778,13.54323 -0.16948,3.96623 -1.35656,7.45701 -3.74857,10.6411 3.03051,3.71054 4.43707,8.01763 4.23226,12.8177 l -0.36257,7.01345 c -0.0793,1.86053 -0.7727,3.42694 -2.17659,4.71595 -1.40397,1.289 -3.04796,1.89535 -4.95779,1.81382 -1.86208,-0.0793 -3.42698,-0.89358 -4.71594,-2.29751 -1.28905,-1.40393 -1.89323,-2.97634 -1.81383,-4.83687 l 0.24185,-7.01345 c 0.0542,-1.27322 -0.29563,-2.41925 -1.0883,-3.38581 -0.79266,-0.96652 -1.85983,-1.65285 -3.26488,-2.05567 -1.50377,-0.40699 -2.79556,-1.17555 -3.74857,-2.41843 -0.95306,-1.24284 -1.34845,-2.66325 -1.33014,-4.23226 0.0193,-1.56892 0.49107,-2.99762 1.45106,-4.23225 0.9599,-1.23457 2.21141,-2.04232 3.74857,-2.41844 1.14134,-0.29408 2.08225,-0.83937 2.7812,-1.6929 0.69887,-0.85346 1.0381,-1.84838 1.08829,-3.02304 0.0608,-1.42115 -0.3676,-2.60591 -1.33014,-3.62765 -0.96249,-1.02163 -2.20797,-1.63227 -3.62765,-1.6929 l -3.74857,-0.12073 -1.45106,35.43004 c -0.0793,1.86053 -0.91749,3.42593 -2.29751,4.71595 -1.38002,1.29005 -2.927,1.89535 -4.83687,1.81382 -1.90986,-0.0816 -3.54786,-0.77266 -4.83686,-2.17659 -1.28901,-1.40393 -1.89323,-3.09726 -1.81383,-4.95779 l 1.81383,-42.32258 c 0.0816,-1.90982 0.77266,-3.4269 2.17659,-4.71594 1.05293,-0.96672 2.29012,-1.61795 3.62765,-1.81382 z"
         style="fill:#ffffff;fill-opacity:1;stroke:none" />
    </g>
  </g>
</svg>
