<?xml version="1.0" encoding="utf-8"?>
<!-- Generator: Adobe Illustrator 17.0.0, SVG Export Plug-In . SVG Version: 6.00 Build 0)  -->
<!DOCTYPE svg PUBLIC "-//W3C//DTD SVG 1.1//EN" "http://www.w3.org/Graphics/SVG/1.1/DTD/svg11.dtd">
<svg version="1.1"
	 id="svg3049" sodipodi:docname="sabugosa_logo_branco_vazado_texto_novo.svg" inkscape:version="0.48.5 r10040" xmlns:dc="http://purl.org/dc/elements/1.1/" xmlns:cc="http://creativecommons.org/ns#" xmlns:rdf="http://www.w3.org/1999/02/22-rdf-syntax-ns#" xmlns:svg="http://www.w3.org/2000/svg" xmlns:sodipodi="http://sodipodi.sourceforge.net/DTD/sodipodi-0.dtd" xmlns:inkscape="http://www.inkscape.org/namespaces/inkscape"
	 xmlns="http://www.w3.org/2000/svg" xmlns:xlink="http://www.w3.org/1999/xlink" x="0px" y="0px" width="595.276px"
	 height="841.89px" viewBox="0 0 595.276 841.89" enable-background="new 0 0 595.276 841.89" xml:space="preserve">
<rect id="rect3" x="0" fill="#66806C" stroke="#000000" stroke-width="0.8242" stroke-miterlimit="10" width="595.276" height="841.89"/>
<defs>
	
	
		<inkscape:path-effect  vertical="false" scale_y_rel="false" prop_scale="1" bendpath="m 134.74976,434.86218 c 13.48496,-129.88664 146.49076,-5.01481 200.02962,0" is_visible="true" id="path-effect3880" effect="bend_path" bendpath-nodetypes="cc">
		</inkscape:path-effect>
</defs>
<sodipodi:namedview  showgrid="false" inkscape:cy="683.98549" inkscape:cx="414.79372" inkscape:zoom="0.35" borderopacity="1.0" bordercolor="#666666" pagecolor="#ffffff" id="base" inkscape:window-maximized="1" inkscape:window-y="-9" inkscape:window-x="1911" inkscape:window-height="1017" inkscape:window-width="1920" inkscape:current-layer="svg3049" inkscape:pageshadow="2" inkscape:document-units="mm" inkscape:pageopacity="0.0">
	</sodipodi:namedview>
<g id="layer3" inkscape:label="Layer" inkscape:groupmode="layer">
</g>
<g id="layer5" transform="matrix(0.29762019,0,0,0.29762019,592.76675,166.3405)" inkscape:label="teste">
</g>
<g id="layer1-2" transform="matrix(0.29762019,0,0,0.29762019,592.76675,166.3405)" inkscape:label="Layer 1">
</g>
<g id="layer2" transform="matrix(0.29762019,0,0,0.29762019,592.76675,166.3405)" inkscape:label="Layer">
</g>
<g id="g3771" transform="matrix(0.81818642,0,0,0.81818642,55.790294,120.77007)">
	<path id="path3915-7-1-0" inkscape:connector-curvature="0" fill="#FFFFFF" d="M298.963,35.184
		c-143.456,0-259.74,116.351-259.74,259.808s116.283,259.74,259.74,259.74s259.808-116.283,259.808-259.74
		S442.423,35.184,298.963,35.184L298.963,35.184L298.963,35.184z M308.617,41.53c0.805-0.035,1.599-0.042,2.43,0
		c3.665,0.18,7.125,1.152,10.327,2.903c3.202,1.751,5.879,4.116,8.032,7.086c0.946,1.258,1.271,2.642,1.014,4.187
		c-0.261,1.541-0.972,2.806-2.227,3.714c-1.258,0.907-2.71,1.249-4.251,1.014s-2.767-0.969-3.714-2.227
		c-2.375-3.344-5.612-5.133-9.722-5.332c-3.543-0.174-6.626,0.933-9.249,3.308c-2.623,2.375-4.006,5.3-4.187,8.843
		s0.936,6.629,3.308,9.249s5.297,4.013,8.843,4.183c2.455,0.119,4.766-0.412,6.883-1.619c2.121-1.21,3.733-2.848,4.927-4.927
		l-11.408-0.541c-1.57-0.077-2.864-0.727-3.916-1.889c-1.052-1.162-1.564-2.545-1.484-4.116c0.08-1.57,0.727-2.816,1.889-3.849
		s2.545-1.561,4.119-1.484l18.359,0.946c1.57,0.077,2.864,0.682,3.916,1.821c1.052,1.142,1.564,2.478,1.484,4.051
		c-0.335,6.645-3.015,12.19-7.965,16.673c-4.949,4.483-10.703,6.603-17.348,6.278s-12.267-2.954-16.74-7.897
		c-4.473-4.943-6.545-10.771-6.211-17.416c0.335-6.645,3.015-12.19,7.965-16.673C298.03,43.885,302.989,41.771,308.617,41.53
		L308.617,41.53z M269.332,43.824c1.107,0.019,2.092,0.399,3.038,1.081c1.258,0.907,2.031,2.095,2.294,3.646l4.052,23.624
		c0.821,4.808-0.167,9.204-2.97,13.162c-2.803,3.958-6.639,6.336-11.408,7.154c-4.769,0.821-9.075-0.174-13.027-2.97
		s-6.404-6.6-7.221-11.408l-3.984-23.624c-0.264-1.551,0.058-2.909,0.946-4.187c0.888-1.278,2.095-2.095,3.646-2.362
		c1.551-0.267,2.973,0.106,4.251,1.014c1.278,0.904,2.031,2.095,2.294,3.646l4.051,23.624c0.29,1.709,1.097,3.044,2.497,4.051
		c1.4,1.007,2.948,1.374,4.656,1.081s3.064-1.149,4.052-2.565c0.988-1.416,1.371-3.015,1.081-4.724l-4.052-23.556
		c-0.264-1.551,0.039-2.97,0.946-4.251c0.907-1.281,2.163-2.095,3.714-2.362C268.572,43.827,268.962,43.818,269.332,43.824
		C269.332,43.824,269.332,43.824,269.332,43.824z M364.843,51.116c2.32,0.019,4.637,0.412,7.019,1.149
		c6.356,1.96,11.131,5.847,14.243,11.746c3.109,5.899,3.656,12.071,1.686,18.426c-1.969,6.359-5.911,11.054-11.813,14.175
		c-5.902,3.121-12.006,3.714-18.359,1.754c-6.352-1.96-11.134-5.915-14.243-11.813c-3.109-5.899-3.656-12.003-1.686-18.359
		c1.969-6.356,5.911-11.122,11.813-14.243C357.194,52.001,360.978,51.081,364.843,51.116L364.843,51.116z M213.982,57.797
		c2.414-0.142,4.85,0.38,7.221,1.484c3.797,1.77,6.346,4.602,7.762,8.505c0.467,1.287,0.814,2.517,0.946,3.714
		c4.396,1.702,7.369,4.75,8.978,9.181c1.458,4.016,1.29,7.997-0.541,11.881c-1.831,3.884-4.756,6.504-8.776,7.965l-8.303,3.038
		c-1.442,0.525-2.899,0.46-4.319-0.203c-1.419-0.663-2.365-1.696-2.903-3.173l-11.881-32.737c-0.508-1.4-0.422-2.848,0.203-4.319
		c0.727-1.422,1.799-2.378,3.241-2.903l4.051-1.484C211.124,58.209,212.534,57.88,213.982,57.797L213.982,57.797L213.982,57.797z
		 M364.775,62.453c-2.056-0.023-4.051,0.451-6.008,1.484c-3.128,1.654-5.226,4.171-6.278,7.559
		c-1.049,3.392-0.769,6.661,0.879,9.786c1.648,3.125,4.171,5.233,7.559,6.278s6.661,0.708,9.786-0.946
		c3.128-1.654,5.226-4.171,6.278-7.559c1.049-3.392,0.769-6.661-0.879-9.786c-1.648-3.125-4.171-5.165-7.559-6.211
		C367.285,62.669,366.011,62.466,364.775,62.453L364.775,62.453z M214.793,69.137l7.965,21.87l2.97-1.081
		c1.097-0.399,1.866-1.101,2.362-2.159s0.589-2.179,0.203-3.241c-0.328-0.907-0.93-1.596-1.686-2.092
		c-0.756-0.496-1.596-0.727-2.565-0.676c-2.05,0.145-3.688-0.579-4.927-2.227c-1.22-1.702-1.471-3.504-0.743-5.4
		c0.325-0.763,0.328-1.59,0-2.497c-0.274-0.756-0.763-1.374-1.416-1.821C216.296,69.365,215.568,69.153,214.793,69.137
		C214.793,69.137,214.793,69.137,214.793,69.137z M410.88,70.688c2.153,0.016,4.248,0.57,6.278,1.686l4.589,2.565
		c1.377,0.759,2.266,1.87,2.7,3.376s0.27,2.909-0.473,4.251c-0.759,1.377-1.87,2.33-3.376,2.768
		c-1.506,0.438-2.944,0.219-4.319-0.541l-4.656-2.497c-0.496-0.274-0.988-0.351-1.551-0.203c-0.566,0.148-0.988,0.483-1.284,1.014
		c-0.274,0.492-0.367,1.046-0.203,1.619c0.164,0.576,0.518,1.01,1.014,1.284c3.669,2.024,6.105,5.049,7.289,9.113
		c1.184,4.061,0.766,7.968-1.284,11.678c-2.027,3.672-5.097,6.108-9.181,7.289c-4.081,1.181-7.939,0.74-11.611-1.284l-6.346-3.511
		c-1.374-0.759-2.266-1.87-2.7-3.376c-0.434-1.506-0.29-2.941,0.473-4.319c0.759-1.377,1.944-2.282,3.443-2.7
		s2.877-0.219,4.251,0.541l6.346,3.443c0.953,0.525,1.969,0.647,3.038,0.338c1.068-0.309,1.834-0.936,2.362-1.889
		c0.547-0.988,0.656-1.989,0.338-3.038c-0.319-1.049-0.936-1.837-1.889-2.362c-3.247-1.789-5.387-4.473-6.414-8.032
		c-1.027-3.559-0.647-7.012,1.149-10.259c1.796-3.25,4.47-5.381,8.032-6.414C408.232,70.843,409.586,70.678,410.88,70.688
		L410.88,70.688L410.88,70.688z M178.139,74.199c0.29-0.013,0.576-0.029,0.879,0c1.207,0.122,2.262,0.573,3.173,1.348l27.607,24.299
		c1.628,1.387,2.282,3.115,1.889,5.197c-0.376,2.024-1.535,3.469-3.511,4.319l-10.529,4.119c-1.429,0.586-2.819,0.573-4.251-0.068
		c-1.435-0.64-2.452-1.677-3.038-3.105c-0.55-1.448-0.547-2.877,0.068-4.319c0.615-1.445,1.654-2.484,3.105-3.038l1.889-0.676
		l-8.303-7.356l3.781,19.913c0.283,1.554-0.01,2.967-0.879,4.251c-0.869,1.287-2.04,2.108-3.578,2.43
		c-1.554,0.286-2.967-0.013-4.251-0.879c-1.284-0.866-2.079-2.024-2.362-3.578l-6.951-36.18c-0.209-1.181-0.035-2.34,0.473-3.443
		s1.313-1.963,2.362-2.565C176.472,74.437,177.27,74.241,178.139,74.199C178.139,74.199,178.139,74.199,178.139,74.199z
		 M294.307,93.977c1.728-0.045,3.459,0,5.197,0c111.283,0,201.555,90.272,201.555,201.555s-90.272,201.487-201.555,201.487
		S98.017,406.814,98.017,295.532C98.017,185.987,185.425,96.738,294.307,93.977L294.307,93.977L294.307,93.977z M147.967,94.247
		c0.37-0.032,0.756-0.039,1.149,0c1.561,0.154,2.809,0.84,3.781,2.024c0.994,1.216,1.438,2.626,1.284,4.187
		c-0.158,1.561-0.808,2.851-2.024,3.849l-4.119,3.308c-0.438,0.357-0.669,0.837-0.743,1.416c-0.074,0.579,0.09,1.084,0.473,1.551
		c0.357,0.434,0.821,0.682,1.416,0.743c0.595,0.058,1.117-0.048,1.551-0.405c3.247-2.658,6.993-3.778,11.205-3.376
		c4.212,0.402,7.649,2.191,10.327,5.467c2.652,3.244,3.733,6.977,3.308,11.205s-2.22,7.669-5.467,10.327l-5.603,4.589
		c-1.216,0.998-2.626,1.435-4.183,1.284c-1.558-0.151-2.784-0.875-3.781-2.092c-0.998-1.216-1.451-2.571-1.284-4.119
		c0.171-1.545,0.875-2.851,2.092-3.849l5.603-4.521c0.843-0.692,1.307-1.593,1.416-2.7c0.113-1.107-0.19-2.06-0.879-2.903
		c-0.714-0.872-1.606-1.39-2.7-1.484c-1.094-0.093-2.06,0.187-2.903,0.879c-2.874,2.352-6.166,3.334-9.854,2.97
		c-3.688-0.367-6.697-1.924-9.046-4.792c-2.346-2.867-3.34-6.166-2.97-9.854s1.989-6.693,4.859-9.046l4.051-3.376
		C145.843,94.781,146.86,94.347,147.967,94.247C147.967,94.247,147.967,94.247,147.967,94.247z M448.138,94.518
		c0.29-0.029,0.573-0.013,0.879,0c1.213,0.061,2.291,0.463,3.241,1.216c0.917,0.727,1.554,1.67,1.889,2.835
		c0.335,1.165,0.319,2.307-0.068,3.443l-12.354,34.761c-0.685,2.031-2.108,3.231-4.183,3.646c-2.021,0.409-3.743-0.171-5.265-1.686
		l-7.694-8.167c-1.075-1.107-1.615-2.478-1.551-4.051c0.064-1.57,0.644-2.838,1.754-3.916c1.142-1.052,2.549-1.586,4.119-1.551
		c1.567,0.032,2.864,0.615,3.916,1.754l1.352,1.484l3.714-10.394l-17.078,10.935c-1.339,0.843-2.739,1.068-4.251,0.743
		c-1.516-0.325-2.71-1.123-3.578-2.43c-0.843-1.335-1.139-2.803-0.811-4.319c0.328-1.516,1.158-2.668,2.497-3.511l30.983-19.913
		C446.404,94.92,447.266,94.601,448.138,94.518L448.138,94.518L448.138,94.518z M134.535,423.918c0.306-0.022,0.631-0.013,0.946,0
		c0.418,0.016,0.85,0.052,1.284,0.135c1.728,0.331,3.054,1.181,3.984,2.43s1.171,2.568,0.743,3.984
		c-0.428,1.416-1.403,2.504-2.903,3.241l-9.654,4.724l3.646,4.927l9.654-4.792c1.5-0.737,3.118-0.888,4.859-0.541
		c1.741,0.348,3.076,1.078,3.984,2.294c0.93,1.249,1.171,2.636,0.743,4.052c-0.428,1.416-1.403,2.436-2.903,3.173l-34.089,16.74
		c-1.538,0.756-3.118,0.956-4.859,0.608c-1.741-0.351-3.121-1.113-4.051-2.362c-0.904-1.216-1.104-2.568-0.676-3.984
		c0.428-1.413,1.364-2.484,2.903-3.241l13.364-6.549l-3.646-4.859l-13.364,6.549c-1.538,0.756-3.186,0.956-4.927,0.608
		c-1.741-0.351-3.054-1.181-3.984-2.43s-1.184-2.584-0.743-3.984c0.441-1.397,1.432-2.484,2.97-3.241l34.089-16.74
		C132.746,424.246,133.615,423.989,134.535,423.918L134.535,423.918L134.535,423.918z M460.087,424.591
		c1.261-0.058,2.455,0.19,3.578,0.743c1.538,0.756,2.542,1.892,2.97,3.308c0.428,1.416,0.164,2.697-0.743,3.916l-5.873,7.965
		l4.119,2.024l4.724-6.346c0.93-1.249,2.262-2.072,3.984-2.43c1.722-0.357,3.321-0.148,4.859,0.608
		c1.538,0.756,2.542,1.825,2.97,3.241c0.428,1.413,0.19,2.732-0.743,3.984l-4.724,6.346l7.762,3.849l6.549-8.776
		c0.908-1.216,2.262-2.005,3.984-2.362s3.321-0.148,4.859,0.608c1.538,0.756,2.542,1.825,2.97,3.241
		c0.428,1.413,0.164,2.764-0.743,3.984l-9.921,13.297c-0.93,1.249-2.243,2.014-3.984,2.362s-3.389,0.148-4.927-0.608l-34.089-16.74
		c-1.496-0.737-2.407-1.825-2.835-3.241c-0.428-1.413-0.19-2.732,0.743-3.984l9.249-12.422c0.908-1.216,2.243-2.014,3.984-2.362
		C459.241,424.707,459.665,424.61,460.087,424.591L460.087,424.591L460.087,424.591z M446.114,450.512
		c2.433-0.003,4.798,0.264,7.221,0.811c1.734,0.37,3.105,1.171,3.984,2.43c0.879,1.258,1.062,2.571,0.608,3.984
		c-0.486,1.438-1.49,2.526-3.038,3.241c-1.548,0.711-3.224,0.869-4.927,0.473c-2.619-0.541-5.184-0.557-7.762,0
		c-2.578,0.557-4.83,1.677-6.684,3.241c-2.813,2.375-4.145,5.21-4.051,8.505c0.096,3.295,1.567,6.043,4.454,8.303
		c2.922,2.285,6.423,3.372,10.462,3.308c4.039-0.064,7.447-1.271,10.259-3.646c1.854-1.564,3.096-3.421,3.714-5.535
		s0.528-4.196-0.27-6.278c-0.521-1.393-0.344-2.697,0.473-3.984c0.817-1.284,2.027-2.182,3.714-2.632
		c1.715-0.425,3.414-0.325,4.994,0.338s2.581,1.709,3.105,3.105c1.561,3.923,1.818,7.887,0.676,11.881
		c-1.142,3.99-3.504,7.495-7.019,10.462c-5.271,4.454-11.681,6.697-19.305,6.819c-7.624,0.119-14.195-1.966-19.71-6.278
		c-5.48-4.283-8.29-9.532-8.438-15.727s2.356-11.476,7.627-15.929c3.482-2.941,7.675-4.978,12.554-6.076
		C441.197,450.773,443.681,450.515,446.114,450.512L446.114,450.512L446.114,450.512z M161.467,454.493
		c0.656-0.048,1.345,0.016,2.024,0.135c1.358,0.235,2.442,0.724,3.376,1.551c0.901,0.801,1.455,1.783,1.619,2.903
		s-0.032,2.188-0.676,3.173l-20.251,29.97c-1.142,1.76-2.916,2.697-5.332,2.767c-2.352,0.071-4.296-0.743-5.738-2.362l-7.154-8.64
		c-1.01-1.178-1.371-2.484-1.014-3.916c0.357-1.432,1.252-2.555,2.7-3.376c1.48-0.795,3.096-1.075,4.859-0.811
		c1.763,0.264,3.141,1.027,4.119,2.227l1.284,1.551l6.076-8.978l-21.262,7.492c-1.664,0.573-3.276,0.592-4.927,0.068
		s-2.835-1.509-3.578-2.835c-0.708-1.352-0.782-2.642-0.135-3.984c0.647-1.342,1.847-2.33,3.511-2.903l38.542-13.635
		C160.141,454.686,160.81,454.541,161.467,454.493L161.467,454.493L161.467,454.493z M185.026,474.271
		c5.393,0,10.404,1.307,15.122,3.916c4.154,2.298,7.302,5.319,9.451,9.046c2.15,3.723,3.006,7.611,2.497,11.678
		c-0.158,1.451-0.917,2.665-2.294,3.578c-1.377,0.914-3.006,1.278-4.792,1.149c-1.828-0.148-3.263-0.769-4.386-1.889
		c-1.123-1.12-1.612-2.417-1.416-3.849c0.219-2.188-0.241-4.238-1.352-6.211s-2.719-3.572-4.927-4.792
		c-3.353-1.854-7.019-2.452-11.002-1.821c-3.984,0.628-7.128,2.233-9.384,4.927c-2.282,2.726-3.051,5.751-2.294,8.978
		c0.756,3.224,2.79,5.773,6.143,7.627c2.211,1.223,4.689,1.886,7.356,2.024c2.671,0.142,5.171-0.293,7.559-1.284
		c1.606-0.653,3.231-0.776,4.927-0.338s3.019,1.29,3.849,2.565c0.805,1.303,0.879,2.671,0.338,4.052s-1.567,2.385-3.173,3.038
		c-4.496,1.908-9.274,2.745-14.311,2.497s-9.648-1.532-13.838-3.849c-6.288-3.475-10.117-8.29-11.543-14.378
		c-1.426-6.089,0.013-11.669,4.319-16.808c4.277-5.107,10.127-8.225,17.619-9.384C181.364,474.454,183.227,474.271,185.026,474.271
		L185.026,474.271z M396.705,479.535c0.331-0.029,0.666-0.013,1.014,0c1.387,0.055,2.626,0.47,3.714,1.149l33.007,21.194
		c1.944,1.21,2.751,2.777,2.43,4.724c-0.306,1.895-1.574,3.302-3.781,4.187l-11.678,4.319c-1.596,0.611-3.25,0.663-4.927,0.135
		s-2.893-1.471-3.646-2.768c-0.714-1.319-0.753-2.613-0.135-3.984c0.618-1.368,1.754-2.388,3.376-2.97l2.092-0.743l-9.921-6.414
		l5.535,18.291c0.418,1.429,0.171,2.816-0.743,4.052c-0.914,1.236-2.249,1.992-3.984,2.362c-1.757,0.338-3.408,0.135-4.927-0.608
		c-1.519-0.743-2.484-1.812-2.903-3.241l-10.056-33.21c-0.309-1.084-0.245-2.124,0.27-3.173c0.512-1.046,1.335-1.889,2.497-2.497
		C394.78,479.905,395.71,479.619,396.705,479.535L396.705,479.535L396.705,479.535z M222.217,490.271
		c0.83-0.013,1.661,0.074,2.497,0.338c1.632,0.515,2.787,1.435,3.511,2.767c0.724,1.332,0.769,2.655,0.135,3.984l-3.173,6.751
		l12.486-6.951c1.48-0.821,3.112-1.146,4.859-0.879c1.751,0.27,3.109,1.027,4.119,2.227c1.007,1.2,1.345,2.494,1.014,3.916
		c-0.331,1.422-1.223,2.555-2.7,3.376l-14.108,7.897l3.646,17.416c0.309,1.422-0.039,2.784-1.081,3.984
		c-1.043,1.197-2.449,1.876-4.187,2.092c-1.796,0.238-3.408-0.039-4.859-0.879c-1.451-0.84-2.32-2.021-2.632-3.443l-3.173-14.986
		l-4.589,9.651c-0.65,1.361-1.802,2.381-3.443,2.97c-1.641,0.589-3.295,0.582-4.927,0.068c-1.677-0.528-2.854-1.435-3.578-2.768
		s-0.785-2.687-0.135-4.052l14.446-30.172c0.634-1.326,1.735-2.246,3.376-2.835C220.54,490.448,221.386,490.284,222.217,490.271
		L222.217,490.271L222.217,490.271z M369.773,492.227c2.262,0.032,4.499,0.425,6.751,1.216c4.502,1.58,7.665,4.203,9.451,7.897
		c1.786,3.694,1.706,7.421-0.27,11.07c-1.976,3.649-5.242,6.175-9.786,7.627l-3.308,1.014l3.984,8.235
		c0.656,1.358,0.65,2.716-0.068,4.052c-0.718,1.336-1.879,2.246-3.511,2.768c-1.673,0.534-3.353,0.515-4.994-0.068
		c-1.644-0.582-2.787-1.541-3.443-2.903l-14.513-30.105c-0.656-1.358-0.65-2.648,0.068-3.984c0.718-1.335,1.905-2.301,3.578-2.835
		l9.249-2.97C365.229,492.514,367.511,492.195,369.773,492.227L369.773,492.227L369.773,492.227z M255.292,499.313
		c0.425,0,0.907,0.068,1.352,0.135l17.551,2.632c1.722,0.261,3.102,1.027,4.119,2.227c1.014,1.2,1.4,2.517,1.081,3.916
		c-0.331,1.435-1.287,2.552-2.768,3.376c-1.48,0.824-3.07,1.072-4.792,0.811l-11.205-1.686l-0.879,3.849l8.978,1.416
		c1.767,0.267,3.167,0.978,4.187,2.159c1.017,1.184,1.342,2.478,1.014,3.916c-0.331,1.435-1.223,2.552-2.7,3.376
		c-1.477,0.824-3.093,1.146-4.859,0.879l-8.978-1.416l-1.686,7.289l12.422,1.889c1.722,0.261,3.099,0.975,4.119,2.159
		c1.017,1.184,1.342,2.545,1.014,3.984s-1.223,2.552-2.7,3.376c-1.477,0.824-3.07,1.072-4.792,0.811l-18.832-2.835
		c-1.767-0.267-3.173-1.027-4.183-2.227c-1.014-1.2-1.342-2.478-1.014-3.916l7.289-31.791c0.322-1.4,1.223-2.552,2.7-3.376
		C252.823,499.642,254.02,499.317,255.292,499.313L255.292,499.313L255.292,499.313z M337.235,499.786
		c1.271,0.003,2.468,0.328,3.578,0.946c1.48,0.821,2.375,1.908,2.7,3.308c0.331,1.435-0.003,2.78-1.014,3.984
		c-1.01,1.204-2.352,1.957-4.119,2.227l-5.94,0.879c-0.634,0.096-1.162,0.37-1.551,0.811c-0.389,0.441-0.534,0.933-0.405,1.484
		c0.119,0.515,0.515,0.969,1.081,1.284s1.12,0.367,1.754,0.27c4.711-0.721,9.091,0.09,13.094,2.294
		c4.006,2.208,6.462,5.181,7.356,9.046c0.888,3.826-0.029,7.408-2.767,10.665c-2.739,3.257-6.494,5.22-11.205,5.94l-8.1,1.284
		c-1.763,0.27-3.379-0.055-4.859-0.879c-1.48-0.821-2.368-1.94-2.7-3.376s-0.003-2.732,1.014-3.916
		c1.017-1.184,2.42-1.889,4.187-2.159l8.1-1.284c1.223-0.187,2.185-0.698,2.903-1.551c0.718-0.853,0.972-1.773,0.743-2.768
		c-0.238-1.03-0.911-1.799-1.957-2.362s-2.153-0.795-3.376-0.608c-4.167,0.637-8.045-0.013-11.543-1.957
		c-3.498-1.94-5.628-4.579-6.414-7.965c-0.785-3.385,0.042-6.471,2.43-9.316c2.388-2.842,5.619-4.628,9.786-5.265l5.94-0.879
		C336.396,499.854,336.814,499.786,337.235,499.786L337.235,499.786L337.235,499.786z M369.57,502.757
		c-0.618-0.01-1.268,0.071-1.889,0.27l-3.241,1.081l3.443,7.221l3.308-1.081c1.242-0.396,2.166-1.097,2.7-2.092
		c0.534-0.994,0.541-1.995,0.068-2.97c-0.473-0.975-1.339-1.66-2.565-2.092C370.78,502.876,370.188,502.766,369.57,502.757
		L369.57,502.757L369.57,502.757z M287.826,503.23h5.062c4.747,0.003,8.788,1.432,12.151,4.187s5.065,6.066,5.062,9.921
		c0,1.084-0.171,2.237-0.541,3.511c4.051,2.813,6.079,6.478,6.076,10.935l-0.068,9.046c0,1.461-0.621,2.751-1.889,3.781
		c-1.268,1.03-2.771,1.554-4.521,1.551c-1.799,0-3.324-0.521-4.589-1.551s-1.892-2.32-1.889-3.781v-9.113
		c0-0.898-0.322-1.689-0.946-2.362c-0.621-0.676-1.416-1.088-2.43-1.348c-2.259-0.525-3.765-1.741-4.454-3.578
		c-0.644-1.873-0.171-3.504,1.352-4.927c0.647-0.563,0.943-1.329,0.946-2.227c0-0.75-0.212-1.358-0.743-1.957
		s-1.265-1.088-2.092-1.352v26.864c0,1.461-0.621,2.684-1.889,3.714c-1.268,1.03-2.793,1.554-4.589,1.551
		c-1.796,0-3.347-0.521-4.589-1.551s-1.892-2.253-1.889-3.714l0.068-32.332c0-1.461,0.644-2.703,1.889-3.714
		C284.64,503.77,286.124,503.23,287.826,503.23L287.826,503.23L287.826,503.23z"/>
	<g id="g4687" transform="matrix(4.2841819,0,0,4.2841819,-1612.7364,-1348.6434)">
		
			<path id="path3041-0-7-1-8-1-2-6" inkscape:connector-curvature="0" sodipodi:nodetypes="ccccccccccccccccccccccccccccccccc" fill="#FFFFFF" d="
			M413.032,351.936c-0.017-0.002-0.018,0.01-0.021,0.021c-0.053,0.178,1.65,2.082,4.803,5.726l1.846,1.951l-0.965,1.468
			c1.221,1.443,2.312,2.824,4.321,4.468l1.07-0.524l9.439,9.607l0.722,0.872c-0.221-1.19-0.098-2.41,0.581-3.617l-0.506-0.527
			l-8.285-8.495l0.399-0.986c-1.909-2.623-3.137-3.518-4.342-4.405l-1.28,0.902l-2.014-1.762
			C415.122,353.52,413.289,351.971,413.032,351.936L413.032,351.936L413.032,351.936z M460.133,393.642
			c-0.128,0.736-0.284,1.454-0.524,2.098c-0.9,2.944-1.36,5.19-1.783,7.09c0.238,0.265,0.474,0.532,0.713,0.797
			c1.819,2.016,3.21,3.666,5.365,5.262c1.567,0.497,3.189,0.651,4.449,0.21l4.534,4.386c2.146,1.904,4.26,2.271,6.644,2.009
			c0.126-0.437,0.179-0.708,0.335-1.131c-2.306-0.326-4.524-1.382-5.762-2.64l-4.515-4.26c0.169-1.336,0.714-2.067,0.107-3.899
			c-2.246-4.16-5.375-6.22-8.828-9.272c-0.003,0.013,0.003,0.029,0,0.042C460.62,394.116,460.378,393.874,460.133,393.642
			L460.133,393.642L460.133,393.642z"/>
		
			<path id="path3043-5-0-4-2-3-3-1" inkscape:connector-curvature="0" sodipodi:nodetypes="ccccccscccccccccccccccccccccc" fill="#FFFFFF" fill-opacity="0.9961" d="
			M473.358,350.23c-5.405-0.119-12.783,3.177-12.697,10.662c0.103,0.761,0.236,1.503,0.671,2.098l-5.81,5.789
			c-0.004,0.132-0.136,0.099-0.148,0.229c1.065,2.182,0.894,2.609,0.877,4.294c0.256,0.748,0.651,2.417,0.412,3.578
			c-0.134,0.653,0.353,0.975,0.367,1.298l9.776-9.902c0.717,0.457,1.381,0.742,2.014,0.776c7.696-0.96,10.589-8.139,10.558-13.514
			l-6.021,5.83l-5.473-5.473l5.643-5.664L473.358,350.23L473.358,350.23z M430.519,393.656l-5.678,5.72
			c-0.937-0.619-1.892-0.45-2.522-0.607c-7.696,0.96-10.08,8.055-10.049,13.429l5.915-5.915l5.663,5.642l-5.579,5.579
			c5.405,0.119,12.55-2.669,12.464-10.153c-0.099-0.558,0.112-1.442-0.228-2.08l2.657-2.953c-0.601-2.202-1.213-4.478-2.056-6.628
			c0-0.007,0-0.014,0-0.021C430.948,395.2,430.747,394.458,430.519,393.656L430.519,393.656L430.519,393.656z"/>
		
			<path id="rect3960-0-4-3-3" inkscape:export-filename="c:\Users\aporto\Desktop\carimbo.png" inkscape:export-xdpi="92.870003" inkscape:export-ydpi="92.870003" inkscape:connector-curvature="0" sodipodi:nodetypes="ccccccccccccccccccccccccccccccccccccccccccccccccccccccccc" fill="#FFFFFF" fill-opacity="0.9961" d="
			M446.758,350.441c-0.295,0.045-0.75,0.271-1.307,0.274c-0.308-0.036-0.571,0.01-0.801,0.126c-0.575-0.004-0.949,0.2-1.202,0.506
			v-0.19c-0.223-0.123-0.318,0.249-0.379,0.759c-0.199,0.149-0.347,0.406-0.443,0.717c-0.769,0.515-1.493,1.233-2.003,3.141
			c-0.921,0.339-1.5,1.517-1.56,4.027c-1.278,1.519-0.857,2.328-0.864,3.31c-1.269,1.111-1.648,2.484-1.265,4.111
			c-0.956,0.756-1.303,2.239-1.138,4.343c-1.271,1.598-1.197,3.176-0.843,4.744c-1.519,2.183-0.813,3.353-0.527,4.723
			c-1.127,1.07-0.702,2.77,0.084,4.617c-0.342,0.335-0.547,0.766-0.632,1.307c-4.602-5.84-7.065-4.246-8.56-0.801
			c3.889-2.272,5.524,6.309,6.198,8.307c2.768,7.066,3.179,15.273,7.611,17.098c0.855,0.326,1.374,1.365,4.006,1.666
			c0.1,0.041,0.218,0.048,0.337,0.021c0.293,0.025,0.583,0.057,0.928,0.063l-0.042,3.184l2.256,0.063l-0.063-3.5
			c2.178-0.191,4.962-0.171,6.03-1.961c4.877-4.539,3.835-7.444,6.367-15.728c1.489-3.992-0.246-10.134,8.159-13.999
			c-3.79,0.784-6.992,1.109-10.078,3.689c0.065-0.43,0.06-0.97-0.084-1.75c-0.03-0.401-0.117-0.906-0.274-1.518
			c0.206-0.86,0.165-1.591,0-2.256c-0.074-0.845-0.391-1.574-0.696-2.298c0.189-1.006,0.139-1.664,0-2.214
			c-0.049-0.688-0.242-1.171-0.401-1.708c0.172-0.532,0.167-1.087,0.021-1.665c-0.032-0.984-0.561-2.034-1.286-3.12
			c0.094-0.56,0.094-1.11-0.063-1.666c-0.036-0.737-0.303-1.466-0.928-2.193c0.16-0.438,0.147-0.875,0-1.307
			c0.034-0.82-0.491-1.64-1.244-2.446c0.014-0.485-0.056-0.858-0.148-1.16c-0.065-1.162-0.534-1.575-0.949-2.129
			c-0.018-0.128-0.036-0.253-0.063-0.379c-0.09-1.097-0.447-2.14-1.455-3.036c-0.046-0.521-0.158-1.031-0.506-1.476
			c-0.105-0.294-0.296-0.58-0.59-0.843c0.009-0.394-0.072-0.326-0.232-0.169c-0.265-0.191-0.577-0.364-1.012-0.527
			C447.201,350.536,447.052,350.397,446.758,350.441L446.758,350.441L446.758,350.441z M446.167,350.652
			c0.107,0.013,0.205,0.098,0.274,0.232c-0.131-0.022-0.273-0.038-0.422-0.042v-0.169
			C446.077,350.649,446.119,350.646,446.167,350.652L446.167,350.652z"/>
	</g>
	
		<path id="path16829-4-5-1-8" inkscape:connector-curvature="0" fill="#FFFFFF" stroke="#FFFFFF" stroke-width="7.0866" stroke-opacity="0.9958" d="
		M286.217,7.779l-7.749,26.719v0.357c6.771-0.528,13.58-0.801,20.483-0.801c6.906,0,13.802,0.274,20.573,0.801v-0.357l-7.749-26.719
		H286.217L286.217,7.779z M222.448,17.932l-24.315,7.926l0.891,27.698l0.09,0.267c12.534-5.197,25.58-9.438,39.009-12.647
		l-0.09-0.267L222.448,17.932L222.448,17.932z M375.546,17.932l-15.585,22.977l-0.09,0.267c13.429,3.208,26.475,7.45,39.009,12.647
		l0.09-0.267l0.891-27.698C399.861,25.858,375.546,17.932,375.546,17.932z M140.514,55.158l-20.663,15.051l9.442,26.095l0.177,0.357
		c10.401-8.898,21.587-17.03,33.31-24.225l-0.267-0.267L140.514,55.158C140.514,55.158,140.514,55.158,140.514,55.158z
		 M457.483,55.158l-21.998,17.011l-0.267,0.267c11.723,7.192,22.909,15.327,33.31,24.225l0.177-0.357l9.442-26.095L457.483,55.158
		L457.483,55.158z M74.162,115.811l-14.964,20.75l17.01,21.908l0.267,0.267c7.208-11.749,15.302-22.887,24.225-33.31l-0.357-0.177
		L74.162,115.811L74.162,115.811L74.162,115.811z M523.836,115.811l-26.185,9.442l-0.357,0.177
		c8.92,10.423,17.014,21.561,24.225,33.31l0.267-0.267l17.01-21.908L523.836,115.811L523.836,115.811L523.836,115.811z
		 M29.807,194.096l-7.836,24.315l22.977,15.585l0.267,0.09c3.208-13.419,7.453-26.484,12.647-39.009l-0.267-0.09L29.807,194.096z
		 M568.187,194.096l-27.788,0.891l-0.267,0.09c5.194,12.525,9.438,25.59,12.647,39.009l0.267-0.09l22.977-15.585L568.187,194.096
		L568.187,194.096z M38.538,274.428l-26.719,7.749v25.561l26.719,7.749h0.357c-0.528-6.771-0.801-13.58-0.801-20.483
		c0-6.906,0.274-13.802,0.801-20.573h-0.357V274.428z M559.102,274.428c0.528,6.771,0.801,13.667,0.801,20.573
		s-0.277,13.715-0.801,20.483h0.357l26.719-7.749v-25.561l-26.719-7.749h-0.357V274.428z M45.215,355.921l-0.267,0.09
		l-22.977,15.585l7.836,24.225l27.788-0.891l0.267-0.09C52.678,382.335,48.424,369.321,45.215,355.921L45.215,355.921z
		 M552.779,355.921c-3.208,13.4-7.459,26.414-12.647,38.919l0.267,0.09l27.788,0.891l7.836-24.225l-22.977-15.585L552.779,355.921
		L552.779,355.921z M76.479,431.268l-0.267,0.267l-17.01,21.908l14.964,20.663l26.185-9.442l0.267-0.177
		C91.719,454.087,83.668,442.985,76.479,431.268C76.479,431.268,76.479,431.268,76.479,431.268z M521.519,431.268
		c-7.192,11.717-15.241,22.822-24.135,33.22l0.267,0.177l26.185,9.442l14.964-20.663l-17.01-21.908L521.519,431.268L521.519,431.268
		L521.519,431.268z M129.557,493.344l-0.267,0.357l-9.442,26.095l20.663,14.964l21.998-17.01l0.267-0.267
		C151.079,510.3,139.941,502.219,129.557,493.344L129.557,493.344z M468.438,493.344c-10.385,8.875-21.522,16.956-33.22,24.135
		l0.267,0.267l21.998,17.01l20.663-14.964l-9.442-26.095L468.438,493.344L468.438,493.344z M199.114,536.092l-0.09,0.267
		l-0.891,27.788l24.315,7.836l15.585-22.977l0.09-0.267C224.695,545.531,211.649,541.289,199.114,536.092L199.114,536.092z
		 M398.88,536.092c-12.534,5.197-25.58,9.438-39.009,12.647l0.09,0.267l15.585,22.977l24.315-7.836l-0.891-27.788L398.88,536.092z
		 M278.468,555.063v0.444l7.749,26.629h25.561l7.749-26.629v-0.444c-6.771,0.528-13.667,0.801-20.573,0.801
		S285.239,555.59,278.468,555.063L278.468,555.063z"/>
</g>
</svg>
