<?xml version="1.0" encoding="utf-8"?>
<!-- Generator: Adobe Illustrator 17.0.0, SVG Export Plug-In . SVG Version: 6.00 Build 0)  -->
<!DOCTYPE svg PUBLIC "-//W3C//DTD SVG 1.1//EN" "http://www.w3.org/Graphics/SVG/1.1/DTD/svg11.dtd">
<svg version="1.1"
	 id="svg3049" inkscape:version="0.48.5 r10040" sodipodi:docname="sabugosa_logo_verde_retangular.svg" xmlns:dc="http://purl.org/dc/elements/1.1/" xmlns:cc="http://creativecommons.org/ns#" xmlns:rdf="http://www.w3.org/1999/02/22-rdf-syntax-ns#" xmlns:svg="http://www.w3.org/2000/svg" xmlns:sodipodi="http://sodipodi.sourceforge.net/DTD/sodipodi-0.dtd" xmlns:inkscape="http://www.inkscape.org/namespaces/inkscape"
	 xmlns="http://www.w3.org/2000/svg" xmlns:xlink="http://www.w3.org/1999/xlink" x="0px" y="0px" width="595.276px"
	 height="841.89px" viewBox="0 0 595.276 841.89" enable-background="new 0 0 595.276 841.89" xml:space="preserve">
<defs>
	
	
		<inkscape:path-effect  id="path-effect3880" bendpath-nodetypes="cc" vertical="false" scale_y_rel="false" prop_scale="1" bendpath="m 134.74976,434.86218 c 13.48496,-129.88664 146.49076,-5.01481 200.02962,0" is_visible="true" effect="bend_path">
		</inkscape:path-effect>
</defs>
<sodipodi:namedview  id="base" inkscape:window-x="1911" inkscape:window-height="1017" inkscape:window-width="1920" inkscape:current-layer="layer1" inkscape:window-maximized="1" inkscape:pageshadow="2" inkscape:document-units="mm" inkscape:pageopacity="0.0" inkscape:window-y="-9" showgrid="false" inkscape:cy="432.19424" inkscape:cx="94.519179" inkscape:zoom="0.70710678" borderopacity="1.0" bordercolor="#666666" pagecolor="#ffffff">
	</sodipodi:namedview>
<g id="layer1" inkscape:groupmode="layer" inkscape:label="Layer 1">
	<g id="g3861" transform="matrix(0.4177373,0,0,0.4177373,216.62923,306.37562)">
		<path id="rect3803" fill="#132F00" fill-opacity="0.9961" d="M-41.964-213.819h476.277c27.137,0,49.136,26.121,49.136,58.343
			V406.41c0,32.222-21.999,58.343-49.136,58.343H-41.964c-27.137,0-49.136-26.121-49.136-58.343v-561.886
			C-91.099-187.698-69.101-213.819-41.964-213.819z"/>
		
			<path id="path3041-0-7-1-8" inkscape:connector-curvature="0" inkscape:export-filename="c:\Users\aporto\Desktop\carimbo.png" inkscape:export-xdpi="92.870003" inkscape:export-ydpi="92.870003" fill="#398C00" fill-opacity="0.9961" d="
			M57.297-53.307c-0.223,0.753,7.026,8.817,20.393,24.264l7.769,8.294l-4.061,6.176c5.174,6.115,9.759,12.002,18.275,18.97
			l4.591-2.206l83.074,84.438c-4.007,5.199-8.875,9.608-16.774,10.853c2.152,4.137,4.778,7.588,9.093,8.647l8.034-1.323
			c33.128,20.676,51.93,58.567,82.81,81.438c6.641,2.105,12.761,2.755,18.098,0.882l17.833,17.47
			c10.113,6.8,20.175,9.91,30.281,10.323c0.535-1.85,1.105-3.679,1.766-5.47c-10.026,0.144-19.646-2.867-26.926-12.264
			l-16.95-17.382c0.718-5.663,2.753-11.064-0.618-17.558c-19.549-28.427-53.435-44.418-79.896-84.173l0.441-8.206
			c-1.156-3.904-2.426-7.774-7.416-8.647c-3.017,7.616-6.963,12.868-11.212,17.294L112.474-6.985l1.678-4.147
			c-8.09-11.117-13.256-14.946-18.363-18.705l-5.385,3.794l-8.563-7.411C65.209-47.537,57.52-54.061,57.297-53.307z"/>
		
			<g id="g3898-4-4-7-8" transform="matrix(1.2706656,1.2706656,-1.2706656,1.2706656,163.40009,-588.39569)" inkscape:export-filename="c:\Users\aporto\Desktop\carimbo.png" inkscape:export-xdpi="92.870003" inkscape:export-ydpi="92.870003">
			<path id="path3043-5-0-4-2" inkscape:connector-curvature="0" fill="#398C00" fill-opacity="0.9961" d="M284.171,147.579v19.765
				h-18.866v-18.548c-9.212,8.816-15.906,24.467-3.281,36.805c1.441,1.099,2.904,2.129,4.622,2.395l-0.309,123.635
				c-2.595,0.531-3.212,1.458-4.525,2.245c-11.235,14.436-3.936,29.11,5.08,38.022v-19.765h18.866v18.575
				c9.212-8.816,15.906-24.493,3.281-36.832c-1.096-0.765-2.058-1.598-3.689-2.095l-0.757-124.084
				c1.958-0.434,3.572-1.097,4.683-2.095C300.513,171.165,293.187,156.492,284.171,147.579z"/>
		</g>
		
			<path id="rect3960-0-4" sodipodi:nodetypes="ccccccccccccccccccccccccccccccccccccccccccccccccccccccccc" inkscape:connector-curvature="0" inkscape:export-filename="c:\Users\aporto\Desktop\carimbo.png" inkscape:export-xdpi="92.870003" inkscape:export-ydpi="92.870003" fill="#398C00" fill-opacity="0.9961" stroke="#132F00" stroke-width="6.0789" stroke-linecap="round" stroke-linejoin="round" stroke-opacity="0.9961" d="
			M198.498-61.03c-1.251,0.19-3.179,1.15-5.54,1.162c-1.305-0.152-2.42,0.044-3.396,0.536c-2.435-0.014-4.021,0.846-5.094,2.145
			v-0.804c-0.945-0.521-1.348,1.055-1.608,3.217c-0.842,0.633-1.472,1.72-1.876,3.038c-3.258,2.183-6.329,5.228-8.489,13.314
			c-3.904,1.436-6.359,6.428-6.612,17.067c-5.417,6.436-3.633,9.866-3.663,14.029c-5.379,4.709-6.984,10.527-5.361,17.425
			c-4.051,3.204-5.522,9.491-4.825,18.408c-5.385,6.773-5.075,13.462-3.574,20.105c-6.439,9.254-3.444,14.212-2.234,20.016
			c-4.776,4.533-2.976,11.739,0.357,19.569c-1.449,1.42-2.32,3.247-2.681,5.54c-19.504-24.751-29.943-17.996-36.279-3.396
			c16.483-9.631,23.412,26.739,26.271,35.207c11.73,29.948,13.474,64.732,32.258,72.469c3.625,1.381,5.823,5.785,16.978,7.059
			c0.425,0.172,0.922,0.204,1.43,0.089c1.242,0.107,2.472,0.242,3.932,0.268l-0.177,13.493l9.561,0.268l-0.269-14.833
			c9.23-0.81,21.03-0.725,25.556-8.31c20.673-19.24,16.256-31.55,26.986-66.661c6.311-16.919-1.042-42.953,34.581-59.333
			c-16.063,3.321-29.635,4.701-42.713,15.638c0.274-1.824,0.254-4.11-0.357-7.417c-0.129-1.699-0.497-3.839-1.162-6.434
			c0.875-3.644,0.699-6.742,0-9.561c-0.313-3.581-1.658-6.672-2.949-9.74c0.803-4.262,0.591-7.055,0-9.383
			c-0.209-2.916-1.025-4.965-1.698-7.238c0.73-2.255,0.706-4.606,0.089-7.059c-0.137-4.17-2.38-8.622-5.451-13.225
			c0.399-2.375,0.396-4.704-0.269-7.059c-0.154-3.125-1.282-6.215-3.932-9.293c0.677-1.856,0.622-3.708,0-5.54
			c0.143-3.476-2.083-6.952-5.272-10.365c0.06-2.055-0.237-3.638-0.625-4.915c-0.275-4.924-2.264-6.677-4.021-9.025
			c-0.077-0.543-0.154-1.074-0.269-1.608c-0.38-4.651-1.896-9.071-6.165-12.867c-0.194-2.21-0.669-4.368-2.145-6.255
			c-0.446-1.245-1.253-2.46-2.502-3.574c0.037-1.671-0.305-1.382-0.983-0.715c-1.123-0.809-2.447-1.542-4.289-2.234
			c0.363-2.816-0.269-3.407-1.519-3.217L198.498-61.03z M195.996-60.136c0.454,0.056,0.868,0.417,1.161,0.983
			c-0.556-0.091-1.159-0.162-1.787-0.179v-0.715C195.613-60.151,195.792-60.161,195.996-60.136L195.996-60.136z"/>
		
			<g id="g16827-9-5" transform="matrix(2.2290038,0,0,2.2290038,372.04724,471.37911)" inkscape:export-filename="c:\Users\aporto\Desktop\carimbo.png" inkscape:export-xdpi="92.870003" inkscape:export-ydpi="92.870003" inkscape:label="Gear20">
			
				<path id="path16829-4-5" inkscape:connector-curvature="0" fill="none" stroke="#398C00" stroke-width="4.0345" stroke-opacity="0.9958" d="
				M12.733-183.381l8.636-0.695l1.561,0.058l10.418,3.02v9.988l-10.418,3.02l-1.561,0.058l-8.636-0.695l-2.205,13.923l8.427,2.008
				l1.466,0.538l8.975,6.092l-3.086,9.498l-10.842-0.346l-1.503-0.428l-7.997-3.329l-6.4,12.56l7.395,4.513l1.229,0.965l6.653,8.568
				l-5.87,8.079l-10.204-3.68l-1.297-0.87l-6.577-5.638l-9.968,9.968l5.638,6.577l0.87,1.297l3.68,10.204l-8.079,5.87l-8.568-6.653
				l-0.965-1.229l-4.513-7.395l-12.56,6.4l3.329,7.997l0.428,1.503l0.346,10.842l-9.498,3.086l-6.092-8.975l-0.538-1.466
				l-2.008-8.427l-13.923,2.205l0.695,8.636l-0.058,1.561l-3.02,10.418h-9.988l-3.02-10.418l-0.058-1.561l0.695-8.636l-13.923-2.205
				l-2.008,8.427l-0.538,1.466l-6.092,8.975l-9.498-3.086l0.346-10.842l0.428-1.503l3.329-7.997l-12.56-6.4l-4.513,7.395
				l-0.965,1.229l-8.568,6.653l-8.079-5.87l3.68-10.204l0.87-1.297l5.638-6.577l-9.968-9.968l-6.577,5.638l-1.297,0.87l-10.204,3.68
				l-5.87-8.079l6.653-8.568l1.229-0.965l7.395-4.513l-6.4-12.56l-7.997,3.329l-1.503,0.428l-10.842,0.346l-3.086-9.498l8.975-6.092
				l1.466-0.538l8.427-2.008l-2.205-13.923l-8.636,0.695l-1.561-0.058l-10.418-3.02v-9.988l10.418-3.02l1.561-0.058l8.636,0.695
				l2.205-13.923l-8.427-2.008l-1.466-0.538l-8.975-6.092l3.086-9.498l10.842,0.346l1.503,0.428l7.997,3.329l6.4-12.56l-7.395-4.513
				l-1.229-0.965l-6.653-8.568l5.87-8.079l10.204,3.68l1.297,0.87l6.577,5.638l9.968-9.968l-5.638-6.577l-0.87-1.297l-3.68-10.204
				l8.079-5.87l8.568,6.653l0.965,1.229l4.513,7.395l12.56-6.4l-3.329-7.997l-0.428-1.503l-0.346-10.842l9.498-3.086l6.092,8.975
				l0.538,1.466l2.008,8.427l13.923-2.205l-0.695-8.636l0.058-1.561l3.02-10.418h9.988l3.02,10.418l0.058,1.561l-0.695,8.636
				l13.923,2.205l2.008-8.427l0.538-1.466l6.092-8.975l9.498,3.086l-0.346,10.842l-0.428,1.503l-3.329,7.997l12.56,6.4l4.513-7.395
				l0.965-1.229l8.568-6.653l8.079,5.87l-3.68,10.204l-0.87,1.297l-5.638,6.577l9.968,9.968l6.577-5.638l1.297-0.87l10.204-3.68
				l5.87,8.079l-6.653,8.568l-1.229,0.965l-7.395,4.513l6.4,12.56l7.997-3.329l1.503-0.428l10.842-0.346l3.086,9.498l-8.975,6.092
				l-1.466,0.538l-8.427,2.008L12.733-183.381z"/>
		</g>
		<g id="layer5" transform="translate(1201.5389,-307.38827)" inkscape:label="teste">
		</g>
		<g id="layer1-2" transform="translate(1201.5389,-307.38827)" inkscape:label="Layer 1">
		</g>
		<g id="layer2" transform="translate(1201.5389,-307.38827)" inkscape:label="Layer">
		</g>
		<g id="text3805">
			<path id="path3837" inkscape:connector-curvature="0" fill="#398C00" fill-opacity="0.9961" d="M-66.611,397.026
				c0.218-2.075,1.147-3.781,2.786-5.119c1.639-1.338,3.496-1.898,5.57-1.68c2.13,0.218,3.863,1.147,5.2,2.786
				c1.337,1.639,1.897,3.522,1.678,5.65c-0.055,0.165-0.083,0.438-0.082,0.82c0.11,1.748,0.779,3.195,2.008,4.342
				c1.229,1.146,2.689,1.692,4.381,1.637c1.748-0.108,3.195-0.763,4.342-1.965c1.091-1.256,1.637-2.731,1.637-4.424
				c-0.108-1.693-0.777-3.113-2.006-4.259c-1.229-1.146-2.689-1.692-4.381-1.637c-5.188,0.163-9.693-1.53-13.515-5.079
				c-3.823-3.549-5.816-7.917-5.98-13.104c-0.164-5.187,1.529-9.691,5.078-13.514c3.549-3.823,7.918-5.816,13.105-5.979
				c4.423-0.165,8.422,1.091,11.999,3.767c3.577,2.676,5.884,6.171,6.923,10.483c0.545,2.021,0.272,3.947-0.82,5.775
				c-1.092,1.829-2.675,2.989-4.752,3.481c-2.02,0.547-3.944,0.274-5.773-0.819c-1.829-1.092-2.989-2.676-3.481-4.751
				c-0.218-0.765-0.655-1.406-1.311-1.925c-0.656-0.518-1.42-0.751-2.293-0.697c-0.928,0.055-1.734,0.437-2.416,1.147
				c-0.682,0.71-0.997,1.529-0.944,2.457c0.055,0.983,0.437,1.802,1.147,2.457c0.71,0.655,1.529,0.982,2.457,0.982
				c5.952-0.218,11.099,1.693,15.44,5.734c4.341,4.041,6.621,9.038,6.839,14.99c0.163,5.951-1.776,11.083-5.817,15.398
				c-4.039,4.369-9.008,6.636-14.905,6.799c-5.952,0.218-11.099-1.693-15.44-5.734c-4.341-4.041-6.621-9.037-6.839-14.988
				C-66.773,398.692-66.719,397.681-66.611,397.026L-66.611,397.026z"/>
			<path id="path3839" inkscape:connector-curvature="0" fill="#398C00" fill-opacity="0.9961" d="M0.939,355.418
				c5.951,0,11.015,2.102,15.193,6.306c4.178,4.204,6.266,9.255,6.267,15.153v34.812c0,2.13-0.751,3.945-2.252,5.447
				c-1.501,1.501-3.29,2.252-5.364,2.252c-2.13,0-3.946-0.751-5.448-2.252c-1.502-1.501-2.253-3.317-2.253-5.447v-11.551H-5.205
				v11.551c0,2.13-0.751,3.945-2.252,5.447c-1.501,1.501-3.29,2.252-5.364,2.252c-2.13,0-3.945-0.751-5.447-2.252
				c-1.501-1.501-2.252-3.317-2.252-5.447v-34.812c0-5.897,2.102-10.948,6.307-15.153C-10.01,357.52-4.959,355.418,0.939,355.418z
				 M-5.205,384.823H7.08v-7.946c0-1.693-0.6-3.14-1.801-4.341c-1.201-1.201-2.648-1.801-4.341-1.801c-1.693,0-3.14,0.6-4.342,1.801
				c-1.202,1.201-1.802,2.648-1.802,4.341V384.823z"/>
			<path id="path3841" inkscape:connector-curvature="0" fill="#398C00" fill-opacity="0.9961" d="M61.064,383.021
				c4.204,4.204,6.306,9.228,6.307,15.07c0,5.842-2.075,10.839-6.225,14.989c-4.15,4.15-9.147,6.225-14.989,6.225H34.853
				c-2.13,0-3.945-0.751-5.447-2.252c-1.501-1.501-2.252-3.317-2.252-5.447v-47.18c0-2.075,0.751-3.863,2.252-5.364
				c1.501-1.501,3.317-2.252,5.447-2.252h7.454c5.516,0,10.212,1.911,14.089,5.734c3.877,3.823,5.815,8.437,5.815,13.843
				C62.212,378.625,61.829,380.836,61.064,383.021L61.064,383.021z M46.157,403.987c1.638,0,3.031-0.573,4.178-1.72
				c1.147-1.146,1.721-2.539,1.721-4.177c0-1.201-0.369-2.307-1.106-3.317c-0.737-1.01-1.707-1.733-2.908-2.17
				c-2.785-0.928-4.478-2.84-5.079-5.734c-0.545-2.95,0.274-5.379,2.457-7.289c0.983-0.82,1.475-1.885,1.475-3.195
				c0-1.093-0.437-2.063-1.31-2.91c-0.873-0.846-1.884-1.296-3.032-1.35v31.86H46.157z"/>
			<path id="path3843" inkscape:connector-curvature="0" fill="#398C00" fill-opacity="0.9961" d="M70.665,364.509
				c0-2.13,0.751-3.931,2.252-5.405c1.501-1.474,3.289-2.211,5.364-2.211c2.13,0,3.945,0.737,5.447,2.211
				c1.501,1.474,2.252,3.276,2.252,5.405v34.812c0,1.691,0.601,3.138,1.802,4.339c1.201,1.201,2.649,1.802,4.342,1.802
				c1.693,0,3.14-0.601,4.341-1.802c1.201-1.201,1.801-2.648,1.801-4.339v-34.812c0-2.13,0.751-3.931,2.253-5.405
				c1.502-1.474,3.318-2.211,5.448-2.211c2.075,0,3.863,0.737,5.364,2.211c1.501,1.474,2.252,3.276,2.252,5.405v34.812
				c0,5.897-2.102,10.948-6.307,15.153c-4.204,4.204-9.255,6.307-15.153,6.307c-5.952,0-11.017-2.102-15.194-6.307
				c-4.177-4.204-6.265-9.255-6.265-15.153L70.665,364.509z"/>
			<path id="path3845" inkscape:connector-curvature="0" fill="#398C00" fill-opacity="0.9961" d="M160.769,388.097v11.223
				c0,5.897-2.089,10.948-6.267,15.153c-4.178,4.204-9.242,6.307-15.193,6.307c-5.897,0-10.949-2.102-15.154-6.307
				c-4.205-4.204-6.308-9.255-6.308-15.153v-22.444c0-5.952,2.103-11.017,6.308-15.194c4.205-4.177,9.256-6.265,15.154-6.265
				c4.586,0,8.749,1.338,12.489,4.013c3.74,2.675,6.348,6.17,7.823,10.485c0.71,2.02,0.601,3.971-0.327,5.855
				c-0.928,1.884-2.403,3.181-4.423,3.891c-2.021,0.71-3.973,0.601-5.857-0.327c-1.884-0.928-3.181-2.402-3.891-4.422
				c-0.382-1.256-1.119-2.267-2.211-3.031c-1.092-0.764-2.293-1.146-3.603-1.146c-1.693,0-3.14,0.6-4.342,1.801
				c-1.202,1.201-1.802,2.648-1.802,4.341v22.444c0,1.691,0.601,3.138,1.802,4.339c1.201,1.201,2.648,1.802,4.341,1.802
				c1.692,0,3.139-0.601,4.341-1.802c1.201-1.201,1.802-2.648,1.802-4.339v-3.522h-4.339c-2.076,0-3.865-0.751-5.367-2.253
				c-1.501-1.502-2.252-3.318-2.252-5.448c0-2.13,0.751-3.945,2.252-5.447c1.501-1.501,3.29-2.252,5.367-2.252h12.038
				c2.076,0,3.865,0.751,5.367,2.252C160.018,384.152,160.769,385.968,160.769,388.097L160.769,388.097z"/>
			<path id="path3847" inkscape:connector-curvature="0" fill="#398C00" fill-opacity="0.9961" d="M192.004,399.321v-22.444
				c0-1.693-0.601-3.14-1.802-4.341c-1.202-1.201-2.648-1.801-4.341-1.801c-1.692,0-3.139,0.6-4.341,1.801
				c-1.202,1.201-1.802,2.648-1.802,4.341v22.444c0,1.691,0.601,3.138,1.802,4.339c1.201,1.201,2.648,1.802,4.341,1.802
				c1.692,0,3.139-0.601,4.341-1.802C191.403,402.459,192.004,401.012,192.004,399.321z M207.322,376.877v22.444
				c0,5.951-2.089,11.015-6.267,15.193c-4.178,4.178-9.242,6.267-15.193,6.267c-5.897,0-10.949-2.089-15.154-6.267
				c-4.205-4.178-6.308-9.242-6.308-15.193v-22.444c0-5.897,2.103-10.948,6.308-15.153c4.205-4.204,9.256-6.306,15.154-6.307
				c5.951,0,11.015,2.102,15.193,6.307C205.233,365.928,207.322,370.979,207.322,376.877z"/>
			<path id="path3849" inkscape:connector-curvature="0" fill="#398C00" fill-opacity="0.9961" d="M210.946,397.026
				c0.218-2.075,1.147-3.781,2.786-5.119c1.639-1.338,3.496-1.898,5.57-1.68c2.13,0.218,3.863,1.147,5.2,2.786
				c1.337,1.639,1.897,3.522,1.678,5.65c-0.055,0.165-0.082,0.438-0.082,0.82c0.11,1.748,0.779,3.195,2.008,4.342
				c1.229,1.146,2.689,1.692,4.381,1.637c1.748-0.108,3.195-0.763,4.342-1.965c1.091-1.256,1.637-2.731,1.637-4.424
				c-0.108-1.693-0.777-3.113-2.006-4.259c-1.229-1.146-2.689-1.692-4.381-1.637c-5.188,0.163-9.693-1.53-13.515-5.079
				c-3.823-3.549-5.816-7.917-5.98-13.104c-0.164-5.187,1.529-9.691,5.078-13.514c3.549-3.823,7.918-5.816,13.105-5.979
				c4.423-0.165,8.422,1.091,11.999,3.767c3.577,2.676,5.884,6.171,6.923,10.483c0.545,2.021,0.272,3.947-0.82,5.775
				c-1.092,1.829-2.675,2.989-4.752,3.481c-2.02,0.547-3.944,0.274-5.773-0.819c-1.829-1.092-2.989-2.676-3.481-4.751
				c-0.218-0.765-0.655-1.406-1.311-1.925c-0.656-0.518-1.42-0.751-2.293-0.697c-0.928,0.055-1.734,0.437-2.416,1.147
				c-0.682,0.71-0.997,1.529-0.944,2.457c0.055,0.983,0.437,1.802,1.147,2.457c0.71,0.655,1.529,0.982,2.457,0.982
				c5.952-0.218,11.099,1.693,15.44,5.734c4.341,4.041,6.621,9.038,6.839,14.99c0.163,5.951-1.776,11.083-5.817,15.398
				c-4.039,4.369-9.008,6.636-14.905,6.799c-5.952,0.218-11.099-1.693-15.44-5.734c-4.341-4.041-6.621-9.037-6.839-14.988
				C210.784,398.692,210.838,397.681,210.946,397.026L210.946,397.026z"/>
			<path id="path3851" inkscape:connector-curvature="0" fill="#398C00" fill-opacity="0.9961" d="M278.496,355.418
				c5.951,0,11.015,2.102,15.193,6.306c4.178,4.204,6.267,9.255,6.267,15.153v34.812c0,2.13-0.751,3.945-2.252,5.447
				c-1.501,1.501-3.29,2.252-5.364,2.252c-2.13,0-3.946-0.751-5.448-2.252c-1.502-1.501-2.253-3.317-2.253-5.447v-11.551h-12.286
				v11.551c0,2.13-0.751,3.945-2.252,5.447c-1.501,1.501-3.289,2.252-5.364,2.252c-2.13,0-3.945-0.751-5.447-2.252
				c-1.501-1.501-2.252-3.317-2.252-5.447v-34.812c0-5.897,2.102-10.948,6.307-15.153
				C267.547,357.52,272.598,355.418,278.496,355.418z M272.352,384.823h12.286v-7.946c0-1.693-0.6-3.14-1.801-4.341
				c-1.201-1.201-2.648-1.801-4.341-1.801c-1.693,0-3.14,0.6-4.342,1.801c-1.202,1.201-1.802,2.648-1.802,4.341L272.352,384.823z"/>
			<path id="path3853" inkscape:connector-curvature="0" fill="#398C00" fill-opacity="0.9961" d="M316.997,406.242
				c1.475,1.501,2.212,3.317,2.212,5.447c0,2.13-0.737,3.931-2.211,5.405c-1.474,1.474-3.276,2.211-5.405,2.211
				s-3.946-0.737-5.448-2.211c-1.502-1.474-2.253-3.276-2.253-5.405c0-2.13,0.751-3.946,2.253-5.448
				c1.502-1.502,3.318-2.253,5.448-2.253C313.723,403.988,315.524,404.739,316.997,406.242z"/>
			<path id="path3855" inkscape:connector-curvature="0" fill="#398C00" fill-opacity="0.9961" d="M351.179,399.321v-22.444
				c0-1.693-0.601-3.14-1.802-4.341c-1.202-1.201-2.648-1.801-4.341-1.801c-1.692,0-3.139,0.6-4.341,1.801
				c-1.202,1.201-1.802,2.648-1.802,4.341v22.444c0,1.691,0.601,3.138,1.802,4.339c1.201,1.201,2.648,1.802,4.341,1.802
				c1.692,0,3.139-0.601,4.341-1.802C350.579,402.459,351.179,401.012,351.179,399.321z M366.497,376.877v22.444
				c0,5.951-2.089,11.015-6.267,15.193c-4.178,4.178-9.242,6.267-15.193,6.267c-5.897,0-10.949-2.089-15.154-6.267
				c-4.205-4.178-6.308-9.242-6.308-15.193v-22.444c0-5.897,2.103-10.948,6.308-15.153c4.205-4.204,9.256-6.306,15.154-6.307
				c5.951,0,11.015,2.102,15.193,6.307C364.408,365.928,366.497,370.979,366.497,376.877z"/>
			<path id="path3857" inkscape:connector-curvature="0" fill="#398C00" fill-opacity="0.9961" d="M411.485,377.779
				c0,4.423-1.256,8.463-3.767,12.121c3.549,3.986,5.324,8.655,5.324,14.008v7.781c0,2.075-0.751,3.863-2.252,5.364
				c-1.501,1.501-3.317,2.252-5.447,2.252c-2.076,0-3.865-0.751-5.367-2.252c-1.501-1.501-2.252-3.289-2.252-5.364v-7.781
				c0-1.42-0.464-2.649-1.392-3.687c-0.928-1.038-2.184-1.748-3.767-2.13c-1.693-0.382-3.1-1.241-4.219-2.58
				c-1.12-1.338-1.707-2.881-1.761-4.628c-0.054-1.747,0.424-3.331,1.434-4.75c1.01-1.42,2.361-2.375,4.054-2.867
				c1.256-0.382,2.253-1.064,2.991-2.047c0.737-0.983,1.106-2.13,1.106-3.439c0-1.585-0.56-2.923-1.68-4.014
				c-1.12-1.091-2.471-1.637-4.054-1.637h-4.177v39.561c0,2.075-0.737,3.863-2.212,5.364c-1.475,1.501-3.277,2.252-5.407,2.252
				s-3.945-0.751-5.447-2.252c-1.501-1.501-2.252-3.289-2.252-5.364v-47.18c0-2.13,0.751-3.945,2.252-5.447
				c1.501-1.501,3.317-2.252,5.447-2.252h11.796c5.787,0,10.742,2.048,14.865,6.143C409.424,367.048,411.485,371.99,411.485,377.779
				L411.485,377.779z"/>
			<path id="path3859" inkscape:connector-curvature="0" fill="#398C00" fill-opacity="0.9961" d="M459.123,388.097v11.223
				c0,5.897-2.089,10.948-6.267,15.153c-4.178,4.204-9.242,6.307-15.193,6.307c-5.897,0-10.949-2.102-15.154-6.307
				c-4.205-4.204-6.308-9.255-6.308-15.153v-22.444c0-5.952,2.103-11.017,6.308-15.194c4.205-4.177,9.256-6.265,15.154-6.265
				c4.586,0,8.749,1.338,12.489,4.013c3.74,2.675,6.348,6.17,7.823,10.485c0.71,2.02,0.601,3.971-0.327,5.855
				c-0.928,1.884-2.403,3.181-4.423,3.891c-2.021,0.71-3.973,0.601-5.857-0.327c-1.884-0.928-3.181-2.402-3.891-4.422
				c-0.382-1.256-1.119-2.267-2.211-3.031c-1.092-0.764-2.293-1.146-3.603-1.146c-1.693,0-3.14,0.6-4.342,1.801
				c-1.201,1.201-1.802,2.648-1.802,4.341v22.444c0,1.691,0.601,3.138,1.802,4.339c1.201,1.201,2.648,1.802,4.341,1.802
				c1.692,0,3.139-0.601,4.341-1.802c1.201-1.201,1.802-2.648,1.802-4.339v-3.522h-4.339c-2.076,0-3.865-0.751-5.367-2.253
				c-1.501-1.502-2.252-3.318-2.252-5.448c0-2.13,0.751-3.945,2.252-5.447c1.501-1.501,3.29-2.252,5.367-2.252h12.038
				c2.076,0,3.865,0.751,5.367,2.252C458.372,384.152,459.123,385.968,459.123,388.097L459.123,388.097z"/>
		</g>
	</g>
</g>
</svg>
