<?xml version="1.0" encoding="UTF-8" standalone="no"?>
<!-- Created with Inkscape (http://www.inkscape.org/) -->

<svg
   xmlns:dc="http://purl.org/dc/elements/1.1/"
   xmlns:cc="http://creativecommons.org/ns#"
   xmlns:rdf="http://www.w3.org/1999/02/22-rdf-syntax-ns#"
   xmlns:svg="http://www.w3.org/2000/svg"
   xmlns="http://www.w3.org/2000/svg"
   xmlns:sodipodi="http://sodipodi.sourceforge.net/DTD/sodipodi-0.dtd"
   xmlns:inkscape="http://www.inkscape.org/namespaces/inkscape"
   width="744.09448819"
   height="1052.3622047"
   id="svg4386"
   version="1.1"
   inkscape:version="0.48.5 r10040"
   sodipodi:docname="sabugosa_rabiscoscopio.svg">
  <defs
     id="defs4388" />
  <sodipodi:namedview
     id="base"
     pagecolor="#ffffff"
     bordercolor="#666666"
     borderopacity="1.0"
     inkscape:pageopacity="0.0"
     inkscape:pageshadow="2"
     inkscape:zoom="7.9195959"
     inkscape:cx="391.43378"
     inkscape:cy="485.37768"
     inkscape:document-units="px"
     inkscape:current-layer="layer1"
     showgrid="false"
     inkscape:window-width="1920"
     inkscape:window-height="1017"
     inkscape:window-x="1911"
     inkscape:window-y="-9"
     inkscape:window-maximized="1" />
  <metadata
     id="metadata4391">
    <rdf:RDF>
      <cc:Work
         rdf:about="">
        <dc:format>image/svg+xml</dc:format>
        <dc:type
           rdf:resource="http://purl.org/dc/dcmitype/StillImage" />
        <dc:title />
      </cc:Work>
    </rdf:RDF>
  </metadata>
  <g
     inkscape:label="Layer 1"
     inkscape:groupmode="layer"
     id="layer1">
    <g
       inkscape:export-ydpi="92.870003"
       inkscape:export-xdpi="92.870003"
       inkscape:export-filename="c:\Users\aporto\Desktop\carimbo.png"
       style="stroke:#398c00;stroke-width:0.17945236;stroke-miterlimit:4;stroke-opacity:0.99578091000000002;stroke-dasharray:none;display:inline"
       inkscape:label="Gear20"
       transform="matrix(2.2290038,0,0,2.2290038,385.71429,438.07647)"
       id="g16827-9-5-2">
      <path
         id="path16829-4-5-4"
         style="fill:none;stroke:#398c00;stroke-width:0.17945236;stroke-miterlimit:4;stroke-opacity:0.99578091;stroke-dasharray:none"
         d="M 1.4226158,65.91077 0.67330804,59.028206 12.716244,55.116683 l 0.448984,-0.425657 0.434031,-0.427157 0.41945,-0.428783 0.405241,-0.430538 0.391404,-0.432423 0.377938,-0.434434 0.364844,-0.436574 0.352122,-0.438843 0.33977,-0.44124 0.327792,-0.443766 0.316184,-0.446419 0.304948,-0.449201 0.294084,-0.452111 0.283591,-0.45515 0.27347,-0.458317 0.263722,-0.461612 0.254343,-0.465036 0.245338,-0.468588 0.236703,-0.472268 0.228441,-0.476077 0.220549,-0.480013 0.21303,-0.484079 0.205883,-0.488273 0.199106,-0.492594 0.192703,-0.497045 0.186669,-0.501623 0.181008,-0.50633 0.175719,-0.511165 0.170801,-0.516129 0.166255,-0.521221 0.162081,-0.526441 0.158277,-0.53179 0.154847,-0.537266 0.151787,-0.542872 0.149099,-0.548605 0.146783,-0.554468 0.144838,-0.560457 0.143265,-0.566576 0.142064,-0.572823 0.141235,-0.579198 0.140776,-0.585701 0.140691,-0.592333 0.140975,-0.599094 0.141633,-0.605982 0.142661,-0.612999 0.144061,-0.620144 0.145834,-0.627417 0.147977,-0.63482 0.150492,-0.642349 0.15338,-0.650008 0.156637,-0.657795 0.160269,-0.66571 0.164269,-0.673754 0.168644,-0.681925 0.173388,-0.690226 0.178506,-0.698653 0.183994,-0.707211 0.189854,-0.715896 0.196086,-0.724709 0.202689,-0.733651 0.209664,-0.742721 0.217011,-0.75192 0.22473,-0.761246 0.232819,-0.770702 2.689863,2.818034 -0.880964,4.346112 -4.065718,16.31895 3.387364,3.731071 3.504348,3.579212 3.66857,3.372921 3.880026,3.112196 5.053908,1.02866 4.535577,-0.551989 9.449289,9.253012 4.511474,2.733125 5.10242,2.516106 5.101693,1.881544 4.509288,0.829435 -0.123839,1.053888 L 70.662,82.435 l 6.659,7.768 1.028,1.532 4.346,12.052 -9.542,6.933 -10.119,-7.858 -1.14,-1.451 -5.33,-8.734 -14.834,7.559 3.932,9.445 0.505,1.775 0.409,12.805 -11.218,3.645 -7.195,-10.6 -0.635,-1.732 -2.371,-9.953 -16.444,2.604 0.821,10.199 -0.069,1.844 -3.567,12.304 -11.796,0 -3.567,-12.304 -0.069,-1.844 0.821,-10.199 -16.444,-2.604 -2.371,9.953 -0.635,1.732 -7.195,10.6 -11.218,-3.645 0.409,-12.805 0.505,-1.775 3.932,-9.445 -14.834,-7.559 -5.33,8.734 -1.14,1.451 -10.119,7.858 -9.542,-6.933 4.346,-12.052 1.028,-1.532 6.659,-7.768 -11.773,-11.773 -7.768,6.659 -1.532,1.028 -12.052,4.346 -6.933,-9.542 7.858,-10.119 1.451,-1.14 8.734,-5.33 -7.559,-14.834 -9.445,3.932 -1.775,0.505 -12.805,0.409 -3.645,-11.218 10.6,-7.195 1.732,-0.635 9.953,-2.371 -2.604,-16.444 -10.199,0.821 -1.844,-0.069 -12.304,-3.567 0,-11.796 12.304,-3.567 1.844,-0.069 10.199,0.821 2.604,-16.444 -9.953,-2.371 -1.732,-0.635 -10.6,-7.195 3.645,-11.218 12.805,0.409 1.775,0.505 9.445,3.932 7.559,-14.834 -8.734,-5.33 -1.451,-1.14 -7.858,-10.119 6.933,-9.542 12.052,4.346 1.532,1.028 7.768,6.659 11.773,-11.773 -6.659,-7.768 -1.028,-1.532 -4.346,-12.052 9.542,-6.933 10.119,7.858 1.14,1.451 5.33,8.734 14.834,-7.559 -3.932,-9.445 -0.505,-1.775 -0.409,-12.805 11.218,-3.645 7.195,10.6 0.635,1.732 2.371,9.953 16.444,-2.604 -0.821,-10.199 0.069,-1.844 3.567,-12.304 11.796,0 3.567,12.304 0.069,1.844 -0.821,10.199 16.444,2.604 2.371,-9.953 0.635,-1.732 7.195,-10.6 11.218,3.645 -0.409,12.805 -0.505,1.775 -3.932,9.445 14.834,7.559 5.33,-8.734 1.14,-1.451 10.119,-7.858 9.542,6.933 -4.346,12.052 -1.028,1.532 -6.659,7.768 11.773,11.773 7.768,-6.659 1.532,-1.028 12.052,-4.346 6.933,9.542 -7.858,10.119 -1.451,1.14 -8.734,5.33 7.559,14.834 9.445,-3.932 1.775,-0.505 12.805,-0.409 3.645,11.218 -10.6,7.195 -1.732,0.635 -9.953,2.371 2.604,16.444 10.199,-0.821 1.844,0.069 12.304,3.567 0,11.796 -12.304,3.567 -1.844,0.069 -10.199,-0.821 -2.604,16.444 9.953,2.371 1.732,0.635 10.6,7.195 -3.645,11.218 -12.805,-0.409 -1.775,-0.505 -9.445,-3.932 -7.559,14.834 8.734,5.33 1.451,1.14 7.858,10.119 -6.933,9.542 -12.052,-4.346 -1.532,-1.028 -7.768,-6.659 -2.374311,2.147718 -5.880872,-0.940591 0.826025,-2.788807 -3.928758,-0.281871 -3.752952,-1.067943 -3.480114,-2.015812 -3.110247,-3.12548 -8.986638,-9.210976 0.651183,-4.489371 -0.973637,-4.819721 -10.779131,-12.651608 -12.750152,-12.038656 -0.763824,-0.891995 0.792327,-2.949532 0.381762,-2.881999 0.32385,-2.8330084 0.618596,-2.8025592 1.265995,-2.7906519 2.26605,-2.7972862 3.61876,-2.8224623 5.324124,-2.86618 -2.784665,0.5547987 -2.685195,0.5329694 -2.596907,0.5744829 -2.519799,0.6793394 -2.453872,0.8475387 -2.399124,1.07908096 -2.355558,1.37396624 -2.323172,1.7321943 -0.168237,-3.49090927 -0.546769,-3.04227833 0,-4.5003288 -1.387952,-4.5844472 0,-4.43023 -0.799124,-3.406791 0.04206,-3.322673 -1.772533,-5.785587 2.007452,-1.878642 2.092353,4.720089 -0.05608,3.743264 0.911281,3.841402 0,4.96298 1.149617,3.070317 24.394305,-24.688719 4.570428,1.738444 3.097716,-0.54867 2.819117,-0.822687 2.551269,-1.074158 2.294168,-1.303083 2.047818,-1.509461 1.812216,-1.693293 1.587363,-1.854579 1.373259,-1.993318 1.169905,-2.10951 0.977299,-2.203157 0.795442,-2.274257 0.624335,-2.32281 0.463976,-2.348817 0.314367,-2.352278 0.175506,-2.333193 0.04739,-2.29156 -13.30471,13.30471 -12.701863,-12.701862 12.491567,-12.491567 -1.149615,0 -1.123139,0.02971 -1.13296,0.06583 -1.139762,0.102686 -1.143545,0.140294 -1.14431,0.17865 -1.142055,0.217754 -1.136783,0.257605 -1.12849,0.298204 -1.11718,0.339551 -1.102851,0.381647 -1.085502,0.424489 -1.065134,0.468079 -1.041749,0.512418 -1.015344,0.557504 -0.985921,0.603338 -0.953478,0.64992 -0.918017,0.69725 -0.879537,0.745327 -0.838038,0.794152 -0.79352,0.843725 -0.745984,0.894046 -0.695429,0.945115 -0.641854,0.996932 -0.585262,1.049496 -0.52565,1.102808 -0.463019,1.156868 -0.39737,1.211675 -0.328702,1.267232 -0.257016,1.323535 -0.182309,1.380586 -0.104585,1.438385 -0.02384,1.496932 1.500109,4.724645 -18.476131,17.598942 -0.421303,-0.613879 -0.239474,-2.642895 -1.864622,-4.374151 0,-2.607668 -2.48149,-4.89288 -0.294414,-2.313254 -1.8926615,-4.247974 -0.1261775,-0.757064 -2.9020812,-6.070537 -1.0094195,-2.944141 -1.1776561,-1.682365 -0.4626507,-0.336474 -2.0328588,-1.051478 -0.582601,-1.025396 -1.39282711,-0.410842 -1.34724449,0.468878 -1.5982477,0.252355 -1.7314349,0.613864 -0.6659365,0.01702 -0.7570646,1.51413 -0.8832422,1.430011 -4.0096392,6.280832 -3.112376,8.033298 -1.724425,6.617306 -2.523549,8.201533 -2.271194,8.678205 -1.56907,8.797549 -3.015377,-2.950972 0.771084,-6.954136 -20.146332,-20.665061 0.883242,-2.187076 -9.729683,-9.911939 -2.846002,2.004819 -4.542388,-3.92552 -12.982257,-10.542827 -0.01402,0.02804 10.795182,12.856079 4.121796,4.388171 -2.145016,3.280614 9.673604,10.052136 2.43943,-1.177656 24.287842,24.567098 2.109006,2.044602 -0.824886,9.1946557 0.168237,9.224973 -1.275795,2.6076672 -3.250409,-3.6992064 -2.87711,-2.43797572 -2.531297,-1.30744242 -2.212966,-0.30760657 -1.922121,0.56153184 -1.65876,1.29997287 -1.422882,1.9077163 -1.214488,2.3847625 2.706555,-0.7538012 2.314863,0.8698619 1.953427,2.0855463 1.622248,2.8932517 1.321324,3.292979 1.050656,3.284726 0.810246,2.868496 0.60009,2.044287 2.781896,9.303705 -3.703039,1.498917 -2.738003,-8.068801 -0.96736,-3.364732 -14.286091,14.215992 -4.570427,-1.542169 -5.918038,1.370756 -4.848614,2.375654 -3.864524,3.20051 -2.965771,3.845323 -2.152351,4.310093 -1.424268,4.594821 -0.781519,4.699506 -0.224106,4.624149 13.31873,-13.304688 12.701863,12.701818 -12.505587,12.505587 4.652951,-0.204501 4.713768,-0.848402 4.561649,-1.544457 4.19659,-2.292661 3.618594,-3.093018 2.827659,-3.945525 1.823786,-4.850183 0.606976,-5.806993 -1.079518,-3.897481 7.556627,-7.654765 -2.13972,-7.006166 3.703039,-1.838805 3.45712,11.017052 0.380657,1.168935 0.392726,1.135522 0.407129,1.099355 0.423863,1.060434 0.442931,1.018761 0.46433,0.974334 0.488062,0.927154 0.514127,0.877221 0.542524,0.824534 0.573254,0.769095 0.606315,0.710901 0.64171,0.649956 0.679436,0.586255 0.719496,0.519802 0.761888,0.450596 0.806612,0.378637 0.313647,0.137985 0.305166,0.167038 0.303838,0.191857 0.309659,0.21244 0.322632,0.228788 0.342755,0.240902 0.370031,0.248782 0.404455,0.252426 5.3330748,1.642432 0.6729464,0.04208 1.8506025,0.126155 -0.6085411,6.128183 5.2828725,0.52001"
         inkscape:connector-curvature="0"
         sodipodi:nodetypes="cccccccccccccccccccccccccccccccccccccccccccccccccccccccccccccccccccccccccccccccccccccccccccccccccccccccccccccccccccccccccccccccccccccccccccccccccccccccccccccccccccccccccccccccccccccccccccccccccccccccccccccccccccccccccccccccccccccccccccccccccccccccccccccccccccccccccccccccccccccccccccccccccccccccccccccccccccccccccccccccccccccccccccccccccccccccccccccccccccccccccccccccccccccccccccccccccccccccccccccccccccccccccccccccccccccccccccccccccccccccccccccccccccccccccccccc" />
    </g>
  </g>
</svg>
