<?xml version="1.0" encoding="UTF-8" standalone="no"?>
<!-- Created with Inkscape (http://www.inkscape.org/) -->

<svg
   xmlns:dc="http://purl.org/dc/elements/1.1/"
   xmlns:cc="http://creativecommons.org/ns#"
   xmlns:rdf="http://www.w3.org/1999/02/22-rdf-syntax-ns#"
   xmlns:svg="http://www.w3.org/2000/svg"
   xmlns="http://www.w3.org/2000/svg"
   xmlns:xlink="http://www.w3.org/1999/xlink"
   xmlns:sodipodi="http://sodipodi.sourceforge.net/DTD/sodipodi-0.dtd"
   xmlns:inkscape="http://www.inkscape.org/namespaces/inkscape"
   width="210mm"
   height="297mm"
   id="svg3049"
   version="1.1"
   inkscape:version="0.48.5 r10040"
   sodipodi:docname="sabugosa_logo_monocromatico.svg">
  <defs
     id="defs3">
    <clipPath
       id="clipPath3919">
      <path
         d="m 0,0 0,8420 5950,0 L 5950,0 0,0 z"
         id="path3921" />
    </clipPath>
    <clipPath
       id="clipPath3925">
      <path
         d="m 5490.52,4233.05 c -0.49,3.47 0.66,5.32 2.96,5.97 4.99,-11.83 8.04,-6.13 17.94,-2.98 0.46,-7.43 10.1,-0.87 11.95,0 10.9,-10.68 23.79,-1.25 38.84,0 3.54,-9.38 10.22,-1.04 17.91,-8.97 4.48,3.49 7.29,8.64 14.93,8.97 5.3,-6.64 12.22,-11.66 26.88,-8.97 7.46,-12.14 9.59,2.54 20.89,0 2.56,-8.75 7.53,3.9 14.95,0 0.63,-3.34 3.3,-4.64 5.96,-5.96 -0.09,-9.07 10.49,-7.44 17.93,-8.97 7.77,-3.18 18.16,-3.73 20.9,-11.94 8.29,-3.66 13.98,-9.92 20.91,-14.94 3.83,-0.16 4.14,-3.83 8.96,-2.99 0.63,-3.34 3.31,-4.65 5.98,-5.97 0.1,10.84 14.14,7.76 17.91,14.93 9.38,-1.41 7.89,8.04 14.95,8.97 6.21,-0.88 -4.44,-8.09 5.96,-8.97 4.04,2.93 3.88,10.07 8.97,11.96 7.43,2.83 18.01,-10.67 17.91,2.98 0.99,0 2,0 3,0 22.27,3.36 16.52,-21.28 38.82,-17.92 4.64,10.61 -10.15,1.8 -8.97,8.97 2.94,8.36 7.97,-4.34 11.95,2.98 1,0 2,0 2.98,0 6.65,-4.85 16.66,-10.76 23.91,-8.97 11.04,5.51 10.74,3.81 26.87,2.99 5.7,-4.25 12.97,-6.95 20.9,-8.96 0.39,-6.59 12.67,-1.26 17.93,-2.99 -5.53,-6.41 -2.02,-21.88 -2.98,-32.85 0.87,-10.4 8.07,0.25 8.95,-5.97 -5.32,-2.19 -0.44,-5.43 0,-8.97 2.99,0 5.98,0 8.98,0 0.97,0 1.98,0 2.96,0 4,0 7.97,0 11.96,0 7.33,2.38 -8.48,18.31 5.95,17.92 1.98,-4 6.41,-5.55 11.98,-5.96 16.64,-3.5 29.09,-20.46 47.76,-29.87 0.58,-4.43 7.23,-2.74 11.96,-2.98 20.26,-14.54 47.8,-16.58 77.64,-26.88 -7.77,-18.23 9.72,-14.93 5.98,-32.86 17.49,-5.28 37.56,-20.46 44.81,3 2.99,0 5.96,0 8.94,0 -3.32,-4.31 -3.2,-7.3 3,-8.97 -0.29,13.23 22.44,3.44 23.9,14.92 2.53,0.55 2.8,-1.16 2.99,-2.98 7.44,-7.2 58.29,8.36 38.82,8.95 -1.39,14.15 2.59,4.45 11.94,5.99 15.21,3.07 32.97,4.02 38.84,-11.96 5.24,11.72 18.18,2.16 29.85,3 8.97,-0.76 24.29,-5.2 35.83,0 11.68,-2.28 18.56,-9.34 26.9,-14.94 2.56,-2.41 1.77,-8.17 5.97,-8.97 0.11,-9.81 5.04,-14.85 2.97,-26.87 4.26,0.25 8.47,0.5 8.98,-2.98 10.3,2.62 -0.74,11.99 5.98,20.91 9.6,0.64 12.62,-5.29 23.88,-3 3.19,7.3 -16.6,17.16 -26.87,20.91 8.93,0.84 29.07,3 35.84,2.99 2.43,0.56 2.97,3 5.97,3 19.55,-9.05 21.88,-0.33 41.81,-8.97 3.46,-12.47 15.42,-16.45 23.9,-23.9 9.09,3.66 -4.36,11.4 2.99,14.94 1.99,0 3.97,0 5.97,0 24.28,-15.54 43.86,-35.78 71.68,-47.79 9.13,-2.16 8.79,5.15 17.92,2.98 1.56,-2.39 3.11,-4.84 2.99,-8.97 16.05,8.28 53.87,7.48 59.72,-11.92 10.75,3.18 19.11,8.77 23.89,17.91 1.01,0 1.99,0 2.99,0 6.12,-14.59 30.6,0.16 32.85,8.97 14.17,-4.51 28.54,-1.17 26.88,17.91 26.71,2.52 45.42,-0.84 56.75,26.88 -43.28,-442.53 -97.13,-900.39 -152.32,-1341 -6.56,-8.08 -9.9,-0.82 -17.91,-5.98 -6.56,11.37 -10.13,25.72 -20.91,32.85 -4.72,21.21 25.9,40.8 2.99,44.81 1.43,9.51 9.4,12.5 8.95,23.89 -6.86,15.04 -17.48,26.31 -32.85,32.85 6.14,38.5 -3.46,77.71 -38.83,74.66 1.27,6.24 -2.03,7.91 -3,11.95 -22.54,0.17 -40.23,-4.92 -50.75,-8.95 11.52,-1.4 22.13,-5.9 32.84,-14.94 5.5,10.42 0.59,12.66 -2.97,20.9 8.79,-4.07 18.78,4.3 20.88,-14.95 29.76,8.18 37.25,-37.32 29.89,-65.69 12.5,-13.36 33.33,-18.4 38.82,-38.81 -6.7,-4.27 -5.71,-16.21 -11.96,-20.91 -0.91,-6.89 8.65,-3.32 8.98,-8.98 3.06,-14.4 -8.77,-18.19 -8.98,-26.86 -0.3,-13.75 10.55,-17.35 14.94,-29.89 1.73,-4.9 -1.72,-11.68 0,-17.91 1.16,-4.16 8.57,-1.14 8.96,-5.96 -7.6,-0.32 -7.05,-11.15 -2.99,-14.93 4.14,5.41 8.47,6.74 11.97,2.98 -0.59,-2.41 -3.02,-2.98 -2.99,-5.98 15.13,-4.41 18.45,12.88 26.86,5.98 -1.75,-10.73 3.49,-14.45 5.99,-20.91 2.2,-14.72 8.74,-25.11 17.91,-32.86 -0.25,-4.23 -0.5,-8.46 3,-8.95 -1.23,-7.2 5.44,-6.49 2.98,-14.93 16.77,2.8 20.25,-7.64 32.86,-8.98 7.18,1.22 6.47,-5.45 14.92,-2.98 0.46,-5.52 10.12,-1.82 11.96,-5.96 1.8,-0.18 3.52,-0.45 2.97,-2.98 0,-4.98 0,-9.96 0,-14.95 11.5,1.43 18.65,7.23 20.91,17.93 1,0 2.01,0 2.99,0 4.4,-1.57 7.53,-4.43 11.94,-5.98 10.49,-14.72 32.32,3.55 47.81,3 4.25,1.14 5.02,3.56 8.94,0 1.77,-12.74 -2.15,-19.77 -2.99,-29.88 8.41,9.51 15.19,20.64 20.91,32.86 2.32,-0.68 3.49,-2.51 2.99,-5.98 0,-1.01 0,-1.98 0,-2.99 8,1.95 11.36,8.55 17.91,11.95 7.97,3 9.84,12.07 14.95,17.91 11.54,1.61 14.56,-5.32 26.87,-2.97 9.95,-29.87 25.95,-53.7 47.81,-71.69 -1.78,-10.18 -8.22,-15.69 -8.99,-26.88 13.03,-8.95 43.69,6.97 50.78,-17.92 -9.87,-16.85 -7.15,-26.37 2.98,-41.81 11.52,6.99 17.01,9.71 29.89,2.98 -0.98,-6.98 -3.6,-12.34 -5.99,-17.91 42.28,-19.46 51.13,-72.32 74.68,-110.5 -4.32,-4.65 -6.29,-11.66 -8.98,-17.93 13.66,-7.27 16.16,-25.65 41.83,-20.91 0.51,-7.47 -4.6,-9.35 -8.99,-11.95 -4.8,0.85 -5.12,-2.81 -8.94,-2.97 0,-2.99 0,-5.98 0,-8.98 0.96,-4.02 4.25,-5.7 2.98,-11.94 -1.82,-4.14 -11.49,-0.44 -11.94,-5.97 -17.66,-12.03 -50.26,-6.66 -53.77,-38.84 -18.65,-6.92 -36.46,0.07 -50.77,5.99 12.57,9.6 -4.02,15.15 -14.92,17.91 -0.88,-28.75 29.94,-25.79 44.81,-38.82 -26.32,-9.52 -7.62,-64.05 -44.81,-62.73 0,-3.97 0,-7.97 0,-11.94 -2.56,0.55 -2.82,-1.16 -2.99,-2.99 -1.26,-6.22 2.03,-7.91 2.99,-11.94 -18.2,-12.65 -35.84,-25.88 -47.79,-44.79 -9.12,-2.16 -10.89,3.05 -17.92,2.98 0,-4.98 0,-9.96 0,-14.93 0,-1 0,-1.99 0,-3 -1.84,0.88 -11.49,7.43 -11.95,0 -8.89,-0.04 -3.82,-14.09 -8.97,-17.91 -0.56,-2.43 -2.99,-2.97 -2.97,-5.98 0.53,-6.5 -2.44,-9.5 -8.97,-8.95 2.41,10.34 -4.45,11.47 -2.98,20.9 -19.86,-3.47 -15.06,25.24 -29.86,17.93 0.43,7.39 0.53,14.5 -5.98,14.92 0,0.98 0,1.99 0,2.99 -1.12,8.32 11.36,18.18 2.98,23.89 -0.07,-2.9 -3.66,-2.32 -5.97,-2.98 0,1.99 0,3.98 0,5.96 -3.29,27.31 -7.28,46.8 -11.94,77.66 -3.01,1.93 -10.29,1.8 -20.91,2.98 -1.26,6.24 2.05,7.92 2.99,11.95 -7.04,-0.05 -8.78,5.14 -17.92,2.99 0.51,8.65 12.17,13.62 -2.99,14.93 -2.41,2.56 -8.18,1.79 -8.95,5.98 -1.79,10.74 1.07,16.84 8.95,17.91 -7.38,5.49 -10.77,7.46 -2.99,14.93 0.56,2.44 3,3 2.99,5.99 -12.86,14.29 -46.13,30.42 -53.75,11.93 -11.81,-7.11 -22.24,-15.59 -29.88,-26.86 -0.25,-10.69 -4.64,-17.27 -5.96,-26.9 -2.34,-0.64 -3.5,-2.49 -3,-5.96 -11.36,2.4 -3.79,-14.12 -5.98,-20.9 -19.35,-10.2 -50.56,-22.53 -71.67,-5.99 -5.96,0 -11.94,0 -17.93,0 -7.41,0.46 -9.23,-4.68 -14.92,-5.96 -2.43,-0.58 -2.98,-2.99 -5.99,-2.99 -8.79,2.27 -15.54,22.11 -20.91,17.91 -22.56,-8 -39.56,-6.05 -53.75,-2.97 -7.93,-6.02 -2.84,-25.03 -14.93,-26.89 -13.93,4.67 -14.6,14.74 -32.85,8.98 -0.99,0 -1.99,0 -2.99,0 0.52,7.47 -4.58,9.32 -8.97,11.92 -2.4,0.58 -2.96,3 -5.95,3 0.54,2.53 -1.18,2.81 -2.99,2.99 -2.58,2.41 -1.77,8.16 -5.99,8.95 0,1.99 0,3.99 0,5.97 0,2 0,3.99 0,5.98 -12,2.05 -17.03,-2.87 -26.87,-2.98 -1.55,17.37 -12.74,25.08 -20.9,35.84 0.4,5.56 1.96,9.97 5.97,11.94 -14.2,16.68 -20.12,41.6 -29.87,62.72 0,2 0,3.98 0,5.97 0,5 0,9.94 0,14.94 -36.09,-1.96 -5.53,-37.3 -29.85,-53.77 -17.35,-2.32 -28.33,5.22 -44.83,-5.96 -4.79,4.14 -9.45,8.46 -14.92,11.94 -13.75,-4.18 -21.39,-14.46 -32.84,-20.92 -11.22,10.58 -29.59,20.12 -44.81,17.93 3.17,15.62 0.55,23.77 -8.95,32.86 -13.43,-2.5 -16.47,-15.41 -29.89,-17.91 -2.27,7.67 -7.25,12.65 -14.92,14.92 -8.04,2.06 -5.78,-6.17 -8.97,-8.97 -8.06,0.9 -5.33,12.57 -11.95,14.94 -20.73,-8.82 -44.2,-21.7 -47.77,-38.83 -9.61,-2.63 -4.1,9.87 -11.95,8.96 0.25,-4.7 -1.45,-11.38 2.98,-11.93 -0.56,-2.43 -2.98,-2.99 -2.98,-5.98 -9.44,0.49 -9.98,-7.94 -20.92,-5.99 2.32,20.3 -18.15,26.72 -8.95,44.82 -25.92,0.07 -32.43,-17.94 -32.85,-35.84 -16.89,6 -43.21,2.59 -38.82,29.85 -18.58,3.34 -30.22,13.62 -56.75,8.97 -1.3,9.87 4.73,19.11 -2.99,32.85 -5.28,-2.68 -3.81,-12.12 -14.93,-8.97 -5.08,1.89 -4.92,9.03 -8.97,11.96 -12.5,-2.41 -19.94,-9.94 -29.86,-14.93 -6.31,2.64 -8.82,9.09 -17.92,8.96 6.75,5.19 2.77,21.12 11.94,23.9 -8.83,10.23 -17.62,27.54 -32.85,14.92 1.26,6.25 -2.04,7.92 -2.99,11.94 -31.29,1.4 -86.57,-37.2 -95.57,17.91 -13.63,2.69 -16.92,-4.95 -26.88,-5.95 2.75,12.69 -7.16,12.74 -17.91,11.94 0.04,8.91 7.77,10.16 8.95,17.92 -1.22,12.72 -15.22,12.64 -14.92,26.88 -20.46,2.98 -44.32,-6.34 -38.83,11.94 -34.53,-13.03 -62.62,-57 -89.6,-8.94 -2.42,-0.59 -2.99,-3.01 -5.99,-3 -3.96,0 -7.96,0 -11.92,0 -0.5,3.51 -5.47,2.52 -8.98,3 -8.44,8.1 8.36,22.91 -8.95,20.89 2.36,5.59 4.98,10.95 5.95,17.91 -9.19,10.72 -27.44,12.38 -32.85,26.89 0.5,8.46 5.48,12.46 5.99,20.91 -10.05,0.08 -15.8,-4.11 -20.91,-8.96 -8.13,4.82 -12.58,13.32 -14.93,23.89 -8.04,2.07 -5.78,-6.19 -8.97,-8.94 -5.52,0.43 -1.81,10.09 -5.95,11.94 -18.36,-0.37 -30.31,-9.11 -47.8,0 -1.19,14.72 -6.52,25.33 -17.92,29.86 -9.8,6.87 -14.12,-12.38 -23.9,-14.93 1.47,9.41 -5.37,10.54 -3,20.89 0,2 0,4 0,5.99 -30.54,-1.69 -45.31,12.41 -50.76,35.84 0,1.99 0,3.97 0,5.96 -12.45,-0.07 -14.73,-10.32 -26.87,-2.96 -3.97,7.55 -13.28,-4.4 -20.91,-3 0,3.97 0,7.96 0,11.94 1.88,11.18 4.7,17.1 -5.97,20.91 0.01,2.99 -2.43,3.55 -3,5.97 -16.14,-5.75 -19.92,-23.87 -32.85,-32.86 0,10.95 0,21.91 0,32.86 -56.44,-1.19 -14.57,72.45 -23.9,113.49 39.56,496.04 75.79,995.46 110.51,1496.32 6.6,0.37 1.27,12.67 2.99,17.91 9.09,0.14 11.61,-6.3 17.92,-8.95 1.22,-3.75 3.86,-6.11 8.97,-5.97 0.61,-3.36 3.31,-4.64 5.96,-5.98 12.74,-9.17 37.48,-6.33 44.81,-20.9 4.94,0.04 1.67,8.28 5.98,8.95 0.77,-4.2 6.54,-3.39 8.95,-5.97 21.88,6.36 48.02,-4.58 56.74,-20.9 0,-1 0,-2 0,-2.99 1.55,-4.42 4.44,-7.53 5.98,-11.94 6.14,-2.63 13.42,7.73 5.98,8.95 0,1 0,1.99 0,2.99 z M 6505.98,2930.87 c 12.68,-3.8 5.03,-4.78 2.98,-14.94 12.39,-0.8 11.64,3.93 20.92,0 -11.09,12.75 -27.65,22.36 -17.93,47.79 -5.25,-1.72 -17.54,3.62 -17.91,-2.99 -3.46,2.52 -8.02,3.95 -14.94,2.99 -13.69,1.73 -13.92,-9.97 -20.91,-14.93 -11.98,9.35 -23.72,10.29 -38.82,2.99 -10.16,11.61 -20.95,13.96 -14.94,35.84 -11.95,-1.01 -16.58,5.32 -29.87,2.97 -5.94,7 -6.86,19.02 -5.97,32.87 -19.55,5.34 -18.27,31.51 -32.86,41.81 -16.28,-2.63 -29.62,-8.21 -50.77,-5.96 -13.32,-10.67 38.43,1.18 53.75,0 5.01,-28.87 31.17,-36.56 29.88,-71.69 13.17,0.21 25.68,-0.22 29.87,-8.97 -1.55,-4.41 -4.41,-7.53 -5.98,-11.94 14.12,-3.8 14.86,-21.01 29.88,-23.9 10.08,-0.08 13.28,15.71 23.88,5.98 0.64,-3.35 3.31,-4.65 5.97,-5.98 14.06,-3.1 15.02,6.9 20.91,11.95 10.27,-1.3 16.74,1.18 23.91,2.97 0.98,0 1.99,0 2.96,0 7.19,-3.77 -1.64,-23.53 5.99,-26.86"
         id="path3927" />
    </clipPath>
    <linearGradient
       id="linearGradient3969-2">
      <stop
         style="stop-color:#007317;stop-opacity:1;"
         offset="0"
         id="stop3971-1" />
      <stop
         style="stop-color:#008a1d;stop-opacity:1;"
         offset="1"
         id="stop3973-6" />
    </linearGradient>
    <radialGradient
       inkscape:collect="always"
       xlink:href="#linearGradient3969-2"
       id="radialGradient3977-2"
       cx="301.29153"
       cy="541.07141"
       fx="301.29153"
       fy="541.07141"
       r="36.928574"
       gradientTransform="matrix(0.56264266,-2.2266214,0.73450961,0.18560243,-307.87027,1156.4691)"
       gradientUnits="userSpaceOnUse" />
    <linearGradient
       id="linearGradient3979-4">
      <stop
         style="stop-color:#ffc905;stop-opacity:1;"
         offset="0"
         id="stop3981-2" />
      <stop
         style="stop-color:#d4a600;stop-opacity:1;"
         offset="1"
         id="stop3983-3" />
    </linearGradient>
    <linearGradient
       id="linearGradient3979-6">
      <stop
         style="stop-color:#ffc905;stop-opacity:1;"
         offset="0"
         id="stop3981-0" />
      <stop
         style="stop-color:#d4a600;stop-opacity:1;"
         offset="1"
         id="stop3983-4" />
    </linearGradient>
    <linearGradient
       inkscape:collect="always"
       xlink:href="#linearGradient3979-6"
       id="linearGradient3985-2"
       x1="289.15738"
       y1="538.76373"
       x2="329.77118"
       y2="538.76373"
       gradientUnits="userSpaceOnUse" />
    <linearGradient
       id="linearGradient3969-7">
      <stop
         style="stop-color:#00320a;stop-opacity:1;"
         offset="0"
         id="stop3971-7" />
      <stop
         style="stop-color:#008a1d;stop-opacity:1;"
         offset="1"
         id="stop3973-1" />
    </linearGradient>
    <linearGradient
       id="linearGradient3969">
      <stop
         style="stop-color:#007317;stop-opacity:1;"
         offset="0"
         id="stop3971" />
      <stop
         style="stop-color:#008a1d;stop-opacity:1;"
         offset="1"
         id="stop3973" />
    </linearGradient>
    <linearGradient
       id="linearGradient3979">
      <stop
         style="stop-color:#ffc905;stop-opacity:1;"
         offset="0"
         id="stop3981" />
      <stop
         style="stop-color:#d4a600;stop-opacity:1;"
         offset="1"
         id="stop3983" />
    </linearGradient>
    <inkscape:path-effect
       effect="bend_path"
       id="path-effect3880"
       is_visible="true"
       bendpath="m 134.74976,434.86218 c 13.48496,-129.88664 146.49076,-5.01481 200.02962,0"
       prop_scale="1"
       scale_y_rel="false"
       vertical="false"
       bendpath-nodetypes="cc" />
    <path
       style="fill:none;stroke:#000000;stroke-width:0.450297;stroke-linecap:round;stroke-linejoin:round;stroke-miterlimit:4;stroke-opacity:0.99607843;stroke-dashoffset:14.5"
       d="m 445.57202,399.68226 c 0,52.80068 -44.68783,95.60409 -99.81307,95.60409 -55.12523,0 -99.81307,-42.80341 -99.81307,-95.60409 0,-52.80068 44.68784,-95.60409 99.81307,-95.60409 55.12524,0 99.81307,42.80341 99.81307,95.60409 z"
       id="path3821-1"
       inkscape:connector-curvature="0" />
    <path
       style="fill:none;stroke:#000000;stroke-width:0.450297;stroke-linecap:round;stroke-linejoin:round;stroke-miterlimit:4;stroke-opacity:0.99607843;stroke-dashoffset:14.5"
       d="m 245.94588,399.68226 c 0,52.80068 44.68783,95.60409 99.81307,95.60409 55.12523,0 99.81307,-42.80341 99.81307,-95.60409 0,-52.80068 -44.68784,-95.60409 -99.81307,-95.60409 -55.12524,0 -99.81307,42.80341 -99.81307,95.60409 z"
       id="path3821-9"
       inkscape:connector-curvature="0" />
    <path
       sodipodi:type="arc"
       style="fill:none;stroke:#ffffff;stroke-width:0.39136386;stroke-linecap:round;stroke-linejoin:round;stroke-miterlimit:4;stroke-opacity:0.99607843;stroke-dasharray:none;stroke-dashoffset:14.5"
       id="path3915-4-5-5"
       sodipodi:cx="257.32144"
       sodipodi:cy="482.54077"
       sodipodi:rx="103.03571"
       sodipodi:ry="103.03571"
       d="m 360.35715,482.54077 a 103.03571,103.03571 0 1 1 -206.07142,0 103.03571,103.03571 0 1 1 206.07142,0 z"
       transform="matrix(-0.90537411,0,0,0.90537411,449.04359,-94.160592)" />
    <path
       sodipodi:type="arc"
       style="fill:none;stroke:#ffffff;stroke-width:0.39136386;stroke-linecap:round;stroke-linejoin:round;stroke-miterlimit:4;stroke-opacity:0.99607843;stroke-dasharray:none;stroke-dashoffset:14.5"
       id="path3915-4-1"
       sodipodi:cx="257.32144"
       sodipodi:cy="482.54077"
       sodipodi:rx="103.03571"
       sodipodi:ry="103.03571"
       d="m 360.35715,482.54077 a 103.03571,103.03571 0 1 1 -206.07142,0 103.03571,103.03571 0 1 1 206.07142,0 z"
       transform="matrix(0.90537411,0,0,0.90537411,-85.11503,-35.946307)" />
    <path
       sodipodi:type="arc"
       style="fill:none;stroke:#ffffff;stroke-width:0.39136386;stroke-linecap:round;stroke-linejoin:round;stroke-miterlimit:4;stroke-opacity:0.99607843;stroke-dasharray:none;stroke-dashoffset:14.5"
       id="path3915-4-5-5-8"
       sodipodi:cx="257.32144"
       sodipodi:cy="482.54077"
       sodipodi:rx="103.03571"
       sodipodi:ry="103.03571"
       d="m 360.35715,482.54077 a 103.03571,103.03571 0 1 1 -206.07142,0 103.03571,103.03571 0 1 1 206.07142,0 z"
       transform="matrix(-0.90537411,0,0,0.90537411,449.04359,-94.160592)" />
    <path
       sodipodi:type="arc"
       style="fill:none;stroke:#ffffff;stroke-width:0.39136386;stroke-linecap:round;stroke-linejoin:round;stroke-miterlimit:4;stroke-opacity:0.99607843;stroke-dasharray:none;stroke-dashoffset:14.5"
       id="path3915-4-1-9"
       sodipodi:cx="257.32144"
       sodipodi:cy="482.54077"
       sodipodi:rx="103.03571"
       sodipodi:ry="103.03571"
       d="m 360.35715,482.54077 a 103.03571,103.03571 0 1 1 -206.07142,0 103.03571,103.03571 0 1 1 206.07142,0 z"
       transform="matrix(0.90537411,0,0,0.90537411,-85.11503,-35.946307)" />
    <path
       sodipodi:type="arc"
       style="fill:none;stroke:#ffffff;stroke-width:0.39136386;stroke-linecap:round;stroke-linejoin:round;stroke-miterlimit:4;stroke-opacity:0.99607843;stroke-dasharray:none;stroke-dashoffset:14.5"
       id="path3915-4-1-9-1"
       sodipodi:cx="257.32144"
       sodipodi:cy="482.54077"
       sodipodi:rx="103.03571"
       sodipodi:ry="103.03571"
       d="m 360.35715,482.54077 a 103.03571,103.03571 0 1 1 -206.07142,0 103.03571,103.03571 0 1 1 206.07142,0 z"
       transform="matrix(0.90537411,0,0,0.90537411,-85.11503,-35.946307)" />
    <path
       sodipodi:type="arc"
       style="fill:none;stroke:#ffffff;stroke-width:0.39136386;stroke-linecap:round;stroke-linejoin:round;stroke-miterlimit:4;stroke-opacity:0.99607843;stroke-dasharray:none;stroke-dashoffset:14.5"
       id="path3915-4-5-5-8-3"
       sodipodi:cx="257.32144"
       sodipodi:cy="482.54077"
       sodipodi:rx="103.03571"
       sodipodi:ry="103.03571"
       d="m 360.35715,482.54077 a 103.03571,103.03571 0 1 1 -206.07142,0 103.03571,103.03571 0 1 1 206.07142,0 z"
       transform="matrix(-0.90537411,0,0,0.90537411,449.04359,-94.160592)" />
    <path
       sodipodi:type="arc"
       style="fill:none;stroke:#ffffff;stroke-width:0.39136386;stroke-linecap:round;stroke-linejoin:round;stroke-miterlimit:4;stroke-opacity:0.99607843;stroke-dasharray:none;stroke-dashoffset:14.5"
       id="path3915-4-1-9-1-7"
       sodipodi:cx="257.32144"
       sodipodi:cy="482.54077"
       sodipodi:rx="103.03571"
       sodipodi:ry="103.03571"
       d="m 360.35715,482.54077 a 103.03571,103.03571 0 1 1 -206.07142,0 103.03571,103.03571 0 1 1 206.07142,0 z"
       transform="matrix(0.90537411,0,0,0.90537411,-85.11503,-35.946307)" />
    <path
       sodipodi:type="arc"
       style="fill:none;stroke:#ffffff;stroke-width:0.39136386;stroke-linecap:round;stroke-linejoin:round;stroke-miterlimit:4;stroke-opacity:0.99607843;stroke-dasharray:none;stroke-dashoffset:14.5"
       id="path3915-4-5-5-8-3-7"
       sodipodi:cx="257.32144"
       sodipodi:cy="482.54077"
       sodipodi:rx="103.03571"
       sodipodi:ry="103.03571"
       d="m 360.35715,482.54077 a 103.03571,103.03571 0 1 1 -206.07142,0 103.03571,103.03571 0 1 1 206.07142,0 z"
       transform="matrix(-0.90537411,0,0,0.90537411,449.04359,-94.160592)" />
    <path
       sodipodi:type="arc"
       style="fill:none;stroke:#ffffff;stroke-width:0.39136386;stroke-linecap:round;stroke-linejoin:round;stroke-miterlimit:4;stroke-opacity:0.99607843;stroke-dasharray:none;stroke-dashoffset:14.5"
       id="path3915-4-5-5-8-3-7-8"
       sodipodi:cx="257.32144"
       sodipodi:cy="482.54077"
       sodipodi:rx="103.03571"
       sodipodi:ry="103.03571"
       d="m 360.35715,482.54077 a 103.03571,103.03571 0 1 1 -206.07142,0 103.03571,103.03571 0 1 1 206.07142,0 z"
       transform="matrix(-0.90537411,0,0,0.90537411,449.04359,-94.160592)" />
    <path
       sodipodi:type="arc"
       style="fill:none;stroke:#ffffff;stroke-width:0.39136386;stroke-linecap:round;stroke-linejoin:round;stroke-miterlimit:4;stroke-opacity:0.99607843;stroke-dasharray:none;stroke-dashoffset:14.5"
       id="path3915-4-1-9-1-7-2"
       sodipodi:cx="257.32144"
       sodipodi:cy="482.54077"
       sodipodi:rx="103.03571"
       sodipodi:ry="103.03571"
       d="m 360.35715,482.54077 a 103.03571,103.03571 0 1 1 -206.07142,0 103.03571,103.03571 0 1 1 206.07142,0 z"
       transform="matrix(0.90537411,0,0,0.90537411,-85.11503,-35.946307)" />
    <path
       sodipodi:type="arc"
       style="fill:#000000;fill-opacity:0.33755278;stroke:none"
       id="path3913-51"
       sodipodi:cx="601.96429"
       sodipodi:cy="545.39789"
       sodipodi:rx="60.892857"
       sodipodi:ry="60.892857"
       d="m 662.85715,545.39789 a 60.892857,60.892857 0 1 1 -121.78571,0 60.892857,60.892857 0 1 1 121.78571,0 z"
       transform="matrix(-1.2316715,0,0,1.2316715,1344.4347,-126.79309)" />
    <path
       sodipodi:type="arc"
       style="fill:#000000;fill-opacity:0.33755278;stroke:none"
       id="path3913-51-8"
       sodipodi:cx="601.96429"
       sodipodi:cy="545.39789"
       sodipodi:rx="60.892857"
       sodipodi:ry="60.892857"
       d="m 662.85715,545.39789 a 60.892857,60.892857 0 1 1 -121.78571,0 60.892857,60.892857 0 1 1 121.78571,0 z"
       transform="matrix(-1.2316715,0,0,1.2316715,1344.4347,-126.79309)" />
  </defs>
  <sodipodi:namedview
     inkscape:document-units="mm"
     id="base"
     pagecolor="#ffffff"
     bordercolor="#666666"
     borderopacity="1.0"
     inkscape:pageopacity="0.0"
     inkscape:pageshadow="2"
     inkscape:zoom="0.7"
     inkscape:cx="26.251207"
     inkscape:cy="916.72116"
     inkscape:current-layer="layer1"
     showgrid="false"
     inkscape:window-width="1920"
     inkscape:window-height="1017"
     inkscape:window-x="1911"
     inkscape:window-y="-9"
     inkscape:window-maximized="1" />
  <metadata
     id="metadata4">
    <rdf:RDF>
      <cc:Work
         rdf:about="">
        <dc:format>image/svg+xml</dc:format>
        <dc:type
           rdf:resource="http://purl.org/dc/dcmitype/StillImage" />
        <dc:title />
      </cc:Work>
    </rdf:RDF>
  </metadata>
  <g
     inkscape:groupmode="layer"
     id="layer3"
     inkscape:label="Layer"
     sodipodi:insensitive="true">
    <rect
       style="fill:#005d1c;fill-opacity:1;stroke:none"
       id="rect3024"
       width="737.41125"
       height="1042.4779"
       x="11.111723"
       y="1.8032764"
       ry="0" />
  </g>
  <g
     inkscape:label="Layer 1"
     inkscape:groupmode="layer"
     id="layer1">
    <g
       inkscape:label="teste"
       id="layer5"
       transform="matrix(0.29762019,0,0,0.29762019,592.76675,166.3405)" />
    <g
       style="display:inline"
       id="layer1-2"
       inkscape:label="Layer 1"
       transform="matrix(0.29762019,0,0,0.29762019,592.76675,166.3405)" />
    <g
       style="display:inline"
       inkscape:label="Layer"
       id="layer2"
       transform="matrix(0.29762019,0,0,0.29762019,592.76675,166.3405)" />
    <path
       id="path16829-4-5-6"
       d="m 182.53106,148.92098 4.63177,-0.37285 0.83743,0.0314 5.58774,1.61992 0,5.35703 -5.58774,1.61991 -0.83743,0.0314 -4.63177,-0.37285 -1.18258,7.46788 4.52005,1.07676 0.78657,0.28838 4.81388,3.26753 -1.65533,5.09454 -5.81527,-0.18574 -0.80609,-0.22934 -4.28935,-1.78568 -3.43285,6.73671 3.96646,2.42056 0.65895,0.51772 3.56863,4.59544 -3.14854,4.3334 -5.4733,-1.97369 -0.69574,-0.46686 -3.52775,-3.02411 -5.3466,5.34659 3.02412,3.52775 0.46686,0.69575 1.97369,5.47329 -4.3334,3.14854 -4.59544,-3.56862 -0.51773,-0.65896 -2.42055,-3.96645 -6.73672,3.43284 1.78569,4.28935 0.22934,0.8061 0.18574,5.81526 -5.09454,1.65533 -3.26754,-4.81387 -0.28837,-0.78658 -1.07677,-4.52005 -7.46787,1.18258 0.37284,4.63178 -0.0314,0.83742 -1.61991,5.58774 -5.35704,0 -1.61991,-5.58774 -0.0314,-0.83742 0.37285,-4.63178 -7.46787,-1.18258 -1.07676,4.52005 -0.28838,0.78658 -3.26753,4.81387 -5.09455,-1.65533 0.18574,-5.81526 0.22935,-0.8061 1.78568,-4.28935 -6.73671,-3.43284 -2.42057,3.96645 -0.51771,0.65896 -4.59544,3.56862 -4.333406,-3.14854 1.9737,-5.47329 0.46685,-0.69575 3.024116,-3.52775 -5.346596,-5.34659 -3.52775,3.02411 -0.69574,0.46686 -5.47329,1.97369 -3.14855,-4.3334 3.56863,-4.59544 0.65896,-0.51772 3.96645,-2.42056 -3.43284,-6.73671 -4.28936,1.78568 -0.80609,0.22934 -5.81526,0.18574 -1.65534,-5.09454 4.81388,-3.26753 0.78657,-0.28838 4.52006,-1.07676 -1.18259,-7.46788 -4.63177,0.37285 -0.83743,-0.0314 -5.58773,-1.61991 0,-5.35703 5.58773,-1.61992 0.83743,-0.0314 4.63177,0.37285 1.18259,-7.46788 -4.52006,-1.07676 -0.78657,-0.28838 -4.81388,-3.26753 1.65534,-5.09454 5.81526,0.18574 0.80609,0.22934 4.28936,1.78568 3.43284,-6.73671 -3.96645,-2.42056 -0.65896,-0.51772 -3.56863,-4.59545 3.14855,-4.33339 5.47329,1.97368 0.69574,0.46687 3.52775,3.02411 5.346596,-5.34659 -3.024116,-3.52776 -0.46685,-0.69573 -1.9737,-5.4733 4.333406,-3.14855 4.59544,3.56863 0.51771,0.65896 2.42057,3.96645 6.73671,-3.43285 -1.78568,-4.28935 -0.22935,-0.8061 -0.18574,-5.815252 5.09455,-1.655337 3.26753,4.813881 0.28838,0.786568 1.07676,4.52006 7.46787,-1.18259 -0.37285,-4.631767 0.0314,-0.837434 1.61991,-5.587733 5.35704,0 1.61991,5.587733 0.0314,0.837434 -0.37284,4.631767 7.46787,1.18259 1.07677,-4.52006 0.28837,-0.786568 3.26754,-4.813881 5.09454,1.655337 -0.18574,5.815252 -0.22934,0.8061 -1.78569,4.28935 6.73672,3.43285 2.42055,-3.96645 0.51773,-0.65896 4.59544,-3.56863 4.3334,3.14855 -1.97369,5.4733 -0.46686,0.69573 -3.02412,3.52776 5.3466,5.34659 3.52775,-3.02411 0.69574,-0.46687 5.4733,-1.97368 3.14854,4.33339 -3.56863,4.59545 -0.65895,0.51772 -3.96646,2.42056 3.43285,6.73671 4.28935,-1.78568 0.80609,-0.22934 5.81527,-0.18574 1.65533,5.09454 -4.81388,3.26753 -0.78657,0.28838 -4.52005,1.07676 z"
       style="fill:none;stroke:#ffffff;stroke-width:0.87052584;stroke-miterlimit:4;stroke-opacity:0.99578091;stroke-dasharray:none"
       inkscape:connector-curvature="0" />
    <text
       xml:space="preserve"
       style="font-size:40px;font-style:normal;font-weight:normal;line-height:126.99999809%;letter-spacing:0px;word-spacing:0px;fill:#ffffff;fill-opacity:1;stroke:none;font-family:Sans"
       id="text3941-1-2-8-2"
       sodipodi:linespacing="127%"
       transform="matrix(0.78234238,0.01415901,-0.01673136,0.66206135,-30.003865,-58.661526)"><textPath
         xlink:href="#path3915-4-5-5-8-3-7"
         id="textPath3966-7-7-7-8"
         style="font-size:28px;font-style:normal;font-variant:normal;font-weight:bold;font-stretch:normal;line-height:126.99999809%;letter-spacing:2.73682332px;fill:#ffffff;fill-opacity:1;font-family:Garoa Hacker Clube;-inkscape-font-specification:Garoa Hacker Clube Bold"
         dx="2.6399994 0 0 9.0199957">   HACKERSPACE</textPath></text>
    <text
       xml:space="preserve"
       style="font-size:28px;font-style:normal;font-weight:normal;line-height:125%;letter-spacing:0px;word-spacing:0px;fill:#ffffff;fill-opacity:1;stroke:none;font-family:Sans"
       id="text3937-5-5-4-6"
       sodipodi:linespacing="125%"
       transform="matrix(0.68442777,-0.01434442,0.01325808,0.6844286,26.812352,-121.54033)"><textPath
         xlink:href="#path3915-4-1-9-1-7"
         id="textPath3945-2-4-2-0"
         style="font-size:28px;font-style:normal;font-variant:normal;font-weight:bold;font-stretch:normal;letter-spacing:0.18000011px;fill:#ffffff;fill-opacity:1;font-family:Garoa Hacker Clube;-inkscape-font-specification:Garoa Hacker Clube Bold"
         dx="0.50999999">                                           SABUGOSA</textPath></text>
    <text
       xml:space="preserve"
       style="font-size:40px;font-style:normal;font-weight:normal;line-height:125%;letter-spacing:0px;word-spacing:0px;fill:#f7ff14;fill-opacity:1;stroke:none;font-family:Sans"
       x="22.223368"
       y="465.46359"
       id="text4642"
       sodipodi:linespacing="125%"><tspan
         sodipodi:role="line"
         id="tspan4644"
         x="22.223368"
         y="465.46359"
         style="font-size:28px">Objetos finais</tspan></text>
    <text
       xml:space="preserve"
       style="font-size:40px;font-style:normal;font-weight:normal;line-height:125%;letter-spacing:0px;word-spacing:0px;fill:#fffa0d;fill-opacity:1;stroke:none;font-family:Sans"
       x="40.406101"
       y="30.087809"
       id="text4646"
       sodipodi:linespacing="125%"><tspan
         sodipodi:role="line"
         id="tspan4648"
         x="40.406101"
         y="30.087809"
         style="font-size:24px;fill:#fffa0d;fill-opacity:1">Objetos separados para permitir edicao</tspan></text>
    <path
       style="fill:#ffffff;fill-opacity:1;stroke:none"
       d="m 318,75.924104 c -42.06025,0 -76.15625,34.127236 -76.15625,76.187496 0,15.07492 4.41249,29.11239 11.96875,40.9375 l -0.96875,0.75 4.40625,4.25 c 4.51057,5.95519 9.89863,11.22069 15.9375,15.625 l 2.25,2.25 2.40625,0.875 c 5.57326,3.46862 11.61892,6.24194 18.03125,8.1875 l 1.28125,0.59375 1.5625,0.21875 c 6.1588,1.60704 12.6188,2.46875 19.28125,2.46875 16.37589,0 31.54732,-5.17638 43.96875,-13.96875 l 0.625,-0.34375 0.46875,-0.46875 c 1.26969,-0.93306 2.51071,-1.86666 3.71875,-2.875 l 0.625,-0.375 0.4375,-0.5 0,-0.0312 c 4.07032,-3.52463 7.78424,-7.47612 11.03125,-11.78125 l 3.4375,-3.40625 -0.1875,-1.28125 c 7.62997,-11.86491 12.0625,-25.97484 12.0625,-41.125 0,-42.06025 -34.12725,-76.187496 -76.1875,-76.187496 z m 2.8125,1.875 c 0.23574,-0.0101 0.47523,-0.012 0.71875,0 1.07439,0.0525 2.12383,0.33036 3.0625,0.84375 0.93865,0.51344 1.68168,1.22278 2.3125,2.09375 0.27722,0.36864 0.38854,0.7668 0.3125,1.21875 -0.076,0.45198 -0.25655,0.82764 -0.625,1.09375 -0.36846,0.26612 -0.82913,0.38191 -1.28125,0.3125 -0.45215,-0.0694 -0.78526,-0.31888 -1.0625,-0.6875 -0.69643,-0.98074 -1.6709,-1.47248 -2.875,-1.53125 -1.0391,-0.0507 -1.94993,0.2412 -2.71875,0.9375 -0.76883,0.69631 -1.1664,1.55472 -1.21875,2.59375 -0.0524,1.03904 0.27369,1.95101 0.96875,2.71875 0.69506,0.76774 1.55465,1.16804 2.59375,1.21875 0.72023,0.0352 1.40984,-0.11436 2.03125,-0.46875 0.62137,-0.35437 1.08711,-0.82752 1.4375,-1.4375 l -3.34375,-0.15625 c -0.46047,-0.0225 -0.81675,-0.2218 -1.125,-0.5625 -0.30827,-0.34069 -0.46071,-0.72699 -0.4375,-1.1875 0.0231,-0.46051 0.19056,-0.85336 0.53125,-1.15625 0.34068,-0.30286 0.75829,-0.42872 1.21875,-0.40625 l 5.375,0.28125 c 0.46044,0.0225 0.84767,0.16544 1.15625,0.5 0.30856,0.33457 0.46069,0.75824 0.4375,1.21875 -0.0982,1.94834 -0.89296,3.56088 -2.34375,4.875 -1.45082,1.31411 -3.14563,1.93883 -5.09375,1.84375 -1.94813,-0.0951 -3.59466,-0.86355 -4.90625,-2.3125 -1.31159,-1.44893 -1.91068,-3.17684 -1.8125,-5.125 0.0981,-1.94816 0.86169,-3.56087 2.3125,-4.875 1.26945,-1.14984 2.72478,-1.7728 4.375,-1.84375 z m -11.84375,0.6875 c 0.11358,-0.0194 0.23548,-0.002 0.34375,0 0.32479,0.006 0.59798,0.11287 0.875,0.3125 0.36931,0.26623 0.61004,0.60814 0.6875,1.0625 l 1.1875,6.90625 c 0.24025,1.40974 -0.0532,2.71427 -0.875,3.875 -0.82183,1.16073 -1.94543,1.85328 -3.34375,2.09375 -1.39834,0.2405 -2.65329,-0.0549 -3.8125,-0.875 -1.15921,-0.82003 -1.88474,-1.93402 -2.125,-3.34375 l -1.15625,-6.9375 c -0.0775,-0.45437 0.0214,-0.8443 0.28125,-1.21875 0.25995,-0.37444 0.60801,-0.60932 1.0625,-0.6875 0.4545,-0.0781 0.87498,0.0159 1.25,0.28125 0.37501,0.26525 0.57881,0.63939 0.65625,1.09375 l 1.21875,6.90625 c 0.0854,0.50097 0.30859,0.9235 0.71875,1.21875 0.41014,0.29524 0.87392,0.39868 1.375,0.3125 0.50107,-0.0862 0.86723,-0.36576 1.15625,-0.78125 0.28902,-0.41548 0.42913,-0.87403 0.34375,-1.375 l -1.1875,-6.90625 c -0.0775,-0.45437 -0.0157,-0.84328 0.25,-1.21875 0.26617,-0.37551 0.63942,-0.6406 1.09375,-0.71875 z m 28.34375,2.125 c 0.68004,0.006 1.36378,0.1284 2.0625,0.34375 1.86322,0.57429 3.27577,1.70847 4.1875,3.4375 0.91172,1.72903 1.04588,3.54221 0.46875,5.40625 -0.57718,1.86403 -1.70721,3.24153 -3.4375,4.15625 -1.73032,0.91472 -3.51177,1.07426 -5.375,0.5 -1.86324,-0.57429 -3.27578,-1.73972 -4.1875,-3.46875 -0.91173,-1.72902 -1.07716,-3.51096 -0.5,-5.375 0.57716,-1.86403 1.7386,-3.24146 3.46875,-4.15625 1.08154,-0.57166 2.17909,-0.8537 3.3125,-0.84375 z m -44.25,1.96875 c 0.70799,-0.0412 1.42937,0.11318 2.125,0.4375 1.113,0.51895 1.86624,1.356 2.28125,2.5 0.13698,0.37763 0.24244,0.71209 0.28125,1.0625 1.28847,0.49936 2.15365,1.38824 2.625,2.6875 0.42715,1.17758 0.38061,2.36144 -0.15625,3.5 -0.53689,1.13856 -1.38465,1.88356 -2.5625,2.3125 l -2.4375,0.90625 c -0.42224,0.15376 -0.83365,0.13153 -1.25,-0.0625 -0.41637,-0.19412 -0.71785,-0.5043 -0.875,-0.9375 l -3.46875,-9.59375 c -0.14903,-0.41082 -0.12071,-0.84991 0.0625,-1.28125 0.21337,-0.41729 0.51526,-0.65873 0.9375,-0.8125 l 1.1875,-0.4375 c 0.42924,-0.15631 0.82521,-0.25653 1.25,-0.28125 z m 44.25,1.34375 c -0.60312,-0.007 -1.20817,0.1346 -1.78125,0.4375 -0.91692,0.48466 -1.53593,1.22459 -1.84375,2.21875 -0.30783,0.99417 -0.23318,1.95883 0.25,2.875 0.48318,0.9162 1.22492,1.53745 2.21875,1.84375 0.9938,0.30631 1.9583,0.20328 2.875,-0.28125 0.91713,-0.48477 1.53591,-1.22459 1.84375,-2.21875 0.30781,-0.99417 0.23317,-1.95882 -0.25,-2.875 -0.48319,-0.91617 -1.22494,-1.50618 -2.21875,-1.8125 -0.37269,-0.11486 -0.73189,-0.18387 -1.09375,-0.1875 z m -44,1.96875 2.34375,6.40625 0.875,-0.3125 c 0.32219,-0.11733 0.54233,-0.31445 0.6875,-0.625 0.14517,-0.31055 0.17536,-0.65757 0.0625,-0.96875 -0.0967,-0.26641 -0.27754,-0.44835 -0.5,-0.59375 -0.22246,-0.1454 -0.46613,-0.20299 -0.75,-0.1875 -0.60111,0.0428 -1.07362,-0.17286 -1.4375,-0.65625 -0.35721,-0.49887 -0.43228,-1.03822 -0.21875,-1.59375 0.0952,-0.22345 0.0963,-0.48355 0,-0.75 -0.0806,-0.22201 -0.2139,-0.40001 -0.40625,-0.53125 -0.19236,-0.13121 -0.42834,-0.18261 -0.65625,-0.1875 z m 57.5,0.4375 c 0.63101,0.005 1.24881,0.17203 1.84375,0.5 L 354,87.611604 c 0.40346,0.22243 0.65404,0.52722 0.78125,0.96875 0.12718,0.44153 0.0925,0.85627 -0.125,1.25 -0.22308,0.40386 -0.55829,0.68461 -1,0.8125 -0.44174,0.12791 -0.87777,0.0662 -1.28125,-0.15625 l -1.34375,-0.71875 c -0.14492,-0.0799 -0.30298,-0.10622 -0.46875,-0.0625 -0.16578,0.0436 -0.28913,0.12579 -0.375,0.28125 -0.08,0.14475 -0.11111,0.30002 -0.0625,0.46875 0.0486,0.16874 0.16758,0.29511 0.3125,0.375 1.07597,0.59315 1.77748,1.4965 2.125,2.6875 0.34748,1.19101 0.25684,2.31888 -0.34375,3.40625 -0.59484,1.07696 -1.52204,1.80972 -2.71875,2.15625 -1.19674,0.34651 -2.33028,0.1869 -3.40625,-0.40625 l -1.84375,-1 c -0.40317,-0.22227 -0.65389,-0.55838 -0.78125,-1 -0.12735,-0.44163 -0.098,-0.84614 0.125,-1.25 0.22307,-0.40385 0.561,-0.68989 1,-0.8125 0.439,-0.1226 0.84682,-0.066 1.25,0.15625 l 1.875,1.03125 c 0.27941,0.15404 0.56172,0.18444 0.875,0.0937 0.31327,-0.0907 0.53302,-0.28283 0.6875,-0.5625 0.16022,-0.29008 0.21807,-0.59832 0.125,-0.90625 -0.0931,-0.30793 -0.28311,-0.50222 -0.5625,-0.65625 -0.9519,-0.52475 -1.5743,-1.33119 -1.875,-2.375 -0.30071,-1.0438 -0.21366,-2.0474 0.3125,-3 0.52615,-0.9526 1.33073,-1.57263 2.375,-1.875 0.39159,-0.11339 0.77764,-0.19042 1.15625,-0.1875 z m -68.25,1.0625 c 0.085,-0.004 0.19275,-0.009 0.28125,0 0.35399,0.0357 0.67075,0.14677 0.9375,0.375 l 8.0625,7.125 c 0.47774,0.40698 0.67711,0.92111 0.5625,1.53125 -0.11018,0.59393 -0.45179,1.03144 -1.03125,1.28125 l -3.0625,1.1875 c -0.41924,0.17221 -0.86055,0.15676 -1.28125,-0.0312 -0.42071,-0.1881 -0.70376,-0.4871 -0.875,-0.90625 -0.1612,-0.42488 -0.14916,-0.82676 0.0312,-1.25 0.18065,-0.42323 0.48111,-0.74436 0.90625,-0.90625 l 0.5625,-0.1875 -2.4375,-2.15625 1.09375,5.84375 c 0.0832,0.4558 0.005,0.872926 -0.25,1.249996 -0.25461,0.3771 -0.61217,0.59301 -1.0625,0.6875 -0.45592,0.084 -0.84207,0.004 -1.21875,-0.25 -0.37666,-0.25402 -0.6355,-0.57545 -0.71875,-1.031246 l -2.03125,-10.625 c -0.0612,-0.34586 -0.0238,-0.67655 0.125,-1 0.14889,-0.32342 0.41076,-0.57373 0.71875,-0.75 0.22347,-0.12789 0.43252,-0.17555 0.6875,-0.1875 z m 34.0625,5.78125 c 0.5067,-0.0129 1.02145,0 1.53125,0 32.62723,0 59.09375,26.466526 59.09375,59.093746 0,32.62723 -26.46652,59.0625 -59.09375,59.0625 -32.62722,0 -59.0625,-26.43527 -59.0625,-59.0625 0,-32.11741 25.60882,-58.284476 57.53125,-59.093746 z m -42.875,0.0937 c 0.10808,-0.01 0.19816,-0.0114 0.3125,0 0.45736,0.0454 0.8406,0.24612 1.125,0.59375 0.29171,0.35658 0.42104,0.76131 0.375,1.21875 -0.046,0.45746 -0.23673,0.83273 -0.59375,1.125 l -1.21875,0.96875 c -0.12822,0.10498 -0.1974,0.23621 -0.21875,0.40625 -0.0213,0.17006 0.0439,0.33149 0.15625,0.46875 0.10454,0.12779 0.23151,0.20131 0.40625,0.21875 0.17472,0.0174 0.30928,-0.02 0.4375,-0.125 0.95206,-0.77943 2.07717,-1.11816 3.3125,-1 1.23532,0.1182 2.21457,0.6337 3,1.59375 0.7779,0.95086 1.12475,2.073176 1,3.312496 -0.12474,1.23934 -0.67295,2.22057 -1.625,3 l -1.65625,1.375 c -0.35674,0.29206 -0.76125,0.4202 -1.21875,0.375 -0.4575,-0.0452 -0.80205,-0.26842 -1.09375,-0.625 -0.29171,-0.35657 -0.42495,-0.76578 -0.375,-1.21875 0.05,-0.45295 0.23701,-0.83293 0.59375,-1.125 l 1.65625,-1.3125 c 0.24723,-0.20241 0.3736,-0.45681 0.40625,-0.78125 0.0327,-0.32443 -0.048,-0.62807 -0.25,-0.875 -0.20954,-0.25612 -0.46064,-0.3787 -0.78125,-0.40625 -0.3206,-0.0276 -0.62776,0.0163 -0.875,0.21875 -0.84226,0.68956 -1.79377,1.01339 -2.875,0.90625 -1.08122,-0.10713 -1.96816,-0.56517 -2.65625,-1.40625 -0.68807,-0.841046 -0.98384,-1.824796 -0.875,-2.906246 0.10887,-1.08141 0.59524,-1.96668 1.4375,-2.65625 l 1.1875,-0.96875 c 0.26776,-0.2192 0.58205,-0.34569 0.90625,-0.375 z m 88,0.0625 c 0.0853,-0.008 0.16116,-0.004 0.25,0 0.35537,0.0174 0.65982,0.15486 0.9375,0.375 0.26861,0.21299 0.46448,0.47057 0.5625,0.8125 0.098,0.34194 0.0818,0.66719 -0.0312,1 l -3.59375,10.218746 c -0.2009,0.59542 -0.64116,0.94117 -1.25,1.0625 -0.59214,0.11937 -1.0848,-0.0553 -1.53125,-0.5 l -2.28125,-2.40625 c -0.31511,-0.32492 -0.45634,-0.72672 -0.4375,-1.1875 0.0188,-0.46078 0.1743,-0.8096 0.5,-1.125 0.33473,-0.30824 0.75897,-0.4785 1.21875,-0.46875 0.45977,0.01 0.84854,0.16575 1.15625,0.5 l 0.40625,0.46875 1.0625,-3.062496 -5,3.218746 c -0.3923,0.24739 -0.80567,0.31438 -1.25,0.21875 -0.44432,-0.0956 -0.7768,-0.33594 -1.03125,-0.71875 -0.24676,-0.39192 -0.34633,-0.83676 -0.25,-1.28125 0.0963,-0.44449 0.3577,-0.783846 0.75,-1.031246 l 9.0625,-5.84375 c 0.22381,-0.13942 0.49414,-0.22499 0.75,-0.25 z"
       id="path3915-7-1-0-7-74"
       inkscape:connector-curvature="0" />
    <path
       sodipodi:type="arc"
       style="fill:#000000;fill-opacity:0;stroke:none"
       id="path3924-2"
       sodipodi:cx="540.68414"
       sodipodi:cy="641.4826"
       sodipodi:rx="91.166267"
       sodipodi:ry="91.166267"
       d="m 631.85041,641.4826 a 91.166267,91.166267 0 1 1 -182.33253,0 91.166267,91.166267 0 1 1 182.33253,0 z"
       transform="matrix(-0.82339262,0,0,0.82339262,763.2077,-376.31953)" />
    <path
       style="fill:#ffffff;fill-opacity:1;stroke:none"
       d="m 160.04656,119.16172 c -5.37404,0.0929 -12.33575,3.41149 -12.25202,10.69929 0.10306,0.76519 0.24173,1.51282 0.67932,2.11075 l -5.82275,5.82274 c -0.005,0.1323 -0.15775,0.11159 -0.16983,0.24261 1.0709,2.19285 0.91459,2.62407 0.89767,4.31854 0.25734,0.75188 0.65225,2.39901 0.41245,3.56643 -0.13475,0.65602 0.34961,0.98617 0.36392,1.31012 l 9.82588,-9.94719 c 0.72079,0.45923 1.37791,0.74208 2.0137,0.77637 7.73586,-0.96477 10.65773,-8.1837 10.62651,-13.5864 l -6.06536,5.87126 -5.48308,-5.50734 5.65291,-5.67718 -0.14556,0 c -0.16978,-0.004 -0.3604,-0.003 -0.53376,0 z m -27.82787,1.64977 c -0.51347,0.009 -1.0249,0.1002 -1.35864,0.29114 -0.37885,0.21677 -1.6675,0.0329 -2.0137,1.31013 -0.97601,0.40414 -1.22211,0.81273 -1.1888,2.30483 -0.92588,0.34054 -1.49251,1.52842 -1.55274,4.05166 -1.28469,1.52641 -0.86628,2.3365 -0.87341,3.32381 -1.27572,1.11674 -1.67077,2.51291 -1.28585,4.14871 -0.9608,0.75993 -1.30562,2.22824 -1.14029,4.34279 -1.27715,1.60631 -1.20518,3.20389 -0.84915,4.77951 -1.52705,2.19469 -0.82082,3.37871 -0.53375,4.75524 -1.13257,1.07516 -0.69345,2.77702 0.097,4.63394 -0.34375,0.33671 -0.56961,0.76622 -0.65506,1.31011 -4.62563,-5.87006 -7.08598,-4.2632 -8.58855,-0.80062 3.90924,-2.28399 5.55725,6.33773 6.23519,8.34593 2.78195,7.10238 3.18748,15.36661 7.64235,17.20136 0.85976,0.32761 1.38189,1.34752 4.0274,1.64977 0.10084,0.0409 0.21936,0.0515 0.33966,0.0242 0.29451,0.0255 0.60008,0.0666 0.9462,0.0727 l -0.0485,3.2025 2.25631,0.0485 -0.0485,-3.49364 c 2.18899,-0.1921 4.9676,-0.19046 6.0411,-1.98945 4.90273,-4.56304 3.86029,-7.46733 6.40502,-15.79419 1.4968,-4.01258 -0.24809,-10.18694 8.20036,-14.07164 -3.8094,0.78764 -7.01553,1.11825 -10.11702,3.712 0.0651,-0.43269 0.048,-0.98683 -0.097,-1.77108 -0.0305,-0.40293 -0.10927,-0.91309 -0.26688,-1.52847 0.20752,-0.8641 0.16568,-1.58766 0,-2.25632 -0.0742,-0.84918 -0.39739,-1.60138 -0.70358,-2.32909 0.19042,-1.01074 0.14024,-1.65573 0,-2.20779 -0.0495,-0.69146 -0.25281,-1.18352 -0.41244,-1.72256 0.17306,-0.53478 0.17065,-1.09222 0.0242,-1.67404 -0.0325,-0.98903 -0.55759,-2.03811 -1.28585,-3.12973 0.0945,-0.56325 0.0849,-1.11553 -0.0728,-1.67404 -0.0366,-0.74109 -0.29363,-1.47784 -0.92193,-2.20779 0.16051,-0.44022 0.14743,-0.8757 0,-1.31012 0.0338,-0.82442 -0.50512,-1.66511 -1.26159,-2.47466 0.0143,-0.48744 -0.0536,-0.8618 -0.14557,-1.16456 -0.0651,-1.16787 -0.52956,-1.57816 -0.9462,-2.135 0.0731,-1.47582 -0.73278,-2.69135 -1.52847,-3.42087 -0.0352,-0.63323 -0.96609,-1.77878 -2.35336,-1.55273 -0.23026,-0.56973 -1.10938,-0.81529 -1.96518,-0.80062 z m -32.291966,0.0485 c -0.0172,-0.002 -0.0209,0.0131 -0.0242,0.0242 -0.053,0.17867 1.657816,2.08668 4.828016,5.74996 l 1.86813,1.96518 -0.97045,1.47994 c 1.22695,1.45016 2.3231,2.83585 4.3428,4.48837 l 1.0675,-0.53375 9.48622,9.65605 0.72785,0.87341 c -0.22253,-1.1961 -0.10078,-2.40149 0.58227,-3.61495 l -0.50949,-0.53375 -8.32167,-8.54003 0.38817,-0.99471 c -1.91851,-2.6364 -3.15583,-3.52413 -4.36705,-4.41559 l -1.26159,0.89768 -2.03797,-1.77109 c -3.69755,-3.13097 -5.54007,-4.69599 -5.798476,-4.73098 z m 47.334056,41.92377 c -0.1291,0.74019 -0.2683,1.4642 -0.50948,2.11074 -0.90446,2.95956 -1.36998,5.22304 -1.79535,7.13286 0.23888,0.26648 0.48786,0.53404 0.72785,0.80064 1.82827,2.02663 3.21991,3.68467 5.38603,5.28899 1.57508,0.49932 3.19835,0.66234 4.4641,0.21836 l 4.56116,4.39131 c 2.15741,1.91401 4.27526,2.3014 6.67189,2.03797 0.12676,-0.43878 0.18294,-0.71534 0.33966,-1.1403 -2.31756,-0.3273 -4.55391,-1.40403 -5.79848,-2.66876 l -4.53689,-4.27001 c 0.17018,-1.34298 0.73151,-2.08904 0.1213,-3.93035 -2.25811,-4.18179 -5.40859,-6.24883 -8.87968,-9.31639 -0.002,0.0135 0.002,0.0351 0,0.0485 -0.2488,-0.2197 -0.50587,-0.47061 -0.75211,-0.70358 z m -29.74452,0.0242 -5.7257,5.74996 c -0.94207,-0.62205 -1.89021,-0.44815 -2.52319,-0.60653 -7.73586,0.96475 -10.148226,8.08665 -10.117016,13.48936 l 5.968316,-5.94406 5.67718,5.67718 -5.6044,5.60439 c 5.43269,0.11943 12.60534,-2.69116 12.51891,-10.21406 -0.0997,-0.56091 0.12311,-1.44501 -0.21836,-2.08649 l 2.66875,-2.95989 c -0.60431,-2.21346 -1.21542,-4.51 -2.06221,-6.6719 -9e-5,-0.007 -9e-5,-0.0172 0,-0.0242 -0.15932,-0.47184 -0.35283,-1.20718 -0.58228,-2.01369 z"
       id="path3915-7-1-0-7-4"
       inkscape:connector-curvature="0" />
    <text
       xml:space="preserve"
       style="font-size:40px;font-style:normal;font-weight:normal;line-height:125%;letter-spacing:0px;word-spacing:0px;fill:#000000;fill-opacity:1;stroke:none;font-family:Sans"
       id="text3905"
       sodipodi:linespacing="125%"><textPath
         xlink:href="#path3913"
         id="textPath3915"
         style="font-size:19px;font-style:normal;font-variant:normal;font-weight:bold;font-stretch:normal;letter-spacing:2.19000006px;font-family:Garoa Hacker Clube;-inkscape-font-specification:Garoa Hacker Clube Bold"
         dx="45.889999">hAcker clube</textPath></text>
    <path
       sodipodi:type="arc"
       style="fill:#000000;fill-opacity:0.33755278;stroke:none"
       id="path3913"
       sodipodi:cx="601.96429"
       sodipodi:cy="545.39789"
       sodipodi:rx="60.892857"
       sodipodi:ry="60.892857"
       d="m 662.85715,545.39789 a 60.892857,60.892857 0 1 1 -121.78571,0 60.892857,60.892857 0 1 1 121.78571,0 z"
       transform="matrix(-1.2316715,0,0,1.2316715,1106.9623,253.59497)" />
    <text
       xml:space="preserve"
       style="font-size:40px;font-style:normal;font-weight:normal;line-height:125%;letter-spacing:0px;word-spacing:0px;fill:#000000;fill-opacity:1;stroke:none;font-family:Sans"
       x="545.71429"
       y="580.93359"
       id="text3918"
       sodipodi:linespacing="125%"><tspan
         sodipodi:role="line"
         id="tspan3920"></tspan></text>
    <text
       transform="translate(-285.03341,-393.01592)"
       xml:space="preserve"
       style="font-size:40px;font-style:normal;font-weight:normal;line-height:125%;letter-spacing:0px;word-spacing:0px;fill:#000000;fill-opacity:1;stroke:none;font-family:Sans"
       id="text3905-7"
       sodipodi:linespacing="125%"><textPath
         xlink:href="#path3913-51"
         id="textPath3915-1"
         style="font-size:19px;font-style:normal;font-variant:normal;font-weight:bold;font-stretch:normal;letter-spacing:2.19000006px;font-family:Garoa Hacker Clube;-inkscape-font-specification:Garoa Hacker Clube Bold"
         dx="45.889999">hAcker clube</textPath></text>
    <path
       inkscape:connector-curvature="0"
       style="fill:#ffffff;fill-opacity:1;stroke:none"
       d="m 350.84408,110.86412 c -6.55398,0.11327 -15.04422,4.16053 -14.94212,13.04846 0.12569,0.9332 0.2948,1.84498 0.82847,2.57418 l -7.1012,7.1012 c -0.006,0.16135 -0.19238,0.13609 -0.20712,0.2959 1.30604,2.6743 1.1154,3.2002 1.09477,5.26671 0.31385,0.91696 0.79546,2.92575 0.503,4.34949 -0.16433,0.80006 0.42637,1.20269 0.44383,1.59778 l 11.98328,-12.13123 c 0.87904,0.56006 1.68044,0.90501 2.45583,0.94683 9.43437,-1.1766 12.99777,-9.98053 12.9597,-16.56947 l -7.39709,7.16038 -6.68696,-6.71656 6.89408,-6.92367 -0.17753,0 c -0.20705,-0.005 -0.43953,-0.004 -0.65094,0 z m -33.93784,2.012 c -0.62621,0.0107 -1.24993,0.1222 -1.65694,0.35507 -0.46204,0.26435 -2.03363,0.0402 -2.45584,1.59776 -1.19031,0.49289 -1.49044,0.99118 -1.44983,2.8109 -1.12916,0.4153 -1.82021,1.864 -1.89365,4.94125 -1.56675,1.86156 -1.05649,2.84951 -1.06518,4.05361 -1.55582,1.36192 -2.03761,3.06465 -1.56819,5.05961 -1.17174,0.92678 -1.59228,2.71746 -1.39064,5.2963 -1.55757,1.95899 -1.46979,3.90734 -1.0356,5.82891 -1.86232,2.67657 -1.00103,4.12055 -0.65094,5.79931 -1.38124,1.31123 -0.8457,3.38675 0.11835,5.65139 -0.41923,0.41064 -0.69467,0.93445 -0.79888,1.59776 -5.64125,-7.15891 -8.6418,-5.19925 -10.47427,-0.97641 4.76756,-2.78547 6.77741,7.72926 7.6042,10.17839 3.39277,8.66179 3.88733,18.74055 9.32032,20.97813 1.04853,0.39954 1.68531,1.64339 4.91168,2.01202 0.12297,0.0498 0.26751,0.0628 0.41423,0.0296 0.35918,0.031 0.73183,0.0811 1.15394,0.0887 l -0.0591,3.90566 2.75171,0.0591 -0.0591,-4.26072 c 2.6696,-0.23427 6.0583,-0.23227 7.36749,-2.42625 5.97919,-5.56491 4.70786,-9.10688 7.81132,-19.26201 1.82545,-4.89359 -0.30256,-12.42361 10.00086,-17.16124 -4.6458,0.96058 -8.55587,1.36377 -12.33833,4.52702 0.0794,-0.5277 0.0586,-1.20351 -0.11836,-2.15995 -0.0372,-0.49141 -0.13327,-1.11358 -0.32547,-1.86407 0.25308,-1.05382 0.20206,-1.93625 0,-2.75171 -0.0905,-1.03564 -0.48465,-1.953 -0.85806,-2.84049 0.23223,-1.23265 0.17103,-2.01927 0,-2.69254 -0.0604,-0.84327 -0.30831,-1.44337 -0.503,-2.10076 0.21106,-0.65221 0.20812,-1.33203 0.0296,-2.04161 -0.0396,-1.20617 -0.68002,-2.4856 -1.56818,-3.81689 0.11528,-0.68691 0.10358,-1.36046 -0.0887,-2.0416 -0.0445,-0.9038 -0.3581,-1.80232 -1.12435,-2.69254 0.19574,-0.53687 0.17979,-1.06797 0,-1.59777 0.0412,-1.00543 -0.61603,-2.03071 -1.5386,-3.01801 0.0174,-0.59445 -0.0653,-1.05101 -0.17752,-1.42024 -0.0794,-1.42429 -0.64582,-1.92467 -1.15395,-2.60378 0.0892,-1.79984 -0.89367,-3.28226 -1.86407,-4.17195 -0.0429,-0.77228 -1.1782,-2.16935 -2.87007,-1.89366 -0.28081,-0.69473 -1.35295,-0.9942 -2.39665,-0.97632 z m -39.38208,0.0591 c -0.0209,-0.002 -0.0255,0.0159 -0.0296,0.0296 -0.0646,0.21788 2.02181,2.54482 5.88808,7.01244 l 2.2783,2.39664 -1.18354,1.8049 c 1.49635,1.76856 2.83317,3.45849 5.29632,5.47384 l 1.30188,-0.65094 11.56905,11.77616 0.88765,1.06518 c -0.27138,-1.45873 -0.1229,-2.92878 0.71012,-4.40867 l -0.62136,-0.65093 -10.1488,-10.4151 0.47341,-1.21313 c -2.33975,-3.21524 -3.84874,-4.2979 -5.3259,-5.38507 l -1.53859,1.09476 -2.48542,-2.15995 c -4.5094,-3.81842 -6.75647,-5.72706 -7.07161,-5.76972 z m 57.72685,51.12867 c -0.15744,0.9027 -0.32721,1.78567 -0.62135,2.57419 -1.10305,3.60937 -1.67077,6.3698 -2.18953,8.69896 0.29133,0.32498 0.59497,0.65128 0.88764,0.97642 2.22971,2.47161 3.92689,4.49369 6.56861,6.45026 1.92092,0.60895 3.90061,0.80777 5.44426,0.26629 l 5.56261,5.35549 c 2.63111,2.33427 5.21395,2.8067 8.13679,2.48542 0.15459,-0.53511 0.22311,-0.87238 0.41424,-1.39064 -2.82641,-0.39918 -5.55378,-1.71231 -7.07161,-3.25473 l -5.53302,-5.20754 c 0.20755,-1.63786 0.89212,-2.54772 0.14794,-4.79331 -2.75391,-5.09997 -6.59611,-7.62085 -10.82933,-11.36193 -0.003,0.0163 0.003,0.0428 0,0.0592 -0.30342,-0.26794 -0.61694,-0.57394 -0.91725,-0.85806 z m -36.2753,0.0296 -6.98286,7.01244 c -1.14892,-0.75862 -2.30524,-0.54654 -3.07718,-0.7397 -9.43436,1.17658 -12.37642,9.86218 -12.33834,16.45112 l 7.27873,-7.24915 6.92367,6.92367 -6.83491,6.83491 c 6.62551,0.14565 15.37301,-3.28203 15.26759,-12.45669 -0.12161,-0.68406 0.15014,-1.76228 -0.26629,-2.5446 l 3.25471,-3.60978 c -0.737,-2.69945 -1.48229,-5.50022 -2.515,-8.1368 -1.2e-4,-0.009 -1.2e-4,-0.021 0,-0.0296 -0.19429,-0.57545 -0.4303,-1.47224 -0.71012,-2.45583 z"
       id="path3915-7-1-0-7-4-5" />
    <text
       xml:space="preserve"
       style="font-size:40px;font-style:normal;font-weight:normal;line-height:125%;letter-spacing:0px;word-spacing:0px;fill:#f7ff14;fill-opacity:1;stroke:none;font-family:Sans"
       x="39.338234"
       y="815.90741"
       id="text4642-2"
       sodipodi:linespacing="125%"><tspan
         sodipodi:role="line"
         id="tspan4644-7"
         x="39.338234"
         y="815.90741"
         style="font-size:28px">Objetos auxiliares</tspan></text>
    <rect
       style="fill:#083e00;fill-opacity:1;stroke:none"
       id="rect4114"
       width="301.53055"
       height="150.51273"
       x="442.9519"
       y="77.059898"
       ry="13.217155" />
    <g
       id="g4124"
       transform="translate(0,1.0101523)">
      <path
         inkscape:connector-curvature="0"
         style="fill:none;stroke:#17a519;stroke-width:0.87052584;stroke-miterlimit:4;stroke-opacity:0.99578091;stroke-dasharray:none"
         d="m 560.79159,147.34913 4.63177,-0.37285 0.83743,0.0314 5.58774,1.61992 0,5.35703 -5.58774,1.61991 -0.83743,0.0314 -4.63177,-0.37285 -1.18258,7.46788 4.52005,1.07676 0.78657,0.28838 4.81388,3.26753 -1.65533,5.09454 -5.81527,-0.18574 -0.80609,-0.22934 -4.28935,-1.78568 -3.43285,6.73671 3.96646,2.42056 0.65895,0.51772 3.56863,4.59544 -3.14854,4.3334 -5.4733,-1.97369 -0.69574,-0.46686 -3.52775,-3.02411 -5.3466,5.34659 3.02412,3.52775 0.46686,0.69575 1.97369,5.47329 -4.3334,3.14854 -4.59544,-3.56862 -0.51773,-0.65896 -2.42055,-3.96645 -6.73672,3.43284 1.78569,4.28935 0.22934,0.8061 0.18574,5.81526 -5.09454,1.65533 -3.26754,-4.81387 -0.28837,-0.78658 -1.07677,-4.52005 -7.46787,1.18258 0.37284,4.63178 -0.0314,0.83742 -1.61991,5.58774 -5.35704,0 -1.61991,-5.58774 -0.0314,-0.83742 0.37285,-4.63178 -7.46787,-1.18258 -1.07676,4.52005 -0.28838,0.78658 -3.26753,4.81387 -5.09455,-1.65533 0.18574,-5.81526 0.22935,-0.8061 1.78568,-4.28935 -6.73671,-3.43284 -2.42057,3.96645 -0.51771,0.65896 -4.59544,3.56862 -4.33341,-3.14854 1.9737,-5.47329 0.46685,-0.69575 3.02412,-3.52775 -5.3466,-5.34659 -3.52774,3.02411 -0.69574,0.46686 -5.47329,1.97369 -3.14855,-4.3334 3.56863,-4.59544 0.65896,-0.51772 3.96645,-2.42056 -3.43284,-6.73671 -4.28936,1.78568 -0.80609,0.22934 -5.81526,0.18574 -1.65534,-5.09454 4.81388,-3.26753 0.78657,-0.28838 4.52006,-1.07676 -1.18259,-7.46788 -4.63177,0.37285 -0.83743,-0.0314 -5.58773,-1.61991 0,-5.35703 5.58773,-1.61992 0.83743,-0.0314 4.63177,0.37285 1.18259,-7.46788 -4.52006,-1.07676 -0.78657,-0.28838 -4.81388,-3.26753 1.65534,-5.09454 5.81526,0.18574 0.80609,0.22934 4.28936,1.78568 3.43284,-6.73671 -3.96645,-2.42056 -0.65896,-0.51772 -3.56863,-4.59545 3.14855,-4.33339 5.47329,1.97368 0.69574,0.46687 3.52774,3.02411 5.3466,-5.34659 -3.02412,-3.52776 -0.46685,-0.69573 -1.9737,-5.4733 4.33341,-3.14855 4.59544,3.56863 0.51771,0.65896 2.42057,3.96645 6.73671,-3.43285 -1.78568,-4.28935 -0.22935,-0.8061 -0.18574,-5.815252 5.09455,-1.65534 3.26753,4.81388 0.28838,0.78657 1.07676,4.520062 7.46787,-1.18259 -0.37285,-4.631772 0.0314,-0.83743 1.61991,-5.58773 5.35704,0 1.61991,5.58773 0.0314,0.83743 -0.37284,4.631772 7.46787,1.18259 1.07677,-4.520062 0.28837,-0.78657 3.26754,-4.81388 5.09454,1.65534 -0.18574,5.815252 -0.22934,0.8061 -1.78569,4.28935 6.73672,3.43285 2.42055,-3.96645 0.51773,-0.65896 4.59544,-3.56863 4.3334,3.14855 -1.97369,5.4733 -0.46686,0.69573 -3.02412,3.52776 5.3466,5.34659 3.52775,-3.02411 0.69574,-0.46687 5.4733,-1.97368 3.14854,4.33339 -3.56863,4.59545 -0.65895,0.51772 -3.96646,2.42056 3.43285,6.73671 4.28935,-1.78568 0.80609,-0.22934 5.81527,-0.18574 1.65533,5.09454 -4.81388,3.26753 -0.78657,0.28838 -4.52005,1.07676 z"
         id="path16829-4-5-6-6" />
      <path
         inkscape:connector-curvature="0"
         id="path3915-7-1-0-7-4-1"
         d="m 538.30709,117.58987 c -5.37404,0.0929 -12.33575,3.41149 -12.25202,10.69929 0.10306,0.76519 0.24173,1.51282 0.67932,2.11075 l -5.82275,5.82274 c -0.005,0.1323 -0.15775,0.11159 -0.16983,0.24261 1.0709,2.19285 0.91459,2.62407 0.89767,4.31854 0.25734,0.75188 0.65225,2.39901 0.41245,3.56643 -0.13475,0.65602 0.34961,0.98617 0.36392,1.31012 l 9.82588,-9.94719 c 0.72079,0.45923 1.37791,0.74208 2.0137,0.77637 7.73586,-0.96477 10.65773,-8.1837 10.62651,-13.5864 l -6.06536,5.87126 -5.48308,-5.50734 5.65291,-5.67718 -0.14556,0 c -0.16978,-0.004 -0.3604,-0.003 -0.53376,0 z m -27.82787,1.64977 c -0.51347,0.009 -1.0249,0.1002 -1.35864,0.29114 -0.37885,0.21677 -1.6675,0.0329 -2.0137,1.31013 -0.97601,0.40414 -1.22211,0.81273 -1.1888,2.30483 -0.92588,0.34054 -1.49251,1.52842 -1.55274,4.05166 -1.28469,1.52641 -0.86628,2.3365 -0.87341,3.32381 -1.27572,1.11674 -1.67077,2.51291 -1.28585,4.14871 -0.9608,0.75993 -1.30562,2.22824 -1.14029,4.34279 -1.27715,1.60631 -1.20518,3.20389 -0.84915,4.77951 -1.52705,2.19469 -0.82082,3.37871 -0.53375,4.75524 -1.13257,1.07516 -0.69345,2.77702 0.097,4.63394 -0.34375,0.33671 -0.56961,0.76622 -0.65506,1.31011 -4.62563,-5.87006 -7.08598,-4.2632 -8.58855,-0.80062 3.90924,-2.28399 5.55725,6.33773 6.23519,8.34593 2.78195,7.10238 3.18748,15.36661 7.64235,17.20136 0.85976,0.32761 1.38189,1.34752 4.0274,1.64977 0.10084,0.0409 0.21936,0.0515 0.33966,0.0242 0.29451,0.0255 0.60008,0.0666 0.9462,0.0727 l -0.0485,3.2025 2.25631,0.0485 -0.0485,-3.49364 c 2.18899,-0.1921 4.9676,-0.19046 6.0411,-1.98945 4.90273,-4.56304 3.86029,-7.46733 6.40502,-15.79419 1.4968,-4.01258 -0.24809,-10.18694 8.20036,-14.07164 -3.8094,0.78764 -7.01553,1.11825 -10.11702,3.712 0.0651,-0.43269 0.048,-0.98683 -0.097,-1.77108 -0.0305,-0.40293 -0.10927,-0.91309 -0.26688,-1.52847 0.20752,-0.8641 0.16568,-1.58766 0,-2.25632 -0.0742,-0.84918 -0.39739,-1.60138 -0.70358,-2.32909 0.19042,-1.01074 0.14024,-1.65573 0,-2.20779 -0.0495,-0.69146 -0.25281,-1.18352 -0.41244,-1.72256 0.17306,-0.53478 0.17065,-1.09222 0.0242,-1.67404 -0.0325,-0.98903 -0.55759,-2.03811 -1.28585,-3.12973 0.0945,-0.56325 0.0849,-1.11553 -0.0728,-1.67404 -0.0366,-0.74109 -0.29363,-1.47784 -0.92193,-2.20779 0.16051,-0.44022 0.14743,-0.8757 0,-1.31012 0.0338,-0.82442 -0.50512,-1.66511 -1.26159,-2.47466 0.0143,-0.48744 -0.0536,-0.8618 -0.14557,-1.16456 -0.0651,-1.16787 -0.52956,-1.57816 -0.9462,-2.135 0.0731,-1.47582 -0.73278,-2.69135 -1.52847,-3.42087 -0.0352,-0.63323 -0.96609,-1.77878 -2.35336,-1.55273 -0.23026,-0.56973 -1.10938,-0.81529 -1.96518,-0.80062 z m -32.29197,0.0485 c -0.0172,-0.002 -0.0209,0.0131 -0.0242,0.0242 -0.053,0.17867 1.65782,2.08668 4.82802,5.74996 l 1.86813,1.96518 -0.97045,1.47994 c 1.22695,1.45016 2.3231,2.83585 4.3428,4.48837 l 1.0675,-0.53375 9.48622,9.65605 0.72785,0.87341 c -0.22253,-1.1961 -0.10078,-2.40149 0.58227,-3.61495 l -0.50949,-0.53375 -8.32167,-8.54003 0.38817,-0.99471 c -1.91851,-2.6364 -3.15583,-3.52413 -4.36705,-4.41559 l -1.26159,0.89768 -2.03797,-1.77109 c -3.69755,-3.13097 -5.54007,-4.69599 -5.79848,-4.73098 z m 47.33406,41.92377 c -0.1291,0.74019 -0.2683,1.4642 -0.50948,2.11074 -0.90446,2.95956 -1.36998,5.22304 -1.79535,7.13286 0.23888,0.26648 0.48786,0.53404 0.72785,0.80064 1.82827,2.02663 3.21991,3.68467 5.38603,5.28899 1.57508,0.49932 3.19835,0.66234 4.4641,0.21836 l 4.56116,4.39131 c 2.15741,1.91401 4.27526,2.3014 6.67189,2.03797 0.12676,-0.43878 0.18294,-0.71534 0.33966,-1.1403 -2.31756,-0.3273 -4.55391,-1.40403 -5.79848,-2.66876 l -4.53689,-4.27001 c 0.17018,-1.34298 0.73151,-2.08904 0.1213,-3.93035 -2.25811,-4.18179 -5.40859,-6.24883 -8.87968,-9.31639 -0.002,0.0135 0.002,0.0351 0,0.0485 -0.2488,-0.2197 -0.50587,-0.47061 -0.75211,-0.70358 z m -29.74452,0.0242 -5.7257,5.74996 c -0.94207,-0.62205 -1.89021,-0.44815 -2.52319,-0.60653 -7.73586,0.96475 -10.14823,8.08665 -10.11702,13.48936 l 5.96832,-5.94406 5.67718,5.67718 -5.6044,5.60439 c 5.43269,0.11943 12.60534,-2.69116 12.51891,-10.21406 -0.0997,-0.56091 0.12311,-1.44501 -0.21836,-2.08649 l 2.66875,-2.95989 c -0.60431,-2.21346 -1.21542,-4.51 -2.06221,-6.6719 -9e-5,-0.007 -9e-5,-0.0172 0,-0.0242 -0.15932,-0.47184 -0.35283,-1.20718 -0.58228,-2.01369 z"
         style="fill:#17a519;fill-opacity:0.99607843;stroke:none" />
    </g>
    <g
       id="g4117"
       transform="translate(0,1.4116297)">
      <text
         sodipodi:linespacing="125%"
         id="text4065"
         y="150.30896"
         x="583.06409"
         style="font-size:29.68948364px;font-style:normal;font-weight:normal;line-height:125%;letter-spacing:0px;word-spacing:0px;fill:#17a519;fill-opacity:0.99607843;stroke:none;font-family:Sans"
         xml:space="preserve"><tspan
           style="font-style:normal;font-variant:normal;font-weight:bold;font-stretch:normal;fill:#17a519;fill-opacity:0.99607843;font-family:Garoa Hacker Clube;-inkscape-font-specification:Garoa Hacker Clube Bold"
           y="150.30896"
           x="583.06409"
           id="tspan4067"
           sodipodi:role="line">SABUGOSA</tspan><tspan
           id="tspan4069"
           y="187.42081"
           x="583.06409"
           sodipodi:role="line" /></text>
      <text
         sodipodi:linespacing="125%"
         id="text4071"
         y="174.2294"
         x="583.34375"
         style="font-size:23.80753708px;font-style:normal;font-weight:normal;line-height:125%;letter-spacing:0px;word-spacing:0px;fill:#17a519;fill-opacity:0.99607843;stroke:none;font-family:Sans"
         xml:space="preserve"><tspan
           style="font-style:normal;font-variant:normal;font-weight:bold;font-stretch:normal;fill:#17a519;fill-opacity:0.99607843;font-family:Garoa Hacker Clube;-inkscape-font-specification:Garoa Hacker Clube Bold"
           y="174.2294"
           x="583.34375"
           id="tspan4073"
           sodipodi:role="line">hAcker clube</tspan></text>
    </g>
    <text
       xml:space="preserve"
       style="font-size:40px;font-style:normal;font-weight:normal;line-height:125%;letter-spacing:0px;word-spacing:0px;fill:#000000;fill-opacity:1;stroke:none;font-family:Sans"
       x="481.08365"
       y="878.95605"
       id="text4065-3"
       sodipodi:linespacing="125%"><tspan
         sodipodi:role="line"
         id="tspan4067-2"
         x="481.08365"
         y="878.95605"
         style="font-style:normal;font-variant:normal;font-weight:bold;font-stretch:normal;font-family:Garoa Hacker Clube;-inkscape-font-specification:Garoa Hacker Clube Bold">SABUGOSA</tspan><tspan
         sodipodi:role="line"
         x="481.08365"
         y="928.95605"
         id="tspan4069-2" /></text>
    <text
       xml:space="preserve"
       style="font-size:40px;font-style:normal;font-weight:normal;line-height:125%;letter-spacing:0px;word-spacing:0px;fill:#000000;fill-opacity:1;stroke:none;font-family:Sans"
       x="473.00241"
       y="976.43579"
       id="text4071-1"
       sodipodi:linespacing="125%"><tspan
         sodipodi:role="line"
         id="tspan4073-6"
         x="473.00241"
         y="976.43579"
         style="font-style:normal;font-variant:normal;font-weight:bold;font-stretch:normal;font-family:Garoa Hacker Clube;-inkscape-font-specification:Garoa Hacker Clube Bold">hAcker clube</tspan></text>
    <path
       style="fill:#ffffff;fill-opacity:1;stroke:none"
       d="m 113.46336,493.94346 -2.09375,7.21875 c -4.15159,0.31278 -8.21702,0.95388 -12.156263,1.90625 l -4.21875,-6.1875 -7.03125,2.3125 0.21875,7.4375 c -3.83636,1.57986 -7.50824,3.46646 -11,5.625 l -5.875,-4.59375 -6,4.375 2.5625,7 c -3.1484,2.67704 -6.07347,5.60094 -8.75,8.75 l -7.03125,-2.5625 -4.34375,6 4.59375,5.90625 c -2.15259,3.48576 -4.04827,7.14005 -5.625,10.96875 l -7.46875,-0.21875 -2.28125,7.03125 6.1875,4.21875 c -0.95312,3.93947 -1.59208,8.00479 -1.90625,12.15625 l -7.21875,2.09375 0,7.40625 7.21875,2.09375 c 0.31508,4.16216 0.94629,8.23999 1.90625,12.1875 l -6.1875,4.1875 2.28125,7.03125 7.46875,-0.21875 c 1.58224,3.83224 3.49995,7.47924 5.65625,10.96875 l -4.625,5.90625 4.34375,6 7,-2.5625 c 2.68138,3.14962 5.62632,6.07329 8.78125,8.75 l -2.5625,7.03125 6,4.34375 5.90625,-4.59375 c 3.48677,2.15437 7.14054,4.04612 10.96875,5.625 l -0.21875,7.46875 7.03125,2.28125 4.21875,-6.1875 c 3.943673,0.95281 8.000203,1.62416 12.156263,1.9375 l 2.09375,7.1875 7.40625,0 2.09375,-7.1875 c 4.16447,-0.31407 8.23653,-0.94881 12.1875,-1.90625 l 4.1875,6.15625 7.03125,-2.28125 -0.21875,-7.46875 c 3.82385,-1.5767 7.48743,-3.47448 10.96875,-5.625 l 5.90625,4.59375 6,-4.34375 -2.5,-6.90625 0.0312,-0.0312 0.4375,-0.5 0,-0.0312 c 2.94671,-2.55165 5.68755,-5.34119 8.21875,-8.3125 l 7.03125,2.5625 4.34375,-6 -4.59375,-5.875 c 2.15796,-3.49049 4.04444,-7.16623 5.625,-11 l 7.46875,0.21875 2.28125,-7.03125 -6.1875,-4.1875 c 0.95831,-3.95269 1.62387,-8.02038 1.9375,-12.1875 l 7.1875,-2.09375 0,-7.40625 -7.21875,-2.09375 c -0.31444,-4.15146 -0.95233,-8.21678 -1.90625,-12.15625 l 6.1875,-4.21875 -2.28125,-7.03125 -7.46875,0.21875 c -1.5776,-3.82792 -3.47147,-7.48363 -5.625,-10.96875 l 4.59375,-5.90625 -4.34375,-6 -7.0625,2.5625 c -2.67214,-3.14213 -5.57672,-6.04656 -8.71875,-8.71875 l 2.5625,-7.03125 -6,-4.375 -5.90625,4.59375 c -3.48512,-2.15353 -7.14083,-4.0474 -10.96875,-5.625 l 0.21875,-7.4375 -7.03125,-2.3125 -4.21875,6.1875 c -3.93947,-0.95392 -8.00479,-1.59181 -12.15625,-1.90625 l -2.09375,-7.21875 -7.40625,0 z m 6.5,8.84375 c 0.23574,-0.0101 0.47523,-0.012 0.71875,0 1.07439,0.0525 2.12383,0.33036 3.0625,0.84375 0.93865,0.51344 1.68168,1.22278 2.3125,2.09375 0.27722,0.36864 0.38854,0.7668 0.3125,1.21875 -0.076,0.45198 -0.25655,0.82764 -0.625,1.09375 -0.36846,0.26612 -0.82913,0.38191 -1.28125,0.3125 -0.45215,-0.0694 -0.78526,-0.31888 -1.0625,-0.6875 -0.69643,-0.98074 -1.6709,-1.47248 -2.875,-1.53125 -1.0391,-0.0507 -1.94993,0.2412 -2.71875,0.9375 -0.76883,0.69631 -1.1664,1.55472 -1.21875,2.59375 -0.0524,1.03904 0.27369,1.95101 0.96875,2.71875 0.69506,0.76774 1.55465,1.16804 2.59375,1.21875 0.72023,0.0352 1.40984,-0.11436 2.03125,-0.46875 0.62137,-0.35437 1.08711,-0.82752 1.4375,-1.4375 l -3.34375,-0.15625 c -0.46047,-0.0225 -0.81675,-0.2218 -1.125,-0.5625 -0.30827,-0.34069 -0.46071,-0.72699 -0.4375,-1.1875 0.0231,-0.46051 0.19056,-0.85336 0.53125,-1.15625 0.34068,-0.30286 0.75829,-0.42872 1.21875,-0.40625 l 5.375,0.28125 c 0.46044,0.0225 0.84767,0.16544 1.15625,0.5 0.30856,0.33457 0.46069,0.75824 0.4375,1.21875 -0.0982,1.94834 -0.89296,3.56088 -2.34375,4.875 -1.45082,1.31411 -3.14563,1.93883 -5.09375,1.84375 -1.94813,-0.0951 -3.59466,-0.86355 -4.90625,-2.3125 -1.31159,-1.44893 -1.91068,-3.17684 -1.8125,-5.125 0.0981,-1.94816 0.86169,-3.56087 2.3125,-4.875 1.26945,-1.14984 2.72478,-1.7728 4.375,-1.84375 z m -11.84375,0.6875 c 0.11358,-0.0194 0.23548,-0.002 0.34375,0 0.32479,0.006 0.59798,0.11287 0.875,0.3125 0.36931,0.26623 0.61004,0.60814 0.6875,1.0625 l 1.1875,6.90625 c 0.24025,1.40974 -0.0532,2.71427 -0.875,3.875 -0.82183,1.16073 -1.94543,1.85328 -3.34375,2.09375 -1.39834,0.2405 -2.65329,-0.0549 -3.8125,-0.875 -1.15921,-0.82003 -1.88474,-1.93402 -2.125,-3.34375 l -1.156263,-6.9375 c -0.0775,-0.45437 0.0214,-0.8443 0.281253,-1.21875 0.25995,-0.37444 0.60801,-0.60932 1.06251,-0.6875 0.4545,-0.0781 0.87498,0.0159 1.25,0.28125 0.37501,0.26525 0.57881,0.63939 0.65625,1.09375 l 1.21875,6.90625 c 0.0854,0.50097 0.30859,0.9235 0.71875,1.21875 0.41014,0.29524 0.87392,0.39868 1.375,0.3125 0.50107,-0.0862 0.86723,-0.36576 1.15625,-0.78125 0.28902,-0.41548 0.42913,-0.87403 0.34375,-1.375 l -1.1875,-6.90625 c -0.0775,-0.45437 -0.0157,-0.84328 0.25,-1.21875 0.26617,-0.37551 0.63942,-0.6406 1.09375,-0.71875 z m 28.34375,2.125 c 0.68004,0.006 1.36378,0.1284 2.0625,0.34375 1.86322,0.57429 3.27577,1.70847 4.1875,3.4375 0.91172,1.72903 1.04588,3.54221 0.46875,5.40625 -0.57718,1.86403 -1.70721,3.24153 -3.4375,4.15625 -1.73032,0.91472 -3.51177,1.07426 -5.375,0.5 -1.86324,-0.57429 -3.27578,-1.73972 -4.1875,-3.46875 -0.91173,-1.72902 -1.07716,-3.51096 -0.5,-5.375 0.57716,-1.86403 1.7386,-3.24146 3.46875,-4.15625 1.08154,-0.57166 2.17909,-0.8537 3.3125,-0.84375 z m -44.250013,1.96875 c 0.70799,-0.0412 1.42937,0.11318 2.125,0.4375 1.113,0.51895 1.86624,1.356 2.28125,2.5 0.13698,0.37763 0.24244,0.71209 0.28125,1.0625 1.28847,0.49936 2.15365,1.38824 2.625,2.6875 0.42715,1.17758 0.38061,2.36144 -0.15625,3.5 -0.53689,1.13856 -1.38465,1.88356 -2.5625,2.3125 l -2.4375,0.90625 c -0.42224,0.15376 -0.83365,0.13153 -1.25,-0.0625 -0.41637,-0.19412 -0.71785,-0.5043 -0.875,-0.9375 l -3.46875,-9.59375 c -0.14903,-0.41082 -0.12071,-0.84991 0.0625,-1.28125 0.21337,-0.41729 0.51526,-0.65873 0.9375,-0.8125 l 1.1875,-0.4375 c 0.42924,-0.15631 0.82521,-0.25653 1.25,-0.28125 z m 44.250013,1.34375 c -0.60312,-0.007 -1.20817,0.1346 -1.78125,0.4375 -0.91692,0.48466 -1.53593,1.22459 -1.84375,2.21875 -0.30783,0.99417 -0.23318,1.95883 0.25,2.875 0.48318,0.9162 1.22492,1.53745 2.21875,1.84375 0.9938,0.30631 1.9583,0.20328 2.875,-0.28125 0.91713,-0.48477 1.53591,-1.22459 1.84375,-2.21875 0.30781,-0.99417 0.23317,-1.95882 -0.25,-2.875 -0.48319,-0.91617 -1.22494,-1.50618 -2.21875,-1.8125 -0.37269,-0.11486 -0.73189,-0.18387 -1.09375,-0.1875 z m -44.000013,1.96875 2.34375,6.40625 0.875,-0.3125 c 0.32219,-0.11733 0.54233,-0.31445 0.6875,-0.625 0.14517,-0.31055 0.17536,-0.65757 0.0625,-0.96875 -0.0967,-0.26641 -0.27754,-0.44835 -0.5,-0.59375 -0.22246,-0.1454 -0.46613,-0.20299 -0.75,-0.1875 -0.60111,0.0428 -1.07362,-0.17286 -1.4375,-0.65625 -0.35721,-0.49887 -0.43228,-1.03822 -0.21875,-1.59375 0.0952,-0.22345 0.0963,-0.48355 0,-0.75 -0.0806,-0.22201 -0.2139,-0.40001 -0.40625,-0.53125 -0.19236,-0.13121 -0.42834,-0.18261 -0.65625,-0.1875 z m 57.500013,0.4375 c 0.63101,0.005 1.24881,0.17203 1.84375,0.5 l 1.34375,0.78125 c 0.40346,0.22243 0.65404,0.52722 0.78125,0.96875 0.12718,0.44153 0.0925,0.85627 -0.125,1.25 -0.22308,0.40386 -0.55829,0.68461 -1,0.8125 -0.44174,0.12791 -0.87777,0.0662 -1.28125,-0.15625 l -1.34375,-0.71875 c -0.14492,-0.0799 -0.30298,-0.10622 -0.46875,-0.0625 -0.16578,0.0436 -0.28913,0.12579 -0.375,0.28125 -0.08,0.14475 -0.11111,0.30002 -0.0625,0.46875 0.0486,0.16874 0.16758,0.29511 0.3125,0.375 1.07597,0.59315 1.77748,1.4965 2.125,2.6875 0.34748,1.19101 0.25684,2.31888 -0.34375,3.40625 -0.59484,1.07696 -1.52204,1.80972 -2.71875,2.15625 -1.19674,0.34651 -2.33028,0.1869 -3.40625,-0.40625 l -1.84375,-1 c -0.40317,-0.22227 -0.65389,-0.55838 -0.78125,-1 -0.12735,-0.44163 -0.098,-0.84614 0.125,-1.25 0.22307,-0.40385 0.561,-0.68989 1,-0.8125 0.439,-0.1226 0.84682,-0.066 1.25,0.15625 l 1.875,1.03125 c 0.27941,0.15404 0.56172,0.18454 0.875,0.0937 0.31327,-0.0907 0.53302,-0.28283 0.6875,-0.5625 0.16022,-0.29008 0.21807,-0.59832 0.125,-0.90625 -0.0931,-0.30793 -0.28311,-0.50222 -0.5625,-0.65625 -0.9519,-0.52475 -1.5743,-1.33119 -1.875,-2.375 -0.30071,-1.0438 -0.21366,-2.0474 0.3125,-3 0.52615,-0.9526 1.33073,-1.57263 2.375,-1.875 0.39159,-0.11339 0.77764,-0.19042 1.15625,-0.1875 z m -68.250013,1.0625 c 0.085,-0.004 0.19275,-0.009 0.28125,0 0.35399,0.0357 0.67075,0.14677 0.9375,0.375 l 8.0625,7.125 c 0.47774,0.40698 0.67711,0.92111 0.5625,1.53125 -0.11018,0.59393 -0.45179,1.03144 -1.03125,1.28125 l -3.0625,1.1875 c -0.41924,0.17221 -0.86055,0.15666 -1.28125,-0.0312 -0.42071,-0.1881 -0.70376,-0.4871 -0.875,-0.90625 -0.1612,-0.42488 -0.14906,-0.82676 0.0312,-1.25 0.18065,-0.42323 0.48111,-0.74436 0.90625,-0.90625 l 0.5625,-0.1875 -2.4375,-2.15625 1.09375,5.84375 c 0.0832,0.4558 0.005,0.87293 -0.25,1.25 -0.25461,0.3771 -0.61217,0.59301 -1.0625,0.6875 -0.45592,0.084 -0.84207,0.004 -1.21875,-0.25 -0.37666,-0.25402 -0.6355,-0.57546 -0.71875,-1.03125 l -2.03125,-10.625 c -0.0612,-0.34586 -0.0238,-0.67655 0.125,-1 0.14889,-0.32342 0.41077,-0.57373 0.71875,-0.75 0.22347,-0.12789 0.43252,-0.17555 0.6875,-0.1875 z m 34.062513,5.78125 c 0.5067,-0.0129 1.02145,0 1.53125,0 32.62723,0 59.09375,26.46653 59.09375,59.09375 0,32.62723 -26.46652,59.0625 -59.09375,59.0625 -32.627233,0 -59.062513,-26.43527 -59.062513,-59.0625 0,-32.11741 25.60882,-58.28448 57.531263,-59.09375 z m -42.875013,0.0937 c 0.10808,-0.01 0.19816,-0.0114 0.3125,0 0.45736,0.0454 0.8406,0.24612 1.125,0.59375 0.29171,0.35658 0.42104,0.76131 0.375,1.21875 -0.046,0.45746 -0.23673,0.83273 -0.59375,1.125 l -1.21875,0.96875 c -0.12822,0.10498 -0.1974,0.23621 -0.21875,0.40625 -0.0213,0.17006 0.0439,0.33149 0.15625,0.46875 0.10454,0.12779 0.23151,0.20131 0.40625,0.21875 0.17472,0.0174 0.30928,-0.02 0.4375,-0.125 0.95206,-0.77943 2.07717,-1.11816 3.3125,-1 1.23532,0.1182 2.21457,0.6337 3,1.59375 0.7779,0.95086 1.12475,2.07318 1,3.3125 -0.12474,1.23934 -0.67295,2.22057 -1.625,3 l -1.65625,1.375 c -0.35674,0.29206 -0.76125,0.4202 -1.21875,0.375 -0.4575,-0.0452 -0.80205,-0.26842 -1.09375,-0.625 -0.29171,-0.35657 -0.42495,-0.76578 -0.375,-1.21875 0.05,-0.45295 0.23701,-0.83293 0.59375,-1.125 l 1.65625,-1.3125 c 0.24723,-0.20241 0.3736,-0.45681 0.40625,-0.78125 0.0327,-0.32443 -0.048,-0.62807 -0.25,-0.875 -0.20954,-0.25612 -0.46064,-0.3787 -0.78125,-0.40625 -0.3206,-0.0276 -0.62776,0.0163 -0.875,0.21875 -0.84226,0.68956 -1.79377,1.01339 -2.875,0.90625 -1.08122,-0.10713 -1.96816,-0.56517 -2.65625,-1.40625 -0.68807,-0.84104 -0.98384,-1.8248 -0.875,-2.90625 0.10887,-1.08141 0.59524,-1.96668 1.4375,-2.65625 l 1.1875,-0.96875 c 0.26776,-0.2192 0.58205,-0.34569 0.90625,-0.375 z m 88.000013,0.0625 c 0.0853,-0.008 0.16116,-0.004 0.25,0 0.35537,0.0174 0.65982,0.15486 0.9375,0.375 0.26861,0.21299 0.46448,0.47057 0.5625,0.8125 0.098,0.34194 0.0816,0.66719 -0.0312,1 l -3.59375,10.21875 c -0.2009,0.59542 -0.64116,0.94117 -1.25,1.0625 -0.59214,0.11937 -1.0848,-0.0553 -1.53125,-0.5 l -2.28125,-2.40625 c -0.31511,-0.32492 -0.45634,-0.72672 -0.4375,-1.1875 0.0188,-0.46078 0.1743,-0.8096 0.5,-1.125 0.33473,-0.30824 0.75897,-0.4785 1.21875,-0.46875 0.45977,0.01 0.84854,0.16575 1.15625,0.5 l 0.40625,0.46875 1.0625,-3.0625 -5,3.21875 c -0.3923,0.24739 -0.80567,0.31438 -1.25,0.21875 -0.44432,-0.0956 -0.7768,-0.33594 -1.03125,-0.71875 -0.24676,-0.39192 -0.34633,-0.83676 -0.25,-1.28125 0.0963,-0.44449 0.3577,-0.78385 0.75,-1.03125 l 9.0625,-5.84375 c 0.22381,-0.13942 0.49414,-0.22499 0.75,-0.25 z m -10.90625,17.53125 c -6.55398,0.11327 -15.0396,4.17457 -14.9375,13.0625 0.12569,0.9332 0.31008,1.8333 0.84375,2.5625 l -7.09375,7.09375 c -0.006,0.16135 -0.20401,0.15269 -0.21875,0.3125 1.30604,2.6743 1.11438,3.18349 1.09375,5.25 0.31385,0.91696 0.79246,2.92001 0.5,4.34375 -0.16433,0.80006 0.42004,1.19866 0.4375,1.59375 l 12,-12.125 c 0.87904,0.56006 1.66211,0.92693 2.4375,0.96875 9.43437,-1.1766 13.00682,-10.00481 12.96875,-16.59375 l -7.40625,7.15625 -6.6875,-6.6875 6.90625,-6.9375 -0.1875,0 c -0.20705,-0.005 -0.44484,-0.004 -0.65625,0 z m -33.9375,2 c -0.62621,0.0107 -1.24924,0.14213 -1.65625,0.375 -0.46204,0.26435 -2.01529,0.0362 -2.4375,1.59375 -1.19031,0.49289 -1.50936,0.99278 -1.46875,2.8125 -1.12916,0.4153 -1.80156,1.86025 -1.875,4.9375 -1.56675,1.86156 -1.05381,2.8584 -1.0625,4.0625 -1.55582,1.36192 -2.03192,3.06754 -1.5625,5.0625 -1.17174,0.92678 -1.60789,2.70241 -1.40625,5.28125 -1.55757,1.95899 -1.46544,3.92218 -1.03125,5.84375 -1.86232,2.67657 -1.00634,4.10249 -0.65625,5.78125 -1.38124,1.31123 -0.83905,3.39161 0.125,5.65625 -0.41923,0.41064 -0.70829,0.93044 -0.8125,1.59375 -5.641263,-7.15891 -8.636293,-5.19159 -10.468763,-0.96875 4.76756,-2.78547 6.79821,7.73837 7.625,10.1875 3.392783,8.66179 3.879523,18.73117 9.312513,20.96875 1.04853,0.39954 1.67988,1.63137 4.90625,2 0.12297,0.0498 0.25953,0.0644 0.40625,0.0312 0.35918,0.031 0.73414,0.0861 1.15625,0.0937 l -0.0625,3.90625 2.75,0.0625 -0.0625,-4.25 c 2.6696,-0.23427 6.06581,-0.24352 7.375,-2.4375 5.97919,-5.56491 4.70904,-9.09487 7.8125,-19.25 1.82545,-4.89359 -0.30342,-12.44987 10,-17.1875 -4.6458,0.96058 -8.56129,1.368 -12.34375,4.53125 0.0794,-0.5277 0.0832,-1.19981 -0.0937,-2.15625 -0.0372,-0.49141 -0.15155,-1.12451 -0.34375,-1.875 0.25308,-1.05382 0.20206,-1.93454 0,-2.75 -0.0905,-1.03564 -0.47034,-1.92501 -0.84375,-2.8125 0.23223,-1.23265 0.17103,-2.04548 0,-2.71875 -0.0604,-0.84327 -0.30531,-1.43636 -0.5,-2.09375 0.21106,-0.65221 0.17852,-1.32167 0,-2.03125 -0.0396,-1.20617 -0.67434,-2.48121 -1.5625,-3.8125 0.11528,-0.68691 0.0985,-1.38136 -0.0937,-2.0625 -0.0445,-0.9038 -0.35875,-1.79728 -1.125,-2.6875 0.19574,-0.53687 0.17979,-1.06395 0,-1.59375 0.0412,-1.00543 -0.60868,-2.04395 -1.53125,-3.03125 0.0174,-0.59445 -0.044,-1.03702 -0.15625,-1.40625 -0.0794,-1.42429 -0.64812,-1.91464 -1.15625,-2.59375 0.0892,-1.79984 -0.9046,-3.29781 -1.875,-4.1875 -0.0429,-0.77228 -1.18313,-2.15069 -2.875,-1.875 -0.28081,-0.69473 -1.36255,-1.01788 -2.40625,-1 z m -39.375013,0.0625 c -0.0209,-0.002 -0.0272,0.0176 -0.0312,0.0312 -0.0646,0.21788 2.03999,2.56363 5.90625,7.03125 l 2.28125,2.375 -1.1875,1.8125 c 1.49635,1.76856 2.8181,3.4534 5.28125,5.46875 l 1.3125,-0.65625 11.562513,11.78125 0.875,1.0625 c -0.27138,-1.45873 -0.11427,-2.92636 0.71875,-4.40625 l -0.625,-0.65625 -10.125013,-10.40625 0.46875,-1.21875 c -2.33975,-3.21524 -3.86659,-4.28783 -5.34375,-5.375 l -1.53125,1.09375 -2.46875,-2.15625 c -4.50939,-3.81842 -6.77861,-5.73859 -7.09375,-5.78125 z m 57.718763,51.125 c -0.15744,0.9027 -0.29961,1.80523 -0.59375,2.59375 -1.10305,3.60937 -1.66874,6.35834 -2.1875,8.6875 0.29133,0.32498 0.58233,0.64361 0.875,0.96875 2.22971,2.47161 3.92078,4.51218 6.5625,6.46875 1.92092,0.60895 3.89385,0.79148 5.4375,0.25 l 5.5625,5.375 c 2.63111,2.33427 5.23341,2.79003 8.15625,2.46875 0.15459,-0.53511 0.21512,-0.85674 0.40625,-1.375 -2.82641,-0.39918 -5.54467,-1.70758 -7.0625,-3.25 l -5.53125,-5.21875 c 0.20755,-1.63786 0.86918,-2.53566 0.125,-4.78125 -2.75391,-5.09997 -6.57928,-7.63392 -10.8125,-11.375 -0.003,0.0163 0.003,0.0461 0,0.0625 -0.30342,-0.26794 -0.63719,-0.59088 -0.9375,-0.875 z m -36.250013,0.0312 -7,7.03125 c -1.14892,-0.75862 -2.29056,-0.55684 -3.0625,-0.75 -9.43435,1.17658 -12.38183,9.84856 -12.34375,16.4375 l 7.28125,-7.25 6.90625,6.9375 -6.8125,6.84375 c 6.62551,0.14565 15.35542,-3.29409 15.25,-12.46875 -0.12161,-0.68406 0.16643,-1.74893 -0.25,-2.53125 l 3.250013,-3.625 c -0.73701,-2.69945 -1.498553,-5.48842 -2.531263,-8.125 -1.2e-4,-0.009 -1.2e-4,-0.0226 0,-0.0312 -0.19429,-0.57545 -0.40768,-1.48516 -0.6875,-2.46875 z m -31.375,23.0625 c 0.11448,-0.0104 0.22224,-0.0114 0.34375,0 0.48605,0.0456 0.87589,0.27316 1.1875,0.65625 0.3116,0.38311 0.45654,0.8224 0.40625,1.3125 -0.0503,0.49012 -0.28291,0.88383 -0.65625,1.1875 l -2.40625,1.96875 1.46875,1.78125 2.40625,-1.96875 c 0.37334,-0.30368 0.8224,-0.42557 1.3125,-0.375 0.49007,0.0506 0.8838,0.2829 1.1875,0.65625 0.31171,0.38325 0.4254,0.82254 0.375,1.3125 -0.0504,0.48997 -0.25166,0.88383 -0.625,1.1875 l -8.5,6.90625 c -0.38326,0.31173 -0.82254,0.42542 -1.3125,0.375 -0.48997,-0.0504 -0.87578,-0.27301 -1.1875,-0.65625 -0.30369,-0.37336 -0.4253,-0.79114 -0.375,-1.28125 0.0503,-0.49012 0.27299,-0.90703 0.65625,-1.21875 l 3.3125,-2.6875 -1.46875,-1.78125 -3.3125,2.6875 c -0.38325,0.31173 -0.82242,0.42557 -1.3125,0.375 -0.49009,-0.0506 -0.90714,-0.24191 -1.21875,-0.625 -0.3116,-0.3831 -0.42932,-0.82734 -0.375,-1.3125 0.0543,-0.48517 0.273,-0.87578 0.65625,-1.1875 l 8.5,-6.90625 c 0.28001,-0.22775 0.59409,-0.37497 0.9375,-0.40625 z m 100.218763,0.1875 c 0.48979,-0.0522 0.93807,0.0726 1.3125,0.375 0.38436,0.31038 0.60394,0.69761 0.65625,1.1875 0.0523,0.48992 -0.0726,0.93809 -0.375,1.3125 l -1.5625,1.90625 c -0.11948,0.14798 -0.14892,0.31798 -0.125,0.5 0.0239,0.18205 0.0807,0.32604 0.21875,0.4375 l 0.53125,0.4375 1.5625,-1.96875 c 0.31036,-0.38434 0.72882,-0.60419 1.21875,-0.65625 0.48994,-0.052 0.90682,0.0726 1.28125,0.375 0.38435,0.31037 0.60409,0.72898 0.65625,1.21875 0.0522,0.48979 -0.0646,0.92816 -0.375,1.3125 l -1.59375,1.9375 1.4375,1.15625 c 0.13774,0.11123 0.31701,0.1712 0.5,0.15625 0.18299,-0.0149 0.31801,-0.10202 0.4375,-0.25 l 1.75,-2.15625 c 0.30235,-0.37442 0.69757,-0.6042 1.1875,-0.65625 0.48993,-0.052 0.93807,0.0726 1.3125,0.375 0.38435,0.31038 0.57283,0.72898 0.625,1.21875 0.0522,0.48979 -0.0726,0.90683 -0.375,1.28125 l -1.71875,2.15625 c -0.73221,0.90675 -1.68589,1.43919 -2.84375,1.5625 -1.15787,0.12332 -2.1873,-0.17429 -3.09375,-0.90625 l -4.71875,-3.8125 c -0.90674,-0.73219 -1.40792,-1.68587 -1.53125,-2.84375 -0.1233,-1.15785 0.17406,-2.18699 0.90625,-3.09375 l 1.53125,-1.9375 c 0.30236,-0.37441 0.69773,-0.57283 1.1875,-0.625 z m -6.78125,9.03125 c 1.26171,0.0566 2.31667,0.53732 3.15625,1.46875 0.34758,0.38563 0.63624,0.81729 0.84375,1.3125 1.3774,0.0715 2.53011,0.61833 3.4375,1.625 0.90739,1.00668 1.32052,2.20285 1.25,3.5625 -0.0705,1.35967 -0.61833,2.49887 -1.625,3.40625 l -1.9375,1.75 c -0.36695,0.33076 -0.82061,0.46302 -1.3125,0.4375 -0.49189,-0.0255 -0.88799,-0.19555 -1.21875,-0.5625 l -7.3125,-8.15625 c -0.32221,-0.35746 -0.49426,-0.7581 -0.46875,-1.25 0.0255,-0.49188 0.22681,-0.91923 0.59375,-1.25 l 1.28125,-1.15625 c 0.9504,-0.85664 2.05078,-1.24404 3.3125,-1.1875 z m -83.718763,0.84375 c 0.37955,0.0362 0.71319,0.18823 1,0.4375 0.27745,0.24116 0.44253,0.53543 0.53125,0.90625 0.0887,0.37083 0.0743,0.74304 -0.0625,1.09375 l -4.34375,10.71875 c -0.24323,0.62751 -0.6863,0.99374 -1.34375,1.09375 -0.63947,0.0987 -1.19943,-0.12707 -1.65625,-0.625 l -2.3125,-2.65625 c -0.32191,-0.36327 -0.44824,-0.78894 -0.40625,-1.28125 0.042,-0.49231 0.23019,-0.8971 0.59375,-1.21875 0.37289,-0.31354 0.82081,-0.47049 1.3125,-0.4375 0.49168,0.033 0.87396,0.25211 1.1875,0.625 l 0.4375,0.46875 1.3125,-3.21875 -5.53125,3.1875 c -0.43163,0.24558 -0.87267,0.31166 -1.34375,0.1875 -0.47108,-0.12416 -0.83951,-0.39025 -1.09375,-0.8125 -0.24559,-0.43163 -0.31166,-0.90392 -0.1875,-1.375 0.12416,-0.47108 0.41212,-0.81692 0.84375,-1.0625 l 10,-5.8125 c 0.32821,-0.18436 0.68292,-0.25492 1.0625,-0.21875 z m 83.562513,2.71875 c -0.28193,-0.0102 -0.51263,0.0496 -0.71875,0.21875 l 4.9375,5.5 0.625,-0.5625 c 0.28224,-0.2544 0.41787,-0.56175 0.4375,-0.9375 0.0196,-0.37572 -0.0894,-0.71775 -0.34375,-1 -0.18661,-0.20701 -0.40361,-0.34676 -0.6875,-0.40625 -0.28389,-0.0595 -0.56892,-0.0177 -0.84375,0.0937 -0.62395,0.27255 -1.22805,0.21782 -1.78125,-0.1875 -0.55198,-0.42358 -0.76705,-0.98815 -0.6875,-1.65625 0.0421,-0.29395 -0.0466,-0.55556 -0.25,-0.78125 -0.16978,-0.18835 -0.40556,-0.271 -0.6875,-0.28125 z m -6.9375,1.21875 c 0.11488,0.003 0.25572,0.006 0.375,0.0312 0.47712,0.10281 0.82968,0.36375 1.09375,0.78125 l 4.3125,6.84375 c 0.73126,1.15618 0.95917,2.40443 0.65625,3.75 -0.30293,1.34559 -1.03133,2.36249 -2.1875,3.09375 -1.16696,0.73808 -2.40982,0.96259 -3.75,0.65625 -1.34019,-0.30633 -2.39374,-1.03133 -3.125,-2.1875 l -4.3125,-6.8125 c -0.26407,-0.41751 -0.33033,-0.8686 -0.21875,-1.34375 0.1116,-0.47512 0.37452,-0.83649 0.78125,-1.09375 0.41752,-0.26406 0.83539,-0.35278 1.3125,-0.25 0.47712,0.1028 0.86093,0.36375 1.125,0.78125 l 4.3125,6.8125 c 0.20972,0.3316 0.52172,0.53844 0.90625,0.625 0.38453,0.0866 0.73058,0.0225 1.0625,-0.1875 0.33192,-0.20993 0.5386,-0.49057 0.625,-0.875 0.0864,-0.38442 0.0222,-0.76215 -0.1875,-1.09375 l -4.3125,-6.8125 c -0.26408,-0.4175 -0.3305,-0.8685 -0.21875,-1.34375 0.11175,-0.47522 0.36374,-0.82966 0.78125,-1.09375 0.30506,-0.19293 0.62411,-0.29083 0.96875,-0.28125 z m -69.656263,1.71875 c 0.9709,-0.0524 1.9018,0.19028 2.78125,0.71875 1.18318,0.71102 1.9184,1.73286 2.25,3.0625 0.33157,1.32965 0.1487,2.59774 -0.5625,3.78125 l -0.0937,0.125 c -0.25447,0.42345 -0.61584,0.69336 -1.09375,0.8125 -0.47794,0.11913 -0.93092,0.0606 -1.34375,-0.1875 -0.42346,-0.25446 -0.69338,-0.61582 -0.8125,-1.09375 -0.11915,-0.47793 -0.0357,-0.9203 0.21875,-1.34375 l 0.0937,-0.15625 c 0.20228,-0.33663 0.25167,-0.68021 0.15625,-1.0625 -0.0955,-0.38227 -0.31979,-0.6728 -0.65625,-0.875 -0.33647,-0.20219 -0.71141,-0.28266 -1.09375,-0.1875 -0.38236,0.0952 -0.67272,0.31962 -0.875,0.65625 l -2.65625,4.46875 c -0.2021,0.3363 -0.28284,0.68006 -0.1875,1.0625 0.0953,0.38245 0.31978,0.70406 0.65625,0.90625 0.33646,0.2022 0.7113,0.25159 1.09375,0.15625 0.38244,-0.0953 0.6729,-0.31995 0.875,-0.65625 l 0.0937,-0.15625 c 0.25445,-0.42344 0.61581,-0.69336 1.09375,-0.8125 0.47792,-0.11913 0.92029,-0.067 1.34375,0.1875 0.41283,0.24809 0.69335,0.61583 0.8125,1.09375 0.11912,0.47793 0.0357,0.9203 -0.21875,1.34375 l -0.0937,0.1875 c -0.70465,1.17259 -1.72951,1.91321 -3.0625,2.25 -1.33301,0.33679 -2.56681,0.14851 -3.75,-0.5625 -1.17259,-0.70465 -1.94748,-1.7241 -2.28125,-3.0625 -0.33377,-1.3384 -0.14214,-2.60866 0.5625,-3.78125 l 2.6875,-4.4375 c 0.71121,-1.18352 1.72731,-1.9532 3.0625,-2.28125 0.33379,-0.082 0.67637,-0.13878 1,-0.15625 z m 8.4375,4.375 c 0.22723,-0.004 0.45703,0.0361 0.6875,0.125 0.44904,0.17314 0.76659,0.49313 0.96875,0.9375 0.20215,0.44439 0.24017,0.88282 0.0625,1.34375 l -1.25,3.21875 0.0625,0 4.0625,-3.09375 c 0.38705,-0.29902 0.82243,-0.41047 1.3125,-0.34375 0.49006,0.0667 0.88857,0.26944 1.1875,0.65625 0.29891,0.38682 0.41642,0.82473 0.34375,1.3125 -0.0727,0.48778 -0.30045,0.88848 -0.6875,1.1875 l -2.96875,2.25 c 0.54958,0.68709 0.88727,1.46691 1.03125,2.34375 0.14395,0.87684 0.0422,1.75481 -0.28125,2.59375 l -0.90625,2.34375 c -0.17773,0.46094 -0.48954,0.80627 -0.9375,1 -0.44798,0.19372 -0.88281,0.17772 -1.34375,0 -0.44941,-0.17327 -0.79804,-0.46194 -1,-0.90625 -0.20198,-0.44431 -0.20901,-0.91406 -0.0312,-1.375 l 0.90625,-2.34375 c 0.14114,-0.36609 0.12852,-0.73344 -0.0312,-1.09375 -0.1598,-0.3603 -0.41517,-0.60885 -0.78125,-0.75 l -1.21875,-0.46875 -1.40625,3.6875 c -0.17772,0.46094 -0.52061,0.77509 -0.96875,0.96875 -0.44815,0.19366 -0.89471,0.20442 -1.34375,0.0312 -0.46094,-0.17771 -0.76678,-0.49319 -0.96875,-0.9375 -0.20198,-0.44431 -0.24021,-0.88281 -0.0625,-1.34375 l 3.9375,-10.21875 c 0.17771,-0.46093 0.48953,-0.77501 0.9375,-0.96875 0.22398,-0.0969 0.46027,-0.15225 0.6875,-0.15625 z m 47.187513,1.28125 c 0.22791,-10e-4 0.45936,0.0323 0.6875,0.125 0.45628,0.18591 0.78212,0.49391 0.96875,0.9375 l 3.5625,8.46875 3.1875,-1.34375 c 0.45536,-0.19157 0.9213,-0.21152 1.375,-0.0312 0.45369,0.18028 0.77716,0.51339 0.96875,0.96875 0.19156,0.45537 0.18636,0.88766 0,1.34375 -0.18598,0.4561 -0.48215,0.80843 -0.9375,1 l -4.875,2.03125 c -0.44361,0.18663 -0.88765,0.18597 -1.34375,0 -0.45609,-0.18597 -0.77718,-0.51339 -0.96875,-0.96875 l -4.25,-10.09375 c -0.18662,-0.44359 -0.18597,-0.88764 0,-1.34375 0.18597,-0.45608 0.4939,-0.78211 0.9375,-0.96875 0.22768,-0.0958 0.45959,-0.12352 0.6875,-0.125 z m -6.9375,1.8125 c 0.97422,-0.0447 1.90613,0.21104 2.78125,0.75 1.16681,0.71866 1.89956,1.75038 2.21875,3.09375 l 0.0312,0.15625 c 0.11419,0.48065 0.0396,0.95565 -0.21875,1.375 -0.25835,0.41937 -0.62515,0.66993 -1.09375,0.78125 -0.48065,0.11421 -0.92439,0.0396 -1.34375,-0.21875 -0.41936,-0.25833 -0.69831,-0.61311 -0.8125,-1.09375 l -0.0312,-0.1875 c -0.0908,-0.38209 -0.28946,-0.66845 -0.625,-0.875 -0.33554,-0.20653 -0.71184,-0.24698 -1.09375,-0.15625 -0.38192,0.0908 -0.66823,0.28962 -0.875,0.625 -0.20678,0.33541 -0.24703,0.68041 -0.15625,1.0625 l 1.1875,5.0625 c 0.0907,0.38173 0.28942,0.69952 0.625,0.90625 0.33558,0.20674 0.71183,0.247 1.09375,0.15625 0.38191,-0.0907 0.66827,-0.28941 0.875,-0.625 0.20673,-0.33558 0.27819,-0.71202 0.1875,-1.09375 l -0.0625,-0.1875 c -0.1142,-0.48063 -0.0396,-0.92438 0.21875,-1.34375 0.25834,-0.41936 0.64436,-0.66704 1.125,-0.78125 0.4686,-0.11133 0.89313,-0.0396 1.3125,0.21875 0.41936,0.25835 0.69829,0.61312 0.8125,1.09375 l 0.0312,0.1875 c 0.31623,1.33097 0.12364,2.57713 -0.59375,3.75 -0.71741,1.17289 -1.75076,1.93091 -3.09375,2.25 -1.33098,0.31624 -2.5755,0.0984 -3.75,-0.625 -1.1745,-0.72337 -1.93377,-1.73153 -2.25,-3.0625 l -1.1875,-5.0625 c -0.31918,-1.34337 -0.13133,-2.61308 0.59375,-3.78125 0.72508,-1.16813 1.76278,-1.9025 3.09375,-2.21875 0.33575,-0.0798 0.67526,-0.14134 1,-0.15625 z m -28.15625,0.75 c 0.27481,0.004 0.55844,0.0659 0.84375,0.125 l 2.40625,0.5 c 0.47125,0.0977 0.85461,0.33831 1.125,0.75 0.27038,0.41171 0.34763,0.84126 0.25,1.3125 -0.10023,0.48376 -0.36952,0.88568 -0.78125,1.15625 -0.41175,0.27058 -0.84126,0.34764 -1.3125,0.25 l -2.40625,-0.5 c -0.18624,-0.0386 -0.38032,-0.0112 -0.53125,0.0937 -0.15095,0.10453 -0.24526,0.23252 -0.28125,0.40625 l -0.125,0.65625 2.46875,0.5 c 0.48374,0.10023 0.85465,0.36937 1.125,0.78125 0.27034,0.4119 0.34763,0.84125 0.25,1.3125 -0.10023,0.48375 -0.33831,0.88587 -0.75,1.15625 -0.41171,0.27039 -0.86002,0.35023 -1.34375,0.25 l -2.46875,-0.5 -0.375,1.78125 c -0.0359,0.17337 -0.003,0.34411 0.0937,0.5 0.097,0.15589 0.25126,0.24267 0.4375,0.28125 l 2.71875,0.5625 c 0.47125,0.0976 0.8234,0.36936 1.09375,0.78125 0.27034,0.41189 0.34763,0.84124 0.25,1.3125 -0.10023,0.48374 -0.33831,0.85462 -0.75,1.125 -0.41171,0.27039 -0.84125,0.37889 -1.3125,0.28125 l -2.71875,-0.5625 c -1.14124,-0.23644 -2.048303,-0.83922 -2.687513,-1.8125 -0.6392,-0.97328 -0.83011,-2.04665 -0.59375,-3.1875 l 1.21875,-5.9375 c 0.236443,-1.14122 0.839223,-2.01703 1.812513,-2.65625 0.72995,-0.47939 1.51932,-0.73189 2.34375,-0.71875 z m 7.21875,1.1875 c 0.11522,-0.0169 0.22035,-0.005 0.34375,0 l 2.75,0.0937 c 1.34128,0.0572 2.46002,0.6039 3.375,1.59375 0.91496,0.98989 1.33849,2.15834 1.28125,3.5 -0.0438,1.025 -0.35058,1.92713 -0.96875,2.75 0.78318,0.95892 1.14668,2.07201 1.09375,3.3125 l -0.0937,1.8125 c -0.0205,0.48082 -0.19969,0.88563 -0.5625,1.21875 -0.36283,0.33312 -0.78769,0.48982 -1.28125,0.46875 -0.48122,-0.0205 -0.88564,-0.23093 -1.21875,-0.59375 -0.33313,-0.36282 -0.48927,-0.76918 -0.46875,-1.25 l 0.0625,-1.8125 c 0.014,-0.32904 -0.0764,-0.62521 -0.28125,-0.875 -0.20485,-0.24978 -0.48064,-0.42715 -0.84375,-0.53125 -0.38862,-0.10518 -0.72246,-0.3038 -0.96875,-0.625 -0.2463,-0.32119 -0.34848,-0.68827 -0.34375,-1.09375 0.005,-0.40546 0.12691,-0.77468 0.375,-1.09375 0.24807,-0.31905 0.5715,-0.5278 0.96875,-0.625 0.29496,-0.076 0.53812,-0.21692 0.71875,-0.4375 0.18061,-0.22056 0.26828,-0.47768 0.28125,-0.78125 0.0157,-0.36727 -0.095,-0.67345 -0.34375,-0.9375 -0.24874,-0.26402 -0.57061,-0.42183 -0.9375,-0.4375 l -0.96875,-0.0312 -0.375,9.15625 c -0.0205,0.48082 -0.23711,0.88537 -0.59375,1.21875 -0.35664,0.33339 -0.75643,0.48982 -1.25,0.46875 -0.49357,-0.0211 -0.91688,-0.19968 -1.25,-0.5625 -0.33312,-0.36282 -0.48927,-0.80043 -0.46875,-1.28125 l 0.46875,-10.9375 c 0.0211,-0.49356 0.19968,-0.88562 0.5625,-1.21875 0.27211,-0.24983 0.59184,-0.41813 0.9375,-0.46875 z"
       id="path3915-7-1-0-7-74-5"
       inkscape:connector-curvature="0" />
    <path
       style="fill:#ffffff;fill-opacity:1;stroke:none"
       d="m 314.31624,68.969492 -2.24284,7.73388 0,0.10312 c 1.95966,-0.15245 3.93056,-0.23202 5.92933,-0.23202 1.99877,0 3.99545,0.0796 5.95509,0.23202 l 0,-0.10312 -2.24282,-7.73388 -7.39876,0 z m -18.45823,2.93888 -7.03785,2.29437 0.25781,8.01749 0.0258,0.0773 c 3.62794,-1.50427 7.40414,-2.73169 11.29148,-3.66071 l -0.0258,-0.0773 -4.51144,-6.65114 z m 44.31522,0 -4.51143,6.65114 -0.0258,0.0773 c 3.88735,0.92903 7.66354,2.15644 11.29149,3.66071 l 0.0258,-0.0773 0.25779,-8.01749 -7.03784,-2.29436 z m -68.0325,10.77588 -5.98087,4.35677 2.73264,7.55343 0.0515,0.10312 c 3.01078,-2.57551 6.24866,-4.92984 9.64159,-7.01207 l -0.0773,-0.0773 -6.36758,-4.92392 z m 91.74978,0 -6.36757,4.92392 -0.0773,0.0773 c 3.39293,2.08222 6.6308,4.43655 9.64158,7.01207 l 0.0516,-0.10313 2.73265,-7.55343 -5.98088,-4.35677 z M 252.9349,100.2402 l -4.33098,6.00666 4.92391,6.34178 0.0773,0.0773 c 2.08698,-3.4007 4.42958,-6.62486 7.01206,-9.6416 l -0.10312,-0.0515 -7.57922,-2.73264 z m 130.16145,0 -7.57922,2.73263 -0.10311,0.0515 c 2.58246,3.01674 4.92507,6.2409 7.01206,9.64161 l 0.0773,-0.0773 4.9239,-6.3418 -4.33098,-6.00665 z m -142.99972,22.6603 -2.26861,7.03786 6.65116,4.51144 0.0773,0.0258 c 0.9288,-3.88467 2.15743,-7.6659 3.66071,-11.29149 l -0.0773,-0.0258 -8.04325,-0.2578 z m 155.83799,0 -8.04326,0.2578 -0.0773,0.0258 c 1.5033,3.62559 2.73191,7.40683 3.66072,11.29149 l 0.0773,-0.0258 6.65116,-4.51144 -2.26861,-7.03785 z m -153.31158,23.25324 -7.7339,2.24284 0,7.39877 7.7339,2.24282 0.10311,0 c -0.15244,-1.95965 -0.23202,-3.93053 -0.23202,-5.92931 0,-1.99878 0.0796,-3.99545 0.23202,-5.95511 l -0.10311,0 z m 150.68205,0 c 0.15246,1.95966 0.23202,3.95633 0.23202,5.95511 0,1.99878 -0.0796,3.96966 -0.23202,5.92931 l 0.10312,0 7.7339,-2.24282 0,-7.39876 -7.7339,-2.24284 -0.10312,0 z m -148.74858,23.58839 -0.0773,0.0258 -6.65115,4.51143 2.26861,7.01207 8.04325,-0.25779 0.0773,-0.0258 c -1.50114,-3.62041 -2.73237,-7.38694 -3.66071,-11.26572 z m 146.91822,0 c -0.92833,3.87878 -2.15957,7.64531 -3.66071,11.26572 l 0.0773,0.0258 8.04325,0.25779 2.26861,-7.01207 -6.65116,-4.51143 -0.0773,-0.0258 z m -137.86957,21.80959 -0.0773,0.0773 -4.92391,6.34179 4.33098,5.98089 7.57922,-2.73265 0.0773,-0.0516 c -2.57441,-3.00985 -4.9048,-6.22409 -6.98629,-9.6158 z m 128.82092,0 c -2.08147,3.3917 -4.41186,6.60596 -6.98629,9.6158 l 0.0773,0.0516 7.57922,2.73264 4.33098,-5.98087 -4.9239,-6.3418 -0.0773,-0.0773 z m -113.45624,17.96841 -0.0773,0.10312 -2.73264,7.55343 5.98089,4.33099 6.36756,-4.9239 0.0773,-0.0773 c -3.38606,-2.078 -6.6103,-4.41693 -9.61581,-6.98629 z m 98.09157,0 c -3.00551,2.56935 -6.22975,4.90829 -9.61581,6.98629 l 0.0773,0.0773 6.36758,4.92391 5.98088,-4.33097 -2.73265,-7.55345 -0.0773,-0.10311 z m -77.95767,12.37423 -0.0258,0.0773 -0.2578,8.04326 7.03785,2.2686 4.51144,-6.65116 0.0258,-0.0773 c -3.88734,-0.92902 -7.66355,-2.15643 -11.29149,-3.66071 z m 57.82376,0 c -3.62795,1.50428 -7.40414,2.73169 -11.29148,3.66071 l 0.0258,0.0773 4.51144,6.65116 7.03783,-2.26861 -0.25778,-8.04324 -0.0258,-0.0773 z m -34.8541,5.49107 0,0.1289 2.24284,7.70813 7.39876,0 2.24282,-7.70813 0,-0.1289 c -1.95964,0.15246 -3.95632,0.23202 -5.95509,0.23202 -1.99877,0 -3.96967,-0.0796 -5.92933,-0.23202 z"
       id="path16829-4-5-1-8-8-8-7-2"
       inkscape:connector-curvature="0" />
    <path
       id="path16829-4-5-6-6-9"
       d="m 399.93004,568.35746 7.19594,-0.57927 1.30104,0.0488 8.68114,2.51671 0,8.32271 -8.68114,2.5167 -1.30104,0.0488 -7.19594,-0.57926 -1.83726,11.60213 7.02237,1.67286 1.22202,0.44803 7.47887,5.07645 -2.57173,7.9149 -9.03463,-0.28856 -1.25235,-0.35631 -6.66395,-2.77424 -5.33329,10.46618 6.16231,3.7606 1.02375,0.80433 5.54424,7.1395 -4.89159,6.73239 -8.50334,-3.06634 -1.08091,-0.72531 -5.48073,-4.69827 -8.3065,8.30648 4.69829,5.48073 0.72531,1.08092 3.06634,8.50333 -6.73239,4.89159 -7.1395,-5.54423 -0.80435,-1.02376 -3.76058,-6.1623 -10.46619,5.33328 2.77425,6.66395 0.35631,1.25236 0.28856,9.03462 -7.9149,2.57173 -5.07646,-7.47885 -0.44802,-1.22204 -1.67287,-7.02237 -11.60212,1.83726 0.57925,7.19596 -0.0488,1.30102 -2.5167,8.68114 -8.32272,0 -2.5167,-8.68114 -0.0488,-1.30102 0.57926,-7.19596 -11.60212,-1.83726 -1.67286,7.02237 -0.44802,1.22204 -5.07645,7.47885 -7.91492,-2.57173 0.28857,-9.03462 0.35632,-1.25236 2.77424,-6.66395 -10.46619,-5.33328 -3.76061,6.1623 -0.80431,1.02376 -7.1395,5.54423 -6.73241,-4.89159 3.06635,-8.50333 0.7253,-1.08092 4.69829,-5.48073 -8.3065,-8.30648 -5.48071,4.69827 -1.08091,0.72531 -8.50333,3.06634 -4.8916,-6.73239 5.54424,-7.1395 1.02376,-0.80433 6.1623,-3.7606 -5.33328,-10.46618 -6.66397,2.77424 -1.25234,0.35631 -9.03462,0.28856 -2.57174,-7.9149 7.47887,-5.07645 1.22201,-0.44803 7.02239,-1.67286 -1.83728,-11.60213 -7.19594,0.57926 -1.30103,-0.0488 -8.68112,-2.5167 0,-8.32271 8.68112,-2.51671 1.30103,-0.0488 7.19594,0.57927 1.83728,-11.60214 -7.02239,-1.67286 -1.22201,-0.44802 -7.47887,-5.07645 2.57174,-7.9149 9.03462,0.28856 1.25234,0.35631 6.66397,2.77424 5.33328,-10.46619 -6.1623,-3.76059 -1.02376,-0.80433 -5.54424,-7.13952 4.8916,-6.73237 8.50333,3.06632 1.08091,0.72533 5.48071,4.69827 8.3065,-8.30649 -4.69829,-5.48074 -0.7253,-1.08089 -3.06635,-8.50334 6.73241,-4.8916 7.1395,5.54424 0.80431,1.02376 3.76061,6.16229 10.46619,-5.33329 -2.77424,-6.66395 -0.35632,-1.25236 -0.28857,-9.03461 7.91492,-2.57174 5.07645,7.47887 0.44802,1.22202 1.67286,7.02239 11.60212,-1.83728 -0.57926,-7.19594 0.0488,-1.30104 2.5167,-8.68112 8.32272,0 2.5167,8.68112 0.0488,1.30104 -0.57925,7.19594 11.60212,1.83728 1.67287,-7.02239 0.44802,-1.22202 5.07646,-7.47887 7.9149,2.57174 -0.28856,9.03461 -0.35631,1.25236 -2.77425,6.66395 10.46619,5.33329 3.76058,-6.16229 0.80435,-1.02376 7.1395,-5.54424 6.73239,4.8916 -3.06634,8.50334 -0.72531,1.08089 -4.69829,5.48074 8.3065,8.30649 5.48073,-4.69827 1.08091,-0.72533 8.50334,-3.06632 4.89159,6.73237 -5.54424,7.13952 -1.02375,0.80433 -6.16231,3.76059 5.33329,10.46619 6.66395,-2.77424 1.25235,-0.35631 9.03463,-0.28856 2.57173,7.9149 -7.47887,5.07645 -1.22202,0.44802 -7.02237,1.67286 z"
       style="fill:none;stroke:#ffffff;stroke-width:1.35245299000000000;stroke-miterlimit:4;stroke-opacity:0.99578089;stroke-dasharray:none"
       inkscape:connector-curvature="0" />
    <path
       style="fill:#ffffff;fill-opacity:0.99607843;stroke:none"
       d="m 364.99802,522.12333 c -8.34913,0.14433 -19.16488,5.30011 -19.03479,16.62247 0.16011,1.1888 0.37555,2.35032 1.05539,3.27927 l -9.04625,9.04624 c -0.008,0.20554 -0.24508,0.17336 -0.26385,0.37692 1.66376,3.40682 1.42091,4.07676 1.39463,6.7093 0.3998,1.16812 1.01333,3.72711 0.64078,5.54082 -0.20935,1.0192 0.54316,1.53212 0.56539,2.03541 l 15.26553,-15.454 c 1.11982,0.71346 2.14073,1.1529 3.12849,1.20617 12.01847,-1.49887 16.5579,-12.71423 16.5094,-21.10789 l -9.42317,9.12161 -8.51854,-8.55622 8.78239,-8.8201 -0.22615,0 c -0.26377,-0.006 -0.55992,-0.005 -0.82925,0 z m -43.23351,2.56309 c -0.79772,0.014 -1.59228,0.15567 -2.11078,0.45232 -0.58859,0.33677 -2.59064,0.0511 -3.1285,2.03542 -1.51633,0.62788 -1.89867,1.26266 -1.84692,3.5808 -1.43846,0.52906 -2.31877,2.37456 -2.41235,6.29468 -1.9959,2.37143 -1.34585,3.62999 -1.35693,5.16388 -1.98197,1.73497 -2.59572,3.90407 -1.9977,6.44546 -1.49271,1.18063 -2.02842,3.4618 -1.77156,6.74698 -1.98419,2.49557 -1.87238,4.97757 -1.31925,7.42546 -2.37243,3.40968 -1.27523,5.24918 -0.82923,7.38777 -1.75957,1.67037 -1.07735,4.31439 0.1507,7.19931 -0.53406,0.52311 -0.88495,1.1904 -1.01771,2.03539 -7.1864,-9.11975 -11.00881,-6.62333 -13.34321,-1.24385 6.07341,-3.54841 8.63377,9.84633 9.68702,12.96628 4.32205,11.03429 4.95208,23.87363 11.87319,26.72411 1.33573,0.50898 2.14691,2.09351 6.25699,2.56309 0.15666,0.0635 0.3408,0.08 0.5277,0.0376 0.45755,0.0396 0.93228,0.10347 1.47002,0.11295 l -0.0753,4.97541 3.50541,0.0754 -0.0754,-5.42773 c 3.40083,-0.29845 7.71769,-0.2959 9.38548,-3.09082 7.6169,-7.08916 5.99737,-11.60128 9.95087,-24.53793 2.32543,-6.23396 -0.38543,-15.82647 12.74012,-21.86176 -5.9183,1.22368 -10.89936,1.73732 -15.71785,5.76698 0.10114,-0.67223 0.0746,-1.53314 -0.1507,-2.75156 -0.0474,-0.62599 -0.16976,-1.41858 -0.41463,-2.37464 0.32241,-1.34247 0.2574,-2.46659 0,-3.50543 -0.11528,-1.31929 -0.61738,-2.48791 -1.09308,-3.61848 0.29583,-1.57029 0.21787,-2.57235 0,-3.43003 -0.0769,-1.07426 -0.39277,-1.83873 -0.64077,-2.67618 0.26887,-0.83084 0.26512,-1.69688 0.0376,-2.6008 -0.0505,-1.53656 -0.86628,-3.16641 -1.99771,-4.86236 0.14682,-0.87507 0.1319,-1.73309 -0.1131,-2.6008 -0.0569,-1.15136 -0.45618,-2.29597 -1.43231,-3.43003 0.24936,-0.68393 0.22904,-1.36049 0,-2.03541 0.0525,-1.28082 -0.78476,-2.58692 -1.96002,-3.84464 0.0222,-0.75729 -0.0833,-1.3389 -0.22615,-1.80927 -0.10114,-1.8144 -0.82273,-2.45183 -1.47003,-3.31694 0.11357,-2.29284 -1.13845,-4.1813 -2.37463,-5.31468 -0.0547,-0.98379 -1.50092,-2.76352 -3.65619,-2.41233 -0.35774,-0.88513 -1.72354,-1.26664 -3.05312,-1.24385 z m -50.16895,0.0753 c -0.0267,-0.003 -0.0325,0.0204 -0.0376,0.0376 -0.0823,0.27758 2.5756,3.24188 7.50084,8.93316 l 2.90233,3.05312 -1.50769,2.29924 c 1.90619,2.25297 3.60918,4.40579 6.74699,6.97315 l 1.65847,-0.82924 14.73784,15.00169 1.13079,1.35693 c -0.34572,-1.85826 -0.15657,-3.73096 0.90462,-5.6162 l -0.79155,-0.82924 -12.92858,-13.26783 0.60306,-1.54538 c -2.98061,-4.09593 -4.90291,-5.47511 -6.78467,-6.86008 l -1.96001,1.39464 -3.1662,-2.75158 c -5.74453,-4.86429 -8.60708,-7.29571 -9.00855,-7.35007 z m 73.53841,65.13296 c -0.20057,1.14997 -0.41683,2.27479 -0.79153,3.27926 -1.40517,4.59799 -2.1284,8.11454 -2.78926,11.08164 0.37113,0.41401 0.75794,0.82969 1.13079,1.24388 2.84041,3.14858 5.00247,5.72452 8.36776,8.217 2.44705,0.77575 4.96897,1.02902 6.93545,0.33925 l 7.08624,6.82236 c 3.35176,2.97361 6.64206,3.57546 10.36548,3.1662 0.19693,-0.68169 0.28421,-1.11136 0.52769,-1.77158 -3.60057,-0.50849 -7.07497,-2.18131 -9.00854,-4.1462 l -7.04853,-6.6339 c 0.26439,-2.08646 1.13647,-3.24555 0.18845,-6.10621 -3.50821,-6.49685 -8.40281,-9.70822 -13.79551,-14.47399 -0.003,0.021 0.003,0.0545 0,0.0754 -0.38654,-0.34133 -0.78593,-0.73114 -1.16849,-1.09309 z m -46.21122,0.0376 -8.89547,8.93317 c -1.46361,-0.96642 -2.93664,-0.69625 -3.92004,-0.94231 -12.01847,1.49884 -15.76634,12.56346 -15.71785,20.95713 l 9.27241,-9.23472 8.82009,8.82009 -8.70702,8.70701 c 8.44025,0.18555 19.58371,-4.181 19.44944,-15.86861 -0.1549,-0.87143 0.19126,-2.24497 -0.33925,-3.24158 l 4.14618,-4.5985 c -0.93886,-3.43884 -1.88828,-7.00676 -3.20386,-10.36549 -1.4e-4,-0.0109 -1.4e-4,-0.0267 0,-0.0376 -0.24752,-0.73305 -0.54815,-1.87548 -0.90463,-3.12848 z"
       id="path3915-7-1-0-7-4-1-5"
       inkscape:connector-curvature="0" />
  </g>
</svg>
