<?xml version="1.0" encoding="UTF-8" standalone="no"?>
<!-- Created with Inkscape (http://www.inkscape.org/) -->

<svg
   xmlns:dc="http://purl.org/dc/elements/1.1/"
   xmlns:cc="http://creativecommons.org/ns#"
   xmlns:rdf="http://www.w3.org/1999/02/22-rdf-syntax-ns#"
   xmlns:svg="http://www.w3.org/2000/svg"
   xmlns="http://www.w3.org/2000/svg"
   xmlns:xlink="http://www.w3.org/1999/xlink"
   xmlns:sodipodi="http://sodipodi.sourceforge.net/DTD/sodipodi-0.dtd"
   xmlns:inkscape="http://www.inkscape.org/namespaces/inkscape"
   width="210mm"
   height="297mm"
   id="svg3049"
   version="1.1"
   inkscape:version="0.48.5 r10040"
   sodipodi:docname="sabugosa_logo_branco_vazado.svg">
  <defs
     id="defs3">
    <clipPath
       id="clipPath3919">
      <path
         d="m 0,0 0,8420 5950,0 L 5950,0 0,0 z"
         id="path3921" />
    </clipPath>
    <clipPath
       id="clipPath3925">
      <path
         d="m 5490.52,4233.05 c -0.49,3.47 0.66,5.32 2.96,5.97 4.99,-11.83 8.04,-6.13 17.94,-2.98 0.46,-7.43 10.1,-0.87 11.95,0 10.9,-10.68 23.79,-1.25 38.84,0 3.54,-9.38 10.22,-1.04 17.91,-8.97 4.48,3.49 7.29,8.64 14.93,8.97 5.3,-6.64 12.22,-11.66 26.88,-8.97 7.46,-12.14 9.59,2.54 20.89,0 2.56,-8.75 7.53,3.9 14.95,0 0.63,-3.34 3.3,-4.64 5.96,-5.96 -0.09,-9.07 10.49,-7.44 17.93,-8.97 7.77,-3.18 18.16,-3.73 20.9,-11.94 8.29,-3.66 13.98,-9.92 20.91,-14.94 3.83,-0.16 4.14,-3.83 8.96,-2.99 0.63,-3.34 3.31,-4.65 5.98,-5.97 0.1,10.84 14.14,7.76 17.91,14.93 9.38,-1.41 7.89,8.04 14.95,8.97 6.21,-0.88 -4.44,-8.09 5.96,-8.97 4.04,2.93 3.88,10.07 8.97,11.96 7.43,2.83 18.01,-10.67 17.91,2.98 0.99,0 2,0 3,0 22.27,3.36 16.52,-21.28 38.82,-17.92 4.64,10.61 -10.15,1.8 -8.97,8.97 2.94,8.36 7.97,-4.34 11.95,2.98 1,0 2,0 2.98,0 6.65,-4.85 16.66,-10.76 23.91,-8.97 11.04,5.51 10.74,3.81 26.87,2.99 5.7,-4.25 12.97,-6.95 20.9,-8.96 0.39,-6.59 12.67,-1.26 17.93,-2.99 -5.53,-6.41 -2.02,-21.88 -2.98,-32.85 0.87,-10.4 8.07,0.25 8.95,-5.97 -5.32,-2.19 -0.44,-5.43 0,-8.97 2.99,0 5.98,0 8.98,0 0.97,0 1.98,0 2.96,0 4,0 7.97,0 11.96,0 7.33,2.38 -8.48,18.31 5.95,17.92 1.98,-4 6.41,-5.55 11.98,-5.96 16.64,-3.5 29.09,-20.46 47.76,-29.87 0.58,-4.43 7.23,-2.74 11.96,-2.98 20.26,-14.54 47.8,-16.58 77.64,-26.88 -7.77,-18.23 9.72,-14.93 5.98,-32.86 17.49,-5.28 37.56,-20.46 44.81,3 2.99,0 5.96,0 8.94,0 -3.32,-4.31 -3.2,-7.3 3,-8.97 -0.29,13.23 22.44,3.44 23.9,14.92 2.53,0.55 2.8,-1.16 2.99,-2.98 7.44,-7.2 58.29,8.36 38.82,8.95 -1.39,14.15 2.59,4.45 11.94,5.99 15.21,3.07 32.97,4.02 38.84,-11.96 5.24,11.72 18.18,2.16 29.85,3 8.97,-0.76 24.29,-5.2 35.83,0 11.68,-2.28 18.56,-9.34 26.9,-14.94 2.56,-2.41 1.77,-8.17 5.97,-8.97 0.11,-9.81 5.04,-14.85 2.97,-26.87 4.26,0.25 8.47,0.5 8.98,-2.98 10.3,2.62 -0.74,11.99 5.98,20.91 9.6,0.64 12.62,-5.29 23.88,-3 3.19,7.3 -16.6,17.16 -26.87,20.91 8.93,0.84 29.07,3 35.84,2.99 2.43,0.56 2.97,3 5.97,3 19.55,-9.05 21.88,-0.33 41.81,-8.97 3.46,-12.47 15.42,-16.45 23.9,-23.9 9.09,3.66 -4.36,11.4 2.99,14.94 1.99,0 3.97,0 5.97,0 24.28,-15.54 43.86,-35.78 71.68,-47.79 9.13,-2.16 8.79,5.15 17.92,2.98 1.56,-2.39 3.11,-4.84 2.99,-8.97 16.05,8.28 53.87,7.48 59.72,-11.92 10.75,3.18 19.11,8.77 23.89,17.91 1.01,0 1.99,0 2.99,0 6.12,-14.59 30.6,0.16 32.85,8.97 14.17,-4.51 28.54,-1.17 26.88,17.91 26.71,2.52 45.42,-0.84 56.75,26.88 -43.28,-442.53 -97.13,-900.39 -152.32,-1341 -6.56,-8.08 -9.9,-0.82 -17.91,-5.98 -6.56,11.37 -10.13,25.72 -20.91,32.85 -4.72,21.21 25.9,40.8 2.99,44.81 1.43,9.51 9.4,12.5 8.95,23.89 -6.86,15.04 -17.48,26.31 -32.85,32.85 6.14,38.5 -3.46,77.71 -38.83,74.66 1.27,6.24 -2.03,7.91 -3,11.95 -22.54,0.17 -40.23,-4.92 -50.75,-8.95 11.52,-1.4 22.13,-5.9 32.84,-14.94 5.5,10.42 0.59,12.66 -2.97,20.9 8.79,-4.07 18.78,4.3 20.88,-14.95 29.76,8.18 37.25,-37.32 29.89,-65.69 12.5,-13.36 33.33,-18.4 38.82,-38.81 -6.7,-4.27 -5.71,-16.21 -11.96,-20.91 -0.91,-6.89 8.65,-3.32 8.98,-8.98 3.06,-14.4 -8.77,-18.19 -8.98,-26.86 -0.3,-13.75 10.55,-17.35 14.94,-29.89 1.73,-4.9 -1.72,-11.68 0,-17.91 1.16,-4.16 8.57,-1.14 8.96,-5.96 -7.6,-0.32 -7.05,-11.15 -2.99,-14.93 4.14,5.41 8.47,6.74 11.97,2.98 -0.59,-2.41 -3.02,-2.98 -2.99,-5.98 15.13,-4.41 18.45,12.88 26.86,5.98 -1.75,-10.73 3.49,-14.45 5.99,-20.91 2.2,-14.72 8.74,-25.11 17.91,-32.86 -0.25,-4.23 -0.5,-8.46 3,-8.95 -1.23,-7.2 5.44,-6.49 2.98,-14.93 16.77,2.8 20.25,-7.64 32.86,-8.98 7.18,1.22 6.47,-5.45 14.92,-2.98 0.46,-5.52 10.12,-1.82 11.96,-5.96 1.8,-0.18 3.52,-0.45 2.97,-2.98 0,-4.98 0,-9.96 0,-14.95 11.5,1.43 18.65,7.23 20.91,17.93 1,0 2.01,0 2.99,0 4.4,-1.57 7.53,-4.43 11.94,-5.98 10.49,-14.72 32.32,3.55 47.81,3 4.25,1.14 5.02,3.56 8.94,0 1.77,-12.74 -2.15,-19.77 -2.99,-29.88 8.41,9.51 15.19,20.64 20.91,32.86 2.32,-0.68 3.49,-2.51 2.99,-5.98 0,-1.01 0,-1.98 0,-2.99 8,1.95 11.36,8.55 17.91,11.95 7.97,3 9.84,12.07 14.95,17.91 11.54,1.61 14.56,-5.32 26.87,-2.97 9.95,-29.87 25.95,-53.7 47.81,-71.69 -1.78,-10.18 -8.22,-15.69 -8.99,-26.88 13.03,-8.95 43.69,6.97 50.78,-17.92 -9.87,-16.85 -7.15,-26.37 2.98,-41.81 11.52,6.99 17.01,9.71 29.89,2.98 -0.98,-6.98 -3.6,-12.34 -5.99,-17.91 42.28,-19.46 51.13,-72.32 74.68,-110.5 -4.32,-4.65 -6.29,-11.66 -8.98,-17.93 13.66,-7.27 16.16,-25.65 41.83,-20.91 0.51,-7.47 -4.6,-9.35 -8.99,-11.95 -4.8,0.85 -5.12,-2.81 -8.94,-2.97 0,-2.99 0,-5.98 0,-8.98 0.96,-4.02 4.25,-5.7 2.98,-11.94 -1.82,-4.14 -11.49,-0.44 -11.94,-5.97 -17.66,-12.03 -50.26,-6.66 -53.77,-38.84 -18.65,-6.92 -36.46,0.07 -50.77,5.99 12.57,9.6 -4.02,15.15 -14.92,17.91 -0.88,-28.75 29.94,-25.79 44.81,-38.82 -26.32,-9.52 -7.62,-64.05 -44.81,-62.73 0,-3.97 0,-7.97 0,-11.94 -2.56,0.55 -2.82,-1.16 -2.99,-2.99 -1.26,-6.22 2.03,-7.91 2.99,-11.94 -18.2,-12.65 -35.84,-25.88 -47.79,-44.79 -9.12,-2.16 -10.89,3.05 -17.92,2.98 0,-4.98 0,-9.96 0,-14.93 0,-1 0,-1.99 0,-3 -1.84,0.88 -11.49,7.43 -11.95,0 -8.89,-0.04 -3.82,-14.09 -8.97,-17.91 -0.56,-2.43 -2.99,-2.97 -2.97,-5.98 0.53,-6.5 -2.44,-9.5 -8.97,-8.95 2.41,10.34 -4.45,11.47 -2.98,20.9 -19.86,-3.47 -15.06,25.24 -29.86,17.93 0.43,7.39 0.53,14.5 -5.98,14.92 0,0.98 0,1.99 0,2.99 -1.12,8.32 11.36,18.18 2.98,23.89 -0.07,-2.9 -3.66,-2.32 -5.97,-2.98 0,1.99 0,3.98 0,5.96 -3.29,27.31 -7.28,46.8 -11.94,77.66 -3.01,1.93 -10.29,1.8 -20.91,2.98 -1.26,6.24 2.05,7.92 2.99,11.95 -7.04,-0.05 -8.78,5.14 -17.92,2.99 0.51,8.65 12.17,13.62 -2.99,14.93 -2.41,2.56 -8.18,1.79 -8.95,5.98 -1.79,10.74 1.07,16.84 8.95,17.91 -7.38,5.49 -10.77,7.46 -2.99,14.93 0.56,2.44 3,3 2.99,5.99 -12.86,14.29 -46.13,30.42 -53.75,11.93 -11.81,-7.11 -22.24,-15.59 -29.88,-26.86 -0.25,-10.69 -4.64,-17.27 -5.96,-26.9 -2.34,-0.64 -3.5,-2.49 -3,-5.96 -11.36,2.4 -3.79,-14.12 -5.98,-20.9 -19.35,-10.2 -50.56,-22.53 -71.67,-5.99 -5.96,0 -11.94,0 -17.93,0 -7.41,0.46 -9.23,-4.68 -14.92,-5.96 -2.43,-0.58 -2.98,-2.99 -5.99,-2.99 -8.79,2.27 -15.54,22.11 -20.91,17.91 -22.56,-8 -39.56,-6.05 -53.75,-2.97 -7.93,-6.02 -2.84,-25.03 -14.93,-26.89 -13.93,4.67 -14.6,14.74 -32.85,8.98 -0.99,0 -1.99,0 -2.99,0 0.52,7.47 -4.58,9.32 -8.97,11.92 -2.4,0.58 -2.96,3 -5.95,3 0.54,2.53 -1.18,2.81 -2.99,2.99 -2.58,2.41 -1.77,8.16 -5.99,8.95 0,1.99 0,3.99 0,5.97 0,2 0,3.99 0,5.98 -12,2.05 -17.03,-2.87 -26.87,-2.98 -1.55,17.37 -12.74,25.08 -20.9,35.84 0.4,5.56 1.96,9.97 5.97,11.94 -14.2,16.68 -20.12,41.6 -29.87,62.72 0,2 0,3.98 0,5.97 0,5 0,9.94 0,14.94 -36.09,-1.96 -5.53,-37.3 -29.85,-53.77 -17.35,-2.32 -28.33,5.22 -44.83,-5.96 -4.79,4.14 -9.45,8.46 -14.92,11.94 -13.75,-4.18 -21.39,-14.46 -32.84,-20.92 -11.22,10.58 -29.59,20.12 -44.81,17.93 3.17,15.62 0.55,23.77 -8.95,32.86 -13.43,-2.5 -16.47,-15.41 -29.89,-17.91 -2.27,7.67 -7.25,12.65 -14.92,14.92 -8.04,2.06 -5.78,-6.17 -8.97,-8.97 -8.06,0.9 -5.33,12.57 -11.95,14.94 -20.73,-8.82 -44.2,-21.7 -47.77,-38.83 -9.61,-2.63 -4.1,9.87 -11.95,8.96 0.25,-4.7 -1.45,-11.38 2.98,-11.93 -0.56,-2.43 -2.98,-2.99 -2.98,-5.98 -9.44,0.49 -9.98,-7.94 -20.92,-5.99 2.32,20.3 -18.15,26.72 -8.95,44.82 -25.92,0.07 -32.43,-17.94 -32.85,-35.84 -16.89,6 -43.21,2.59 -38.82,29.85 -18.58,3.34 -30.22,13.62 -56.75,8.97 -1.3,9.87 4.73,19.11 -2.99,32.85 -5.28,-2.68 -3.81,-12.12 -14.93,-8.97 -5.08,1.89 -4.92,9.03 -8.97,11.96 -12.5,-2.41 -19.94,-9.94 -29.86,-14.93 -6.31,2.64 -8.82,9.09 -17.92,8.96 6.75,5.19 2.77,21.12 11.94,23.9 -8.83,10.23 -17.62,27.54 -32.85,14.92 1.26,6.25 -2.04,7.92 -2.99,11.94 -31.29,1.4 -86.57,-37.2 -95.57,17.91 -13.63,2.69 -16.92,-4.95 -26.88,-5.95 2.75,12.69 -7.16,12.74 -17.91,11.94 0.04,8.91 7.77,10.16 8.95,17.92 -1.22,12.72 -15.22,12.64 -14.92,26.88 -20.46,2.98 -44.32,-6.34 -38.83,11.94 -34.53,-13.03 -62.62,-57 -89.6,-8.94 -2.42,-0.59 -2.99,-3.01 -5.99,-3 -3.96,0 -7.96,0 -11.92,0 -0.5,3.51 -5.47,2.52 -8.98,3 -8.44,8.1 8.36,22.91 -8.95,20.89 2.36,5.59 4.98,10.95 5.95,17.91 -9.19,10.72 -27.44,12.38 -32.85,26.89 0.5,8.46 5.48,12.46 5.99,20.91 -10.05,0.08 -15.8,-4.11 -20.91,-8.96 -8.13,4.82 -12.58,13.32 -14.93,23.89 -8.04,2.07 -5.78,-6.19 -8.97,-8.94 -5.52,0.43 -1.81,10.09 -5.95,11.94 -18.36,-0.37 -30.31,-9.11 -47.8,0 -1.19,14.72 -6.52,25.33 -17.92,29.86 -9.8,6.87 -14.12,-12.38 -23.9,-14.93 1.47,9.41 -5.37,10.54 -3,20.89 0,2 0,4 0,5.99 -30.54,-1.69 -45.31,12.41 -50.76,35.84 0,1.99 0,3.97 0,5.96 -12.45,-0.07 -14.73,-10.32 -26.87,-2.96 -3.97,7.55 -13.28,-4.4 -20.91,-3 0,3.97 0,7.96 0,11.94 1.88,11.18 4.7,17.1 -5.97,20.91 0.01,2.99 -2.43,3.55 -3,5.97 -16.14,-5.75 -19.92,-23.87 -32.85,-32.86 0,10.95 0,21.91 0,32.86 -56.44,-1.19 -14.57,72.45 -23.9,113.49 39.56,496.04 75.79,995.46 110.51,1496.32 6.6,0.37 1.27,12.67 2.99,17.91 9.09,0.14 11.61,-6.3 17.92,-8.95 1.22,-3.75 3.86,-6.11 8.97,-5.97 0.61,-3.36 3.31,-4.64 5.96,-5.98 12.74,-9.17 37.48,-6.33 44.81,-20.9 4.94,0.04 1.67,8.28 5.98,8.95 0.77,-4.2 6.54,-3.39 8.95,-5.97 21.88,6.36 48.02,-4.58 56.74,-20.9 0,-1 0,-2 0,-2.99 1.55,-4.42 4.44,-7.53 5.98,-11.94 6.14,-2.63 13.42,7.73 5.98,8.95 0,1 0,1.99 0,2.99 z M 6505.98,2930.87 c 12.68,-3.8 5.03,-4.78 2.98,-14.94 12.39,-0.8 11.64,3.93 20.92,0 -11.09,12.75 -27.65,22.36 -17.93,47.79 -5.25,-1.72 -17.54,3.62 -17.91,-2.99 -3.46,2.52 -8.02,3.95 -14.94,2.99 -13.69,1.73 -13.92,-9.97 -20.91,-14.93 -11.98,9.35 -23.72,10.29 -38.82,2.99 -10.16,11.61 -20.95,13.96 -14.94,35.84 -11.95,-1.01 -16.58,5.32 -29.87,2.97 -5.94,7 -6.86,19.02 -5.97,32.87 -19.55,5.34 -18.27,31.51 -32.86,41.81 -16.28,-2.63 -29.62,-8.21 -50.77,-5.96 -13.32,-10.67 38.43,1.18 53.75,0 5.01,-28.87 31.17,-36.56 29.88,-71.69 13.17,0.21 25.68,-0.22 29.87,-8.97 -1.55,-4.41 -4.41,-7.53 -5.98,-11.94 14.12,-3.8 14.86,-21.01 29.88,-23.9 10.08,-0.08 13.28,15.71 23.88,5.98 0.64,-3.35 3.31,-4.65 5.97,-5.98 14.06,-3.1 15.02,6.9 20.91,11.95 10.27,-1.3 16.74,1.18 23.91,2.97 0.98,0 1.99,0 2.96,0 7.19,-3.77 -1.64,-23.53 5.99,-26.86"
         id="path3927" />
    </clipPath>
    <linearGradient
       id="linearGradient3969-2">
      <stop
         style="stop-color:#007317;stop-opacity:1;"
         offset="0"
         id="stop3971-1" />
      <stop
         style="stop-color:#008a1d;stop-opacity:1;"
         offset="1"
         id="stop3973-6" />
    </linearGradient>
    <radialGradient
       inkscape:collect="always"
       xlink:href="#linearGradient3969-2"
       id="radialGradient3977-2"
       cx="301.29153"
       cy="541.07141"
       fx="301.29153"
       fy="541.07141"
       r="36.928574"
       gradientTransform="matrix(0.56264266,-2.2266214,0.73450961,0.18560243,-307.87027,1156.4691)"
       gradientUnits="userSpaceOnUse" />
    <linearGradient
       id="linearGradient3979-4">
      <stop
         style="stop-color:#ffc905;stop-opacity:1;"
         offset="0"
         id="stop3981-2" />
      <stop
         style="stop-color:#d4a600;stop-opacity:1;"
         offset="1"
         id="stop3983-3" />
    </linearGradient>
    <linearGradient
       id="linearGradient3979-6">
      <stop
         style="stop-color:#ffc905;stop-opacity:1;"
         offset="0"
         id="stop3981-0" />
      <stop
         style="stop-color:#d4a600;stop-opacity:1;"
         offset="1"
         id="stop3983-4" />
    </linearGradient>
    <linearGradient
       inkscape:collect="always"
       xlink:href="#linearGradient3979-6"
       id="linearGradient3985-2"
       x1="289.15738"
       y1="538.76373"
       x2="329.77118"
       y2="538.76373"
       gradientUnits="userSpaceOnUse" />
    <linearGradient
       id="linearGradient3969-7">
      <stop
         style="stop-color:#00320a;stop-opacity:1;"
         offset="0"
         id="stop3971-7" />
      <stop
         style="stop-color:#008a1d;stop-opacity:1;"
         offset="1"
         id="stop3973-1" />
    </linearGradient>
    <linearGradient
       id="linearGradient3969">
      <stop
         style="stop-color:#007317;stop-opacity:1;"
         offset="0"
         id="stop3971" />
      <stop
         style="stop-color:#008a1d;stop-opacity:1;"
         offset="1"
         id="stop3973" />
    </linearGradient>
    <linearGradient
       id="linearGradient3979">
      <stop
         style="stop-color:#ffc905;stop-opacity:1;"
         offset="0"
         id="stop3981" />
      <stop
         style="stop-color:#d4a600;stop-opacity:1;"
         offset="1"
         id="stop3983" />
    </linearGradient>
    <inkscape:path-effect
       effect="bend_path"
       id="path-effect3880"
       is_visible="true"
       bendpath="m 134.74976,434.86218 c 13.48496,-129.88664 146.49076,-5.01481 200.02962,0"
       prop_scale="1"
       scale_y_rel="false"
       vertical="false"
       bendpath-nodetypes="cc" />
    <path
       style="fill:none;stroke:#000000;stroke-width:0.450297;stroke-linecap:round;stroke-linejoin:round;stroke-miterlimit:4;stroke-opacity:0.99607843;stroke-dashoffset:14.5"
       d="m 445.57202,399.68226 c 0,52.80068 -44.68783,95.60409 -99.81307,95.60409 -55.12523,0 -99.81307,-42.80341 -99.81307,-95.60409 0,-52.80068 44.68784,-95.60409 99.81307,-95.60409 55.12524,0 99.81307,42.80341 99.81307,95.60409 z"
       id="path3821-1"
       inkscape:connector-curvature="0" />
    <path
       style="fill:none;stroke:#000000;stroke-width:0.450297;stroke-linecap:round;stroke-linejoin:round;stroke-miterlimit:4;stroke-opacity:0.99607843;stroke-dashoffset:14.5"
       d="m 245.94588,399.68226 c 0,52.80068 44.68783,95.60409 99.81307,95.60409 55.12523,0 99.81307,-42.80341 99.81307,-95.60409 0,-52.80068 -44.68784,-95.60409 -99.81307,-95.60409 -55.12524,0 -99.81307,42.80341 -99.81307,95.60409 z"
       id="path3821-9"
       inkscape:connector-curvature="0" />
    <path
       sodipodi:type="arc"
       style="fill:none;stroke:#ffffff;stroke-width:0.39136386;stroke-linecap:round;stroke-linejoin:round;stroke-miterlimit:4;stroke-opacity:0.99607843;stroke-dasharray:none;stroke-dashoffset:14.5"
       id="path3915-4-5-5"
       sodipodi:cx="257.32144"
       sodipodi:cy="482.54077"
       sodipodi:rx="103.03571"
       sodipodi:ry="103.03571"
       d="m 360.35715,482.54077 a 103.03571,103.03571 0 1 1 -206.07142,0 103.03571,103.03571 0 1 1 206.07142,0 z"
       transform="matrix(-0.90537411,0,0,0.90537411,449.04359,-94.160592)" />
    <path
       sodipodi:type="arc"
       style="fill:none;stroke:#ffffff;stroke-width:0.39136386;stroke-linecap:round;stroke-linejoin:round;stroke-miterlimit:4;stroke-opacity:0.99607843;stroke-dasharray:none;stroke-dashoffset:14.5"
       id="path3915-4-1"
       sodipodi:cx="257.32144"
       sodipodi:cy="482.54077"
       sodipodi:rx="103.03571"
       sodipodi:ry="103.03571"
       d="m 360.35715,482.54077 a 103.03571,103.03571 0 1 1 -206.07142,0 103.03571,103.03571 0 1 1 206.07142,0 z"
       transform="matrix(0.90537411,0,0,0.90537411,-85.11503,-35.946307)" />
    <path
       sodipodi:type="arc"
       style="fill:none;stroke:#ffffff;stroke-width:0.39136386;stroke-linecap:round;stroke-linejoin:round;stroke-miterlimit:4;stroke-opacity:0.99607843;stroke-dasharray:none;stroke-dashoffset:14.5"
       id="path3915-4-5-5-8"
       sodipodi:cx="257.32144"
       sodipodi:cy="482.54077"
       sodipodi:rx="103.03571"
       sodipodi:ry="103.03571"
       d="m 360.35715,482.54077 a 103.03571,103.03571 0 1 1 -206.07142,0 103.03571,103.03571 0 1 1 206.07142,0 z"
       transform="matrix(-0.90537411,0,0,0.90537411,449.04359,-94.160592)" />
    <path
       sodipodi:type="arc"
       style="fill:none;stroke:#ffffff;stroke-width:0.39136386;stroke-linecap:round;stroke-linejoin:round;stroke-miterlimit:4;stroke-opacity:0.99607843;stroke-dasharray:none;stroke-dashoffset:14.5"
       id="path3915-4-1-9"
       sodipodi:cx="257.32144"
       sodipodi:cy="482.54077"
       sodipodi:rx="103.03571"
       sodipodi:ry="103.03571"
       d="m 360.35715,482.54077 a 103.03571,103.03571 0 1 1 -206.07142,0 103.03571,103.03571 0 1 1 206.07142,0 z"
       transform="matrix(0.90537411,0,0,0.90537411,-85.11503,-35.946307)" />
    <path
       sodipodi:type="arc"
       style="fill:none;stroke:#ffffff;stroke-width:0.39136386;stroke-linecap:round;stroke-linejoin:round;stroke-miterlimit:4;stroke-opacity:0.99607843;stroke-dasharray:none;stroke-dashoffset:14.5"
       id="path3915-4-1-9-1"
       sodipodi:cx="257.32144"
       sodipodi:cy="482.54077"
       sodipodi:rx="103.03571"
       sodipodi:ry="103.03571"
       d="m 360.35715,482.54077 a 103.03571,103.03571 0 1 1 -206.07142,0 103.03571,103.03571 0 1 1 206.07142,0 z"
       transform="matrix(0.90537411,0,0,0.90537411,-85.11503,-35.946307)" />
    <path
       sodipodi:type="arc"
       style="fill:none;stroke:#ffffff;stroke-width:0.39136386;stroke-linecap:round;stroke-linejoin:round;stroke-miterlimit:4;stroke-opacity:0.99607843;stroke-dasharray:none;stroke-dashoffset:14.5"
       id="path3915-4-5-5-8-3"
       sodipodi:cx="257.32144"
       sodipodi:cy="482.54077"
       sodipodi:rx="103.03571"
       sodipodi:ry="103.03571"
       d="m 360.35715,482.54077 a 103.03571,103.03571 0 1 1 -206.07142,0 103.03571,103.03571 0 1 1 206.07142,0 z"
       transform="matrix(-0.90537411,0,0,0.90537411,449.04359,-94.160592)" />
    <path
       sodipodi:type="arc"
       style="fill:none;stroke:#ffffff;stroke-width:0.39136386;stroke-linecap:round;stroke-linejoin:round;stroke-miterlimit:4;stroke-opacity:0.99607843;stroke-dasharray:none;stroke-dashoffset:14.5"
       id="path3915-4-1-9-1-7"
       sodipodi:cx="257.32144"
       sodipodi:cy="482.54077"
       sodipodi:rx="103.03571"
       sodipodi:ry="103.03571"
       d="m 360.35715,482.54077 a 103.03571,103.03571 0 1 1 -206.07142,0 103.03571,103.03571 0 1 1 206.07142,0 z"
       transform="matrix(0.90537411,0,0,0.90537411,-85.11503,-35.946307)" />
    <path
       sodipodi:type="arc"
       style="fill:none;stroke:#ffffff;stroke-width:0.39136386;stroke-linecap:round;stroke-linejoin:round;stroke-miterlimit:4;stroke-opacity:0.99607843;stroke-dasharray:none;stroke-dashoffset:14.5"
       id="path3915-4-5-5-8-3-7"
       sodipodi:cx="257.32144"
       sodipodi:cy="482.54077"
       sodipodi:rx="103.03571"
       sodipodi:ry="103.03571"
       d="m 360.35715,482.54077 a 103.03571,103.03571 0 1 1 -206.07142,0 103.03571,103.03571 0 1 1 206.07142,0 z"
       transform="matrix(-0.90537411,0,0,0.90537411,449.04359,-94.160592)" />
  </defs>
  <sodipodi:namedview
     inkscape:document-units="mm"
     id="base"
     pagecolor="#ffffff"
     bordercolor="#666666"
     borderopacity="1.0"
     inkscape:pageopacity="0.0"
     inkscape:pageshadow="2"
     inkscape:zoom="1.4"
     inkscape:cx="518.43712"
     inkscape:cy="779.07419"
     inkscape:current-layer="layer1"
     showgrid="false"
     inkscape:window-width="1920"
     inkscape:window-height="1017"
     inkscape:window-x="1911"
     inkscape:window-y="-9"
     inkscape:window-maximized="1" />
  <metadata
     id="metadata4">
    <rdf:RDF>
      <cc:Work
         rdf:about="">
        <dc:format>image/svg+xml</dc:format>
        <dc:type
           rdf:resource="http://purl.org/dc/dcmitype/StillImage" />
        <dc:title />
      </cc:Work>
    </rdf:RDF>
  </metadata>
  <g
     inkscape:groupmode="layer"
     id="layer3"
     inkscape:label="Layer"
     sodipodi:insensitive="true">
    <rect
       style="fill:#005d1c;fill-opacity:1;stroke:none"
       id="rect3024"
       width="737.41125"
       height="1042.4779"
       x="11.111723"
       y="1.8032764"
       ry="0" />
  </g>
  <g
     inkscape:label="Layer 1"
     inkscape:groupmode="layer"
     id="layer1">
    <g
       inkscape:label="teste"
       id="layer5"
       transform="matrix(0.29762019,0,0,0.29762019,592.76675,166.3405)" />
    <g
       style="display:inline"
       id="layer1-2"
       inkscape:label="Layer 1"
       transform="matrix(0.29762019,0,0,0.29762019,592.76675,166.3405)" />
    <g
       style="display:inline"
       inkscape:label="Layer"
       id="layer2"
       transform="matrix(0.29762019,0,0,0.29762019,592.76675,166.3405)" />
    <g
       id="g4710"
       transform="matrix(1.0405655,0,0,1.0405655,-36.420551,153.74766)">
      <path
         inkscape:connector-curvature="0"
         id="path3915-7-1"
         d="m 221.38976,277.68381 c -50.33648,0 -91.13756,40.82475 -91.13756,91.16124 0,50.33649 40.80108,91.13756 91.13756,91.13756 50.33649,0 91.16124,-40.80107 91.16124,-91.13756 0,-50.33649 -40.82475,-91.16124 -91.16124,-91.16124 z m 3.38687,2.22633 c 0.28213,-0.0121 0.5612,-0.0143 0.85264,0 1.2858,0.0628 2.50033,0.40401 3.62371,1.01843 1.12335,0.61446 2.0635,1.44451 2.81844,2.48686 0.33177,0.44117 0.44627,0.92755 0.35527,1.46844 -0.091,0.54092 -0.34065,0.98416 -0.78159,1.30264 -0.44097,0.31849 -0.95103,0.43832 -1.49211,0.35526 -0.54112,-0.083 -0.97086,-0.34043 -1.30265,-0.78158 -0.83347,-1.17373 -1.96952,-1.80073 -3.41055,-1.87107 -1.24356,-0.0607 -2.32466,0.32723 -3.24476,1.16054 -0.92012,0.83332 -1.40578,1.85917 -1.46843,3.10265 -0.0627,1.24349 0.3287,2.32596 1.16053,3.24477 0.83182,0.91881 1.85909,1.40774 3.10266,1.46843 0.86194,0.0421 1.67213,-0.14431 2.41581,-0.56843 0.74364,-0.4241 1.30962,-0.99895 1.72896,-1.72896 l -4.00267,-0.18947 c -0.55107,-0.0269 -1.00478,-0.25543 -1.37369,-0.66317 -0.36892,-0.40771 -0.54883,-0.89361 -0.52106,-1.44474 0.0277,-0.55113 0.25543,-0.98753 0.66316,-1.35002 0.40772,-0.36245 0.89368,-0.54794 1.44475,-0.52105 l 6.44216,0.33158 c 0.55105,0.0269 1.00439,0.23909 1.37369,0.63948 0.36927,0.4004 0.54882,0.86994 0.52106,1.42106 -0.1175,2.33172 -1.0585,4.27735 -2.79476,5.85005 -1.7363,1.5727 -3.75544,2.31644 -6.08689,2.20265 -2.33147,-0.11379 -4.30406,-1.03702 -5.87373,-2.77108 -1.56967,-1.73404 -2.29645,-3.77906 -2.17896,-6.11057 0.11747,-2.33149 1.05847,-4.27734 2.79476,-5.85005 1.51924,-1.3761 3.25931,-2.11774 5.23425,-2.20265 z m -13.78432,0.80527 c 0.3887,0.007 0.73428,0.14004 1.0658,0.37895 0.44198,0.31862 0.71257,0.73519 0.80527,1.27896 l 1.42106,8.28954 c 0.28752,1.68713 -0.0586,3.22933 -1.04211,4.61846 -0.98354,1.38913 -2.3292,2.22275 -4.00267,2.51054 -1.67349,0.28782 -3.18378,-0.0607 -4.57109,-1.04211 -1.38731,-0.98139 -2.24669,-2.31554 -2.53423,-4.00266 l -1.39738,-8.28954 c -0.0927,-0.54378 0.0205,-1.0203 0.33159,-1.46843 0.31111,-0.44812 0.73502,-0.7354 1.27895,-0.82896 0.54393,-0.0935 1.04331,0.0377 1.49212,0.35527 0.44881,0.31744 0.71259,0.73518 0.80527,1.27895 l 1.42106,8.28954 c 0.10218,0.59955 0.38547,1.06773 0.87633,1.42107 0.49084,0.35334 1.03454,0.48208 1.63422,0.37895 0.59967,-0.10313 1.07517,-0.40276 1.42106,-0.90001 0.34589,-0.49723 0.48113,-1.05836 0.37895,-1.65791 l -1.42106,-8.26585 c -0.0927,-0.54378 0.0134,-1.04277 0.33158,-1.49212 0.31855,-0.44939 0.75892,-0.73542 1.30264,-0.82895 0.13593,-0.0233 0.27307,-0.0261 0.40264,-0.0237 z m 33.51342,2.55792 c 0.81386,0.007 1.62697,0.14491 2.46318,0.40263 2.22984,0.68729 3.90626,2.05184 4.9974,4.12109 1.09111,2.06926 1.28281,4.23502 0.59211,6.46584 -0.69075,2.23082 -2.074,3.879 -4.14476,4.97372 -2.07079,1.09471 -4.2123,1.30306 -6.44216,0.6158 -2.22987,-0.68729 -3.90629,-2.07552 -4.99741,-4.14477 -1.09112,-2.06925 -1.28284,-4.21132 -0.59211,-6.44216 0.69073,-2.23081 2.07419,-3.90262 4.14477,-4.99741 1.29436,-0.68415 2.62255,-1.00665 3.97898,-0.99474 z m -52.93463,2.34475 c 0.8473,-0.0493 1.70173,0.13292 2.53423,0.52106 1.33201,0.62106 2.22704,1.61512 2.72371,2.98423 0.16393,0.45193 0.28512,0.88328 0.33158,1.30265 1.542,0.59762 2.58594,1.66616 3.15003,3.22107 0.51121,1.40929 0.45302,2.80586 -0.18948,4.16846 -0.64253,1.3626 -1.66934,2.28142 -3.07897,2.79476 l -2.91318,1.06579 c -0.50533,0.18402 -1.01751,0.16128 -1.5158,-0.071 -0.4983,-0.23232 -0.83036,-0.59473 -1.01843,-1.11317 L 187.42633,289.005 c -0.17835,-0.49165 -0.14833,-0.99959 0.071,-1.5158 0.25536,-0.49941 0.63153,-0.8344 1.13685,-1.01843 l 1.42106,-0.52106 c 0.5137,-0.18706 1.00743,-0.302 1.51581,-0.33158 z m 52.91095,1.63423 c -0.72179,-0.008 -1.42208,0.15855 -2.10792,0.52105 -1.09735,0.58002 -1.83425,1.46287 -2.20264,2.65266 -0.3684,1.18979 -0.27037,2.33778 0.30789,3.43423 0.57825,1.09647 1.46327,1.83608 2.65265,2.20265 1.18936,0.36659 2.33717,0.2483 3.43424,-0.33158 1.0976,-0.58015 1.83424,-1.46286 2.20265,-2.65265 0.36838,-1.18979 0.27034,-2.33778 -0.3079,-3.43424 -0.57827,-1.09645 -1.46328,-1.81237 -2.65265,-2.17896 -0.44602,-0.13746 -0.89325,-0.20881 -1.32632,-0.21316 z m -52.62673,2.34475 2.79475,7.67375 1.04212,-0.37895 c 0.38559,-0.14042 0.65521,-0.38625 0.82895,-0.7579 0.17373,-0.37166 0.20612,-0.76445 0.071,-1.13686 -0.11568,-0.31884 -0.32589,-0.5602 -0.59211,-0.73421 -0.26624,-0.17401 -0.56028,-0.25539 -0.90001,-0.23685 -0.7194,0.0512 -1.29348,-0.20306 -1.72896,-0.78158 -0.42749,-0.59703 -0.51608,-1.22991 -0.26053,-1.89475 0.1139,-0.26743 0.11529,-0.55745 0,-0.87633 -0.0964,-0.26569 -0.26717,-0.48241 -0.49737,-0.63947 -0.23021,-0.15703 -0.48513,-0.231 -0.7579,-0.23685 z m 68.80317,0.54474 c 0.75517,0.006 1.49065,0.19961 2.20265,0.59211 l 1.61054,0.90001 c 0.48286,0.2662 0.79513,0.65581 0.94737,1.18422 0.15221,0.52842 0.0945,1.02091 -0.16579,1.49212 -0.26697,0.48333 -0.65559,0.818 -1.18422,0.97106 -0.52865,0.15308 -1.03293,0.0767 -1.5158,-0.18948 l -1.63422,-0.87632 c -0.17344,-0.0956 -0.34636,-0.12325 -0.54474,-0.071 -0.1984,0.0522 -0.34724,0.16921 -0.45001,0.35527 -0.0957,0.17322 -0.12909,0.3665 -0.071,0.56843 0.0581,0.20195 0.18182,0.3544 0.35526,0.45 1.28768,0.70987 2.14203,1.77204 2.55792,3.19739 0.41585,1.42537 0.26876,2.79606 -0.45001,4.0974 -0.71189,1.28887 -1.78888,2.14321 -3.22107,2.55792 -1.43222,0.4147 -2.78604,0.25986 -4.07372,-0.45001 l -2.22633,-1.23158 c -0.48251,-0.266 -0.79497,-0.6557 -0.94738,-1.18422 -0.15241,-0.52853 -0.10118,-1.03248 0.16579,-1.51581 0.26696,-0.48332 0.68252,-0.80064 1.20791,-0.94737 0.52538,-0.14673 1.0096,-0.0765 1.49211,0.18947 l 2.22634,1.20791 c 0.33438,0.18435 0.69086,0.22697 1.06579,0.11842 0.37491,-0.10856 0.64408,-0.32846 0.82896,-0.66316 0.19175,-0.34717 0.22982,-0.69728 0.11842,-1.0658 -0.11142,-0.36852 -0.32879,-0.64462 -0.66316,-0.82895 -1.13921,-0.62801 -1.89015,-1.56924 -2.25002,-2.81845 -0.35988,-1.24919 -0.22706,-2.45998 0.40263,-3.60003 0.62969,-1.14003 1.5687,-1.88813 2.81845,-2.25001 0.46864,-0.1357 0.94427,-0.19298 1.39738,-0.18948 z m -81.6638,1.23159 c 0.10172,-0.005 0.20199,-0.0107 0.3079,0 0.42364,0.0427 0.79393,0.20056 1.11316,0.47369 l 9.68692,8.52638 c 0.57175,0.48706 0.80032,1.09349 0.66316,1.8237 -0.13186,0.71079 -0.53811,1.21684 -1.23158,1.5158 l -3.69477,1.44475 c -0.50173,0.2061 -0.98864,0.20142 -1.49212,-0.0237 -0.5035,-0.22512 -0.86087,-0.58785 -1.0658,-1.08948 -0.19293,-0.50848 -0.19248,-1.00928 0.0236,-1.5158 0.21619,-0.5065 0.58069,-0.87205 1.08948,-1.0658 l 0.66317,-0.23684 -2.91318,-2.5816 1.32632,6.9869 c 0.0996,0.54549 -0.003,1.04084 -0.3079,1.49211 -0.30471,0.4513 -0.71633,0.73956 -1.25527,0.85264 -0.54563,0.1005 -1.04133,-0.004 -1.49212,-0.3079 -0.45078,-0.304 -0.72932,-0.70978 -0.82895,-1.25527 l -2.43949,-12.69484 c -0.0732,-0.41392 -0.0124,-0.82081 0.16579,-1.2079 0.17819,-0.38706 0.46036,-0.68905 0.82895,-0.90001 0.26745,-0.15305 0.54748,-0.22255 0.85264,-0.23684 z m 40.76085,6.93953 c 0.60641,-0.0154 1.21358,0 1.82369,0 39.04732,0 70.72161,31.67429 70.72161,70.72161 0,39.04731 -31.67429,70.69792 -70.72161,70.69792 -39.04731,0 -70.69792,-31.65061 -70.69792,-70.69792 0,-38.4372 30.67039,-69.7531 68.87423,-70.72161 z m -51.34778,0.0947 c 0.12934,-0.0117 0.2658,-0.0136 0.40264,0 0.54736,0.0543 0.98596,0.2945 1.32632,0.71053 0.34912,0.42675 0.50511,0.92098 0.45001,1.46843 -0.0551,0.54748 -0.28325,1.00023 -0.71053,1.35001 l -1.44475,1.16054 c -0.15345,0.12564 -0.23498,0.29387 -0.26053,0.49737 -0.0255,0.20352 0.0314,0.38048 0.16579,0.54474 0.12511,0.15295 0.28825,0.23966 0.49737,0.26053 0.20911,0.0208 0.39128,-0.0165 0.54474,-0.14211 1.1394,-0.9328 2.45321,-1.32563 3.93161,-1.18422 1.4784,0.14145 2.68373,0.76948 3.62372,1.91844 0.93096,1.13797 1.30982,2.44842 1.16053,3.93161 -0.1493,1.4832 -0.77904,2.69092 -1.91843,3.62371 l -1.96581,1.61054 c -0.42694,0.34953 -0.92091,0.50411 -1.46843,0.45 -0.54753,-0.0541 -0.97722,-0.30747 -1.32633,-0.73421 -0.34911,-0.42673 -0.50978,-0.90265 -0.45,-1.44475 0.0598,-0.54208 0.30728,-1.00047 0.73421,-1.35001 l 1.96581,-1.58686 c 0.29588,-0.24223 0.45829,-0.55909 0.49737,-0.94737 0.0391,-0.38826 -0.0661,-0.72291 -0.3079,-1.01843 -0.25077,-0.30651 -0.56368,-0.48809 -0.94737,-0.52106 -0.38369,-0.033 -0.72255,0.0657 -1.01843,0.3079 -1.008,0.82524 -2.16394,1.17034 -3.45792,1.04211 -1.29397,-0.12821 -2.35023,-0.67501 -3.17371,-1.68159 -0.82346,-1.00655 -1.17238,-2.16368 -1.04212,-3.45792 0.13029,-1.29421 0.69729,-2.34845 1.70528,-3.17371 l 1.42107,-1.18422 c 0.32046,-0.26233 0.67779,-0.41492 1.06579,-0.45 z m 105.32452,0.0947 c 0.10206,-0.01 0.20156,-0.005 0.30789,0 0.42529,0.0209 0.80453,0.16286 1.13685,0.42632 0.32147,0.2549 0.54587,0.58554 0.66317,0.99475 0.11726,0.40922 0.11166,0.8096 -0.0237,1.2079 l -4.33424,12.19747 c -0.24044,0.71258 -0.73979,1.13376 -1.46844,1.27895 -0.70865,0.14286 -1.31309,-0.0599 -1.84738,-0.59211 l -2.70002,-2.86581 c -0.37711,-0.38885 -0.56729,-0.86962 -0.54474,-1.42106 0.0225,-0.55145 0.226,-0.99623 0.61579,-1.3737 0.4006,-0.36889 0.8945,-0.55641 1.44475,-0.54474 0.55024,0.0117 1.00544,0.21578 1.3737,0.6158 l 0.47368,0.52105 1.30264,-3.64739 -5.99215,3.83687 c -0.46949,0.29607 -0.96036,0.37499 -1.49211,0.26053 -0.53176,-0.11446 -0.95075,-0.39451 -1.25528,-0.85264 -0.29531,-0.46904 -0.3995,-0.98385 -0.28421,-1.5158 0.1153,-0.53195 0.40683,-0.93551 0.87632,-1.23159 l 10.87114,-6.9869 c 0.26785,-0.16685 0.57012,-0.27797 0.87632,-0.3079 z M 163.69457,414.08225 c 0.10748,-0.008 0.22164,-0.005 0.33158,0 0.14659,0.006 0.29838,0.0182 0.45,0.0474 0.60646,0.11688 1.07128,0.41419 1.39738,0.85264 0.32607,0.43844 0.41098,0.90111 0.26053,1.39738 -0.15047,0.49628 -0.49257,0.87863 -1.01843,1.13685 l -3.38687,1.65791 1.27896,1.72896 3.38687,-1.6816 c 0.52586,-0.25821 1.0947,-0.31182 1.70528,-0.18947 0.61053,0.12236 1.07957,0.37797 1.39738,0.80527 0.3262,0.43862 0.41096,0.92479 0.26052,1.42106 -0.15049,0.49627 -0.49257,0.85495 -1.01843,1.11317 l -11.96062,5.87373 c -0.53981,0.26505 -1.09459,0.33569 -1.70527,0.21316 -0.61069,-0.12254 -1.09486,-0.39034 -1.42107,-0.82895 -0.31779,-0.42731 -0.38743,-0.90129 -0.23684,-1.39738 0.15058,-0.49611 0.47861,-0.87179 1.01843,-1.13685 l 4.68951,-2.29739 -1.27896,-1.70528 -4.68951,2.29739 c -0.53981,0.26507 -1.11828,0.33568 -1.72896,0.21316 -0.61069,-0.12254 -1.07128,-0.4142 -1.39738,-0.85264 -0.32608,-0.43845 -0.41521,-0.90678 -0.26053,-1.39738 0.15468,-0.49061 0.5023,-0.87179 1.04212,-1.13685 l 11.96062,-5.87373 c 0.29579,-0.14525 0.60124,-0.23508 0.92369,-0.26053 z m 114.22984,0.23684 c 0.44214,-0.0202 0.86108,0.0666 1.25528,0.26053 0.53954,0.26545 0.89196,0.66408 1.04211,1.16054 0.15016,0.49649 0.0577,0.94663 -0.26053,1.37369 l -2.06054,2.79476 1.44475,0.71053 1.65791,-2.22633 c 0.32668,-0.43838 0.79346,-0.72737 1.39737,-0.85264 0.60394,-0.12525 1.16575,-0.0523 1.70528,0.21316 0.53954,0.26545 0.89204,0.64066 1.04211,1.13685 0.15008,0.49622 0.0662,0.959 -0.26052,1.39738 l -1.65791,2.22634 2.7237,1.35001 2.29739,-3.07897 c 0.31824,-0.42707 0.79344,-0.70369 1.39738,-0.82896 0.60393,-0.12525 1.16574,-0.0523 1.70528,0.21316 0.53953,0.26545 0.89203,0.64066 1.04211,1.13685 0.15006,0.49621 0.0577,0.97031 -0.26053,1.39738 l -3.4816,4.66583 c -0.32668,0.43839 -0.7867,0.70701 -1.39738,0.82895 -0.61068,0.12194 -1.18942,0.0523 -1.72897,-0.21316 l -11.96062,-5.87373 c -0.52558,-0.25857 -0.84466,-0.64064 -0.99474,-1.13685 -0.15006,-0.4962 -0.0662,-0.95897 0.26053,-1.39738 l 3.24476,-4.35793 c 0.31825,-0.42706 0.78657,-0.70682 1.39738,-0.82895 0.1527,-0.0306 0.30262,-0.0643 0.45,-0.071 z m -4.90267,9.09481 c 0.85352,-6.4e-4 1.68324,0.093 2.53423,0.28422 0.60905,0.12993 1.08945,0.41141 1.39738,0.85263 0.30793,0.44128 0.37304,0.90253 0.21316,1.39738 -0.17083,0.5047 -0.52291,0.88681 -1.06579,1.13685 -0.5429,0.25009 -1.13088,0.30498 -1.72897,0.1658 -0.91937,-0.18995 -1.81896,-0.19566 -2.7237,0 -0.90475,0.19567 -1.69471,0.58774 -2.34476,1.13685 -0.98669,0.83353 -1.45448,1.82778 -1.42106,2.98423 0.0334,1.15647 0.54946,2.12091 1.56317,2.91318 1.02582,0.80174 2.25347,1.18293 3.67108,1.16054 1.41762,-0.0224 2.61333,-0.44544 3.60003,-1.27896 0.65004,-0.54911 1.08584,-1.19988 1.30264,-1.94212 0.21679,-0.74221 0.18554,-1.4728 -0.0947,-2.20265 -0.18344,-0.48944 -0.12081,-0.94672 0.16579,-1.39738 0.2866,-0.45063 0.71165,-0.76573 1.30265,-0.92369 0.60236,-0.14903 1.19802,-0.11444 1.75264,0.11842 0.5546,0.2329 0.90603,0.60005 1.08948,1.08948 0.54775,1.37623 0.63807,2.76805 0.23685,4.16846 -0.40124,1.40042 -1.23017,2.62948 -2.46318,3.67108 -1.84989,1.56269 -4.09848,2.35002 -6.77374,2.39212 -2.67526,0.0421 -4.98088,-0.69036 -6.91584,-2.20265 -1.92285,-1.50281 -2.90838,-3.3447 -2.96055,-5.51846 -0.0521,-2.17374 0.82646,-4.02682 2.67634,-5.58952 1.22208,-1.03233 2.6932,-1.74677 4.40529,-2.13159 0.85605,-0.1924 1.72809,-0.28357 2.5816,-0.28422 z m -99.8771,1.39738 c 0.22987,-0.017 0.47251,0.006 0.71053,0.0474 0.47604,0.0827 0.85716,0.2536 1.18422,0.54474 0.31641,0.28167 0.51047,0.62571 0.56843,1.01843 0.058,0.39272 -0.0113,0.76813 -0.23684,1.11317 l -7.10532,10.51587 c -0.40078,0.61757 -1.02256,0.94658 -1.87107,0.97106 -0.82551,0.0253 -1.50708,-0.26123 -2.01317,-0.82895 l -2.51055,-3.03161 c -0.3548,-0.41282 -0.48093,-0.87139 -0.35527,-1.37369 0.12566,-0.5023 0.439,-0.89623 0.94738,-1.18422 0.51903,-0.27853 1.08656,-0.37697 1.70528,-0.28421 0.6187,0.0928 1.10195,0.35984 1.44474,0.78158 l 0.45001,0.54474 2.13159,-3.15002 -7.46058,2.62897 c -0.58353,0.20147 -1.1498,0.20793 -1.72896,0.0236 -0.57917,-0.18425 -0.99495,-0.52922 -1.25528,-0.99474 -0.24797,-0.47414 -0.2741,-0.92679 -0.0474,-1.39738 0.22676,-0.4706 0.64806,-0.81695 1.23158,-1.01843 l 13.52379,-4.78425 c 0.22169,-0.0753 0.45699,-0.12508 0.68685,-0.14211 z m 8.26586,6.93953 c 1.89226,1.2e-4 3.65061,0.45891 5.3053,1.3737 1.45748,0.80578 2.56177,1.86681 3.31582,3.17371 0.75401,1.3069 1.05442,2.66997 0.87632,4.0974 -0.0555,0.50965 -0.32158,0.93459 -0.80527,1.25527 -0.48374,0.32067 -1.05439,0.44771 -1.68159,0.40263 -0.641,-0.0522 -1.14506,-0.27023 -1.53949,-0.66316 -0.39448,-0.39293 -0.56592,-0.84758 -0.49737,-1.35001 0.0763,-0.76831 -0.0846,-1.48705 -0.47369,-2.17896 -0.38914,-0.69192 -0.95372,-1.25298 -1.72896,-1.6816 -1.17678,-0.65057 -2.46307,-0.86019 -3.86056,-0.63948 -1.3975,0.22074 -2.5009,0.78408 -3.29213,1.72897 -0.80067,0.95617 -1.0702,2.01822 -0.80527,3.15002 0.26492,1.1318 0.97851,2.02575 2.15528,2.67634 0.77526,0.4286 1.64471,0.66134 2.5816,0.71053 0.93687,0.0492 1.81415,-0.10308 2.65266,-0.45 0.56305,-0.22904 1.13411,-0.27242 1.72896,-0.11843 0.5948,0.15399 1.05924,0.4531 1.35001,0.90001 0.28184,0.45752 0.30792,0.93774 0.11842,1.42106 -0.18954,0.48332 -0.55012,0.83677 -1.11317,1.0658 -1.57787,0.66958 -3.25471,0.96285 -5.02109,0.87632 -1.76639,-0.0865 -3.38477,-0.53701 -4.8553,-1.35001 -2.20624,-1.21972 -3.55026,-2.90887 -4.05003,-5.04477 -0.49978,-2.1359 0.005,-4.09382 1.5158,-5.89742 1.50083,-1.79231 3.55301,-2.88575 6.18163,-3.29213 0.65714,-0.10159 1.31136,-0.16583 1.94212,-0.16579 z m 74.27427,1.84738 c 0.11629,-0.01 0.23371,-0.005 0.35526,0 0.48621,0.0194 0.92173,0.16448 1.30264,0.40264 l 11.58167,7.4369 c 0.68211,0.42456 0.96517,0.97411 0.85264,1.65791 -0.10765,0.66552 -0.55268,1.15818 -1.32633,1.46843 l -4.0974,1.5158 c -0.56033,0.21502 -1.14058,0.23224 -1.72896,0.0474 -0.58838,-0.18485 -1.01474,-0.51555 -1.27895,-0.97106 -0.25094,-0.46244 -0.26366,-0.9173 -0.0474,-1.39738 0.21624,-0.48005 0.61507,-0.83822 1.18422,-1.04211 l 0.73421,-0.26053 -3.4816,-2.25002 1.94212,6.41847 c 0.14665,0.5012 0.0602,0.98802 -0.26053,1.42107 -0.32064,0.43305 -0.78894,0.69844 -1.39738,0.82895 -0.61683,0.11916 -1.19599,0.0474 -1.72896,-0.21316 -0.53296,-0.26052 -0.87179,-0.63564 -1.01843,-1.13685 l -3.52898,-11.65272 c -0.10858,-0.38043 -0.0854,-0.74567 0.0947,-1.11317 0.18007,-0.36747 0.46826,-0.66313 0.87632,-0.87632 0.29609,-0.15468 0.62219,-0.25535 0.97107,-0.28422 z m -61.22417,3.76582 c 0.29085,-0.005 0.58228,0.0258 0.87632,0.11842 0.57289,0.18047 0.97747,0.50353 1.23159,0.97107 0.2541,0.46755 0.26943,0.93189 0.0474,1.39737 l -1.11317,2.36844 4.38162,-2.43949 c 0.51887,-0.28771 1.09143,-0.40253 1.70527,-0.3079 0.61383,0.0947 1.09086,0.36004 1.44475,0.78159 0.35385,0.42155 0.47181,0.87475 0.35527,1.37369 -0.11659,0.49897 -0.42867,0.89689 -0.94738,1.18422 l -4.95004,2.77108 1.27896,6.11057 c 0.10856,0.49913 -0.0139,0.97676 -0.37895,1.39738 -0.36529,0.42061 -0.8596,0.65847 -1.46843,0.73422 -0.62965,0.0838 -1.19555,-0.0133 -1.70528,-0.3079 -0.50976,-0.29453 -0.81467,-0.70864 -0.92369,-1.2079 l -1.11317,-5.25794 -1.61054,3.38687 c -0.22797,0.47785 -0.63236,0.83589 -1.2079,1.04211 -0.57557,0.20621 -1.15607,0.20414 -1.72896,0.0236 -0.5881,-0.18523 -1.00139,-0.50359 -1.25528,-0.97106 -0.25388,-0.46747 -0.27533,-0.94322 -0.0474,-1.42106 l 5.06846,-10.58689 c 0.22208,-0.46549 0.60889,-0.78845 1.18422,-0.99475 0.28766,-0.10313 0.58547,-0.16052 0.87632,-0.16579 z m 51.77409,0.68685 c 0.7938,0.0114 1.57851,0.14904 2.36844,0.42632 1.57985,0.55459 2.68912,1.47461 3.31582,2.77107 0.62668,1.29651 0.59875,2.60431 -0.0947,3.88425 -0.69308,1.27996 -1.83887,2.1672 -3.43424,2.67633 l -1.16053,0.35527 1.39737,2.88949 c 0.23058,0.47702 0.22763,0.9526 -0.0236,1.42107 -0.25156,0.46846 -0.65969,0.78855 -1.23159,0.97106 -0.58706,0.18735 -1.17621,0.18063 -1.75265,-0.0236 -0.57645,-0.20421 -0.97732,-0.5414 -1.2079,-1.01843 l -5.09215,-10.56324 c -0.23056,-0.477 -0.22774,-0.92897 0.0237,-1.39738 0.25133,-0.46837 0.6682,-0.80737 1.25527,-0.99474 l 3.24477,-1.04212 c 0.79768,-0.25456 1.59832,-0.36662 2.39212,-0.35526 z m -40.16874,2.48686 c 0.14868,-4.2e-4 0.31869,0.0239 0.47369,0.0474 l 6.15795,0.92369 c 0.60398,0.0916 1.08897,0.36008 1.44474,0.78159 0.35573,0.42153 0.4917,0.88293 0.37895,1.37369 -0.11576,0.5038 -0.45207,0.8952 -0.97106,1.18422 -0.51901,0.28904 -1.0776,0.37585 -1.68159,0.28422 l -3.93161,-0.59211 -0.3079,1.35001 3.15003,0.49737 c 0.62,0.0941 1.11146,0.34274 1.46843,0.7579 0.35695,0.41518 0.47101,0.86992 0.35527,1.37369 -0.11576,0.5038 -0.42867,0.89536 -0.94738,1.18422 -0.51872,0.28888 -1.08527,0.40196 -1.70528,0.3079 l -3.15002,-0.49737 -0.59211,2.55791 4.35793,0.66317 c 0.604,0.0916 1.08777,0.34272 1.44475,0.7579 0.35694,0.41516 0.471,0.89359 0.35526,1.39738 -0.11575,0.50378 -0.42866,0.89535 -0.94737,1.18422 -0.51872,0.28886 -1.0776,0.37583 -1.68159,0.28421 l -6.60795,-0.99475 c -0.62002,-0.094 -1.11293,-0.3601 -1.46843,-0.78158 -0.35552,-0.42148 -0.47102,-0.86991 -0.35527,-1.3737 l 2.55792,-11.15535 c 0.11274,-0.49076 0.42866,-0.89533 0.94737,-1.18422 0.38903,-0.21664 0.80926,-0.33031 1.25527,-0.33158 z m 28.75286,0.16579 c 0.44602,6.1e-4 0.86579,0.11529 1.25527,0.33158 0.5193,0.28819 0.83352,0.66954 0.94738,1.16054 0.11677,0.50364 -7.4e-4,0.97543 -0.35527,1.39738 -0.35466,0.42197 -0.82492,0.6867 -1.44474,0.78158 l -2.08423,0.3079 c -0.22263,0.0341 -0.40784,0.12963 -0.54474,0.28421 -0.13692,0.15462 -0.18707,0.32719 -0.14211,0.52106 0.0419,0.1805 0.18063,0.3398 0.37895,0.45 0.19831,0.11024 0.39319,0.12883 0.6158,0.0947 1.65285,-0.25302 3.18936,0.0311 4.59477,0.80527 1.4054,0.7742 2.26716,1.81771 2.5816,3.17371 0.3114,1.34302 -0.0103,2.59896 -0.97106,3.74214 -0.96083,1.14318 -2.27877,1.83119 -3.93161,2.08422 l -2.84213,0.45001 c -0.61933,0.0948 -1.18572,-0.0194 -1.70528,-0.3079 -0.51954,-0.28812 -0.83059,-0.6806 -0.94737,-1.18422 -0.11678,-0.50363 -7.6e-4,-0.95821 0.35526,-1.3737 0.35641,-0.41549 0.8491,-0.66308 1.46844,-0.7579 l 2.84212,-0.45 c 0.42922,-0.0657 0.76692,-0.24548 1.01843,-0.54474 0.25152,-0.29926 0.3414,-0.62229 0.26053,-0.97106 -0.0839,-0.36176 -0.32006,-0.63108 -0.68685,-0.82896 -0.36679,-0.19786 -0.755,-0.27886 -1.18422,-0.21316 -1.46224,0.22387 -2.82236,-0.005 -4.05003,-0.68684 -1.22766,-0.68123 -1.97456,-1.60681 -2.25001,-2.79476 -0.27546,-1.18793 0.0142,-2.27091 0.85263,-3.26845 0.8384,-0.99751 1.97199,-1.62351 3.43424,-1.84738 l 2.08423,-0.3079 c 0.15495,-0.0237 0.30133,-0.0476 0.45,-0.0474 z m 11.34483,1.04212 c -0.21656,-0.003 -0.44497,0.025 -0.66317,0.0947 l -1.13685,0.37895 1.20791,2.53423 1.16053,-0.37895 c 0.43639,-0.13925 0.75993,-0.38486 0.94738,-0.73421 0.18745,-0.34933 0.18957,-0.69964 0.0237,-1.04212 -0.16555,-0.34245 -0.47016,-0.58208 -0.90001,-0.73421 -0.21489,-0.0761 -0.42288,-0.11524 -0.63944,-0.11842 z m -28.68181,0.16579 1.77633,0 c 1.66563,7.5e-4 3.08352,0.50193 4.26319,1.46843 1.17966,0.96652 1.77751,2.12822 1.77633,3.48161 -3.2e-4,0.38096 -0.0599,0.78494 -0.18947,1.23158 1.42196,0.98651 2.13295,2.27335 2.13159,3.83688 l -0.0236,3.17371 c -4.9e-4,0.51248 -0.21819,0.96527 -0.66317,1.32632 -0.44499,0.36106 -0.97243,0.5451 -1.58685,0.54474 -0.63073,-3.2e-4 -1.16619,-0.18317 -1.61054,-0.54474 -0.44435,-0.36156 -0.66362,-0.81383 -0.66316,-1.32632 l 0,-3.1974 c 5e-4,-0.31519 -0.11341,-0.59222 -0.33158,-0.82895 -0.21819,-0.23672 -0.49691,-0.38164 -0.85264,-0.47369 -0.79245,-0.18451 -1.32142,-0.61111 -1.56317,-1.25527 -0.22596,-0.65698 -0.0602,-1.23001 0.47369,-1.72896 0.22669,-0.19716 0.3313,-0.46639 0.33158,-0.78159 -1e-5,-0.26305 -0.0747,-0.4766 -0.26053,-0.68685 -0.18588,-0.21022 -0.44362,-0.38127 -0.73422,-0.47368 l 0,9.42639 c -4.1e-4,0.51249 -0.21793,0.94158 -0.66316,1.30264 -0.44523,0.36105 -0.98006,0.5451 -1.61054,0.54474 -0.63048,-4e-4 -1.17409,-0.18319 -1.61054,-0.54474 -0.43646,-0.36157 -0.66361,-0.79015 -0.66316,-1.30264 l 0.0237,-11.34483 c 4e-4,-0.51247 0.22607,-0.94838 0.66316,-1.30264 0.46915,-0.3546 0.9887,-0.54508 1.58685,-0.54474 z"
         style="fill:#ffffff;fill-opacity:1;stroke:none" />
      <path
         sodipodi:nodetypes="ccccccccccccccccccccccccccccccccc"
         inkscape:connector-curvature="0"
         id="path3041-0-7-1-8-1-2"
         d="m 183.93935,333.19872 c -0.0193,-0.002 -0.0199,0.0111 -0.0237,0.0237 -0.0595,0.20069 1.86259,2.35082 5.42373,6.46584 l 2.08422,2.20265 -1.08948,1.65791 c 1.37826,1.62899 2.61024,3.18847 4.87899,5.04477 l 1.2079,-0.59211 10.65798,10.84746 0.81542,0.98459 c -0.24996,-1.34361 -0.11089,-2.72077 0.65639,-4.08387 l -0.5718,-0.59549 -9.35534,-9.59218 0.45,-1.11317 c -2.1551,-2.9615 -3.5421,-3.97234 -4.90267,-4.97372 l -1.44475,1.01843 -2.2737,-1.98949 c -4.15351,-3.51708 -6.22294,-5.26601 -6.51321,-5.30531 z m 53.18397,47.09228 c -0.14502,0.83146 -0.32118,1.64215 -0.59211,2.36843 -1.01599,3.32452 -1.53534,5.85999 -2.01317,8.00533 0.26834,0.29933 0.53569,0.60053 0.80527,0.90001 2.05373,2.27656 3.6242,4.13974 6.05744,5.94189 1.76931,0.56089 3.60117,0.73561 5.023,0.23686 l 5.11968,4.95292 c 2.42346,2.15004 4.81001,2.56483 7.50218,2.2689 0.14239,-0.49288 0.20195,-0.79967 0.37799,-1.27703 -2.60335,-0.36767 -5.10843,-1.56068 -6.50647,-2.98136 l -5.09791,-4.80985 c 0.19116,-1.50859 0.80674,-2.33404 0.1213,-4.40241 -2.53658,-4.69747 -6.06911,-7.02363 -9.96824,-10.46947 -0.003,0.0151 0.003,0.0323 0,0.0474 -0.27948,-0.24679 -0.55235,-0.51989 -0.82896,-0.78159 z"
         style="fill:#ffffff;fill-opacity:1;stroke:none;display:inline" />
      <path
         sodipodi:nodetypes="ccccccscccccccccccccccccccccc"
         inkscape:connector-curvature="0"
         id="path3043-5-0-4-2-3-3"
         d="m 252.05616,331.2726 c -6.10259,-0.13417 -14.43383,3.58783 -14.33675,12.0384 0.11578,0.85955 0.26635,1.69678 0.7579,2.36844 l -6.56058,6.5369 c -0.005,0.14861 -0.15362,0.11142 -0.16719,0.2586 1.20296,2.46325 1.00938,2.94538 0.99038,4.84881 0.28908,0.84459 0.73486,2.72889 0.46549,4.04027 -0.15137,0.73692 0.3988,1.10116 0.41488,1.46506 l 11.03861,-11.18121 c 0.80967,0.51585 1.5595,0.83781 2.2737,0.87633 8.6898,-1.08373 11.95602,-9.19055 11.92095,-15.25949 l -6.79839,6.5833 -6.1797,-6.1797 6.37207,-6.39575 z m -48.37123,49.03343 -6.41078,6.45911 c -1.05825,-0.69876 -2.13687,-0.50796 -2.84789,-0.68588 -8.6898,1.08373 -11.38182,9.09484 -11.34675,15.16378 l 6.679,-6.679 6.39478,6.3711 -6.30005,6.30005 c 6.10261,0.13416 14.17044,-3.01362 14.07335,-11.46421 -0.11202,-0.63007 0.12592,-1.62802 -0.25765,-2.3486 l 3.00023,-3.33469 c -0.67885,-2.48641 -1.36985,-5.05578 -2.32107,-7.48427 -10e-5,-0.008 -10e-5,-0.0158 0,-0.0237 -0.17895,-0.53004 -0.40543,-1.36774 -0.66317,-2.2737 z"
         style="fill:#ffffff;fill-opacity:0.99607843;stroke:none" />
      <path
         inkscape:export-ydpi="92.870003"
         inkscape:export-xdpi="92.870003"
         inkscape:export-filename="c:\Users\aporto\Desktop\carimbo.png"
         sodipodi:nodetypes="ccccccccccccccccccccccccccccccccccccccccccccccccccccccccc"
         inkscape:connector-curvature="0"
         id="rect3960-0-4-3"
         d="m 222.02054,331.51092 c -0.3332,0.0506 -0.84701,0.30643 -1.47593,0.30948 -0.3476,-0.0405 -0.64476,0.0118 -0.9046,0.14283 -0.64873,-0.004 -1.0712,0.22546 -1.35694,0.57132 l 0,-0.21424 c -0.25184,-0.1389 -0.35918,0.2811 -0.4285,0.85699 -0.22419,0.16853 -0.39208,0.4581 -0.49988,0.80937 -0.86803,0.58161 -1.68601,1.3928 -2.26153,3.54699 -1.04005,0.38253 -1.69395,1.71243 -1.7616,4.54682 -1.4431,1.71465 -0.96798,2.62837 -0.97598,3.73743 -1.43304,1.25444 -1.8607,2.80453 -1.42832,4.64204 -1.07927,0.85364 -1.4712,2.52858 -1.28548,4.9039 -1.43464,1.80438 -1.35215,3.58627 -0.95222,5.35619 -1.71535,2.46533 -0.91763,3.7861 -0.59517,5.33239 -1.27223,1.20774 -0.79277,3.12745 0.0952,5.21335 -0.38614,0.37824 -0.61817,0.86498 -0.71415,1.47594 -5.19604,-6.59393 -7.9771,-4.79417 -9.66496,-0.90461 4.3913,-2.56563 6.23722,7.12346 6.99876,9.3793 3.12501,7.9782 3.58954,17.2451 8.59376,19.3061 0.96577,0.36801 1.55127,1.54109 4.523,1.88062 0.11328,0.0459 0.24575,0.0544 0.38089,0.0238 0.33083,0.0286 0.65863,0.0644 1.04743,0.0714 l -0.0472,3.5946 2.54713,0.0714 -0.0716,-3.95168 c 2.45892,-0.21578 5.60243,-0.19307 6.80831,-2.2139 5.5073,-5.12573 4.33067,-8.40508 7.18921,-17.75876 1.68138,-4.50739 -0.27759,-11.44299 9.21269,-15.80672 -4.27916,0.88477 -7.89498,1.25232 -11.37893,4.16592 0.0731,-0.48605 0.0677,-1.09487 -0.0952,-1.97583 -0.0343,-0.45262 -0.13248,-1.02273 -0.30952,-1.71399 0.23311,-0.97065 0.18611,-1.79605 0,-2.54716 -0.0834,-0.95391 -0.44159,-1.77733 -0.78553,-2.59478 0.2139,-1.13537 0.15754,-1.87942 0,-2.49956 -0.0556,-0.77672 -0.27302,-1.32271 -0.45234,-1.92823 0.1944,-0.60072 0.18801,-1.22705 0.0236,-1.88062 -0.0365,-1.11099 -0.63402,-2.29696 -1.45209,-3.52319 0.10619,-0.6327 0.10558,-1.25323 -0.0716,-1.88061 -0.0411,-0.83247 -0.34165,-1.65579 -1.04743,-2.47575 0.1803,-0.49451 0.16561,-0.98794 0,-1.47593 0.038,-0.92608 -0.5548,-1.85204 -1.40456,-2.76142 0.016,-0.54754 -0.0632,-0.96921 -0.16659,-1.30929 -0.0731,-1.31189 -0.60325,-1.77883 -1.07128,-2.40434 -0.0205,-0.14472 -0.0412,-0.28601 -0.0716,-0.4285 -0.10132,-1.23907 -0.50506,-2.41646 -1.64253,-3.42796 -0.0518,-0.58875 -0.17818,-1.16361 -0.57133,-1.66637 -0.11876,-0.33165 -0.33381,-0.65525 -0.66655,-0.95221 0.01,-0.44517 -0.0811,-0.36812 -0.26189,-0.19045 -0.29923,-0.21548 -0.65185,-0.4107 -1.14266,-0.59513 0.0967,-0.75016 -0.0716,-0.90763 -0.40465,-0.85699 z m -0.66655,0.23806 c 0.12081,0.0148 0.23128,0.11097 0.30943,0.26185 -0.14824,-0.0244 -0.30875,-0.043 -0.47611,-0.0476 l 0,-0.19045 c 0.0647,-0.0279 0.11244,-0.0305 0.16668,-0.0238 z"
         style="fill:#ffffff;fill-opacity:0.99607843;fill-rule:nonzero;stroke:none;display:inline" />
      <path
         inkscape:connector-curvature="0"
         style="fill:none;stroke:#ffffff;stroke-width:0.96377951;stroke-miterlimit:4;stroke-opacity:0.99578091;stroke-dasharray:none"
         d="m 275.81591,364.45241 5.12794,-0.41279 0.92714,0.0347 6.18631,1.79344 0,5.9309 -6.18631,1.79344 -0.92714,0.0347 -5.12794,-0.41279 -1.30927,8.26786 5.00426,1.19211 0.87083,0.31927 5.32956,3.61756 -1.83266,5.64029 -6.43821,-0.20564 -0.89245,-0.25391 -4.74884,-1.97697 -3.80058,7.45837 4.39135,2.67986 0.72955,0.57318 3.95091,5.08772 -3.48583,4.79761 -6.05961,-2.18512 -0.77027,-0.51687 -3.90566,-3.34807 -5.91934,5.91934 3.34807,3.90566 0.51687,0.77027 2.18512,6.05961 -4.79761,3.48583 -5.08772,-3.95091 -0.57318,-0.72955 -2.67986,-4.39135 -7.45837,3.80058 1.97697,4.74884 0.25391,0.89245 0.20564,6.43821 -5.64029,1.83266 -3.61756,-5.32956 -0.31927,-0.87083 -1.19211,-5.00426 -8.26786,1.30927 0.41279,5.12794 -0.0347,0.92714 -1.79344,6.18631 -5.9309,0 -1.79344,-6.18631 -0.0347,-0.92714 0.41279,-5.12794 -8.26786,-1.30927 -1.19211,5.00426 -0.31927,0.87083 -3.61756,5.32956 -5.64029,-1.83266 0.20564,-6.43821 0.25391,-0.89245 1.97697,-4.74884 -7.45837,-3.80058 -2.67986,4.39135 -0.57318,0.72955 -5.08772,3.95091 -4.79761,-3.48583 2.18512,-6.05961 0.51687,-0.77027 3.34807,-3.90566 -5.91934,-5.91934 -3.90566,3.34807 -0.77027,0.51687 -6.05961,2.18512 -3.48583,-4.79761 3.95091,-5.08772 0.72955,-0.57318 4.39135,-2.67986 -3.80058,-7.45837 -4.74884,1.97697 -0.89245,0.25391 -6.43821,0.20564 -1.83266,-5.64029 5.32956,-3.61756 0.87083,-0.31927 5.00426,-1.19211 -1.30927,-8.26786 -5.12794,0.41279 -0.92714,-0.0347 -6.18631,-1.79344 0,-5.9309 6.18631,-1.79344 0.92714,-0.0347 5.12794,0.41279 1.30927,-8.26786 -5.00426,-1.19211 -0.87083,-0.31927 -5.32956,-3.61756 1.83266,-5.64029 6.43821,0.20564 0.89245,0.25391 4.74884,1.97697 3.80058,-7.45837 -4.39135,-2.67986 -0.72955,-0.57318 -3.95091,-5.08772 3.48583,-4.79761 6.05961,2.18512 0.77027,0.51687 3.90566,3.34807 5.91934,-5.91934 -3.34807,-3.90566 -0.51687,-0.77027 -2.18512,-6.05961 4.79761,-3.48583 5.08772,3.95091 0.57318,0.72955 2.67986,4.39135 7.45837,-3.80058 -1.97697,-4.74884 -0.25391,-0.89245 -0.20564,-6.43821 5.64029,-1.83266 3.61756,5.32956 0.31927,0.87083 1.19211,5.00426 8.26786,-1.30927 -0.41279,-5.12794 0.0347,-0.92714 1.79344,-6.18631 5.9309,0 1.79344,6.18631 0.0347,0.92714 -0.41279,5.12794 8.26786,1.30927 1.19211,-5.00426 0.31927,-0.87083 3.61756,-5.32956 5.64029,1.83266 -0.20564,6.43821 -0.25391,0.89245 -1.97697,4.74884 7.45837,3.80058 2.67986,-4.39135 0.57318,-0.72955 5.08772,-3.95091 4.79761,3.48583 -2.18512,6.05961 -0.51687,0.77027 -3.34807,3.90566 5.91934,5.91934 3.90566,-3.34807 0.77027,-0.51687 6.05961,-2.18512 3.48583,4.79761 -3.95091,5.08772 -0.72955,0.57318 -4.39135,2.67986 3.80058,7.45837 4.74884,-1.97697 0.89245,-0.25391 6.43821,-0.20564 1.83266,5.64029 -5.32956,3.61756 -0.87083,0.31927 -5.00426,1.19211 z"
         id="path16829-4-5-1" />
    </g>
    <g
       id="g4700"
       transform="matrix(1.5146967,0,0,1.5146967,-836.63583,-359.2974)">
      <path
         sodipodi:nodetypes="ccccccccccccccccccccccccccccccccc"
         inkscape:connector-curvature="0"
         id="path3041-0-7-1-8-1-3"
         d="m 662.5131,331.7277 c -0.0193,-0.002 -0.0199,0.0111 -0.0237,0.0236 -0.0595,0.20069 1.8626,2.35083 5.42373,6.46584 l 2.08423,2.20265 -1.08949,1.65791 c 1.37826,1.62899 2.61024,3.18847 4.87899,5.04477 l 1.2079,-0.59211 10.65798,10.84746 0.81542,0.98459 c -0.24996,-1.34361 -0.11089,-2.72077 0.65639,-4.08387 l -0.5718,-0.59549 -9.35534,-9.59218 0.45001,-1.11317 c -2.15511,-2.9615 -3.54211,-3.97234 -4.90267,-4.97372 l -1.44475,1.01843 -2.2737,-1.98949 c -4.15351,-3.51708 -6.22295,-5.26601 -6.51321,-5.30531 z m 53.18397,47.09228 c -0.14501,0.83146 -0.32118,1.64215 -0.59211,2.36844 -1.01598,3.32451 -1.53534,5.85998 -2.01317,8.00532 0.26834,0.29933 0.53569,0.60053 0.80527,0.90001 2.05373,2.27656 3.6242,4.13974 6.05744,5.9419 1.76932,0.56088 3.60117,0.7356 5.02301,0.23685 l 5.11968,4.95292 c 2.42345,2.15004 4.81,2.56483 7.50218,2.2689 0.14238,-0.49288 0.20195,-0.79967 0.37798,-1.27703 -2.60335,-0.36767 -5.10843,-1.56068 -6.50647,-2.98136 l -5.09791,-4.80985 c 0.19117,-1.50859 0.80674,-2.33403 0.1213,-4.40241 -2.53658,-4.69747 -6.06911,-7.02363 -9.96824,-10.46947 -0.003,0.0151 0.003,0.0323 0,0.0474 -0.27948,-0.24679 -0.55234,-0.51989 -0.82896,-0.78159 z"
         style="fill:#ffffff;fill-opacity:1;stroke:none;display:inline" />
      <path
         sodipodi:nodetypes="ccccccscccccccccccccccccccccc"
         inkscape:connector-curvature="0"
         id="path3043-5-0-4-2-3-1"
         d="m 730.62992,329.80158 c -6.1026,-0.13417 -14.43384,3.58783 -14.33676,12.03841 0.11579,0.85954 0.26635,1.69677 0.7579,2.36843 l -6.56057,6.5369 c -0.005,0.14861 -0.15363,0.11142 -0.1672,0.2586 1.20296,2.46325 1.00938,2.94539 0.99038,4.84882 0.28908,0.84458 0.73486,2.72888 0.46549,4.04026 -0.15137,0.73692 0.3988,1.10116 0.41488,1.46506 l 11.03861,-11.18121 c 0.80968,0.51585 1.55951,0.83781 2.27371,0.87633 8.68979,-1.08373 11.95601,-9.19055 11.92094,-15.25948 l -6.79838,6.5833 -6.17971,-6.17971 6.37207,-6.39575 z m -48.37123,49.03343 -6.41078,6.45911 c -1.05825,-0.69876 -2.13687,-0.50796 -2.8479,-0.68588 -8.68979,1.08373 -11.38182,9.09484 -11.34675,15.16378 l 6.679,-6.679 6.39479,6.3711 -6.30005,6.30005 c 6.1026,0.13417 14.17043,-3.01362 14.07334,-11.46421 -0.11202,-0.63006 0.12592,-1.62802 -0.25765,-2.3486 l 3.00023,-3.33469 c -0.67885,-2.48641 -1.36985,-5.05577 -2.32107,-7.48427 -10e-5,-0.008 -10e-5,-0.0158 0,-0.0237 -0.17894,-0.53004 -0.40543,-1.36774 -0.66316,-2.2737 z"
         style="fill:#ffffff;fill-opacity:0.99607843;stroke:none" />
      <path
         inkscape:export-ydpi="92.870003"
         inkscape:export-xdpi="92.870003"
         inkscape:export-filename="c:\Users\aporto\Desktop\carimbo.png"
         sodipodi:nodetypes="ccccccccccccccccccccccccccccccccccccccccccccccccccccccccc"
         inkscape:connector-curvature="0"
         id="rect3960-0-4-9"
         d="m 700.59429,330.0399 c -0.3332,0.0506 -0.84701,0.30643 -1.47593,0.30948 -0.3476,-0.0405 -0.64476,0.0118 -0.9046,0.14283 -0.64872,-0.004 -1.0712,0.22546 -1.35694,0.57132 l 0,-0.21424 c -0.25184,-0.1389 -0.35917,0.2811 -0.4285,0.85699 -0.22419,0.16853 -0.39208,0.4581 -0.49987,0.80937 -0.86803,0.58161 -1.68602,1.3928 -2.26154,3.54699 -1.04004,0.38253 -1.69395,1.71243 -1.7616,4.54683 -1.44309,1.71464 -0.96797,2.62836 -0.97598,3.73742 -1.43303,1.25444 -1.86069,2.80453 -1.42831,4.64204 -1.07928,0.85365 -1.47121,2.52858 -1.28549,4.9039 -1.43464,1.80438 -1.35214,3.58627 -0.95221,5.35619 -1.71535,2.46533 -0.91763,3.78611 -0.59518,5.33239 -1.27222,1.20774 -0.79277,3.12745 0.0952,5.21336 -0.38615,0.37823 -0.61818,0.86497 -0.71416,1.47593 -5.19604,-6.59393 -7.9771,-4.79417 -9.66495,-0.90461 4.39129,-2.56563 6.23722,7.12346 6.99876,9.3793 3.125,7.9782 3.58953,17.2451 8.59375,19.3061 0.96577,0.36802 1.55127,1.54109 4.52301,1.88062 0.11327,0.0459 0.24574,0.0544 0.38089,0.0238 0.33083,0.0286 0.65862,0.0644 1.04742,0.0714 l -0.0472,3.5946 2.54713,0.0714 -0.0716,-3.95168 c 2.45892,-0.21578 5.60244,-0.19307 6.80832,-2.2139 5.50729,-5.12573 4.33066,-8.40508 7.1892,-17.75876 1.68138,-4.50739 -0.27759,-11.44299 9.21269,-15.80672 -4.27916,0.88477 -7.89498,1.25232 -11.37893,4.16592 0.0731,-0.48605 0.0678,-1.09487 -0.0952,-1.97583 -0.0343,-0.45262 -0.13248,-1.02273 -0.30951,-1.71398 0.2331,-0.97066 0.1861,-1.79606 0,-2.54717 -0.0834,-0.9539 -0.44159,-1.77733 -0.78554,-2.59478 0.21391,-1.13537 0.15754,-1.87942 0,-2.49956 -0.0556,-0.77672 -0.27302,-1.32271 -0.45234,-1.92823 0.19441,-0.60072 0.18801,-1.22705 0.0236,-1.88062 -0.0365,-1.11099 -0.63402,-2.29696 -1.45208,-3.52319 0.10619,-0.6327 0.10557,-1.25323 -0.0716,-1.88061 -0.0412,-0.83247 -0.34166,-1.65579 -1.04744,-2.47575 0.18031,-0.49451 0.16561,-0.98793 0,-1.47593 0.038,-0.92608 -0.5548,-1.85204 -1.40456,-2.76142 0.016,-0.54754 -0.0632,-0.96921 -0.16659,-1.30929 -0.0731,-1.31189 -0.60325,-1.77883 -1.07128,-2.40434 -0.0205,-0.14471 -0.0412,-0.28601 -0.0716,-0.4285 -0.10131,-1.23906 -0.50506,-2.41646 -1.64253,-3.42796 -0.0518,-0.58875 -0.17817,-1.16361 -0.57133,-1.66637 -0.11876,-0.33165 -0.33381,-0.65525 -0.66655,-0.95221 0.01,-0.44517 -0.0811,-0.36812 -0.26189,-0.19045 -0.29923,-0.21548 -0.65185,-0.4107 -1.14266,-0.59513 0.0967,-0.75016 -0.0716,-0.90763 -0.40465,-0.85699 z m -0.66654,0.23806 c 0.1208,0.0148 0.23127,0.11097 0.30942,0.26185 -0.14823,-0.0244 -0.30874,-0.043 -0.4761,-0.0476 l 0,-0.19045 c 0.0647,-0.0279 0.11243,-0.0305 0.16668,-0.0238 z"
         style="fill:#ffffff;fill-opacity:0.99607843;fill-rule:nonzero;stroke:none;display:inline" />
      <path
         inkscape:connector-curvature="0"
         style="fill:none;stroke:#ffffff;stroke-width:0.96377951;stroke-miterlimit:4;stroke-opacity:0.99578091;stroke-dasharray:none"
         d="m 754.38967,362.98139 5.12794,-0.41279 0.92714,0.0347 6.18631,1.79344 0,5.9309 -6.18631,1.79344 -0.92714,0.0347 -5.12794,-0.41279 -1.30927,8.26786 5.00426,1.19211 0.87083,0.31927 5.32956,3.61756 -1.83266,5.64029 -6.43821,-0.20564 -0.89245,-0.25391 -4.74884,-1.97697 -3.80058,7.45837 4.39135,2.67986 0.72955,0.57318 3.95091,5.08772 -3.48583,4.79761 -6.05961,-2.18512 -0.77027,-0.51687 -3.90566,-3.34807 -5.91934,5.91934 3.34807,3.90566 0.51687,0.77027 2.18512,6.05961 -4.79761,3.48583 -5.08772,-3.95091 -0.57318,-0.72955 -2.67986,-4.39135 -7.45837,3.80058 1.97697,4.74884 0.25391,0.89245 0.20564,6.43821 -5.64029,1.83266 -3.61756,-5.32956 -0.31927,-0.87083 -1.19211,-5.00426 -8.26786,1.30927 0.41279,5.12794 -0.0347,0.92714 -1.79344,6.18631 -5.9309,0 -1.79344,-6.18631 -0.0347,-0.92714 0.41279,-5.12794 -8.26786,-1.30927 -1.19211,5.00426 -0.31927,0.87083 -3.61756,5.32956 -5.64029,-1.83266 0.20564,-6.43821 0.25391,-0.89245 1.97697,-4.74884 -7.45837,-3.80058 -2.67986,4.39135 -0.57318,0.72955 -5.08772,3.95091 -4.79761,-3.48583 2.18512,-6.05961 0.51687,-0.77027 3.34807,-3.90566 -5.91934,-5.91934 -3.90566,3.34807 -0.77027,0.51687 -6.05961,2.18512 -3.48583,-4.79761 3.95091,-5.08772 0.72955,-0.57318 4.39135,-2.67986 -3.80058,-7.45837 -4.74884,1.97697 -0.89245,0.25391 -6.43821,0.20564 -1.83266,-5.64029 5.32956,-3.61756 0.87083,-0.31927 5.00426,-1.19211 -1.30927,-8.26786 -5.12794,0.41279 -0.92714,-0.0347 -6.18631,-1.79344 0,-5.9309 6.18631,-1.79344 0.92714,-0.0347 5.12794,0.41279 1.30927,-8.26786 -5.00426,-1.19211 -0.87083,-0.31927 -5.32956,-3.61756 1.83266,-5.64029 6.43821,0.20564 0.89245,0.25391 4.74884,1.97697 3.80058,-7.45837 -4.39135,-2.67986 -0.72955,-0.57318 -3.95091,-5.08772 3.48583,-4.79761 6.05961,2.18512 0.77027,0.51687 3.90566,3.34807 5.91934,-5.91934 -3.34807,-3.90566 -0.51687,-0.77027 -2.18512,-6.05961 4.79761,-3.48583 5.08772,3.95091 0.57318,0.72955 2.67986,4.39135 7.45837,-3.80058 -1.97697,-4.74884 -0.25391,-0.89245 -0.20564,-6.43821 5.64029,-1.83266 3.61756,5.32956 0.31927,0.87083 1.19211,5.00426 8.26786,-1.30927 -0.41279,-5.12794 0.0347,-0.92714 1.79344,-6.18631 5.9309,0 1.79344,6.18631 0.0347,0.92714 -0.41279,5.12794 8.26786,1.30927 1.19211,-5.00426 0.31927,-0.87083 3.61756,-5.32956 5.64029,1.83266 -0.20564,6.43821 -0.25391,0.89245 -1.97697,4.74884 7.45837,3.80058 2.67986,-4.39135 0.57318,-0.72955 5.08772,-3.95091 4.79761,3.48583 -2.18512,6.05961 -0.51687,0.77027 -3.34807,3.90566 5.91934,5.91934 3.90566,-3.34807 0.77027,-0.51687 6.05961,-2.18512 3.48583,4.79761 -3.95091,5.08772 -0.72955,0.57318 -4.39135,2.67986 3.80058,7.45837 4.74884,-1.97697 0.89245,-0.25391 6.43821,-0.20564 1.83266,5.64029 -5.32956,3.61756 -0.87083,0.31927 -5.00426,1.19211 z"
         id="path16829-4-5-6" />
      <text
         transform="matrix(0.86614953,0.01567577,-0.01852368,0.73298358,519.08729,133.16196)"
         sodipodi:linespacing="127%"
         id="text3941-1-2-8-2"
         style="font-size:40px;font-style:normal;font-weight:normal;line-height:126.99999809%;letter-spacing:0px;word-spacing:0px;fill:#ffffff;fill-opacity:1;stroke:none;font-family:Sans"
         xml:space="preserve"><textPath
           dx="2.6399994 0 0 9.0199957"
           style="font-size:28px;font-style:normal;font-variant:normal;font-weight:bold;font-stretch:normal;line-height:126.99999809%;letter-spacing:2.73682332px;fill:#ffffff;fill-opacity:1;font-family:Garoa Hacker Clube;-inkscape-font-specification:Garoa Hacker Clube Bold"
           id="textPath3966-7-7-7-8"
           xlink:href="#path3915-4-5-5-8-3-7">   HACKERSPACE</textPath></text>
      <text
         transform="matrix(0.75774595,-0.01588104,0.01467833,0.75774689,581.98985,63.547364)"
         sodipodi:linespacing="125%"
         id="text3937-5-5-4-6"
         style="font-size:28px;font-style:normal;font-weight:normal;line-height:125%;letter-spacing:0px;word-spacing:0px;fill:#ffffff;fill-opacity:1;stroke:none;font-family:Sans"
         xml:space="preserve"><textPath
           dx="0.50999999"
           style="font-size:28px;font-style:normal;font-variant:normal;font-weight:bold;font-stretch:normal;letter-spacing:0.18000011px;fill:#ffffff;fill-opacity:1;font-family:Garoa Hacker Clube;-inkscape-font-specification:Garoa Hacker Clube Bold"
           id="textPath3945-2-4-2-0"
           xlink:href="#path3915-4-1-9-1-7">                                           SABUGOSA</textPath></text>
    </g>
    <g
       id="g4692"
       transform="matrix(1.3070842,0,0,1.3070842,-82.323801,-372.768)">
      <path
         inkscape:connector-curvature="0"
         id="path3915-7-1-0"
         d="m 466.17355,344.00958 c -50.33648,0 -91.13756,40.82475 -91.13756,91.16124 0,50.33649 40.80108,91.13756 91.13756,91.13756 50.33649,0 91.16124,-40.80107 91.16124,-91.13756 0,-50.33649 -40.82475,-91.16124 -91.16124,-91.16124 z m 3.38687,2.22633 c 0.28213,-0.0121 0.5612,-0.0143 0.85264,0 1.2858,0.0628 2.50033,0.40401 3.62371,1.01843 1.12335,0.61446 2.0635,1.44451 2.81844,2.48686 0.33177,0.44117 0.44627,0.92755 0.35527,1.46844 -0.091,0.54092 -0.34065,0.98416 -0.78159,1.30264 -0.44097,0.31849 -0.95103,0.43832 -1.49211,0.35526 -0.54112,-0.083 -0.97086,-0.34043 -1.30265,-0.78158 -0.83347,-1.17373 -1.96952,-1.80073 -3.41055,-1.87107 -1.24356,-0.0607 -2.32466,0.32723 -3.24476,1.16054 -0.92012,0.83332 -1.40578,1.85917 -1.46843,3.10265 -0.0627,1.24349 0.3287,2.32596 1.16053,3.24477 0.83182,0.91881 1.85909,1.40774 3.10266,1.46843 0.86194,0.0421 1.67213,-0.14431 2.41581,-0.56843 0.74364,-0.4241 1.30962,-0.99895 1.72896,-1.72896 l -4.00267,-0.18947 c -0.55107,-0.0269 -1.00478,-0.25543 -1.37369,-0.66317 -0.36892,-0.40771 -0.54883,-0.89361 -0.52106,-1.44474 0.0277,-0.55113 0.25543,-0.98753 0.66316,-1.35002 0.40772,-0.36245 0.89368,-0.54794 1.44475,-0.52105 l 6.44216,0.33158 c 0.55105,0.0269 1.00439,0.23909 1.37369,0.63948 0.36927,0.4004 0.54882,0.86994 0.52106,1.42106 -0.1175,2.33172 -1.0585,4.27735 -2.79476,5.85005 -1.7363,1.5727 -3.75544,2.31644 -6.08689,2.20265 -2.33147,-0.11379 -4.30406,-1.03702 -5.87373,-2.77108 -1.56967,-1.73404 -2.29645,-3.77906 -2.17896,-6.11057 0.11747,-2.33149 1.05847,-4.27734 2.79476,-5.85005 1.51924,-1.3761 3.25931,-2.11774 5.23425,-2.20265 z m -13.78432,0.80527 c 0.3887,0.007 0.73428,0.14004 1.0658,0.37895 0.44198,0.31862 0.71257,0.73519 0.80527,1.27896 l 1.42106,8.28954 c 0.28752,1.68713 -0.0586,3.22933 -1.04211,4.61846 -0.98354,1.38913 -2.3292,2.22275 -4.00267,2.51054 -1.67349,0.28782 -3.18378,-0.0607 -4.57109,-1.04211 -1.38731,-0.98139 -2.24669,-2.31554 -2.53423,-4.00266 l -1.39738,-8.28954 c -0.0927,-0.54378 0.0205,-1.0203 0.33159,-1.46843 0.31111,-0.44812 0.73502,-0.7354 1.27895,-0.82896 0.54393,-0.0935 1.04331,0.0377 1.49212,0.35527 0.44881,0.31744 0.71259,0.73518 0.80527,1.27895 l 1.42106,8.28954 c 0.10218,0.59955 0.38547,1.06773 0.87633,1.42107 0.49084,0.35334 1.03454,0.48208 1.63422,0.37895 0.59967,-0.10313 1.07517,-0.40276 1.42106,-0.90001 0.34589,-0.49723 0.48113,-1.05836 0.37895,-1.65791 l -1.42106,-8.26585 c -0.0927,-0.54378 0.0134,-1.04277 0.33158,-1.49212 0.31855,-0.44939 0.75892,-0.73542 1.30264,-0.82895 0.13593,-0.0233 0.27307,-0.0261 0.40264,-0.0237 z m 33.51342,2.55792 c 0.81386,0.007 1.62697,0.14491 2.46318,0.40263 2.22984,0.68729 3.90626,2.05184 4.9974,4.12109 1.09111,2.06926 1.28281,4.23502 0.59211,6.46584 -0.69075,2.23082 -2.074,3.879 -4.14476,4.97372 -2.07079,1.09471 -4.2123,1.30306 -6.44216,0.6158 -2.22987,-0.68729 -3.90629,-2.07552 -4.99741,-4.14477 -1.09112,-2.06925 -1.28284,-4.21132 -0.59211,-6.44216 0.69073,-2.23081 2.07419,-3.90262 4.14477,-4.99741 1.29436,-0.68415 2.62255,-1.00665 3.97898,-0.99474 z m -52.93463,2.34475 c 0.8473,-0.0493 1.70173,0.13292 2.53423,0.52106 1.33201,0.62106 2.22704,1.61512 2.72371,2.98423 0.16393,0.45193 0.28512,0.88328 0.33158,1.30265 1.542,0.59762 2.58594,1.66616 3.15003,3.22107 0.51121,1.40929 0.45302,2.80586 -0.18948,4.16846 -0.64253,1.3626 -1.66934,2.28142 -3.07897,2.79476 l -2.91318,1.06579 c -0.50533,0.18402 -1.01751,0.16128 -1.5158,-0.071 -0.4983,-0.23232 -0.83036,-0.59473 -1.01843,-1.11317 l -4.16846,-11.48693 c -0.17835,-0.49165 -0.14833,-0.99959 0.071,-1.5158 0.25536,-0.49941 0.63153,-0.8344 1.13685,-1.01843 l 1.42106,-0.52106 c 0.5137,-0.18706 1.00743,-0.302 1.51581,-0.33158 z m 52.91095,1.63423 c -0.72179,-0.008 -1.42208,0.15855 -2.10792,0.52105 -1.09735,0.58002 -1.83425,1.46287 -2.20264,2.65266 -0.3684,1.18979 -0.27037,2.33778 0.30789,3.43423 0.57825,1.09647 1.46327,1.83608 2.65265,2.20265 1.18936,0.36659 2.33717,0.2483 3.43424,-0.33158 1.0976,-0.58015 1.83424,-1.46286 2.20265,-2.65265 0.36838,-1.18979 0.27034,-2.33778 -0.3079,-3.43424 -0.57827,-1.09645 -1.46328,-1.81237 -2.65265,-2.17896 -0.44602,-0.13746 -0.89325,-0.20881 -1.32632,-0.21316 z m -52.62673,2.34475 2.79475,7.67375 1.04212,-0.37895 c 0.38559,-0.14042 0.65521,-0.38625 0.82895,-0.7579 0.17373,-0.37166 0.20612,-0.76445 0.071,-1.13686 -0.11568,-0.31884 -0.32589,-0.5602 -0.59211,-0.73421 -0.26624,-0.17401 -0.56028,-0.25539 -0.90001,-0.23685 -0.7194,0.0512 -1.29348,-0.20306 -1.72896,-0.78158 -0.42749,-0.59703 -0.51608,-1.22991 -0.26053,-1.89475 0.1139,-0.26743 0.11529,-0.55745 0,-0.87633 -0.0964,-0.26569 -0.26717,-0.48241 -0.49737,-0.63947 -0.23021,-0.15703 -0.48513,-0.231 -0.7579,-0.23685 z m 68.80317,0.54474 c 0.75517,0.006 1.49065,0.19961 2.20265,0.59211 l 1.61054,0.90001 c 0.48286,0.2662 0.79513,0.65581 0.94737,1.18422 0.15221,0.52842 0.0945,1.02091 -0.16579,1.49212 -0.26697,0.48333 -0.65559,0.818 -1.18422,0.97106 -0.52865,0.15308 -1.03293,0.0767 -1.5158,-0.18948 l -1.63422,-0.87632 c -0.17344,-0.0956 -0.34636,-0.12325 -0.54474,-0.071 -0.1984,0.0522 -0.34724,0.16921 -0.45001,0.35527 -0.0957,0.17322 -0.12909,0.3665 -0.071,0.56843 0.0581,0.20195 0.18182,0.3544 0.35526,0.45 1.28768,0.70987 2.14203,1.77204 2.55792,3.19739 0.41585,1.42537 0.26876,2.79606 -0.45001,4.0974 -0.71189,1.28887 -1.78888,2.14321 -3.22107,2.55792 -1.43222,0.4147 -2.78604,0.25986 -4.07372,-0.45001 l -2.22633,-1.23158 c -0.48251,-0.266 -0.79497,-0.6557 -0.94738,-1.18422 -0.15241,-0.52853 -0.10118,-1.03248 0.16579,-1.51581 0.26696,-0.48332 0.68252,-0.80064 1.20791,-0.94737 0.52538,-0.14673 1.0096,-0.0765 1.49211,0.18947 l 2.22634,1.20791 c 0.33438,0.18435 0.69086,0.22697 1.06579,0.11842 0.37491,-0.10856 0.64408,-0.32846 0.82896,-0.66316 0.19175,-0.34717 0.22982,-0.69728 0.11842,-1.0658 -0.11142,-0.36852 -0.32879,-0.64462 -0.66316,-0.82895 -1.13921,-0.62801 -1.89015,-1.56924 -2.25002,-2.81845 -0.35988,-1.24919 -0.22706,-2.45998 0.40263,-3.60003 0.62969,-1.14003 1.5687,-1.88813 2.81845,-2.25001 0.46864,-0.1357 0.94427,-0.19298 1.39738,-0.18948 z m -81.6638,1.23159 c 0.10172,-0.005 0.20199,-0.0107 0.3079,0 0.42364,0.0427 0.79393,0.20056 1.11316,0.47369 l 9.68692,8.52638 c 0.57175,0.48706 0.80032,1.09349 0.66316,1.8237 -0.13186,0.71079 -0.53811,1.21684 -1.23158,1.5158 l -3.69477,1.44475 c -0.50173,0.2061 -0.98864,0.20142 -1.49212,-0.0237 -0.5035,-0.22512 -0.86087,-0.58785 -1.0658,-1.08948 -0.19293,-0.50848 -0.19248,-1.00928 0.0236,-1.5158 0.21619,-0.5065 0.58069,-0.87205 1.08948,-1.0658 l 0.66317,-0.23684 -2.91318,-2.5816 1.32632,6.9869 c 0.0996,0.54549 -0.003,1.04084 -0.3079,1.49211 -0.30471,0.4513 -0.71633,0.73956 -1.25527,0.85264 -0.54563,0.1005 -1.04133,-0.004 -1.49212,-0.3079 -0.45078,-0.304 -0.72932,-0.70978 -0.82895,-1.25527 l -2.43949,-12.69484 c -0.0732,-0.41392 -0.0124,-0.82081 0.16579,-1.2079 0.17819,-0.38706 0.46036,-0.68905 0.82895,-0.90001 0.26745,-0.15305 0.54748,-0.22255 0.85264,-0.23684 z m 40.76085,6.93953 c 0.60641,-0.0154 1.21358,0 1.82369,0 39.04732,0 70.72161,31.67429 70.72161,70.72161 0,39.04731 -31.67429,70.69792 -70.72161,70.69792 -39.04731,0 -70.69792,-31.65061 -70.69792,-70.69792 0,-38.4372 30.67039,-69.7531 68.87423,-70.72161 z m -51.34778,0.0947 c 0.12934,-0.0117 0.2658,-0.0136 0.40264,0 0.54736,0.0543 0.98596,0.2945 1.32632,0.71053 0.34912,0.42675 0.50511,0.92098 0.45001,1.46843 -0.0551,0.54748 -0.28325,1.00023 -0.71053,1.35001 l -1.44475,1.16054 c -0.15345,0.12564 -0.23498,0.29387 -0.26053,0.49737 -0.0255,0.20352 0.0314,0.38048 0.16579,0.54474 0.12511,0.15295 0.28825,0.23966 0.49737,0.26053 0.20911,0.0208 0.39128,-0.0165 0.54474,-0.14211 1.1394,-0.9328 2.45321,-1.32563 3.93161,-1.18422 1.4784,0.14145 2.68373,0.76948 3.62372,1.91844 0.93096,1.13797 1.30982,2.44842 1.16053,3.93161 -0.1493,1.4832 -0.77904,2.69092 -1.91843,3.62371 l -1.96581,1.61054 c -0.42694,0.34953 -0.92091,0.50411 -1.46843,0.45 -0.54753,-0.0541 -0.97722,-0.30747 -1.32633,-0.73421 -0.34911,-0.42673 -0.50978,-0.90265 -0.45,-1.44475 0.0598,-0.54208 0.30728,-1.00047 0.73421,-1.35001 l 1.96581,-1.58686 c 0.29588,-0.24223 0.45829,-0.55909 0.49737,-0.94737 0.0391,-0.38826 -0.0661,-0.72291 -0.3079,-1.01843 -0.25077,-0.30651 -0.56368,-0.48809 -0.94737,-0.52106 -0.38369,-0.033 -0.72255,0.0657 -1.01843,0.3079 -1.008,0.82524 -2.16394,1.17034 -3.45792,1.04211 -1.29397,-0.12821 -2.35023,-0.67501 -3.17371,-1.68159 -0.82346,-1.00655 -1.17238,-2.16368 -1.04212,-3.45792 0.13029,-1.29421 0.69729,-2.34845 1.70528,-3.17371 l 1.42107,-1.18422 c 0.32046,-0.26233 0.67779,-0.41492 1.06579,-0.45 z m 105.32452,0.0947 c 0.10206,-0.01 0.20156,-0.005 0.30789,0 0.42529,0.0209 0.80453,0.16286 1.13685,0.42632 0.32147,0.2549 0.54587,0.58554 0.66317,0.99475 0.11726,0.40922 0.11166,0.8096 -0.0237,1.2079 l -4.33424,12.19747 c -0.24044,0.71258 -0.73979,1.13376 -1.46844,1.27895 -0.70865,0.14286 -1.31309,-0.0599 -1.84738,-0.59211 l -2.70002,-2.86581 c -0.37711,-0.38885 -0.56729,-0.86962 -0.54474,-1.42106 0.0225,-0.55145 0.226,-0.99623 0.61579,-1.3737 0.4006,-0.36889 0.8945,-0.55641 1.44475,-0.54474 0.55024,0.0117 1.00544,0.21578 1.3737,0.6158 l 0.47368,0.52105 1.30264,-3.64739 -5.99215,3.83687 c -0.46949,0.29607 -0.96036,0.37499 -1.49211,0.26053 -0.53176,-0.11446 -0.95075,-0.39451 -1.25528,-0.85264 -0.29531,-0.46904 -0.3995,-0.98385 -0.28421,-1.5158 0.1153,-0.53195 0.40683,-0.93551 0.87632,-1.23159 l 10.87114,-6.9869 c 0.26785,-0.16685 0.57012,-0.27797 0.87632,-0.3079 z M 408.47836,480.40802 c 0.10748,-0.008 0.22164,-0.005 0.33158,0 0.14659,0.006 0.29838,0.0182 0.45,0.0474 0.60646,0.11688 1.07128,0.41419 1.39738,0.85264 0.32607,0.43844 0.41098,0.90111 0.26053,1.39738 -0.15047,0.49628 -0.49257,0.87863 -1.01843,1.13685 l -3.38687,1.65791 1.27896,1.72896 3.38687,-1.6816 c 0.52586,-0.25821 1.0947,-0.31182 1.70528,-0.18947 0.61053,0.12236 1.07957,0.37797 1.39738,0.80527 0.3262,0.43862 0.41096,0.92479 0.26052,1.42106 -0.15049,0.49627 -0.49257,0.85495 -1.01843,1.11317 l -11.96062,5.87373 c -0.53981,0.26505 -1.09459,0.33569 -1.70527,0.21316 -0.61069,-0.12254 -1.09486,-0.39034 -1.42107,-0.82895 -0.31779,-0.42731 -0.38743,-0.90129 -0.23684,-1.39738 0.15058,-0.49611 0.47861,-0.87179 1.01843,-1.13685 l 4.68951,-2.29739 -1.27896,-1.70528 -4.68951,2.29739 c -0.53981,0.26507 -1.11828,0.33568 -1.72896,0.21316 -0.61069,-0.12254 -1.07128,-0.4142 -1.39738,-0.85264 -0.32608,-0.43845 -0.41521,-0.90678 -0.26053,-1.39738 0.15468,-0.49061 0.5023,-0.87179 1.04212,-1.13685 l 11.96062,-5.87373 c 0.29579,-0.14525 0.60124,-0.23508 0.92369,-0.26053 z m 114.22984,0.23684 c 0.44214,-0.0202 0.86108,0.0666 1.25528,0.26053 0.53954,0.26545 0.89196,0.66408 1.04211,1.16054 0.15016,0.49649 0.0577,0.94663 -0.26053,1.37369 l -2.06054,2.79476 1.44475,0.71053 1.65791,-2.22633 c 0.32668,-0.43838 0.79346,-0.72737 1.39737,-0.85264 0.60394,-0.12525 1.16575,-0.0523 1.70528,0.21316 0.53954,0.26545 0.89204,0.64066 1.04211,1.13685 0.15008,0.49622 0.0662,0.959 -0.26052,1.39738 l -1.65791,2.22634 2.7237,1.35001 2.29739,-3.07897 c 0.31824,-0.42707 0.79344,-0.70369 1.39738,-0.82896 0.60393,-0.12525 1.16574,-0.0523 1.70528,0.21316 0.53953,0.26545 0.89203,0.64066 1.04211,1.13685 0.15006,0.49621 0.0577,0.97031 -0.26053,1.39738 l -3.4816,4.66583 c -0.32668,0.43839 -0.7867,0.70701 -1.39738,0.82895 -0.61068,0.12194 -1.18942,0.0523 -1.72897,-0.21316 l -11.96062,-5.87373 c -0.52558,-0.25857 -0.84466,-0.64064 -0.99474,-1.13685 -0.15006,-0.4962 -0.0662,-0.95897 0.26053,-1.39738 l 3.24476,-4.35793 c 0.31825,-0.42706 0.78657,-0.70682 1.39738,-0.82895 0.1527,-0.0306 0.30262,-0.0643 0.45,-0.071 z m -4.90267,9.09481 c 0.85352,-6.4e-4 1.68324,0.093 2.53423,0.28422 0.60905,0.12993 1.08945,0.41141 1.39738,0.85263 0.30793,0.44128 0.37304,0.90253 0.21316,1.39738 -0.17083,0.5047 -0.52291,0.88681 -1.06579,1.13685 -0.5429,0.25009 -1.13088,0.30498 -1.72897,0.1658 -0.91937,-0.18995 -1.81896,-0.19566 -2.7237,0 -0.90475,0.19567 -1.69471,0.58774 -2.34476,1.13685 -0.98669,0.83353 -1.45448,1.82778 -1.42106,2.98423 0.0334,1.15647 0.54946,2.12091 1.56317,2.91318 1.02582,0.80174 2.25347,1.18293 3.67108,1.16054 1.41762,-0.0224 2.61333,-0.44544 3.60003,-1.27896 0.65004,-0.54911 1.08584,-1.19988 1.30264,-1.94212 0.21679,-0.74221 0.18554,-1.4728 -0.0947,-2.20265 -0.18344,-0.48944 -0.12081,-0.94672 0.16579,-1.39738 0.2866,-0.45063 0.71165,-0.76573 1.30265,-0.92369 0.60236,-0.14903 1.19802,-0.11444 1.75264,0.11842 0.5546,0.2329 0.90603,0.60005 1.08948,1.08948 0.54775,1.37623 0.63807,2.76805 0.23685,4.16846 -0.40124,1.40042 -1.23017,2.62948 -2.46318,3.67108 -1.84989,1.56269 -4.09848,2.35002 -6.77374,2.39212 -2.67526,0.0421 -4.98088,-0.69036 -6.91584,-2.20265 -1.92285,-1.50281 -2.90838,-3.3447 -2.96055,-5.51846 -0.0521,-2.17374 0.82646,-4.02682 2.67634,-5.58952 1.22208,-1.03233 2.6932,-1.74677 4.40529,-2.13159 0.85605,-0.1924 1.72809,-0.28357 2.5816,-0.28422 z m -99.8771,1.39738 c 0.22987,-0.017 0.47251,0.006 0.71053,0.0474 0.47604,0.0827 0.85716,0.2536 1.18422,0.54474 0.31641,0.28167 0.51047,0.62571 0.56843,1.01843 0.058,0.39272 -0.0113,0.76813 -0.23684,1.11317 l -7.10532,10.51587 c -0.40078,0.61757 -1.02256,0.94658 -1.87107,0.97106 -0.82551,0.0253 -1.50708,-0.26123 -2.01317,-0.82895 l -2.51055,-3.03161 c -0.3548,-0.41282 -0.48093,-0.87139 -0.35527,-1.37369 0.12566,-0.5023 0.439,-0.89623 0.94738,-1.18422 0.51903,-0.27853 1.08656,-0.37697 1.70528,-0.28421 0.6187,0.0928 1.10195,0.35984 1.44474,0.78158 l 0.45001,0.54474 2.13159,-3.15002 -7.46058,2.62897 c -0.58353,0.20147 -1.1498,0.20793 -1.72896,0.0236 -0.57917,-0.18425 -0.99495,-0.52922 -1.25528,-0.99474 -0.24797,-0.47414 -0.2741,-0.92679 -0.0474,-1.39738 0.22676,-0.4706 0.64806,-0.81695 1.23158,-1.01843 l 13.52379,-4.78425 c 0.22169,-0.0753 0.45699,-0.12508 0.68685,-0.14211 z m 8.26586,6.93953 c 1.89226,1.2e-4 3.65061,0.45891 5.3053,1.3737 1.45748,0.80578 2.56177,1.86681 3.31582,3.17371 0.75401,1.3069 1.05442,2.66997 0.87632,4.0974 -0.0555,0.50965 -0.32158,0.93459 -0.80527,1.25527 -0.48374,0.32067 -1.05439,0.44771 -1.68159,0.40263 -0.641,-0.0522 -1.14506,-0.27023 -1.53949,-0.66316 -0.39448,-0.39293 -0.56592,-0.84758 -0.49737,-1.35001 0.0763,-0.76831 -0.0846,-1.48705 -0.47369,-2.17896 -0.38914,-0.69192 -0.95372,-1.25298 -1.72896,-1.6816 -1.17678,-0.65057 -2.46307,-0.86019 -3.86056,-0.63948 -1.3975,0.22074 -2.5009,0.78408 -3.29213,1.72897 -0.80067,0.95617 -1.0702,2.01822 -0.80527,3.15002 0.26492,1.1318 0.97851,2.02575 2.15528,2.67634 0.77526,0.4286 1.64471,0.66134 2.5816,0.71053 0.93687,0.0492 1.81415,-0.10308 2.65266,-0.45 0.56305,-0.22904 1.13411,-0.27242 1.72896,-0.11843 0.5948,0.15399 1.05924,0.4531 1.35001,0.90001 0.28184,0.45752 0.30792,0.93774 0.11842,1.42106 -0.18954,0.48332 -0.55012,0.83677 -1.11317,1.0658 -1.57787,0.66958 -3.25471,0.96285 -5.02109,0.87632 -1.76639,-0.0865 -3.38477,-0.53701 -4.8553,-1.35001 -2.20624,-1.21972 -3.55026,-2.90887 -4.05003,-5.04477 -0.49978,-2.1359 0.005,-4.09382 1.5158,-5.89742 1.50083,-1.79231 3.55301,-2.88575 6.18163,-3.29213 0.65714,-0.10159 1.31136,-0.16583 1.94212,-0.16579 z m 74.27427,1.84738 c 0.11629,-0.01 0.23371,-0.005 0.35526,0 0.48621,0.0194 0.92173,0.16448 1.30264,0.40264 l 11.58167,7.4369 c 0.68211,0.42456 0.96517,0.97411 0.85264,1.65791 -0.10765,0.66552 -0.55268,1.15818 -1.32633,1.46843 l -4.0974,1.5158 c -0.56033,0.21502 -1.14058,0.23224 -1.72896,0.0474 -0.58838,-0.18485 -1.01474,-0.51555 -1.27895,-0.97106 -0.25094,-0.46244 -0.26366,-0.9173 -0.0474,-1.39738 0.21624,-0.48005 0.61507,-0.83822 1.18422,-1.04211 l 0.73421,-0.26053 -3.4816,-2.25002 1.94212,6.41847 c 0.14665,0.5012 0.0602,0.98802 -0.26053,1.42107 -0.32064,0.43305 -0.78894,0.69844 -1.39738,0.82895 -0.61683,0.11916 -1.19599,0.0474 -1.72896,-0.21316 -0.53296,-0.26052 -0.87179,-0.63564 -1.01843,-1.13685 L 498.5264,502.1977 c -0.10858,-0.38043 -0.0854,-0.74567 0.0947,-1.11317 0.18007,-0.36747 0.46826,-0.66313 0.87632,-0.87632 0.29609,-0.15468 0.62219,-0.25535 0.97107,-0.28422 z m -61.22417,3.76582 c 0.29085,-0.005 0.58228,0.0258 0.87632,0.11842 0.57289,0.18047 0.97747,0.50353 1.23159,0.97107 0.2541,0.46755 0.26943,0.93189 0.0474,1.39737 l -1.11317,2.36844 4.38162,-2.43949 c 0.51887,-0.28771 1.09143,-0.40253 1.70527,-0.3079 0.61383,0.0947 1.09086,0.36004 1.44475,0.78159 0.35385,0.42155 0.47181,0.87475 0.35527,1.37369 -0.11659,0.49897 -0.42867,0.89689 -0.94738,1.18422 l -4.95004,2.77108 1.27896,6.11057 c 0.10856,0.49913 -0.0139,0.97676 -0.37895,1.39738 -0.36529,0.42061 -0.8596,0.65847 -1.46843,0.73422 -0.62965,0.0838 -1.19555,-0.0133 -1.70528,-0.3079 -0.50976,-0.29453 -0.81467,-0.70864 -0.92369,-1.2079 l -1.11317,-5.25794 -1.61054,3.38687 c -0.22797,0.47785 -0.63236,0.83589 -1.2079,1.04211 -0.57557,0.20621 -1.15607,0.20414 -1.72896,0.0236 -0.5881,-0.18523 -1.00139,-0.50359 -1.25528,-0.97106 -0.25388,-0.46747 -0.27533,-0.94322 -0.0474,-1.42106 l 5.06846,-10.58689 c 0.22208,-0.46549 0.60889,-0.78845 1.18422,-0.99475 0.28766,-0.10313 0.58547,-0.16052 0.87632,-0.16579 z m 51.77409,0.68685 c 0.7938,0.0114 1.57851,0.14904 2.36844,0.42632 1.57985,0.55459 2.68912,1.47461 3.31582,2.77107 0.62668,1.29651 0.59875,2.60431 -0.0947,3.88425 -0.69308,1.27996 -1.83887,2.1672 -3.43424,2.67633 l -1.16053,0.35527 1.39737,2.88949 c 0.23058,0.47702 0.22763,0.9526 -0.0236,1.42107 -0.25156,0.46846 -0.65969,0.78855 -1.23159,0.97106 -0.58706,0.18735 -1.17621,0.18063 -1.75265,-0.0236 -0.57645,-0.20421 -0.97732,-0.5414 -1.2079,-1.01843 l -5.09215,-10.56324 c -0.23056,-0.477 -0.22774,-0.92897 0.0237,-1.39738 0.25133,-0.46837 0.6682,-0.80737 1.25527,-0.99474 l 3.24477,-1.04212 c 0.79768,-0.25456 1.59832,-0.36662 2.39212,-0.35526 z m -40.16874,2.48686 c 0.14868,-4.2e-4 0.31869,0.0239 0.47369,0.0474 l 6.15795,0.92369 c 0.60398,0.0916 1.08897,0.36008 1.44474,0.78159 0.35573,0.42153 0.4917,0.88293 0.37895,1.37369 -0.11576,0.5038 -0.45207,0.8952 -0.97106,1.18422 -0.51901,0.28904 -1.0776,0.37585 -1.68159,0.28422 l -3.93161,-0.59211 -0.3079,1.35001 3.15003,0.49737 c 0.62,0.0941 1.11146,0.34274 1.46843,0.7579 0.35695,0.41518 0.47101,0.86992 0.35527,1.37369 -0.11576,0.5038 -0.42867,0.89536 -0.94738,1.18422 -0.51872,0.28888 -1.08527,0.40196 -1.70528,0.3079 l -3.15002,-0.49737 -0.59211,2.55791 4.35793,0.66317 c 0.604,0.0916 1.08777,0.34272 1.44475,0.7579 0.35694,0.41516 0.471,0.89359 0.35526,1.39738 -0.11575,0.50378 -0.42866,0.89535 -0.94737,1.18422 -0.51872,0.28886 -1.0776,0.37583 -1.68159,0.28421 l -6.60795,-0.99475 c -0.62002,-0.094 -1.11293,-0.3601 -1.46843,-0.78158 -0.35552,-0.42148 -0.47102,-0.86991 -0.35527,-1.3737 l 2.55792,-11.15535 c 0.11274,-0.49076 0.42866,-0.89533 0.94737,-1.18422 0.38903,-0.21664 0.80926,-0.33031 1.25527,-0.33158 z m 28.75286,0.16579 c 0.44602,6.1e-4 0.86579,0.11529 1.25527,0.33158 0.5193,0.28819 0.83352,0.66954 0.94738,1.16054 0.11677,0.50364 -7.4e-4,0.97543 -0.35527,1.39738 -0.35466,0.42197 -0.82492,0.6867 -1.44474,0.78158 l -2.08423,0.3079 c -0.22263,0.0341 -0.40784,0.12963 -0.54474,0.28421 -0.13692,0.15462 -0.18707,0.32719 -0.14211,0.52106 0.0419,0.1805 0.18063,0.3398 0.37895,0.45 0.19831,0.11024 0.39319,0.12883 0.6158,0.0947 1.65285,-0.25302 3.18936,0.0311 4.59477,0.80527 1.4054,0.7742 2.26716,1.81771 2.5816,3.17371 0.3114,1.34302 -0.0103,2.59896 -0.97106,3.74214 -0.96083,1.14318 -2.27877,1.83119 -3.93161,2.08422 l -2.84213,0.45001 c -0.61933,0.0948 -1.18572,-0.0194 -1.70528,-0.3079 -0.51954,-0.28812 -0.83059,-0.6806 -0.94737,-1.18422 -0.11678,-0.50363 -7.6e-4,-0.95821 0.35526,-1.3737 0.35641,-0.41549 0.8491,-0.66308 1.46844,-0.7579 l 2.84212,-0.45 c 0.42922,-0.0657 0.76692,-0.24548 1.01843,-0.54474 0.25152,-0.29926 0.3414,-0.62229 0.26053,-0.97106 -0.0839,-0.36176 -0.32006,-0.63108 -0.68685,-0.82896 -0.36679,-0.19786 -0.755,-0.27886 -1.18422,-0.21316 -1.46224,0.22387 -2.82236,-0.005 -4.05003,-0.68684 -1.22766,-0.68123 -1.97456,-1.60681 -2.25001,-2.79476 -0.27546,-1.18793 0.0142,-2.27091 0.85263,-3.26845 0.8384,-0.99751 1.97199,-1.62351 3.43424,-1.84738 l 2.08423,-0.3079 c 0.15495,-0.0237 0.30133,-0.0476 0.45,-0.0474 z m 11.34483,1.04212 c -0.21656,-0.003 -0.44497,0.025 -0.66317,0.0947 l -1.13685,0.37895 1.20791,2.53423 1.16053,-0.37895 c 0.43639,-0.13925 0.75993,-0.38486 0.94738,-0.73421 0.18745,-0.34933 0.18957,-0.69964 0.0237,-1.04212 -0.16555,-0.34245 -0.47016,-0.58208 -0.90001,-0.73421 -0.21489,-0.0761 -0.42288,-0.11524 -0.63944,-0.11842 z m -28.68181,0.16579 1.77633,0 c 1.66563,7.5e-4 3.08352,0.50193 4.26319,1.46843 1.17966,0.96652 1.77751,2.12822 1.77633,3.48161 -3.2e-4,0.38096 -0.0599,0.78494 -0.18947,1.23158 1.42196,0.98651 2.13295,2.27335 2.13159,3.83688 l -0.0236,3.17371 c -4.9e-4,0.51248 -0.21819,0.96527 -0.66317,1.32632 -0.44499,0.36106 -0.97243,0.5451 -1.58685,0.54474 -0.63073,-3.2e-4 -1.16619,-0.18317 -1.61054,-0.54474 -0.44435,-0.36156 -0.66362,-0.81383 -0.66316,-1.32632 l 0,-3.1974 c 5e-4,-0.31519 -0.11341,-0.59222 -0.33158,-0.82895 -0.21819,-0.23672 -0.49691,-0.38164 -0.85264,-0.47369 -0.79245,-0.18451 -1.32142,-0.61111 -1.56317,-1.25527 -0.22596,-0.65698 -0.0602,-1.23001 0.47369,-1.72896 0.22669,-0.19716 0.3313,-0.46639 0.33158,-0.78159 -1e-5,-0.26305 -0.0747,-0.4766 -0.26053,-0.68685 -0.18588,-0.21022 -0.44362,-0.38127 -0.73422,-0.47368 l 0,9.42639 c -4.1e-4,0.51249 -0.21793,0.94158 -0.66316,1.30264 -0.44523,0.36105 -0.98006,0.5451 -1.61054,0.54474 -0.63048,-4e-4 -1.17409,-0.18319 -1.61054,-0.54474 -0.43646,-0.36157 -0.66361,-0.79015 -0.66316,-1.30264 l 0.0237,-11.34483 c 4e-4,-0.51247 0.22607,-0.94838 0.66316,-1.30264 0.46915,-0.3546 0.9887,-0.54508 1.58685,-0.54474 z"
         style="fill:#ffffff;fill-opacity:1;stroke:none" />
      <g
         transform="matrix(1.331307,0,0,1.331307,-154.48253,-144.39542)"
         id="g4687">
        <path
           style="fill:#ffffff;fill-opacity:1;stroke:none;display:inline"
           d="m 428.72314,399.52449 c -0.0193,-0.002 -0.0199,0.0111 -0.0237,0.0237 -0.0595,0.20069 1.86259,2.35082 5.42373,6.46584 l 2.08422,2.20265 -1.08948,1.65791 c 1.37826,1.62899 2.61024,3.18847 4.87899,5.04477 l 1.2079,-0.59211 10.65798,10.84746 0.81542,0.98459 c -0.24996,-1.34361 -0.11089,-2.72077 0.65639,-4.08387 l -0.5718,-0.59549 -9.35534,-9.59218 0.45,-1.11317 c -2.1551,-2.9615 -3.5421,-3.97234 -4.90267,-4.97372 l -1.44475,1.01843 -2.2737,-1.98949 c -4.15351,-3.51708 -6.22294,-5.26601 -6.51321,-5.30531 z m 53.18397,47.09228 c -0.14502,0.83146 -0.32118,1.64215 -0.59211,2.36843 -1.01599,3.32452 -1.53534,5.85999 -2.01317,8.00533 0.26834,0.29933 0.53569,0.60053 0.80527,0.90001 2.05373,2.27656 3.6242,4.13974 6.05744,5.94189 1.76931,0.56089 3.60117,0.73561 5.023,0.23686 l 5.11968,4.95292 c 2.42346,2.15004 4.81001,2.56483 7.50218,2.2689 0.14239,-0.49288 0.20195,-0.79967 0.37799,-1.27703 -2.60335,-0.36767 -5.10843,-1.56068 -6.50647,-2.98136 l -5.09791,-4.80985 c 0.19116,-1.50859 0.80674,-2.33404 0.1213,-4.40241 -2.53658,-4.69747 -6.06911,-7.02363 -9.96824,-10.46947 -0.003,0.0151 0.003,0.0323 0,0.0474 -0.27948,-0.24679 -0.55235,-0.51989 -0.82896,-0.78159 z"
           id="path3041-0-7-1-8-1-2-6"
           inkscape:connector-curvature="0"
           sodipodi:nodetypes="ccccccccccccccccccccccccccccccccc" />
        <path
           style="fill:#ffffff;fill-opacity:0.99607843;stroke:none"
           d="m 496.83995,397.59837 c -6.10259,-0.13417 -14.43383,3.58783 -14.33675,12.0384 0.11578,0.85955 0.26635,1.69678 0.7579,2.36844 l -6.56058,6.5369 c -0.005,0.14861 -0.15362,0.11142 -0.16719,0.2586 1.20296,2.46325 1.00938,2.94538 0.99038,4.84881 0.28908,0.84459 0.73486,2.72889 0.46549,4.04027 -0.15137,0.73692 0.3988,1.10116 0.41488,1.46506 l 11.03861,-11.18121 c 0.80967,0.51585 1.5595,0.83781 2.2737,0.87633 8.6898,-1.08373 11.95602,-9.19055 11.92095,-15.25949 l -6.79839,6.5833 -6.1797,-6.1797 6.37207,-6.39575 z m -48.37123,49.03343 -6.41078,6.45911 c -1.05825,-0.69876 -2.13687,-0.50796 -2.84789,-0.68588 -8.6898,1.08373 -11.38182,9.09484 -11.34675,15.16378 l 6.679,-6.679 6.39478,6.3711 -6.30005,6.30005 c 6.10261,0.13416 14.17044,-3.01362 14.07335,-11.46421 -0.11202,-0.63007 0.12592,-1.62802 -0.25765,-2.3486 l 3.00023,-3.33469 c -0.67885,-2.48641 -1.36985,-5.05578 -2.32107,-7.48427 -10e-5,-0.008 -10e-5,-0.0158 0,-0.0237 -0.17895,-0.53004 -0.40543,-1.36774 -0.66317,-2.2737 z"
           id="path3043-5-0-4-2-3-3-1"
           inkscape:connector-curvature="0"
           sodipodi:nodetypes="ccccccscccccccccccccccccccccc" />
        <path
           style="fill:#ffffff;fill-opacity:0.99607843;fill-rule:nonzero;stroke:none;display:inline"
           d="m 466.80433,397.83669 c -0.3332,0.0506 -0.84701,0.30643 -1.47593,0.30948 -0.3476,-0.0405 -0.64476,0.0118 -0.9046,0.14283 -0.64873,-0.004 -1.0712,0.22546 -1.35694,0.57132 l 0,-0.21424 c -0.25184,-0.1389 -0.35918,0.2811 -0.4285,0.85699 -0.22419,0.16853 -0.39208,0.4581 -0.49988,0.80937 -0.86803,0.58161 -1.68601,1.3928 -2.26153,3.54699 -1.04005,0.38253 -1.69395,1.71243 -1.7616,4.54682 -1.4431,1.71465 -0.96798,2.62837 -0.97598,3.73743 -1.43304,1.25444 -1.8607,2.80453 -1.42832,4.64204 -1.07927,0.85364 -1.4712,2.52858 -1.28548,4.9039 -1.43464,1.80438 -1.35215,3.58627 -0.95222,5.35619 -1.71535,2.46533 -0.91763,3.7861 -0.59517,5.33239 -1.27223,1.20774 -0.79277,3.12745 0.0952,5.21335 -0.38614,0.37824 -0.61817,0.86498 -0.71415,1.47594 -5.19604,-6.59393 -7.9771,-4.79417 -9.66496,-0.90461 4.3913,-2.56563 6.23722,7.12346 6.99876,9.3793 3.12501,7.9782 3.58954,17.2451 8.59376,19.3061 0.96577,0.36801 1.55127,1.54109 4.523,1.88062 0.11328,0.0459 0.24575,0.0544 0.38089,0.0238 0.33083,0.0286 0.65863,0.0644 1.04743,0.0714 l -0.0472,3.5946 2.54713,0.0714 -0.0716,-3.95168 c 2.45892,-0.21578 5.60243,-0.19307 6.80831,-2.2139 5.5073,-5.12573 4.33067,-8.40508 7.18921,-17.75876 1.68138,-4.50739 -0.27759,-11.44299 9.21269,-15.80672 -4.27916,0.88477 -7.89498,1.25232 -11.37893,4.16592 0.0731,-0.48605 0.0677,-1.09487 -0.0952,-1.97583 -0.0343,-0.45262 -0.13248,-1.02273 -0.30952,-1.71399 0.23311,-0.97065 0.18611,-1.79605 0,-2.54716 -0.0834,-0.95391 -0.44159,-1.77733 -0.78553,-2.59478 0.2139,-1.13537 0.15754,-1.87942 0,-2.49956 -0.0556,-0.77672 -0.27302,-1.32271 -0.45234,-1.92823 0.1944,-0.60072 0.18801,-1.22705 0.0236,-1.88062 -0.0365,-1.11099 -0.63402,-2.29696 -1.45209,-3.52319 0.10619,-0.6327 0.10558,-1.25323 -0.0716,-1.88061 -0.0411,-0.83247 -0.34165,-1.65579 -1.04743,-2.47575 0.1803,-0.49451 0.16561,-0.98794 0,-1.47593 0.038,-0.92608 -0.5548,-1.85204 -1.40456,-2.76142 0.016,-0.54754 -0.0632,-0.96921 -0.16659,-1.30929 -0.0731,-1.31189 -0.60325,-1.77883 -1.07128,-2.40434 -0.0205,-0.14472 -0.0412,-0.28601 -0.0716,-0.4285 -0.10132,-1.23907 -0.50506,-2.41646 -1.64253,-3.42796 -0.0518,-0.58875 -0.17818,-1.16361 -0.57133,-1.66637 -0.11876,-0.33165 -0.33381,-0.65525 -0.66655,-0.95221 0.01,-0.44517 -0.0811,-0.36812 -0.26189,-0.19045 -0.29923,-0.21548 -0.65185,-0.4107 -1.14266,-0.59513 0.0967,-0.75016 -0.0716,-0.90763 -0.40465,-0.85699 z m -0.66655,0.23806 c 0.12081,0.0148 0.23128,0.11097 0.30943,0.26185 -0.14824,-0.0244 -0.30875,-0.043 -0.47611,-0.0476 l 0,-0.19045 c 0.0647,-0.0279 0.11244,-0.0305 0.16668,-0.0238 z"
           id="rect3960-0-4-3-3"
           inkscape:connector-curvature="0"
           sodipodi:nodetypes="ccccccccccccccccccccccccccccccccccccccccccccccccccccccccc"
           inkscape:export-filename="c:\Users\aporto\Desktop\carimbo.png"
           inkscape:export-xdpi="92.870003"
           inkscape:export-ydpi="92.870003" />
      </g>
      <path
         inkscape:connector-curvature="0"
         id="path16829-4-5-1-8"
         d="m 461.70101,334.39335 -2.71875,9.375 0,0.125 c 2.37548,-0.18481 4.76459,-0.28125 7.1875,-0.28125 2.42291,0 4.84327,0.0964 7.21875,0.28125 l 0,-0.125 -2.71875,-9.375 -8.96875,0 z m -22.375,3.5625 -8.53125,2.78125 0.3125,9.71875 0.0312,0.0937 c 4.39779,-1.82347 8.97528,-3.31135 13.6875,-4.4375 l -0.0312,-0.0937 -5.46875,-8.0625 z m 53.71875,0 -5.46875,8.0625 -0.0312,0.0937 c 4.71223,1.12615 9.28971,2.61403 13.6875,4.4375 l 0.0312,-0.0937 0.3125,-9.71875 -8.53125,-2.78125 z m -82.46875,13.0625 -7.25,5.28125 3.3125,9.15625 0.0625,0.125 c 3.64966,-3.12203 7.5746,-5.97594 11.6875,-8.5 l -0.0937,-0.0937 -7.71875,-5.96875 z m 111.21875,0 -7.71875,5.96875 -0.0937,0.0937 c 4.1129,2.52406 8.03784,5.37797 11.6875,8.5 l 0.0625,-0.125 3.3125,-9.15625 -7.25,-5.28125 z m -134.5,21.28125 -5.25,7.28125 5.96875,7.6875 0.0937,0.0937 c 2.52984,-4.12232 5.36954,-8.03063 8.5,-11.6875 l -0.125,-0.0625 -9.1875,-3.3125 z m 157.78125,0 -9.1875,3.3125 -0.125,0.0625 c 3.13046,3.65687 5.97016,7.56518 8.5,11.6875 l 0.0937,-0.0937 5.96875,-7.6875 -5.25,-7.28125 z m -173.34375,27.46875 -2.75,8.53125 8.0625,5.46875 0.0937,0.0312 c 1.1259,-4.70898 2.61523,-9.29257 4.4375,-13.6875 l -0.0937,-0.0312 -9.75,-0.3125 z m 188.90625,0 -9.75,0.3125 -0.0937,0.0312 c 1.82228,4.39493 3.3116,8.97852 4.4375,13.6875 l 0.0937,-0.0312 8.0625,-5.46875 -2.75,-8.53125 z m -185.84375,28.1875 -9.375,2.71875 0,8.96875 9.375,2.71875 0.125,0 c -0.1848,-2.37548 -0.28125,-4.76459 -0.28125,-7.1875 0,-2.42291 0.0965,-4.84327 0.28125,-7.21875 l -0.125,0 z m 182.65625,0 c 0.1848,2.37548 0.28125,4.79584 0.28125,7.21875 0,2.42291 -0.0965,4.81202 -0.28125,7.1875 l 0.125,0 9.375,-2.71875 0,-8.96875 -9.375,-2.71875 -0.125,0 z m -180.3125,28.59375 -0.0937,0.0312 -8.0625,5.46875 2.75,8.5 9.75,-0.3125 0.0937,-0.0312 c -1.81967,-4.38863 -3.31217,-8.95442 -4.4375,-13.65625 z m 178.09375,0 c -1.12532,4.70183 -2.61783,9.26762 -4.4375,13.65625 l 0.0937,0.0312 9.75,0.3125 2.75,-8.5 -8.0625,-5.46875 -0.0937,-0.0312 z m -167.125,26.4375 -0.0937,0.0937 -5.96875,7.6875 5.25,7.25 9.1875,-3.3125 0.0937,-0.0625 c -3.1207,-3.64853 -5.94559,-7.54483 -8.46875,-11.65625 z m 156.15625,0 c -2.52315,4.11142 -5.34804,8.00772 -8.46875,11.65625 l 0.0937,0.0625 9.1875,3.3125 5.25,-7.25 -5.96875,-7.6875 -0.0937,-0.0937 z m -137.53125,21.78125 -0.0937,0.125 -3.3125,9.15625 7.25,5.25 7.71875,-5.96875 0.0937,-0.0937 c -4.10457,-2.51895 -8.01298,-5.35419 -11.65625,-8.46875 z m 118.90625,0 c -3.64327,3.11456 -7.55168,5.9498 -11.65625,8.46875 l 0.0937,0.0937 7.71875,5.96875 7.25,-5.25 -3.3125,-9.15625 -0.0937,-0.125 z m -94.5,15 -0.0312,0.0937 -0.3125,9.75 8.53125,2.75 5.46875,-8.0625 0.0312,-0.0937 c -4.71223,-1.12616 -9.28971,-2.61403 -13.6875,-4.4375 z m 70.09375,0 c -4.39779,1.82347 -8.97527,3.31134 -13.6875,4.4375 l 0.0312,0.0937 5.46875,8.0625 8.53125,-2.75 -0.3125,-9.75 -0.0312,-0.0937 z m -42.25,6.65625 0,0.15625 2.71875,9.34375 8.96875,0 2.71875,-9.34375 0,-0.15625 c -2.37548,0.1848 -4.79584,0.28125 -7.21875,0.28125 -2.42291,0 -4.81202,-0.0965 -7.1875,-0.28125 z"
         style="fill:#ffffff;fill-opacity:1;stroke:#ffffff;stroke-width:1.45681465;stroke-miterlimit:4;stroke-opacity:0.99578091;stroke-dasharray:none" />
    </g>
    <rect
       style="fill:none;stroke:#000000;stroke-width:1.14799035;stroke-linecap:round;stroke-linejoin:round;stroke-miterlimit:4;stroke-opacity:1;stroke-dasharray:none;stroke-dashoffset:14.5"
       id="rect4717"
       width="710"
       height="388.1431"
       x="24.285715"
       y="5.2193322"
       ry="26.349138"
       inkscape:export-filename="C:\Users\aporto\Desktop\logos_texto.png"
       inkscape:export-xdpi="151.91"
       inkscape:export-ydpi="151.91" />
  </g>
</svg>
